G04 #@! TF.GenerationSoftware,KiCad,Pcbnew,5.1.5*
G04 #@! TF.CreationDate,2020-02-06T11:23:30+09:00*
G04 #@! TF.ProjectId,MIDI-Guy_menduke,4d494449-2d47-4757-995f-6d656e64756b,rev?*
G04 #@! TF.SameCoordinates,Original*
G04 #@! TF.FileFunction,Profile,NP*
%FSLAX46Y46*%
G04 Gerber Fmt 4.6, Leading zero omitted, Abs format (unit mm)*
G04 Created by KiCad (PCBNEW 5.1.5) date 2020-02-06 11:23:30*
%MOMM*%
%LPD*%
G04 APERTURE LIST*
%ADD10C,0.050000*%
G04 APERTURE END LIST*
D10*
X115500000Y-87000000D02*
X154500000Y-87000000D01*
X71500000Y-87000000D02*
X110500000Y-87000000D01*
X115500000Y-52000000D02*
X154500000Y-52000000D01*
X113000000Y-89500000D02*
G75*
G02X115500000Y-87000000I2500000J0D01*
G01*
X69000000Y-89500000D02*
G75*
G02X71500000Y-87000000I2500000J0D01*
G01*
X113000000Y-54500000D02*
G75*
G02X115500000Y-52000000I2500000J0D01*
G01*
X157000000Y-89500000D02*
X157000000Y-119500000D01*
X113000000Y-89500000D02*
X113000000Y-119500000D01*
X157000000Y-54500000D02*
X157000000Y-84500000D01*
X154500000Y-87000000D02*
G75*
G02X157000000Y-89500000I0J-2500000D01*
G01*
X110500000Y-87000000D02*
G75*
G02X113000000Y-89500000I0J-2500000D01*
G01*
X154500000Y-52000000D02*
G75*
G02X157000000Y-54500000I0J-2500000D01*
G01*
X157000000Y-119500000D02*
G75*
G02X154500000Y-122000000I-2500000J0D01*
G01*
X113000000Y-119500000D02*
G75*
G02X110500000Y-122000000I-2500000J0D01*
G01*
X157000000Y-84500000D02*
G75*
G02X154500000Y-87000000I-2500000J0D01*
G01*
X115500000Y-122000000D02*
G75*
G02X113000000Y-119500000I0J2500000D01*
G01*
X71500000Y-122000000D02*
G75*
G02X69000000Y-119500000I0J2500000D01*
G01*
X115500000Y-87000000D02*
G75*
G02X113000000Y-84500000I0J2500000D01*
G01*
X113000000Y-119500000D02*
X113000000Y-89500000D01*
X69000000Y-119500000D02*
X69000000Y-89500000D01*
X113000000Y-84500000D02*
X113000000Y-54500000D01*
X154500000Y-122000000D02*
X115500000Y-122000000D01*
X110500000Y-122000000D02*
X71500000Y-122000000D01*
X154500000Y-87000000D02*
X115500000Y-87000000D01*
X69000000Y-84500000D02*
X69000000Y-54500000D01*
X71500000Y-87000000D02*
G75*
G02X69000000Y-84500000I0J2500000D01*
G01*
X110500000Y-87000000D02*
X71500000Y-87000000D01*
X113000000Y-54500000D02*
X113000000Y-84500000D01*
X71500000Y-52000000D02*
X110500000Y-52000000D01*
X69000000Y-54500000D02*
G75*
G02X71500000Y-52000000I2500000J0D01*
G01*
X113000000Y-84500000D02*
G75*
G02X110500000Y-87000000I-2500000J0D01*
G01*
X110500000Y-52000000D02*
G75*
G02X113000000Y-54500000I0J-2500000D01*
G01*
M02*
