G04 #@! TF.GenerationSoftware,KiCad,Pcbnew,5.1.2*
G04 #@! TF.CreationDate,2019-07-04T09:21:13+09:00*
G04 #@! TF.ProjectId,SAM2695_yarou_menduke,53414d32-3639-4355-9f79-61726f755f6d,rev?*
G04 #@! TF.SameCoordinates,Original*
G04 #@! TF.FileFunction,Legend,Top*
G04 #@! TF.FilePolarity,Positive*
%FSLAX46Y46*%
G04 Gerber Fmt 4.6, Leading zero omitted, Abs format (unit mm)*
G04 Created by KiCad (PCBNEW 5.1.2) date 2019-07-04 09:21:13*
%MOMM*%
%LPD*%
G04 APERTURE LIST*
%ADD10C,0.127000*%
%ADD11C,0.200000*%
%ADD12C,0.150000*%
%ADD13C,0.120000*%
%ADD14C,0.250000*%
%ADD15C,0.050000*%
%ADD16C,0.100000*%
G04 APERTURE END LIST*
D10*
X143300000Y-118000000D02*
X143300000Y-117500000D01*
X143300000Y-117500000D02*
X143300000Y-112500000D01*
X143300000Y-112500000D02*
X143300000Y-112000000D01*
X143300000Y-112000000D02*
X146400000Y-112000000D01*
X149000000Y-112000000D02*
X157800000Y-112000000D01*
X157800000Y-112000000D02*
X157800000Y-118000000D01*
X143300000Y-118000000D02*
X144400000Y-118000000D01*
X147000000Y-118000000D02*
X153500000Y-118000000D01*
D11*
X142600000Y-118300000D02*
G75*
G03X142600000Y-118300000I-100000J0D01*
G01*
D10*
X156700000Y-118000000D02*
X157800000Y-118000000D01*
X143300000Y-83000000D02*
X143300000Y-82500000D01*
X143300000Y-82500000D02*
X143300000Y-77500000D01*
X143300000Y-77500000D02*
X143300000Y-77000000D01*
X143300000Y-77000000D02*
X146400000Y-77000000D01*
X149000000Y-77000000D02*
X157800000Y-77000000D01*
X157800000Y-77000000D02*
X157800000Y-83000000D01*
X143300000Y-83000000D02*
X144400000Y-83000000D01*
X147000000Y-83000000D02*
X153500000Y-83000000D01*
D11*
X142600000Y-83300000D02*
G75*
G03X142600000Y-83300000I-100000J0D01*
G01*
D10*
X156700000Y-83000000D02*
X157800000Y-83000000D01*
X99300000Y-118000000D02*
X99300000Y-117500000D01*
X99300000Y-117500000D02*
X99300000Y-112500000D01*
X99300000Y-112500000D02*
X99300000Y-112000000D01*
X99300000Y-112000000D02*
X102400000Y-112000000D01*
X105000000Y-112000000D02*
X113800000Y-112000000D01*
X113800000Y-112000000D02*
X113800000Y-118000000D01*
X99300000Y-118000000D02*
X100400000Y-118000000D01*
X103000000Y-118000000D02*
X109500000Y-118000000D01*
D11*
X98600000Y-118300000D02*
G75*
G03X98600000Y-118300000I-100000J0D01*
G01*
D10*
X112700000Y-118000000D02*
X113800000Y-118000000D01*
D12*
X155400000Y-90600000D02*
X155400000Y-90900000D01*
X155600000Y-90600000D02*
X155400000Y-90600000D01*
X155600000Y-92400000D02*
X155400000Y-92200000D01*
X158600000Y-92400000D02*
X158600000Y-92100000D01*
X158400000Y-92400000D02*
X158600000Y-92400000D01*
X158600000Y-90600000D02*
X158600000Y-90900000D01*
X158400000Y-90600000D02*
X158600000Y-90600000D01*
X155400000Y-55600000D02*
X155400000Y-55900000D01*
X155600000Y-55600000D02*
X155400000Y-55600000D01*
X155600000Y-57400000D02*
X155400000Y-57200000D01*
X158600000Y-57400000D02*
X158600000Y-57100000D01*
X158400000Y-57400000D02*
X158600000Y-57400000D01*
X158600000Y-55600000D02*
X158600000Y-55900000D01*
X158400000Y-55600000D02*
X158600000Y-55600000D01*
X111400000Y-90600000D02*
X111400000Y-90900000D01*
X111600000Y-90600000D02*
X111400000Y-90600000D01*
X111600000Y-92400000D02*
X111400000Y-92200000D01*
X114600000Y-92400000D02*
X114600000Y-92100000D01*
X114400000Y-92400000D02*
X114600000Y-92400000D01*
X114600000Y-90600000D02*
X114600000Y-90900000D01*
X114400000Y-90600000D02*
X114600000Y-90600000D01*
D13*
X175880000Y-105120000D02*
X175880000Y-104550000D01*
X176500000Y-98880000D02*
X175880000Y-98880000D01*
X182120000Y-99450000D02*
X182120000Y-98880000D01*
X182120000Y-98880000D02*
X181550000Y-98880000D01*
X182120000Y-104550000D02*
X182120000Y-105120000D01*
X182120000Y-105120000D02*
X181550000Y-105120000D01*
X175880000Y-99450000D02*
X175880000Y-98880000D01*
X175880000Y-70120000D02*
X175880000Y-69550000D01*
X176500000Y-63880000D02*
X175880000Y-63880000D01*
X182120000Y-64450000D02*
X182120000Y-63880000D01*
X182120000Y-63880000D02*
X181550000Y-63880000D01*
X182120000Y-69550000D02*
X182120000Y-70120000D01*
X182120000Y-70120000D02*
X181550000Y-70120000D01*
X175880000Y-64450000D02*
X175880000Y-63880000D01*
X131880000Y-105120000D02*
X131880000Y-104550000D01*
X132500000Y-98880000D02*
X131880000Y-98880000D01*
X138120000Y-99450000D02*
X138120000Y-98880000D01*
X138120000Y-98880000D02*
X137550000Y-98880000D01*
X138120000Y-104550000D02*
X138120000Y-105120000D01*
X138120000Y-105120000D02*
X137550000Y-105120000D01*
X131880000Y-99450000D02*
X131880000Y-98880000D01*
X160900000Y-111800000D02*
X160200000Y-111800000D01*
X160200000Y-110600000D02*
X160900000Y-110600000D01*
X160900000Y-76800000D02*
X160200000Y-76800000D01*
X160200000Y-75600000D02*
X160900000Y-75600000D01*
X116900000Y-111800000D02*
X116200000Y-111800000D01*
X116200000Y-110600000D02*
X116900000Y-110600000D01*
X154100000Y-87120000D02*
X155100000Y-87120000D01*
X155100000Y-88480000D02*
X154100000Y-88480000D01*
X154100000Y-52120000D02*
X155100000Y-52120000D01*
X155100000Y-53480000D02*
X154100000Y-53480000D01*
X110100000Y-87120000D02*
X111100000Y-87120000D01*
X111100000Y-88480000D02*
X110100000Y-88480000D01*
X183800000Y-102350000D02*
X183800000Y-101650000D01*
X185000000Y-101650000D02*
X185000000Y-102350000D01*
X183800000Y-67350000D02*
X183800000Y-66650000D01*
X185000000Y-66650000D02*
X185000000Y-67350000D01*
X139800000Y-102350000D02*
X139800000Y-101650000D01*
X141000000Y-101650000D02*
X141000000Y-102350000D01*
X160100000Y-116020000D02*
X161100000Y-116020000D01*
X161100000Y-117380000D02*
X160100000Y-117380000D01*
X160100000Y-81020000D02*
X161100000Y-81020000D01*
X161100000Y-82380000D02*
X160100000Y-82380000D01*
X116100000Y-116020000D02*
X117100000Y-116020000D01*
X117100000Y-117380000D02*
X116100000Y-117380000D01*
X160050000Y-113020000D02*
X161050000Y-113020000D01*
X161050000Y-114380000D02*
X160050000Y-114380000D01*
X160050000Y-78020000D02*
X161050000Y-78020000D01*
X161050000Y-79380000D02*
X160050000Y-79380000D01*
X116050000Y-113020000D02*
X117050000Y-113020000D01*
X117050000Y-114380000D02*
X116050000Y-114380000D01*
X160750000Y-90950000D02*
X160750000Y-91650000D01*
X159550000Y-91650000D02*
X159550000Y-90950000D01*
X160750000Y-55950000D02*
X160750000Y-56650000D01*
X159550000Y-56650000D02*
X159550000Y-55950000D01*
X116750000Y-90950000D02*
X116750000Y-91650000D01*
X115550000Y-91650000D02*
X115550000Y-90950000D01*
D12*
X162000000Y-108800000D02*
X162000000Y-108600000D01*
X162000000Y-108800000D02*
X162300000Y-108800000D01*
X166800000Y-108800000D02*
X166500000Y-108800000D01*
X166800000Y-108800000D02*
X166800000Y-108500000D01*
X166800000Y-106000000D02*
X166500000Y-106000000D01*
X166800000Y-106300000D02*
X166800000Y-106000000D01*
X162100000Y-106300000D02*
X161600000Y-106300000D01*
X162400000Y-106000000D02*
X162100000Y-106300000D01*
X162800000Y-106000000D02*
X162400000Y-106000000D01*
X162000000Y-73800000D02*
X162000000Y-73600000D01*
X162000000Y-73800000D02*
X162300000Y-73800000D01*
X166800000Y-73800000D02*
X166500000Y-73800000D01*
X166800000Y-73800000D02*
X166800000Y-73500000D01*
X166800000Y-71000000D02*
X166500000Y-71000000D01*
X166800000Y-71300000D02*
X166800000Y-71000000D01*
X162100000Y-71300000D02*
X161600000Y-71300000D01*
X162400000Y-71000000D02*
X162100000Y-71300000D01*
X162800000Y-71000000D02*
X162400000Y-71000000D01*
X118000000Y-108800000D02*
X118000000Y-108600000D01*
X118000000Y-108800000D02*
X118300000Y-108800000D01*
X122800000Y-108800000D02*
X122500000Y-108800000D01*
X122800000Y-108800000D02*
X122800000Y-108500000D01*
X122800000Y-106000000D02*
X122500000Y-106000000D01*
X122800000Y-106300000D02*
X122800000Y-106000000D01*
X118100000Y-106300000D02*
X117600000Y-106300000D01*
X118400000Y-106000000D02*
X118100000Y-106300000D01*
X118800000Y-106000000D02*
X118400000Y-106000000D01*
D13*
X175850000Y-111800000D02*
X176550000Y-111800000D01*
X176550000Y-113000000D02*
X175850000Y-113000000D01*
X175850000Y-76800000D02*
X176550000Y-76800000D01*
X176550000Y-78000000D02*
X175850000Y-78000000D01*
X131850000Y-111800000D02*
X132550000Y-111800000D01*
X132550000Y-113000000D02*
X131850000Y-113000000D01*
X179350000Y-93250000D02*
X175500000Y-93250000D01*
X179350000Y-91250000D02*
X175500000Y-91250000D01*
X179350000Y-93250000D02*
X179350000Y-91250000D01*
X179350000Y-58250000D02*
X175500000Y-58250000D01*
X179350000Y-56250000D02*
X175500000Y-56250000D01*
X179350000Y-58250000D02*
X179350000Y-56250000D01*
X135350000Y-93250000D02*
X131500000Y-93250000D01*
X135350000Y-91250000D02*
X131500000Y-91250000D01*
X135350000Y-93250000D02*
X135350000Y-91250000D01*
X172450000Y-91600000D02*
X173150000Y-91600000D01*
X173150000Y-92800000D02*
X172450000Y-92800000D01*
X172450000Y-56600000D02*
X173150000Y-56600000D01*
X173150000Y-57800000D02*
X172450000Y-57800000D01*
X128450000Y-91600000D02*
X129150000Y-91600000D01*
X129150000Y-92800000D02*
X128450000Y-92800000D01*
X159200000Y-94650000D02*
X159200000Y-95750000D01*
X159200000Y-95750000D02*
X161800000Y-95750000D01*
X159200000Y-94650000D02*
X161800000Y-94650000D01*
X159200000Y-59650000D02*
X159200000Y-60750000D01*
X159200000Y-60750000D02*
X161800000Y-60750000D01*
X159200000Y-59650000D02*
X161800000Y-59650000D01*
X115200000Y-94650000D02*
X115200000Y-95750000D01*
X115200000Y-95750000D02*
X117800000Y-95750000D01*
X115200000Y-94650000D02*
X117800000Y-94650000D01*
X168280000Y-99900000D02*
X168280000Y-100900000D01*
X166920000Y-100900000D02*
X166920000Y-99900000D01*
X168280000Y-64900000D02*
X168280000Y-65900000D01*
X166920000Y-65900000D02*
X166920000Y-64900000D01*
X124280000Y-99900000D02*
X124280000Y-100900000D01*
X122920000Y-100900000D02*
X122920000Y-99900000D01*
D12*
X142850000Y-88240000D02*
X151000000Y-88240000D01*
X142850000Y-95550000D02*
X142850000Y-88240000D01*
X151000000Y-95550000D02*
X142850000Y-95550000D01*
X151000000Y-91900000D02*
X151000000Y-95550000D01*
X151000000Y-91900000D02*
X151000000Y-88250000D01*
X142850000Y-53240000D02*
X151000000Y-53240000D01*
X142850000Y-60550000D02*
X142850000Y-53240000D01*
X151000000Y-60550000D02*
X142850000Y-60550000D01*
X151000000Y-56900000D02*
X151000000Y-60550000D01*
X151000000Y-56900000D02*
X151000000Y-53250000D01*
X98850000Y-88240000D02*
X107000000Y-88240000D01*
X98850000Y-95550000D02*
X98850000Y-88240000D01*
X107000000Y-95550000D02*
X98850000Y-95550000D01*
X107000000Y-91900000D02*
X107000000Y-95550000D01*
X107000000Y-91900000D02*
X107000000Y-88250000D01*
D13*
X176900000Y-110080000D02*
X175900000Y-110080000D01*
X175900000Y-108720000D02*
X176900000Y-108720000D01*
X176900000Y-75080000D02*
X175900000Y-75080000D01*
X175900000Y-73720000D02*
X176900000Y-73720000D01*
X132900000Y-110080000D02*
X131900000Y-110080000D01*
X131900000Y-108720000D02*
X132900000Y-108720000D01*
X177900000Y-95430000D02*
X176900000Y-95430000D01*
X176900000Y-94070000D02*
X177900000Y-94070000D01*
X177900000Y-60430000D02*
X176900000Y-60430000D01*
X176900000Y-59070000D02*
X177900000Y-59070000D01*
X133900000Y-95430000D02*
X132900000Y-95430000D01*
X132900000Y-94070000D02*
X133900000Y-94070000D01*
X176550000Y-115000000D02*
X175850000Y-115000000D01*
X175850000Y-113800000D02*
X176550000Y-113800000D01*
X176550000Y-80000000D02*
X175850000Y-80000000D01*
X175850000Y-78800000D02*
X176550000Y-78800000D01*
X132550000Y-115000000D02*
X131850000Y-115000000D01*
X131850000Y-113800000D02*
X132550000Y-113800000D01*
X160650000Y-119800000D02*
X159950000Y-119800000D01*
X159950000Y-118600000D02*
X160650000Y-118600000D01*
X160650000Y-84800000D02*
X159950000Y-84800000D01*
X159950000Y-83600000D02*
X160650000Y-83600000D01*
X116650000Y-119800000D02*
X115950000Y-119800000D01*
X115950000Y-118600000D02*
X116650000Y-118600000D01*
X182000000Y-108450000D02*
X182000000Y-109150000D01*
X180800000Y-109150000D02*
X180800000Y-108450000D01*
X182000000Y-73450000D02*
X182000000Y-74150000D01*
X180800000Y-74150000D02*
X180800000Y-73450000D01*
X138000000Y-108450000D02*
X138000000Y-109150000D01*
X136800000Y-109150000D02*
X136800000Y-108450000D01*
X171900000Y-105550000D02*
X171200000Y-105550000D01*
X171200000Y-104350000D02*
X171900000Y-104350000D01*
X171900000Y-70550000D02*
X171200000Y-70550000D01*
X171200000Y-69350000D02*
X171900000Y-69350000D01*
X127900000Y-105550000D02*
X127200000Y-105550000D01*
X127200000Y-104350000D02*
X127900000Y-104350000D01*
X153150000Y-91850000D02*
X153150000Y-91150000D01*
X154350000Y-91150000D02*
X154350000Y-91850000D01*
X153150000Y-56850000D02*
X153150000Y-56150000D01*
X154350000Y-56150000D02*
X154350000Y-56850000D01*
X109150000Y-91850000D02*
X109150000Y-91150000D01*
X110350000Y-91150000D02*
X110350000Y-91850000D01*
D10*
X143250000Y-106750000D02*
X143250000Y-106250000D01*
X143250000Y-106250000D02*
X143250000Y-101250000D01*
X143250000Y-101250000D02*
X143250000Y-100750000D01*
X143250000Y-100750000D02*
X146350000Y-100750000D01*
X148950000Y-100750000D02*
X157750000Y-100750000D01*
X157750000Y-100750000D02*
X157750000Y-106750000D01*
X143250000Y-106750000D02*
X144350000Y-106750000D01*
X146950000Y-106750000D02*
X153450000Y-106750000D01*
D11*
X142550000Y-107050000D02*
G75*
G03X142550000Y-107050000I-100000J0D01*
G01*
D10*
X156650000Y-106750000D02*
X157750000Y-106750000D01*
X143250000Y-71750000D02*
X143250000Y-71250000D01*
X143250000Y-71250000D02*
X143250000Y-66250000D01*
X143250000Y-66250000D02*
X143250000Y-65750000D01*
X143250000Y-65750000D02*
X146350000Y-65750000D01*
X148950000Y-65750000D02*
X157750000Y-65750000D01*
X157750000Y-65750000D02*
X157750000Y-71750000D01*
X143250000Y-71750000D02*
X144350000Y-71750000D01*
X146950000Y-71750000D02*
X153450000Y-71750000D01*
D11*
X142550000Y-72050000D02*
G75*
G03X142550000Y-72050000I-100000J0D01*
G01*
D10*
X156650000Y-71750000D02*
X157750000Y-71750000D01*
X99250000Y-106750000D02*
X99250000Y-106250000D01*
X99250000Y-106250000D02*
X99250000Y-101250000D01*
X99250000Y-101250000D02*
X99250000Y-100750000D01*
X99250000Y-100750000D02*
X102350000Y-100750000D01*
X104950000Y-100750000D02*
X113750000Y-100750000D01*
X113750000Y-100750000D02*
X113750000Y-106750000D01*
X99250000Y-106750000D02*
X100350000Y-106750000D01*
X102950000Y-106750000D02*
X109450000Y-106750000D01*
D11*
X98550000Y-107050000D02*
G75*
G03X98550000Y-107050000I-100000J0D01*
G01*
D10*
X112650000Y-106750000D02*
X113750000Y-106750000D01*
D13*
X165500000Y-98300000D02*
X163500000Y-98300000D01*
X163500000Y-98300000D02*
X163500000Y-102150000D01*
X165500000Y-98300000D02*
X165500000Y-102150000D01*
X165500000Y-63300000D02*
X163500000Y-63300000D01*
X163500000Y-63300000D02*
X163500000Y-67150000D01*
X165500000Y-63300000D02*
X165500000Y-67150000D01*
X121500000Y-98300000D02*
X119500000Y-98300000D01*
X119500000Y-98300000D02*
X119500000Y-102150000D01*
X121500000Y-98300000D02*
X121500000Y-102150000D01*
X161000000Y-99680000D02*
X160000000Y-99680000D01*
X160000000Y-98320000D02*
X161000000Y-98320000D01*
X161000000Y-64680000D02*
X160000000Y-64680000D01*
X160000000Y-63320000D02*
X161000000Y-63320000D01*
X117000000Y-99680000D02*
X116000000Y-99680000D01*
X116000000Y-98320000D02*
X117000000Y-98320000D01*
X155850000Y-94600000D02*
X156550000Y-94600000D01*
X156550000Y-95800000D02*
X155850000Y-95800000D01*
X155850000Y-59600000D02*
X156550000Y-59600000D01*
X156550000Y-60800000D02*
X155850000Y-60800000D01*
X111850000Y-94600000D02*
X112550000Y-94600000D01*
X112550000Y-95800000D02*
X111850000Y-95800000D01*
X171800000Y-99550000D02*
X171100000Y-99550000D01*
X171100000Y-98350000D02*
X171800000Y-98350000D01*
X171800000Y-64550000D02*
X171100000Y-64550000D01*
X171100000Y-63350000D02*
X171800000Y-63350000D01*
X127800000Y-99550000D02*
X127100000Y-99550000D01*
X127100000Y-98350000D02*
X127800000Y-98350000D01*
X178250000Y-95800000D02*
X178950000Y-95800000D01*
X178950000Y-97000000D02*
X178250000Y-97000000D01*
X178250000Y-60800000D02*
X178950000Y-60800000D01*
X178950000Y-62000000D02*
X178250000Y-62000000D01*
X134250000Y-95800000D02*
X134950000Y-95800000D01*
X134950000Y-97000000D02*
X134250000Y-97000000D01*
X171850000Y-113800000D02*
X172550000Y-113800000D01*
X172550000Y-115000000D02*
X171850000Y-115000000D01*
X171850000Y-78800000D02*
X172550000Y-78800000D01*
X172550000Y-80000000D02*
X171850000Y-80000000D01*
X127850000Y-113800000D02*
X128550000Y-113800000D01*
X128550000Y-115000000D02*
X127850000Y-115000000D01*
X161470000Y-91800000D02*
X161470000Y-90800000D01*
X162830000Y-90800000D02*
X162830000Y-91800000D01*
X161470000Y-56800000D02*
X161470000Y-55800000D01*
X162830000Y-55800000D02*
X162830000Y-56800000D01*
X117470000Y-91800000D02*
X117470000Y-90800000D01*
X118830000Y-90800000D02*
X118830000Y-91800000D01*
D14*
X173386020Y-103220000D02*
G75*
G03X173386020Y-103220000I-86020J0D01*
G01*
X173386020Y-68220000D02*
G75*
G03X173386020Y-68220000I-86020J0D01*
G01*
X129386020Y-103220000D02*
G75*
G03X129386020Y-103220000I-86020J0D01*
G01*
D10*
X112650000Y-71750000D02*
X113750000Y-71750000D01*
D11*
X98550000Y-72050000D02*
G75*
G03X98550000Y-72050000I-100000J0D01*
G01*
D10*
X102950000Y-71750000D02*
X109450000Y-71750000D01*
X99250000Y-71750000D02*
X100350000Y-71750000D01*
X113750000Y-65750000D02*
X113750000Y-71750000D01*
X104950000Y-65750000D02*
X113750000Y-65750000D01*
X99250000Y-65750000D02*
X102350000Y-65750000D01*
X99250000Y-66250000D02*
X99250000Y-65750000D01*
X99250000Y-71250000D02*
X99250000Y-66250000D01*
X99250000Y-71750000D02*
X99250000Y-71250000D01*
X112700000Y-83000000D02*
X113800000Y-83000000D01*
D11*
X98600000Y-83300000D02*
G75*
G03X98600000Y-83300000I-100000J0D01*
G01*
D10*
X103000000Y-83000000D02*
X109500000Y-83000000D01*
X99300000Y-83000000D02*
X100400000Y-83000000D01*
X113800000Y-77000000D02*
X113800000Y-83000000D01*
X105000000Y-77000000D02*
X113800000Y-77000000D01*
X99300000Y-77000000D02*
X102400000Y-77000000D01*
X99300000Y-77500000D02*
X99300000Y-77000000D01*
X99300000Y-82500000D02*
X99300000Y-77500000D01*
X99300000Y-83000000D02*
X99300000Y-82500000D01*
D14*
X129386020Y-68220000D02*
G75*
G03X129386020Y-68220000I-86020J0D01*
G01*
D13*
X131880000Y-64450000D02*
X131880000Y-63880000D01*
X138120000Y-70120000D02*
X137550000Y-70120000D01*
X138120000Y-69550000D02*
X138120000Y-70120000D01*
X138120000Y-63880000D02*
X137550000Y-63880000D01*
X138120000Y-64450000D02*
X138120000Y-63880000D01*
X132500000Y-63880000D02*
X131880000Y-63880000D01*
X131880000Y-70120000D02*
X131880000Y-69550000D01*
X110350000Y-56150000D02*
X110350000Y-56850000D01*
X109150000Y-56850000D02*
X109150000Y-56150000D01*
X112550000Y-60800000D02*
X111850000Y-60800000D01*
X111850000Y-59600000D02*
X112550000Y-59600000D01*
X115550000Y-56650000D02*
X115550000Y-55950000D01*
X116750000Y-55950000D02*
X116750000Y-56650000D01*
X129150000Y-57800000D02*
X128450000Y-57800000D01*
X128450000Y-56600000D02*
X129150000Y-56600000D01*
X127100000Y-63350000D02*
X127800000Y-63350000D01*
X127800000Y-64550000D02*
X127100000Y-64550000D01*
X127200000Y-69350000D02*
X127900000Y-69350000D01*
X127900000Y-70550000D02*
X127200000Y-70550000D01*
X131850000Y-78800000D02*
X132550000Y-78800000D01*
X132550000Y-80000000D02*
X131850000Y-80000000D01*
X128550000Y-80000000D02*
X127850000Y-80000000D01*
X127850000Y-78800000D02*
X128550000Y-78800000D01*
X136800000Y-74150000D02*
X136800000Y-73450000D01*
X138000000Y-73450000D02*
X138000000Y-74150000D01*
X116200000Y-75600000D02*
X116900000Y-75600000D01*
X116900000Y-76800000D02*
X116200000Y-76800000D01*
X115950000Y-83600000D02*
X116650000Y-83600000D01*
X116650000Y-84800000D02*
X115950000Y-84800000D01*
X132550000Y-78000000D02*
X131850000Y-78000000D01*
X131850000Y-76800000D02*
X132550000Y-76800000D01*
X141000000Y-66650000D02*
X141000000Y-67350000D01*
X139800000Y-67350000D02*
X139800000Y-66650000D01*
X134950000Y-62000000D02*
X134250000Y-62000000D01*
X134250000Y-60800000D02*
X134950000Y-60800000D01*
X135350000Y-58250000D02*
X135350000Y-56250000D01*
X135350000Y-56250000D02*
X131500000Y-56250000D01*
X135350000Y-58250000D02*
X131500000Y-58250000D01*
X121500000Y-63300000D02*
X121500000Y-67150000D01*
X119500000Y-63300000D02*
X119500000Y-67150000D01*
X121500000Y-63300000D02*
X119500000Y-63300000D01*
D12*
X107000000Y-56900000D02*
X107000000Y-53250000D01*
X107000000Y-56900000D02*
X107000000Y-60550000D01*
X107000000Y-60550000D02*
X98850000Y-60550000D01*
X98850000Y-60550000D02*
X98850000Y-53240000D01*
X98850000Y-53240000D02*
X107000000Y-53240000D01*
D13*
X131900000Y-73720000D02*
X132900000Y-73720000D01*
X132900000Y-75080000D02*
X131900000Y-75080000D01*
X115200000Y-59650000D02*
X117800000Y-59650000D01*
X115200000Y-60750000D02*
X117800000Y-60750000D01*
X115200000Y-59650000D02*
X115200000Y-60750000D01*
D12*
X118800000Y-71000000D02*
X118400000Y-71000000D01*
X118400000Y-71000000D02*
X118100000Y-71300000D01*
X118100000Y-71300000D02*
X117600000Y-71300000D01*
X122800000Y-71300000D02*
X122800000Y-71000000D01*
X122800000Y-71000000D02*
X122500000Y-71000000D01*
X122800000Y-73800000D02*
X122800000Y-73500000D01*
X122800000Y-73800000D02*
X122500000Y-73800000D01*
X118000000Y-73800000D02*
X118300000Y-73800000D01*
X118000000Y-73800000D02*
X118000000Y-73600000D01*
D13*
X116000000Y-63320000D02*
X117000000Y-63320000D01*
X117000000Y-64680000D02*
X116000000Y-64680000D01*
X132900000Y-59070000D02*
X133900000Y-59070000D01*
X133900000Y-60430000D02*
X132900000Y-60430000D01*
X122920000Y-65900000D02*
X122920000Y-64900000D01*
X124280000Y-64900000D02*
X124280000Y-65900000D01*
X118830000Y-55800000D02*
X118830000Y-56800000D01*
X117470000Y-56800000D02*
X117470000Y-55800000D01*
X117050000Y-79380000D02*
X116050000Y-79380000D01*
X116050000Y-78020000D02*
X117050000Y-78020000D01*
X117100000Y-82380000D02*
X116100000Y-82380000D01*
X116100000Y-81020000D02*
X117100000Y-81020000D01*
X111100000Y-53480000D02*
X110100000Y-53480000D01*
X110100000Y-52120000D02*
X111100000Y-52120000D01*
D12*
X114400000Y-55600000D02*
X114600000Y-55600000D01*
X114600000Y-55600000D02*
X114600000Y-55900000D01*
X114400000Y-57400000D02*
X114600000Y-57400000D01*
X114600000Y-57400000D02*
X114600000Y-57100000D01*
X111600000Y-57400000D02*
X111400000Y-57200000D01*
X111600000Y-55600000D02*
X111400000Y-55600000D01*
X111400000Y-55600000D02*
X111400000Y-55900000D01*
D15*
X155666056Y-112651378D02*
X155666056Y-113366971D01*
X155618350Y-113510090D01*
X155522938Y-113605502D01*
X155379819Y-113653208D01*
X155284407Y-113653208D01*
X156047706Y-112651378D02*
X156667886Y-112651378D01*
X156333943Y-113033028D01*
X156477061Y-113033028D01*
X156572474Y-113080734D01*
X156620180Y-113128440D01*
X156667886Y-113223853D01*
X156667886Y-113462384D01*
X156620180Y-113557796D01*
X156572474Y-113605502D01*
X156477061Y-113653208D01*
X156190824Y-113653208D01*
X156095412Y-113605502D01*
X156047706Y-113557796D01*
X155666056Y-77651378D02*
X155666056Y-78366971D01*
X155618350Y-78510090D01*
X155522938Y-78605502D01*
X155379819Y-78653208D01*
X155284407Y-78653208D01*
X156047706Y-77651378D02*
X156667886Y-77651378D01*
X156333943Y-78033028D01*
X156477061Y-78033028D01*
X156572474Y-78080734D01*
X156620180Y-78128440D01*
X156667886Y-78223853D01*
X156667886Y-78462384D01*
X156620180Y-78557796D01*
X156572474Y-78605502D01*
X156477061Y-78653208D01*
X156190824Y-78653208D01*
X156095412Y-78605502D01*
X156047706Y-78557796D01*
X111666056Y-112651378D02*
X111666056Y-113366971D01*
X111618350Y-113510090D01*
X111522938Y-113605502D01*
X111379819Y-113653208D01*
X111284407Y-113653208D01*
X112047706Y-112651378D02*
X112667886Y-112651378D01*
X112333943Y-113033028D01*
X112477061Y-113033028D01*
X112572474Y-113080734D01*
X112620180Y-113128440D01*
X112667886Y-113223853D01*
X112667886Y-113462384D01*
X112620180Y-113557796D01*
X112572474Y-113605502D01*
X112477061Y-113653208D01*
X112190824Y-113653208D01*
X112095412Y-113605502D01*
X112047706Y-113557796D01*
D12*
X156838095Y-87852380D02*
X156838095Y-88661904D01*
X156885714Y-88757142D01*
X156933333Y-88804761D01*
X157028571Y-88852380D01*
X157219047Y-88852380D01*
X157314285Y-88804761D01*
X157361904Y-88757142D01*
X157409523Y-88661904D01*
X157409523Y-87852380D01*
X158409523Y-88852380D02*
X157838095Y-88852380D01*
X158123809Y-88852380D02*
X158123809Y-87852380D01*
X158028571Y-87995238D01*
X157933333Y-88090476D01*
X157838095Y-88138095D01*
X156838095Y-52852380D02*
X156838095Y-53661904D01*
X156885714Y-53757142D01*
X156933333Y-53804761D01*
X157028571Y-53852380D01*
X157219047Y-53852380D01*
X157314285Y-53804761D01*
X157361904Y-53757142D01*
X157409523Y-53661904D01*
X157409523Y-52852380D01*
X158409523Y-53852380D02*
X157838095Y-53852380D01*
X158123809Y-53852380D02*
X158123809Y-52852380D01*
X158028571Y-52995238D01*
X157933333Y-53090476D01*
X157838095Y-53138095D01*
X112838095Y-87852380D02*
X112838095Y-88661904D01*
X112885714Y-88757142D01*
X112933333Y-88804761D01*
X113028571Y-88852380D01*
X113219047Y-88852380D01*
X113314285Y-88804761D01*
X113361904Y-88757142D01*
X113409523Y-88661904D01*
X113409523Y-87852380D01*
X114409523Y-88852380D02*
X113838095Y-88852380D01*
X114123809Y-88852380D02*
X114123809Y-87852380D01*
X114028571Y-87995238D01*
X113933333Y-88090476D01*
X113838095Y-88138095D01*
X180738095Y-97352380D02*
X180738095Y-98161904D01*
X180785714Y-98257142D01*
X180833333Y-98304761D01*
X180928571Y-98352380D01*
X181119047Y-98352380D01*
X181214285Y-98304761D01*
X181261904Y-98257142D01*
X181309523Y-98161904D01*
X181309523Y-97352380D01*
X181738095Y-97447619D02*
X181785714Y-97400000D01*
X181880952Y-97352380D01*
X182119047Y-97352380D01*
X182214285Y-97400000D01*
X182261904Y-97447619D01*
X182309523Y-97542857D01*
X182309523Y-97638095D01*
X182261904Y-97780952D01*
X181690476Y-98352380D01*
X182309523Y-98352380D01*
X180738095Y-62352380D02*
X180738095Y-63161904D01*
X180785714Y-63257142D01*
X180833333Y-63304761D01*
X180928571Y-63352380D01*
X181119047Y-63352380D01*
X181214285Y-63304761D01*
X181261904Y-63257142D01*
X181309523Y-63161904D01*
X181309523Y-62352380D01*
X181738095Y-62447619D02*
X181785714Y-62400000D01*
X181880952Y-62352380D01*
X182119047Y-62352380D01*
X182214285Y-62400000D01*
X182261904Y-62447619D01*
X182309523Y-62542857D01*
X182309523Y-62638095D01*
X182261904Y-62780952D01*
X181690476Y-63352380D01*
X182309523Y-63352380D01*
X136738095Y-97352380D02*
X136738095Y-98161904D01*
X136785714Y-98257142D01*
X136833333Y-98304761D01*
X136928571Y-98352380D01*
X137119047Y-98352380D01*
X137214285Y-98304761D01*
X137261904Y-98257142D01*
X137309523Y-98161904D01*
X137309523Y-97352380D01*
X137738095Y-97447619D02*
X137785714Y-97400000D01*
X137880952Y-97352380D01*
X138119047Y-97352380D01*
X138214285Y-97400000D01*
X138261904Y-97447619D01*
X138309523Y-97542857D01*
X138309523Y-97638095D01*
X138261904Y-97780952D01*
X137690476Y-98352380D01*
X138309523Y-98352380D01*
X163857142Y-111857142D02*
X163809523Y-111904761D01*
X163666666Y-111952380D01*
X163571428Y-111952380D01*
X163428571Y-111904761D01*
X163333333Y-111809523D01*
X163285714Y-111714285D01*
X163238095Y-111523809D01*
X163238095Y-111380952D01*
X163285714Y-111190476D01*
X163333333Y-111095238D01*
X163428571Y-111000000D01*
X163571428Y-110952380D01*
X163666666Y-110952380D01*
X163809523Y-111000000D01*
X163857142Y-111047619D01*
X164809523Y-111952380D02*
X164238095Y-111952380D01*
X164523809Y-111952380D02*
X164523809Y-110952380D01*
X164428571Y-111095238D01*
X164333333Y-111190476D01*
X164238095Y-111238095D01*
X165666666Y-111285714D02*
X165666666Y-111952380D01*
X165428571Y-110904761D02*
X165190476Y-111619047D01*
X165809523Y-111619047D01*
X163857142Y-76857142D02*
X163809523Y-76904761D01*
X163666666Y-76952380D01*
X163571428Y-76952380D01*
X163428571Y-76904761D01*
X163333333Y-76809523D01*
X163285714Y-76714285D01*
X163238095Y-76523809D01*
X163238095Y-76380952D01*
X163285714Y-76190476D01*
X163333333Y-76095238D01*
X163428571Y-76000000D01*
X163571428Y-75952380D01*
X163666666Y-75952380D01*
X163809523Y-76000000D01*
X163857142Y-76047619D01*
X164809523Y-76952380D02*
X164238095Y-76952380D01*
X164523809Y-76952380D02*
X164523809Y-75952380D01*
X164428571Y-76095238D01*
X164333333Y-76190476D01*
X164238095Y-76238095D01*
X165666666Y-76285714D02*
X165666666Y-76952380D01*
X165428571Y-75904761D02*
X165190476Y-76619047D01*
X165809523Y-76619047D01*
X119857142Y-111857142D02*
X119809523Y-111904761D01*
X119666666Y-111952380D01*
X119571428Y-111952380D01*
X119428571Y-111904761D01*
X119333333Y-111809523D01*
X119285714Y-111714285D01*
X119238095Y-111523809D01*
X119238095Y-111380952D01*
X119285714Y-111190476D01*
X119333333Y-111095238D01*
X119428571Y-111000000D01*
X119571428Y-110952380D01*
X119666666Y-110952380D01*
X119809523Y-111000000D01*
X119857142Y-111047619D01*
X120809523Y-111952380D02*
X120238095Y-111952380D01*
X120523809Y-111952380D02*
X120523809Y-110952380D01*
X120428571Y-111095238D01*
X120333333Y-111190476D01*
X120238095Y-111238095D01*
X121666666Y-111285714D02*
X121666666Y-111952380D01*
X121428571Y-110904761D02*
X121190476Y-111619047D01*
X121809523Y-111619047D01*
D16*
X151916666Y-88226190D02*
X151750000Y-87988095D01*
X151630952Y-88226190D02*
X151630952Y-87726190D01*
X151821428Y-87726190D01*
X151869047Y-87750000D01*
X151892857Y-87773809D01*
X151916666Y-87821428D01*
X151916666Y-87892857D01*
X151892857Y-87940476D01*
X151869047Y-87964285D01*
X151821428Y-87988095D01*
X151630952Y-87988095D01*
X152369047Y-87726190D02*
X152130952Y-87726190D01*
X152107142Y-87964285D01*
X152130952Y-87940476D01*
X152178571Y-87916666D01*
X152297619Y-87916666D01*
X152345238Y-87940476D01*
X152369047Y-87964285D01*
X152392857Y-88011904D01*
X152392857Y-88130952D01*
X152369047Y-88178571D01*
X152345238Y-88202380D01*
X152297619Y-88226190D01*
X152178571Y-88226190D01*
X152130952Y-88202380D01*
X152107142Y-88178571D01*
X151916666Y-53226190D02*
X151750000Y-52988095D01*
X151630952Y-53226190D02*
X151630952Y-52726190D01*
X151821428Y-52726190D01*
X151869047Y-52750000D01*
X151892857Y-52773809D01*
X151916666Y-52821428D01*
X151916666Y-52892857D01*
X151892857Y-52940476D01*
X151869047Y-52964285D01*
X151821428Y-52988095D01*
X151630952Y-52988095D01*
X152369047Y-52726190D02*
X152130952Y-52726190D01*
X152107142Y-52964285D01*
X152130952Y-52940476D01*
X152178571Y-52916666D01*
X152297619Y-52916666D01*
X152345238Y-52940476D01*
X152369047Y-52964285D01*
X152392857Y-53011904D01*
X152392857Y-53130952D01*
X152369047Y-53178571D01*
X152345238Y-53202380D01*
X152297619Y-53226190D01*
X152178571Y-53226190D01*
X152130952Y-53202380D01*
X152107142Y-53178571D01*
X107916666Y-88226190D02*
X107750000Y-87988095D01*
X107630952Y-88226190D02*
X107630952Y-87726190D01*
X107821428Y-87726190D01*
X107869047Y-87750000D01*
X107892857Y-87773809D01*
X107916666Y-87821428D01*
X107916666Y-87892857D01*
X107892857Y-87940476D01*
X107869047Y-87964285D01*
X107821428Y-87988095D01*
X107630952Y-87988095D01*
X108369047Y-87726190D02*
X108130952Y-87726190D01*
X108107142Y-87964285D01*
X108130952Y-87940476D01*
X108178571Y-87916666D01*
X108297619Y-87916666D01*
X108345238Y-87940476D01*
X108369047Y-87964285D01*
X108392857Y-88011904D01*
X108392857Y-88130952D01*
X108369047Y-88178571D01*
X108345238Y-88202380D01*
X108297619Y-88226190D01*
X108178571Y-88226190D01*
X108130952Y-88202380D01*
X108107142Y-88178571D01*
D12*
X183057142Y-105057142D02*
X183009523Y-105104761D01*
X182866666Y-105152380D01*
X182771428Y-105152380D01*
X182628571Y-105104761D01*
X182533333Y-105009523D01*
X182485714Y-104914285D01*
X182438095Y-104723809D01*
X182438095Y-104580952D01*
X182485714Y-104390476D01*
X182533333Y-104295238D01*
X182628571Y-104200000D01*
X182771428Y-104152380D01*
X182866666Y-104152380D01*
X183009523Y-104200000D01*
X183057142Y-104247619D01*
X184009523Y-105152380D02*
X183438095Y-105152380D01*
X183723809Y-105152380D02*
X183723809Y-104152380D01*
X183628571Y-104295238D01*
X183533333Y-104390476D01*
X183438095Y-104438095D01*
X184390476Y-104247619D02*
X184438095Y-104200000D01*
X184533333Y-104152380D01*
X184771428Y-104152380D01*
X184866666Y-104200000D01*
X184914285Y-104247619D01*
X184961904Y-104342857D01*
X184961904Y-104438095D01*
X184914285Y-104580952D01*
X184342857Y-105152380D01*
X184961904Y-105152380D01*
X183057142Y-70057142D02*
X183009523Y-70104761D01*
X182866666Y-70152380D01*
X182771428Y-70152380D01*
X182628571Y-70104761D01*
X182533333Y-70009523D01*
X182485714Y-69914285D01*
X182438095Y-69723809D01*
X182438095Y-69580952D01*
X182485714Y-69390476D01*
X182533333Y-69295238D01*
X182628571Y-69200000D01*
X182771428Y-69152380D01*
X182866666Y-69152380D01*
X183009523Y-69200000D01*
X183057142Y-69247619D01*
X184009523Y-70152380D02*
X183438095Y-70152380D01*
X183723809Y-70152380D02*
X183723809Y-69152380D01*
X183628571Y-69295238D01*
X183533333Y-69390476D01*
X183438095Y-69438095D01*
X184390476Y-69247619D02*
X184438095Y-69200000D01*
X184533333Y-69152380D01*
X184771428Y-69152380D01*
X184866666Y-69200000D01*
X184914285Y-69247619D01*
X184961904Y-69342857D01*
X184961904Y-69438095D01*
X184914285Y-69580952D01*
X184342857Y-70152380D01*
X184961904Y-70152380D01*
X139057142Y-105057142D02*
X139009523Y-105104761D01*
X138866666Y-105152380D01*
X138771428Y-105152380D01*
X138628571Y-105104761D01*
X138533333Y-105009523D01*
X138485714Y-104914285D01*
X138438095Y-104723809D01*
X138438095Y-104580952D01*
X138485714Y-104390476D01*
X138533333Y-104295238D01*
X138628571Y-104200000D01*
X138771428Y-104152380D01*
X138866666Y-104152380D01*
X139009523Y-104200000D01*
X139057142Y-104247619D01*
X140009523Y-105152380D02*
X139438095Y-105152380D01*
X139723809Y-105152380D02*
X139723809Y-104152380D01*
X139628571Y-104295238D01*
X139533333Y-104390476D01*
X139438095Y-104438095D01*
X140390476Y-104247619D02*
X140438095Y-104200000D01*
X140533333Y-104152380D01*
X140771428Y-104152380D01*
X140866666Y-104200000D01*
X140914285Y-104247619D01*
X140961904Y-104342857D01*
X140961904Y-104438095D01*
X140914285Y-104580952D01*
X140342857Y-105152380D01*
X140961904Y-105152380D01*
X163833333Y-117452380D02*
X163500000Y-116976190D01*
X163261904Y-117452380D02*
X163261904Y-116452380D01*
X163642857Y-116452380D01*
X163738095Y-116500000D01*
X163785714Y-116547619D01*
X163833333Y-116642857D01*
X163833333Y-116785714D01*
X163785714Y-116880952D01*
X163738095Y-116928571D01*
X163642857Y-116976190D01*
X163261904Y-116976190D01*
X164166666Y-116452380D02*
X164833333Y-116452380D01*
X164404761Y-117452380D01*
X163833333Y-82452380D02*
X163500000Y-81976190D01*
X163261904Y-82452380D02*
X163261904Y-81452380D01*
X163642857Y-81452380D01*
X163738095Y-81500000D01*
X163785714Y-81547619D01*
X163833333Y-81642857D01*
X163833333Y-81785714D01*
X163785714Y-81880952D01*
X163738095Y-81928571D01*
X163642857Y-81976190D01*
X163261904Y-81976190D01*
X164166666Y-81452380D02*
X164833333Y-81452380D01*
X164404761Y-82452380D01*
X119833333Y-117452380D02*
X119500000Y-116976190D01*
X119261904Y-117452380D02*
X119261904Y-116452380D01*
X119642857Y-116452380D01*
X119738095Y-116500000D01*
X119785714Y-116547619D01*
X119833333Y-116642857D01*
X119833333Y-116785714D01*
X119785714Y-116880952D01*
X119738095Y-116928571D01*
X119642857Y-116976190D01*
X119261904Y-116976190D01*
X120166666Y-116452380D02*
X120833333Y-116452380D01*
X120404761Y-117452380D01*
X163833333Y-114452380D02*
X163500000Y-113976190D01*
X163261904Y-114452380D02*
X163261904Y-113452380D01*
X163642857Y-113452380D01*
X163738095Y-113500000D01*
X163785714Y-113547619D01*
X163833333Y-113642857D01*
X163833333Y-113785714D01*
X163785714Y-113880952D01*
X163738095Y-113928571D01*
X163642857Y-113976190D01*
X163261904Y-113976190D01*
X164690476Y-113452380D02*
X164500000Y-113452380D01*
X164404761Y-113500000D01*
X164357142Y-113547619D01*
X164261904Y-113690476D01*
X164214285Y-113880952D01*
X164214285Y-114261904D01*
X164261904Y-114357142D01*
X164309523Y-114404761D01*
X164404761Y-114452380D01*
X164595238Y-114452380D01*
X164690476Y-114404761D01*
X164738095Y-114357142D01*
X164785714Y-114261904D01*
X164785714Y-114023809D01*
X164738095Y-113928571D01*
X164690476Y-113880952D01*
X164595238Y-113833333D01*
X164404761Y-113833333D01*
X164309523Y-113880952D01*
X164261904Y-113928571D01*
X164214285Y-114023809D01*
X163833333Y-79452380D02*
X163500000Y-78976190D01*
X163261904Y-79452380D02*
X163261904Y-78452380D01*
X163642857Y-78452380D01*
X163738095Y-78500000D01*
X163785714Y-78547619D01*
X163833333Y-78642857D01*
X163833333Y-78785714D01*
X163785714Y-78880952D01*
X163738095Y-78928571D01*
X163642857Y-78976190D01*
X163261904Y-78976190D01*
X164690476Y-78452380D02*
X164500000Y-78452380D01*
X164404761Y-78500000D01*
X164357142Y-78547619D01*
X164261904Y-78690476D01*
X164214285Y-78880952D01*
X164214285Y-79261904D01*
X164261904Y-79357142D01*
X164309523Y-79404761D01*
X164404761Y-79452380D01*
X164595238Y-79452380D01*
X164690476Y-79404761D01*
X164738095Y-79357142D01*
X164785714Y-79261904D01*
X164785714Y-79023809D01*
X164738095Y-78928571D01*
X164690476Y-78880952D01*
X164595238Y-78833333D01*
X164404761Y-78833333D01*
X164309523Y-78880952D01*
X164261904Y-78928571D01*
X164214285Y-79023809D01*
X119833333Y-114452380D02*
X119500000Y-113976190D01*
X119261904Y-114452380D02*
X119261904Y-113452380D01*
X119642857Y-113452380D01*
X119738095Y-113500000D01*
X119785714Y-113547619D01*
X119833333Y-113642857D01*
X119833333Y-113785714D01*
X119785714Y-113880952D01*
X119738095Y-113928571D01*
X119642857Y-113976190D01*
X119261904Y-113976190D01*
X120690476Y-113452380D02*
X120500000Y-113452380D01*
X120404761Y-113500000D01*
X120357142Y-113547619D01*
X120261904Y-113690476D01*
X120214285Y-113880952D01*
X120214285Y-114261904D01*
X120261904Y-114357142D01*
X120309523Y-114404761D01*
X120404761Y-114452380D01*
X120595238Y-114452380D01*
X120690476Y-114404761D01*
X120738095Y-114357142D01*
X120785714Y-114261904D01*
X120785714Y-114023809D01*
X120738095Y-113928571D01*
X120690476Y-113880952D01*
X120595238Y-113833333D01*
X120404761Y-113833333D01*
X120309523Y-113880952D01*
X120261904Y-113928571D01*
X120214285Y-114023809D01*
X159833333Y-88757142D02*
X159785714Y-88804761D01*
X159642857Y-88852380D01*
X159547619Y-88852380D01*
X159404761Y-88804761D01*
X159309523Y-88709523D01*
X159261904Y-88614285D01*
X159214285Y-88423809D01*
X159214285Y-88280952D01*
X159261904Y-88090476D01*
X159309523Y-87995238D01*
X159404761Y-87900000D01*
X159547619Y-87852380D01*
X159642857Y-87852380D01*
X159785714Y-87900000D01*
X159833333Y-87947619D01*
X160166666Y-87852380D02*
X160833333Y-87852380D01*
X160404761Y-88852380D01*
X159833333Y-53757142D02*
X159785714Y-53804761D01*
X159642857Y-53852380D01*
X159547619Y-53852380D01*
X159404761Y-53804761D01*
X159309523Y-53709523D01*
X159261904Y-53614285D01*
X159214285Y-53423809D01*
X159214285Y-53280952D01*
X159261904Y-53090476D01*
X159309523Y-52995238D01*
X159404761Y-52900000D01*
X159547619Y-52852380D01*
X159642857Y-52852380D01*
X159785714Y-52900000D01*
X159833333Y-52947619D01*
X160166666Y-52852380D02*
X160833333Y-52852380D01*
X160404761Y-53852380D01*
X115833333Y-88757142D02*
X115785714Y-88804761D01*
X115642857Y-88852380D01*
X115547619Y-88852380D01*
X115404761Y-88804761D01*
X115309523Y-88709523D01*
X115261904Y-88614285D01*
X115214285Y-88423809D01*
X115214285Y-88280952D01*
X115261904Y-88090476D01*
X115309523Y-87995238D01*
X115404761Y-87900000D01*
X115547619Y-87852380D01*
X115642857Y-87852380D01*
X115785714Y-87900000D01*
X115833333Y-87947619D01*
X116166666Y-87852380D02*
X116833333Y-87852380D01*
X116404761Y-88852380D01*
X163561904Y-105552380D02*
X163561904Y-104552380D01*
X163942857Y-104552380D01*
X164038095Y-104600000D01*
X164085714Y-104647619D01*
X164133333Y-104742857D01*
X164133333Y-104885714D01*
X164085714Y-104980952D01*
X164038095Y-105028571D01*
X163942857Y-105076190D01*
X163561904Y-105076190D01*
X165085714Y-105552380D02*
X164514285Y-105552380D01*
X164800000Y-105552380D02*
X164800000Y-104552380D01*
X164704761Y-104695238D01*
X164609523Y-104790476D01*
X164514285Y-104838095D01*
X163561904Y-70552380D02*
X163561904Y-69552380D01*
X163942857Y-69552380D01*
X164038095Y-69600000D01*
X164085714Y-69647619D01*
X164133333Y-69742857D01*
X164133333Y-69885714D01*
X164085714Y-69980952D01*
X164038095Y-70028571D01*
X163942857Y-70076190D01*
X163561904Y-70076190D01*
X165085714Y-70552380D02*
X164514285Y-70552380D01*
X164800000Y-70552380D02*
X164800000Y-69552380D01*
X164704761Y-69695238D01*
X164609523Y-69790476D01*
X164514285Y-69838095D01*
X119561904Y-105552380D02*
X119561904Y-104552380D01*
X119942857Y-104552380D01*
X120038095Y-104600000D01*
X120085714Y-104647619D01*
X120133333Y-104742857D01*
X120133333Y-104885714D01*
X120085714Y-104980952D01*
X120038095Y-105028571D01*
X119942857Y-105076190D01*
X119561904Y-105076190D01*
X121085714Y-105552380D02*
X120514285Y-105552380D01*
X120800000Y-105552380D02*
X120800000Y-104552380D01*
X120704761Y-104695238D01*
X120609523Y-104790476D01*
X120514285Y-104838095D01*
X178857142Y-112857142D02*
X178809523Y-112904761D01*
X178666666Y-112952380D01*
X178571428Y-112952380D01*
X178428571Y-112904761D01*
X178333333Y-112809523D01*
X178285714Y-112714285D01*
X178238095Y-112523809D01*
X178238095Y-112380952D01*
X178285714Y-112190476D01*
X178333333Y-112095238D01*
X178428571Y-112000000D01*
X178571428Y-111952380D01*
X178666666Y-111952380D01*
X178809523Y-112000000D01*
X178857142Y-112047619D01*
X179809523Y-112952380D02*
X179238095Y-112952380D01*
X179523809Y-112952380D02*
X179523809Y-111952380D01*
X179428571Y-112095238D01*
X179333333Y-112190476D01*
X179238095Y-112238095D01*
X180761904Y-112952380D02*
X180190476Y-112952380D01*
X180476190Y-112952380D02*
X180476190Y-111952380D01*
X180380952Y-112095238D01*
X180285714Y-112190476D01*
X180190476Y-112238095D01*
X178857142Y-77857142D02*
X178809523Y-77904761D01*
X178666666Y-77952380D01*
X178571428Y-77952380D01*
X178428571Y-77904761D01*
X178333333Y-77809523D01*
X178285714Y-77714285D01*
X178238095Y-77523809D01*
X178238095Y-77380952D01*
X178285714Y-77190476D01*
X178333333Y-77095238D01*
X178428571Y-77000000D01*
X178571428Y-76952380D01*
X178666666Y-76952380D01*
X178809523Y-77000000D01*
X178857142Y-77047619D01*
X179809523Y-77952380D02*
X179238095Y-77952380D01*
X179523809Y-77952380D02*
X179523809Y-76952380D01*
X179428571Y-77095238D01*
X179333333Y-77190476D01*
X179238095Y-77238095D01*
X180761904Y-77952380D02*
X180190476Y-77952380D01*
X180476190Y-77952380D02*
X180476190Y-76952380D01*
X180380952Y-77095238D01*
X180285714Y-77190476D01*
X180190476Y-77238095D01*
X134857142Y-112857142D02*
X134809523Y-112904761D01*
X134666666Y-112952380D01*
X134571428Y-112952380D01*
X134428571Y-112904761D01*
X134333333Y-112809523D01*
X134285714Y-112714285D01*
X134238095Y-112523809D01*
X134238095Y-112380952D01*
X134285714Y-112190476D01*
X134333333Y-112095238D01*
X134428571Y-112000000D01*
X134571428Y-111952380D01*
X134666666Y-111952380D01*
X134809523Y-112000000D01*
X134857142Y-112047619D01*
X135809523Y-112952380D02*
X135238095Y-112952380D01*
X135523809Y-112952380D02*
X135523809Y-111952380D01*
X135428571Y-112095238D01*
X135333333Y-112190476D01*
X135238095Y-112238095D01*
X136761904Y-112952380D02*
X136190476Y-112952380D01*
X136476190Y-112952380D02*
X136476190Y-111952380D01*
X136380952Y-112095238D01*
X136285714Y-112190476D01*
X136190476Y-112238095D01*
X179861904Y-92702380D02*
X179861904Y-91702380D01*
X180100000Y-91702380D01*
X180242857Y-91750000D01*
X180338095Y-91845238D01*
X180385714Y-91940476D01*
X180433333Y-92130952D01*
X180433333Y-92273809D01*
X180385714Y-92464285D01*
X180338095Y-92559523D01*
X180242857Y-92654761D01*
X180100000Y-92702380D01*
X179861904Y-92702380D01*
X181385714Y-92702380D02*
X180814285Y-92702380D01*
X181100000Y-92702380D02*
X181100000Y-91702380D01*
X181004761Y-91845238D01*
X180909523Y-91940476D01*
X180814285Y-91988095D01*
X179861904Y-57702380D02*
X179861904Y-56702380D01*
X180100000Y-56702380D01*
X180242857Y-56750000D01*
X180338095Y-56845238D01*
X180385714Y-56940476D01*
X180433333Y-57130952D01*
X180433333Y-57273809D01*
X180385714Y-57464285D01*
X180338095Y-57559523D01*
X180242857Y-57654761D01*
X180100000Y-57702380D01*
X179861904Y-57702380D01*
X181385714Y-57702380D02*
X180814285Y-57702380D01*
X181100000Y-57702380D02*
X181100000Y-56702380D01*
X181004761Y-56845238D01*
X180909523Y-56940476D01*
X180814285Y-56988095D01*
X135861904Y-92702380D02*
X135861904Y-91702380D01*
X136100000Y-91702380D01*
X136242857Y-91750000D01*
X136338095Y-91845238D01*
X136385714Y-91940476D01*
X136433333Y-92130952D01*
X136433333Y-92273809D01*
X136385714Y-92464285D01*
X136338095Y-92559523D01*
X136242857Y-92654761D01*
X136100000Y-92702380D01*
X135861904Y-92702380D01*
X137385714Y-92702380D02*
X136814285Y-92702380D01*
X137100000Y-92702380D02*
X137100000Y-91702380D01*
X137004761Y-91845238D01*
X136909523Y-91940476D01*
X136814285Y-91988095D01*
X172633333Y-93807142D02*
X172585714Y-93854761D01*
X172442857Y-93902380D01*
X172347619Y-93902380D01*
X172204761Y-93854761D01*
X172109523Y-93759523D01*
X172061904Y-93664285D01*
X172014285Y-93473809D01*
X172014285Y-93330952D01*
X172061904Y-93140476D01*
X172109523Y-93045238D01*
X172204761Y-92950000D01*
X172347619Y-92902380D01*
X172442857Y-92902380D01*
X172585714Y-92950000D01*
X172633333Y-92997619D01*
X173585714Y-93902380D02*
X173014285Y-93902380D01*
X173300000Y-93902380D02*
X173300000Y-92902380D01*
X173204761Y-93045238D01*
X173109523Y-93140476D01*
X173014285Y-93188095D01*
X172633333Y-58807142D02*
X172585714Y-58854761D01*
X172442857Y-58902380D01*
X172347619Y-58902380D01*
X172204761Y-58854761D01*
X172109523Y-58759523D01*
X172061904Y-58664285D01*
X172014285Y-58473809D01*
X172014285Y-58330952D01*
X172061904Y-58140476D01*
X172109523Y-58045238D01*
X172204761Y-57950000D01*
X172347619Y-57902380D01*
X172442857Y-57902380D01*
X172585714Y-57950000D01*
X172633333Y-57997619D01*
X173585714Y-58902380D02*
X173014285Y-58902380D01*
X173300000Y-58902380D02*
X173300000Y-57902380D01*
X173204761Y-58045238D01*
X173109523Y-58140476D01*
X173014285Y-58188095D01*
X128633333Y-93807142D02*
X128585714Y-93854761D01*
X128442857Y-93902380D01*
X128347619Y-93902380D01*
X128204761Y-93854761D01*
X128109523Y-93759523D01*
X128061904Y-93664285D01*
X128014285Y-93473809D01*
X128014285Y-93330952D01*
X128061904Y-93140476D01*
X128109523Y-93045238D01*
X128204761Y-92950000D01*
X128347619Y-92902380D01*
X128442857Y-92902380D01*
X128585714Y-92950000D01*
X128633333Y-92997619D01*
X129585714Y-93902380D02*
X129014285Y-93902380D01*
X129300000Y-93902380D02*
X129300000Y-92902380D01*
X129204761Y-93045238D01*
X129109523Y-93140476D01*
X129014285Y-93188095D01*
X163780952Y-95752380D02*
X163304761Y-95752380D01*
X163304761Y-94752380D01*
X164114285Y-95228571D02*
X164447619Y-95228571D01*
X164590476Y-95752380D02*
X164114285Y-95752380D01*
X164114285Y-94752380D01*
X164590476Y-94752380D01*
X165019047Y-95752380D02*
X165019047Y-94752380D01*
X165257142Y-94752380D01*
X165400000Y-94800000D01*
X165495238Y-94895238D01*
X165542857Y-94990476D01*
X165590476Y-95180952D01*
X165590476Y-95323809D01*
X165542857Y-95514285D01*
X165495238Y-95609523D01*
X165400000Y-95704761D01*
X165257142Y-95752380D01*
X165019047Y-95752380D01*
X166542857Y-95752380D02*
X165971428Y-95752380D01*
X166257142Y-95752380D02*
X166257142Y-94752380D01*
X166161904Y-94895238D01*
X166066666Y-94990476D01*
X165971428Y-95038095D01*
X163780952Y-60752380D02*
X163304761Y-60752380D01*
X163304761Y-59752380D01*
X164114285Y-60228571D02*
X164447619Y-60228571D01*
X164590476Y-60752380D02*
X164114285Y-60752380D01*
X164114285Y-59752380D01*
X164590476Y-59752380D01*
X165019047Y-60752380D02*
X165019047Y-59752380D01*
X165257142Y-59752380D01*
X165400000Y-59800000D01*
X165495238Y-59895238D01*
X165542857Y-59990476D01*
X165590476Y-60180952D01*
X165590476Y-60323809D01*
X165542857Y-60514285D01*
X165495238Y-60609523D01*
X165400000Y-60704761D01*
X165257142Y-60752380D01*
X165019047Y-60752380D01*
X166542857Y-60752380D02*
X165971428Y-60752380D01*
X166257142Y-60752380D02*
X166257142Y-59752380D01*
X166161904Y-59895238D01*
X166066666Y-59990476D01*
X165971428Y-60038095D01*
X119780952Y-95752380D02*
X119304761Y-95752380D01*
X119304761Y-94752380D01*
X120114285Y-95228571D02*
X120447619Y-95228571D01*
X120590476Y-95752380D02*
X120114285Y-95752380D01*
X120114285Y-94752380D01*
X120590476Y-94752380D01*
X121019047Y-95752380D02*
X121019047Y-94752380D01*
X121257142Y-94752380D01*
X121400000Y-94800000D01*
X121495238Y-94895238D01*
X121542857Y-94990476D01*
X121590476Y-95180952D01*
X121590476Y-95323809D01*
X121542857Y-95514285D01*
X121495238Y-95609523D01*
X121400000Y-95704761D01*
X121257142Y-95752380D01*
X121019047Y-95752380D01*
X122542857Y-95752380D02*
X121971428Y-95752380D01*
X122257142Y-95752380D02*
X122257142Y-94752380D01*
X122161904Y-94895238D01*
X122066666Y-94990476D01*
X121971428Y-95038095D01*
X167333333Y-97952380D02*
X167000000Y-97476190D01*
X166761904Y-97952380D02*
X166761904Y-96952380D01*
X167142857Y-96952380D01*
X167238095Y-97000000D01*
X167285714Y-97047619D01*
X167333333Y-97142857D01*
X167333333Y-97285714D01*
X167285714Y-97380952D01*
X167238095Y-97428571D01*
X167142857Y-97476190D01*
X166761904Y-97476190D01*
X167666666Y-96952380D02*
X168285714Y-96952380D01*
X167952380Y-97333333D01*
X168095238Y-97333333D01*
X168190476Y-97380952D01*
X168238095Y-97428571D01*
X168285714Y-97523809D01*
X168285714Y-97761904D01*
X168238095Y-97857142D01*
X168190476Y-97904761D01*
X168095238Y-97952380D01*
X167809523Y-97952380D01*
X167714285Y-97904761D01*
X167666666Y-97857142D01*
X167333333Y-62952380D02*
X167000000Y-62476190D01*
X166761904Y-62952380D02*
X166761904Y-61952380D01*
X167142857Y-61952380D01*
X167238095Y-62000000D01*
X167285714Y-62047619D01*
X167333333Y-62142857D01*
X167333333Y-62285714D01*
X167285714Y-62380952D01*
X167238095Y-62428571D01*
X167142857Y-62476190D01*
X166761904Y-62476190D01*
X167666666Y-61952380D02*
X168285714Y-61952380D01*
X167952380Y-62333333D01*
X168095238Y-62333333D01*
X168190476Y-62380952D01*
X168238095Y-62428571D01*
X168285714Y-62523809D01*
X168285714Y-62761904D01*
X168238095Y-62857142D01*
X168190476Y-62904761D01*
X168095238Y-62952380D01*
X167809523Y-62952380D01*
X167714285Y-62904761D01*
X167666666Y-62857142D01*
X123333333Y-97952380D02*
X123000000Y-97476190D01*
X122761904Y-97952380D02*
X122761904Y-96952380D01*
X123142857Y-96952380D01*
X123238095Y-97000000D01*
X123285714Y-97047619D01*
X123333333Y-97142857D01*
X123333333Y-97285714D01*
X123285714Y-97380952D01*
X123238095Y-97428571D01*
X123142857Y-97476190D01*
X122761904Y-97476190D01*
X123666666Y-96952380D02*
X124285714Y-96952380D01*
X123952380Y-97333333D01*
X124095238Y-97333333D01*
X124190476Y-97380952D01*
X124238095Y-97428571D01*
X124285714Y-97523809D01*
X124285714Y-97761904D01*
X124238095Y-97857142D01*
X124190476Y-97904761D01*
X124095238Y-97952380D01*
X123809523Y-97952380D01*
X123714285Y-97904761D01*
X123666666Y-97857142D01*
X151666666Y-88652380D02*
X151666666Y-89366666D01*
X151619047Y-89509523D01*
X151523809Y-89604761D01*
X151380952Y-89652380D01*
X151285714Y-89652380D01*
X152666666Y-89652380D02*
X152095238Y-89652380D01*
X152380952Y-89652380D02*
X152380952Y-88652380D01*
X152285714Y-88795238D01*
X152190476Y-88890476D01*
X152095238Y-88938095D01*
X151666666Y-53652380D02*
X151666666Y-54366666D01*
X151619047Y-54509523D01*
X151523809Y-54604761D01*
X151380952Y-54652380D01*
X151285714Y-54652380D01*
X152666666Y-54652380D02*
X152095238Y-54652380D01*
X152380952Y-54652380D02*
X152380952Y-53652380D01*
X152285714Y-53795238D01*
X152190476Y-53890476D01*
X152095238Y-53938095D01*
X107666666Y-88652380D02*
X107666666Y-89366666D01*
X107619047Y-89509523D01*
X107523809Y-89604761D01*
X107380952Y-89652380D01*
X107285714Y-89652380D01*
X108666666Y-89652380D02*
X108095238Y-89652380D01*
X108380952Y-89652380D02*
X108380952Y-88652380D01*
X108285714Y-88795238D01*
X108190476Y-88890476D01*
X108095238Y-88938095D01*
X176233333Y-107952380D02*
X175757142Y-107952380D01*
X175757142Y-106952380D01*
X177090476Y-107952380D02*
X176519047Y-107952380D01*
X176804761Y-107952380D02*
X176804761Y-106952380D01*
X176709523Y-107095238D01*
X176614285Y-107190476D01*
X176519047Y-107238095D01*
X176233333Y-72952380D02*
X175757142Y-72952380D01*
X175757142Y-71952380D01*
X177090476Y-72952380D02*
X176519047Y-72952380D01*
X176804761Y-72952380D02*
X176804761Y-71952380D01*
X176709523Y-72095238D01*
X176614285Y-72190476D01*
X176519047Y-72238095D01*
X132233333Y-107952380D02*
X131757142Y-107952380D01*
X131757142Y-106952380D01*
X133090476Y-107952380D02*
X132519047Y-107952380D01*
X132804761Y-107952380D02*
X132804761Y-106952380D01*
X132709523Y-107095238D01*
X132614285Y-107190476D01*
X132519047Y-107238095D01*
X180433333Y-95152380D02*
X180100000Y-94676190D01*
X179861904Y-95152380D02*
X179861904Y-94152380D01*
X180242857Y-94152380D01*
X180338095Y-94200000D01*
X180385714Y-94247619D01*
X180433333Y-94342857D01*
X180433333Y-94485714D01*
X180385714Y-94580952D01*
X180338095Y-94628571D01*
X180242857Y-94676190D01*
X179861904Y-94676190D01*
X181385714Y-95152380D02*
X180814285Y-95152380D01*
X181100000Y-95152380D02*
X181100000Y-94152380D01*
X181004761Y-94295238D01*
X180909523Y-94390476D01*
X180814285Y-94438095D01*
X180433333Y-60152380D02*
X180100000Y-59676190D01*
X179861904Y-60152380D02*
X179861904Y-59152380D01*
X180242857Y-59152380D01*
X180338095Y-59200000D01*
X180385714Y-59247619D01*
X180433333Y-59342857D01*
X180433333Y-59485714D01*
X180385714Y-59580952D01*
X180338095Y-59628571D01*
X180242857Y-59676190D01*
X179861904Y-59676190D01*
X181385714Y-60152380D02*
X180814285Y-60152380D01*
X181100000Y-60152380D02*
X181100000Y-59152380D01*
X181004761Y-59295238D01*
X180909523Y-59390476D01*
X180814285Y-59438095D01*
X136433333Y-95152380D02*
X136100000Y-94676190D01*
X135861904Y-95152380D02*
X135861904Y-94152380D01*
X136242857Y-94152380D01*
X136338095Y-94200000D01*
X136385714Y-94247619D01*
X136433333Y-94342857D01*
X136433333Y-94485714D01*
X136385714Y-94580952D01*
X136338095Y-94628571D01*
X136242857Y-94676190D01*
X135861904Y-94676190D01*
X137385714Y-95152380D02*
X136814285Y-95152380D01*
X137100000Y-95152380D02*
X137100000Y-94152380D01*
X137004761Y-94295238D01*
X136909523Y-94390476D01*
X136814285Y-94438095D01*
X175557142Y-116357142D02*
X175509523Y-116404761D01*
X175366666Y-116452380D01*
X175271428Y-116452380D01*
X175128571Y-116404761D01*
X175033333Y-116309523D01*
X174985714Y-116214285D01*
X174938095Y-116023809D01*
X174938095Y-115880952D01*
X174985714Y-115690476D01*
X175033333Y-115595238D01*
X175128571Y-115500000D01*
X175271428Y-115452380D01*
X175366666Y-115452380D01*
X175509523Y-115500000D01*
X175557142Y-115547619D01*
X176509523Y-116452380D02*
X175938095Y-116452380D01*
X176223809Y-116452380D02*
X176223809Y-115452380D01*
X176128571Y-115595238D01*
X176033333Y-115690476D01*
X175938095Y-115738095D01*
X177128571Y-115452380D02*
X177223809Y-115452380D01*
X177319047Y-115500000D01*
X177366666Y-115547619D01*
X177414285Y-115642857D01*
X177461904Y-115833333D01*
X177461904Y-116071428D01*
X177414285Y-116261904D01*
X177366666Y-116357142D01*
X177319047Y-116404761D01*
X177223809Y-116452380D01*
X177128571Y-116452380D01*
X177033333Y-116404761D01*
X176985714Y-116357142D01*
X176938095Y-116261904D01*
X176890476Y-116071428D01*
X176890476Y-115833333D01*
X176938095Y-115642857D01*
X176985714Y-115547619D01*
X177033333Y-115500000D01*
X177128571Y-115452380D01*
X175557142Y-81357142D02*
X175509523Y-81404761D01*
X175366666Y-81452380D01*
X175271428Y-81452380D01*
X175128571Y-81404761D01*
X175033333Y-81309523D01*
X174985714Y-81214285D01*
X174938095Y-81023809D01*
X174938095Y-80880952D01*
X174985714Y-80690476D01*
X175033333Y-80595238D01*
X175128571Y-80500000D01*
X175271428Y-80452380D01*
X175366666Y-80452380D01*
X175509523Y-80500000D01*
X175557142Y-80547619D01*
X176509523Y-81452380D02*
X175938095Y-81452380D01*
X176223809Y-81452380D02*
X176223809Y-80452380D01*
X176128571Y-80595238D01*
X176033333Y-80690476D01*
X175938095Y-80738095D01*
X177128571Y-80452380D02*
X177223809Y-80452380D01*
X177319047Y-80500000D01*
X177366666Y-80547619D01*
X177414285Y-80642857D01*
X177461904Y-80833333D01*
X177461904Y-81071428D01*
X177414285Y-81261904D01*
X177366666Y-81357142D01*
X177319047Y-81404761D01*
X177223809Y-81452380D01*
X177128571Y-81452380D01*
X177033333Y-81404761D01*
X176985714Y-81357142D01*
X176938095Y-81261904D01*
X176890476Y-81071428D01*
X176890476Y-80833333D01*
X176938095Y-80642857D01*
X176985714Y-80547619D01*
X177033333Y-80500000D01*
X177128571Y-80452380D01*
X131557142Y-116357142D02*
X131509523Y-116404761D01*
X131366666Y-116452380D01*
X131271428Y-116452380D01*
X131128571Y-116404761D01*
X131033333Y-116309523D01*
X130985714Y-116214285D01*
X130938095Y-116023809D01*
X130938095Y-115880952D01*
X130985714Y-115690476D01*
X131033333Y-115595238D01*
X131128571Y-115500000D01*
X131271428Y-115452380D01*
X131366666Y-115452380D01*
X131509523Y-115500000D01*
X131557142Y-115547619D01*
X132509523Y-116452380D02*
X131938095Y-116452380D01*
X132223809Y-116452380D02*
X132223809Y-115452380D01*
X132128571Y-115595238D01*
X132033333Y-115690476D01*
X131938095Y-115738095D01*
X133128571Y-115452380D02*
X133223809Y-115452380D01*
X133319047Y-115500000D01*
X133366666Y-115547619D01*
X133414285Y-115642857D01*
X133461904Y-115833333D01*
X133461904Y-116071428D01*
X133414285Y-116261904D01*
X133366666Y-116357142D01*
X133319047Y-116404761D01*
X133223809Y-116452380D01*
X133128571Y-116452380D01*
X133033333Y-116404761D01*
X132985714Y-116357142D01*
X132938095Y-116261904D01*
X132890476Y-116071428D01*
X132890476Y-115833333D01*
X132938095Y-115642857D01*
X132985714Y-115547619D01*
X133033333Y-115500000D01*
X133128571Y-115452380D01*
X163857142Y-119857142D02*
X163809523Y-119904761D01*
X163666666Y-119952380D01*
X163571428Y-119952380D01*
X163428571Y-119904761D01*
X163333333Y-119809523D01*
X163285714Y-119714285D01*
X163238095Y-119523809D01*
X163238095Y-119380952D01*
X163285714Y-119190476D01*
X163333333Y-119095238D01*
X163428571Y-119000000D01*
X163571428Y-118952380D01*
X163666666Y-118952380D01*
X163809523Y-119000000D01*
X163857142Y-119047619D01*
X164809523Y-119952380D02*
X164238095Y-119952380D01*
X164523809Y-119952380D02*
X164523809Y-118952380D01*
X164428571Y-119095238D01*
X164333333Y-119190476D01*
X164238095Y-119238095D01*
X165714285Y-118952380D02*
X165238095Y-118952380D01*
X165190476Y-119428571D01*
X165238095Y-119380952D01*
X165333333Y-119333333D01*
X165571428Y-119333333D01*
X165666666Y-119380952D01*
X165714285Y-119428571D01*
X165761904Y-119523809D01*
X165761904Y-119761904D01*
X165714285Y-119857142D01*
X165666666Y-119904761D01*
X165571428Y-119952380D01*
X165333333Y-119952380D01*
X165238095Y-119904761D01*
X165190476Y-119857142D01*
X163857142Y-84857142D02*
X163809523Y-84904761D01*
X163666666Y-84952380D01*
X163571428Y-84952380D01*
X163428571Y-84904761D01*
X163333333Y-84809523D01*
X163285714Y-84714285D01*
X163238095Y-84523809D01*
X163238095Y-84380952D01*
X163285714Y-84190476D01*
X163333333Y-84095238D01*
X163428571Y-84000000D01*
X163571428Y-83952380D01*
X163666666Y-83952380D01*
X163809523Y-84000000D01*
X163857142Y-84047619D01*
X164809523Y-84952380D02*
X164238095Y-84952380D01*
X164523809Y-84952380D02*
X164523809Y-83952380D01*
X164428571Y-84095238D01*
X164333333Y-84190476D01*
X164238095Y-84238095D01*
X165714285Y-83952380D02*
X165238095Y-83952380D01*
X165190476Y-84428571D01*
X165238095Y-84380952D01*
X165333333Y-84333333D01*
X165571428Y-84333333D01*
X165666666Y-84380952D01*
X165714285Y-84428571D01*
X165761904Y-84523809D01*
X165761904Y-84761904D01*
X165714285Y-84857142D01*
X165666666Y-84904761D01*
X165571428Y-84952380D01*
X165333333Y-84952380D01*
X165238095Y-84904761D01*
X165190476Y-84857142D01*
X119857142Y-119857142D02*
X119809523Y-119904761D01*
X119666666Y-119952380D01*
X119571428Y-119952380D01*
X119428571Y-119904761D01*
X119333333Y-119809523D01*
X119285714Y-119714285D01*
X119238095Y-119523809D01*
X119238095Y-119380952D01*
X119285714Y-119190476D01*
X119333333Y-119095238D01*
X119428571Y-119000000D01*
X119571428Y-118952380D01*
X119666666Y-118952380D01*
X119809523Y-119000000D01*
X119857142Y-119047619D01*
X120809523Y-119952380D02*
X120238095Y-119952380D01*
X120523809Y-119952380D02*
X120523809Y-118952380D01*
X120428571Y-119095238D01*
X120333333Y-119190476D01*
X120238095Y-119238095D01*
X121714285Y-118952380D02*
X121238095Y-118952380D01*
X121190476Y-119428571D01*
X121238095Y-119380952D01*
X121333333Y-119333333D01*
X121571428Y-119333333D01*
X121666666Y-119380952D01*
X121714285Y-119428571D01*
X121761904Y-119523809D01*
X121761904Y-119761904D01*
X121714285Y-119857142D01*
X121666666Y-119904761D01*
X121571428Y-119952380D01*
X121333333Y-119952380D01*
X121238095Y-119904761D01*
X121190476Y-119857142D01*
X183033333Y-109057142D02*
X182985714Y-109104761D01*
X182842857Y-109152380D01*
X182747619Y-109152380D01*
X182604761Y-109104761D01*
X182509523Y-109009523D01*
X182461904Y-108914285D01*
X182414285Y-108723809D01*
X182414285Y-108580952D01*
X182461904Y-108390476D01*
X182509523Y-108295238D01*
X182604761Y-108200000D01*
X182747619Y-108152380D01*
X182842857Y-108152380D01*
X182985714Y-108200000D01*
X183033333Y-108247619D01*
X183509523Y-109152380D02*
X183700000Y-109152380D01*
X183795238Y-109104761D01*
X183842857Y-109057142D01*
X183938095Y-108914285D01*
X183985714Y-108723809D01*
X183985714Y-108342857D01*
X183938095Y-108247619D01*
X183890476Y-108200000D01*
X183795238Y-108152380D01*
X183604761Y-108152380D01*
X183509523Y-108200000D01*
X183461904Y-108247619D01*
X183414285Y-108342857D01*
X183414285Y-108580952D01*
X183461904Y-108676190D01*
X183509523Y-108723809D01*
X183604761Y-108771428D01*
X183795238Y-108771428D01*
X183890476Y-108723809D01*
X183938095Y-108676190D01*
X183985714Y-108580952D01*
X183033333Y-74057142D02*
X182985714Y-74104761D01*
X182842857Y-74152380D01*
X182747619Y-74152380D01*
X182604761Y-74104761D01*
X182509523Y-74009523D01*
X182461904Y-73914285D01*
X182414285Y-73723809D01*
X182414285Y-73580952D01*
X182461904Y-73390476D01*
X182509523Y-73295238D01*
X182604761Y-73200000D01*
X182747619Y-73152380D01*
X182842857Y-73152380D01*
X182985714Y-73200000D01*
X183033333Y-73247619D01*
X183509523Y-74152380D02*
X183700000Y-74152380D01*
X183795238Y-74104761D01*
X183842857Y-74057142D01*
X183938095Y-73914285D01*
X183985714Y-73723809D01*
X183985714Y-73342857D01*
X183938095Y-73247619D01*
X183890476Y-73200000D01*
X183795238Y-73152380D01*
X183604761Y-73152380D01*
X183509523Y-73200000D01*
X183461904Y-73247619D01*
X183414285Y-73342857D01*
X183414285Y-73580952D01*
X183461904Y-73676190D01*
X183509523Y-73723809D01*
X183604761Y-73771428D01*
X183795238Y-73771428D01*
X183890476Y-73723809D01*
X183938095Y-73676190D01*
X183985714Y-73580952D01*
X139033333Y-109057142D02*
X138985714Y-109104761D01*
X138842857Y-109152380D01*
X138747619Y-109152380D01*
X138604761Y-109104761D01*
X138509523Y-109009523D01*
X138461904Y-108914285D01*
X138414285Y-108723809D01*
X138414285Y-108580952D01*
X138461904Y-108390476D01*
X138509523Y-108295238D01*
X138604761Y-108200000D01*
X138747619Y-108152380D01*
X138842857Y-108152380D01*
X138985714Y-108200000D01*
X139033333Y-108247619D01*
X139509523Y-109152380D02*
X139700000Y-109152380D01*
X139795238Y-109104761D01*
X139842857Y-109057142D01*
X139938095Y-108914285D01*
X139985714Y-108723809D01*
X139985714Y-108342857D01*
X139938095Y-108247619D01*
X139890476Y-108200000D01*
X139795238Y-108152380D01*
X139604761Y-108152380D01*
X139509523Y-108200000D01*
X139461904Y-108247619D01*
X139414285Y-108342857D01*
X139414285Y-108580952D01*
X139461904Y-108676190D01*
X139509523Y-108723809D01*
X139604761Y-108771428D01*
X139795238Y-108771428D01*
X139890476Y-108723809D01*
X139938095Y-108676190D01*
X139985714Y-108580952D01*
X171383333Y-106557142D02*
X171335714Y-106604761D01*
X171192857Y-106652380D01*
X171097619Y-106652380D01*
X170954761Y-106604761D01*
X170859523Y-106509523D01*
X170811904Y-106414285D01*
X170764285Y-106223809D01*
X170764285Y-106080952D01*
X170811904Y-105890476D01*
X170859523Y-105795238D01*
X170954761Y-105700000D01*
X171097619Y-105652380D01*
X171192857Y-105652380D01*
X171335714Y-105700000D01*
X171383333Y-105747619D01*
X172240476Y-105652380D02*
X172050000Y-105652380D01*
X171954761Y-105700000D01*
X171907142Y-105747619D01*
X171811904Y-105890476D01*
X171764285Y-106080952D01*
X171764285Y-106461904D01*
X171811904Y-106557142D01*
X171859523Y-106604761D01*
X171954761Y-106652380D01*
X172145238Y-106652380D01*
X172240476Y-106604761D01*
X172288095Y-106557142D01*
X172335714Y-106461904D01*
X172335714Y-106223809D01*
X172288095Y-106128571D01*
X172240476Y-106080952D01*
X172145238Y-106033333D01*
X171954761Y-106033333D01*
X171859523Y-106080952D01*
X171811904Y-106128571D01*
X171764285Y-106223809D01*
X171383333Y-71557142D02*
X171335714Y-71604761D01*
X171192857Y-71652380D01*
X171097619Y-71652380D01*
X170954761Y-71604761D01*
X170859523Y-71509523D01*
X170811904Y-71414285D01*
X170764285Y-71223809D01*
X170764285Y-71080952D01*
X170811904Y-70890476D01*
X170859523Y-70795238D01*
X170954761Y-70700000D01*
X171097619Y-70652380D01*
X171192857Y-70652380D01*
X171335714Y-70700000D01*
X171383333Y-70747619D01*
X172240476Y-70652380D02*
X172050000Y-70652380D01*
X171954761Y-70700000D01*
X171907142Y-70747619D01*
X171811904Y-70890476D01*
X171764285Y-71080952D01*
X171764285Y-71461904D01*
X171811904Y-71557142D01*
X171859523Y-71604761D01*
X171954761Y-71652380D01*
X172145238Y-71652380D01*
X172240476Y-71604761D01*
X172288095Y-71557142D01*
X172335714Y-71461904D01*
X172335714Y-71223809D01*
X172288095Y-71128571D01*
X172240476Y-71080952D01*
X172145238Y-71033333D01*
X171954761Y-71033333D01*
X171859523Y-71080952D01*
X171811904Y-71128571D01*
X171764285Y-71223809D01*
X127383333Y-106557142D02*
X127335714Y-106604761D01*
X127192857Y-106652380D01*
X127097619Y-106652380D01*
X126954761Y-106604761D01*
X126859523Y-106509523D01*
X126811904Y-106414285D01*
X126764285Y-106223809D01*
X126764285Y-106080952D01*
X126811904Y-105890476D01*
X126859523Y-105795238D01*
X126954761Y-105700000D01*
X127097619Y-105652380D01*
X127192857Y-105652380D01*
X127335714Y-105700000D01*
X127383333Y-105747619D01*
X128240476Y-105652380D02*
X128050000Y-105652380D01*
X127954761Y-105700000D01*
X127907142Y-105747619D01*
X127811904Y-105890476D01*
X127764285Y-106080952D01*
X127764285Y-106461904D01*
X127811904Y-106557142D01*
X127859523Y-106604761D01*
X127954761Y-106652380D01*
X128145238Y-106652380D01*
X128240476Y-106604761D01*
X128288095Y-106557142D01*
X128335714Y-106461904D01*
X128335714Y-106223809D01*
X128288095Y-106128571D01*
X128240476Y-106080952D01*
X128145238Y-106033333D01*
X127954761Y-106033333D01*
X127859523Y-106080952D01*
X127811904Y-106128571D01*
X127764285Y-106223809D01*
X152433333Y-94357142D02*
X152385714Y-94404761D01*
X152242857Y-94452380D01*
X152147619Y-94452380D01*
X152004761Y-94404761D01*
X151909523Y-94309523D01*
X151861904Y-94214285D01*
X151814285Y-94023809D01*
X151814285Y-93880952D01*
X151861904Y-93690476D01*
X151909523Y-93595238D01*
X152004761Y-93500000D01*
X152147619Y-93452380D01*
X152242857Y-93452380D01*
X152385714Y-93500000D01*
X152433333Y-93547619D01*
X152814285Y-93547619D02*
X152861904Y-93500000D01*
X152957142Y-93452380D01*
X153195238Y-93452380D01*
X153290476Y-93500000D01*
X153338095Y-93547619D01*
X153385714Y-93642857D01*
X153385714Y-93738095D01*
X153338095Y-93880952D01*
X152766666Y-94452380D01*
X153385714Y-94452380D01*
X152433333Y-59357142D02*
X152385714Y-59404761D01*
X152242857Y-59452380D01*
X152147619Y-59452380D01*
X152004761Y-59404761D01*
X151909523Y-59309523D01*
X151861904Y-59214285D01*
X151814285Y-59023809D01*
X151814285Y-58880952D01*
X151861904Y-58690476D01*
X151909523Y-58595238D01*
X152004761Y-58500000D01*
X152147619Y-58452380D01*
X152242857Y-58452380D01*
X152385714Y-58500000D01*
X152433333Y-58547619D01*
X152814285Y-58547619D02*
X152861904Y-58500000D01*
X152957142Y-58452380D01*
X153195238Y-58452380D01*
X153290476Y-58500000D01*
X153338095Y-58547619D01*
X153385714Y-58642857D01*
X153385714Y-58738095D01*
X153338095Y-58880952D01*
X152766666Y-59452380D01*
X153385714Y-59452380D01*
X108433333Y-94357142D02*
X108385714Y-94404761D01*
X108242857Y-94452380D01*
X108147619Y-94452380D01*
X108004761Y-94404761D01*
X107909523Y-94309523D01*
X107861904Y-94214285D01*
X107814285Y-94023809D01*
X107814285Y-93880952D01*
X107861904Y-93690476D01*
X107909523Y-93595238D01*
X108004761Y-93500000D01*
X108147619Y-93452380D01*
X108242857Y-93452380D01*
X108385714Y-93500000D01*
X108433333Y-93547619D01*
X108814285Y-93547619D02*
X108861904Y-93500000D01*
X108957142Y-93452380D01*
X109195238Y-93452380D01*
X109290476Y-93500000D01*
X109338095Y-93547619D01*
X109385714Y-93642857D01*
X109385714Y-93738095D01*
X109338095Y-93880952D01*
X108766666Y-94452380D01*
X109385714Y-94452380D01*
D15*
X155666056Y-101451378D02*
X155666056Y-102166971D01*
X155618350Y-102310090D01*
X155522938Y-102405502D01*
X155379819Y-102453208D01*
X155284407Y-102453208D01*
X156095412Y-101546791D02*
X156143118Y-101499085D01*
X156238530Y-101451378D01*
X156477061Y-101451378D01*
X156572474Y-101499085D01*
X156620180Y-101546791D01*
X156667886Y-101642203D01*
X156667886Y-101737615D01*
X156620180Y-101880734D01*
X156047706Y-102453208D01*
X156667886Y-102453208D01*
X155666056Y-66451378D02*
X155666056Y-67166971D01*
X155618350Y-67310090D01*
X155522938Y-67405502D01*
X155379819Y-67453208D01*
X155284407Y-67453208D01*
X156095412Y-66546791D02*
X156143118Y-66499085D01*
X156238530Y-66451378D01*
X156477061Y-66451378D01*
X156572474Y-66499085D01*
X156620180Y-66546791D01*
X156667886Y-66642203D01*
X156667886Y-66737615D01*
X156620180Y-66880734D01*
X156047706Y-67453208D01*
X156667886Y-67453208D01*
X111666056Y-101451378D02*
X111666056Y-102166971D01*
X111618350Y-102310090D01*
X111522938Y-102405502D01*
X111379819Y-102453208D01*
X111284407Y-102453208D01*
X112095412Y-101546791D02*
X112143118Y-101499085D01*
X112238530Y-101451378D01*
X112477061Y-101451378D01*
X112572474Y-101499085D01*
X112620180Y-101546791D01*
X112667886Y-101642203D01*
X112667886Y-101737615D01*
X112620180Y-101880734D01*
X112047706Y-102453208D01*
X112667886Y-102453208D01*
D12*
X163861904Y-97952380D02*
X163861904Y-96952380D01*
X164100000Y-96952380D01*
X164242857Y-97000000D01*
X164338095Y-97095238D01*
X164385714Y-97190476D01*
X164433333Y-97380952D01*
X164433333Y-97523809D01*
X164385714Y-97714285D01*
X164338095Y-97809523D01*
X164242857Y-97904761D01*
X164100000Y-97952380D01*
X163861904Y-97952380D01*
X164814285Y-97047619D02*
X164861904Y-97000000D01*
X164957142Y-96952380D01*
X165195238Y-96952380D01*
X165290476Y-97000000D01*
X165338095Y-97047619D01*
X165385714Y-97142857D01*
X165385714Y-97238095D01*
X165338095Y-97380952D01*
X164766666Y-97952380D01*
X165385714Y-97952380D01*
X163861904Y-62952380D02*
X163861904Y-61952380D01*
X164100000Y-61952380D01*
X164242857Y-62000000D01*
X164338095Y-62095238D01*
X164385714Y-62190476D01*
X164433333Y-62380952D01*
X164433333Y-62523809D01*
X164385714Y-62714285D01*
X164338095Y-62809523D01*
X164242857Y-62904761D01*
X164100000Y-62952380D01*
X163861904Y-62952380D01*
X164814285Y-62047619D02*
X164861904Y-62000000D01*
X164957142Y-61952380D01*
X165195238Y-61952380D01*
X165290476Y-62000000D01*
X165338095Y-62047619D01*
X165385714Y-62142857D01*
X165385714Y-62238095D01*
X165338095Y-62380952D01*
X164766666Y-62952380D01*
X165385714Y-62952380D01*
X119861904Y-97952380D02*
X119861904Y-96952380D01*
X120100000Y-96952380D01*
X120242857Y-97000000D01*
X120338095Y-97095238D01*
X120385714Y-97190476D01*
X120433333Y-97380952D01*
X120433333Y-97523809D01*
X120385714Y-97714285D01*
X120338095Y-97809523D01*
X120242857Y-97904761D01*
X120100000Y-97952380D01*
X119861904Y-97952380D01*
X120814285Y-97047619D02*
X120861904Y-97000000D01*
X120957142Y-96952380D01*
X121195238Y-96952380D01*
X121290476Y-97000000D01*
X121338095Y-97047619D01*
X121385714Y-97142857D01*
X121385714Y-97238095D01*
X121338095Y-97380952D01*
X120766666Y-97952380D01*
X121385714Y-97952380D01*
X160333333Y-97952380D02*
X160000000Y-97476190D01*
X159761904Y-97952380D02*
X159761904Y-96952380D01*
X160142857Y-96952380D01*
X160238095Y-97000000D01*
X160285714Y-97047619D01*
X160333333Y-97142857D01*
X160333333Y-97285714D01*
X160285714Y-97380952D01*
X160238095Y-97428571D01*
X160142857Y-97476190D01*
X159761904Y-97476190D01*
X160714285Y-97047619D02*
X160761904Y-97000000D01*
X160857142Y-96952380D01*
X161095238Y-96952380D01*
X161190476Y-97000000D01*
X161238095Y-97047619D01*
X161285714Y-97142857D01*
X161285714Y-97238095D01*
X161238095Y-97380952D01*
X160666666Y-97952380D01*
X161285714Y-97952380D01*
X160333333Y-62952380D02*
X160000000Y-62476190D01*
X159761904Y-62952380D02*
X159761904Y-61952380D01*
X160142857Y-61952380D01*
X160238095Y-62000000D01*
X160285714Y-62047619D01*
X160333333Y-62142857D01*
X160333333Y-62285714D01*
X160285714Y-62380952D01*
X160238095Y-62428571D01*
X160142857Y-62476190D01*
X159761904Y-62476190D01*
X160714285Y-62047619D02*
X160761904Y-62000000D01*
X160857142Y-61952380D01*
X161095238Y-61952380D01*
X161190476Y-62000000D01*
X161238095Y-62047619D01*
X161285714Y-62142857D01*
X161285714Y-62238095D01*
X161238095Y-62380952D01*
X160666666Y-62952380D01*
X161285714Y-62952380D01*
X116333333Y-97952380D02*
X116000000Y-97476190D01*
X115761904Y-97952380D02*
X115761904Y-96952380D01*
X116142857Y-96952380D01*
X116238095Y-97000000D01*
X116285714Y-97047619D01*
X116333333Y-97142857D01*
X116333333Y-97285714D01*
X116285714Y-97380952D01*
X116238095Y-97428571D01*
X116142857Y-97476190D01*
X115761904Y-97476190D01*
X116714285Y-97047619D02*
X116761904Y-97000000D01*
X116857142Y-96952380D01*
X117095238Y-96952380D01*
X117190476Y-97000000D01*
X117238095Y-97047619D01*
X117285714Y-97142857D01*
X117285714Y-97238095D01*
X117238095Y-97380952D01*
X116666666Y-97952380D01*
X117285714Y-97952380D01*
X156033333Y-97357142D02*
X155985714Y-97404761D01*
X155842857Y-97452380D01*
X155747619Y-97452380D01*
X155604761Y-97404761D01*
X155509523Y-97309523D01*
X155461904Y-97214285D01*
X155414285Y-97023809D01*
X155414285Y-96880952D01*
X155461904Y-96690476D01*
X155509523Y-96595238D01*
X155604761Y-96500000D01*
X155747619Y-96452380D01*
X155842857Y-96452380D01*
X155985714Y-96500000D01*
X156033333Y-96547619D01*
X156938095Y-96452380D02*
X156461904Y-96452380D01*
X156414285Y-96928571D01*
X156461904Y-96880952D01*
X156557142Y-96833333D01*
X156795238Y-96833333D01*
X156890476Y-96880952D01*
X156938095Y-96928571D01*
X156985714Y-97023809D01*
X156985714Y-97261904D01*
X156938095Y-97357142D01*
X156890476Y-97404761D01*
X156795238Y-97452380D01*
X156557142Y-97452380D01*
X156461904Y-97404761D01*
X156414285Y-97357142D01*
X156033333Y-62357142D02*
X155985714Y-62404761D01*
X155842857Y-62452380D01*
X155747619Y-62452380D01*
X155604761Y-62404761D01*
X155509523Y-62309523D01*
X155461904Y-62214285D01*
X155414285Y-62023809D01*
X155414285Y-61880952D01*
X155461904Y-61690476D01*
X155509523Y-61595238D01*
X155604761Y-61500000D01*
X155747619Y-61452380D01*
X155842857Y-61452380D01*
X155985714Y-61500000D01*
X156033333Y-61547619D01*
X156938095Y-61452380D02*
X156461904Y-61452380D01*
X156414285Y-61928571D01*
X156461904Y-61880952D01*
X156557142Y-61833333D01*
X156795238Y-61833333D01*
X156890476Y-61880952D01*
X156938095Y-61928571D01*
X156985714Y-62023809D01*
X156985714Y-62261904D01*
X156938095Y-62357142D01*
X156890476Y-62404761D01*
X156795238Y-62452380D01*
X156557142Y-62452380D01*
X156461904Y-62404761D01*
X156414285Y-62357142D01*
X112033333Y-97357142D02*
X111985714Y-97404761D01*
X111842857Y-97452380D01*
X111747619Y-97452380D01*
X111604761Y-97404761D01*
X111509523Y-97309523D01*
X111461904Y-97214285D01*
X111414285Y-97023809D01*
X111414285Y-96880952D01*
X111461904Y-96690476D01*
X111509523Y-96595238D01*
X111604761Y-96500000D01*
X111747619Y-96452380D01*
X111842857Y-96452380D01*
X111985714Y-96500000D01*
X112033333Y-96547619D01*
X112938095Y-96452380D02*
X112461904Y-96452380D01*
X112414285Y-96928571D01*
X112461904Y-96880952D01*
X112557142Y-96833333D01*
X112795238Y-96833333D01*
X112890476Y-96880952D01*
X112938095Y-96928571D01*
X112985714Y-97023809D01*
X112985714Y-97261904D01*
X112938095Y-97357142D01*
X112890476Y-97404761D01*
X112795238Y-97452380D01*
X112557142Y-97452380D01*
X112461904Y-97404761D01*
X112414285Y-97357142D01*
X171233333Y-97757142D02*
X171185714Y-97804761D01*
X171042857Y-97852380D01*
X170947619Y-97852380D01*
X170804761Y-97804761D01*
X170709523Y-97709523D01*
X170661904Y-97614285D01*
X170614285Y-97423809D01*
X170614285Y-97280952D01*
X170661904Y-97090476D01*
X170709523Y-96995238D01*
X170804761Y-96900000D01*
X170947619Y-96852380D01*
X171042857Y-96852380D01*
X171185714Y-96900000D01*
X171233333Y-96947619D01*
X171566666Y-96852380D02*
X172185714Y-96852380D01*
X171852380Y-97233333D01*
X171995238Y-97233333D01*
X172090476Y-97280952D01*
X172138095Y-97328571D01*
X172185714Y-97423809D01*
X172185714Y-97661904D01*
X172138095Y-97757142D01*
X172090476Y-97804761D01*
X171995238Y-97852380D01*
X171709523Y-97852380D01*
X171614285Y-97804761D01*
X171566666Y-97757142D01*
X171233333Y-62757142D02*
X171185714Y-62804761D01*
X171042857Y-62852380D01*
X170947619Y-62852380D01*
X170804761Y-62804761D01*
X170709523Y-62709523D01*
X170661904Y-62614285D01*
X170614285Y-62423809D01*
X170614285Y-62280952D01*
X170661904Y-62090476D01*
X170709523Y-61995238D01*
X170804761Y-61900000D01*
X170947619Y-61852380D01*
X171042857Y-61852380D01*
X171185714Y-61900000D01*
X171233333Y-61947619D01*
X171566666Y-61852380D02*
X172185714Y-61852380D01*
X171852380Y-62233333D01*
X171995238Y-62233333D01*
X172090476Y-62280952D01*
X172138095Y-62328571D01*
X172185714Y-62423809D01*
X172185714Y-62661904D01*
X172138095Y-62757142D01*
X172090476Y-62804761D01*
X171995238Y-62852380D01*
X171709523Y-62852380D01*
X171614285Y-62804761D01*
X171566666Y-62757142D01*
X127233333Y-97757142D02*
X127185714Y-97804761D01*
X127042857Y-97852380D01*
X126947619Y-97852380D01*
X126804761Y-97804761D01*
X126709523Y-97709523D01*
X126661904Y-97614285D01*
X126614285Y-97423809D01*
X126614285Y-97280952D01*
X126661904Y-97090476D01*
X126709523Y-96995238D01*
X126804761Y-96900000D01*
X126947619Y-96852380D01*
X127042857Y-96852380D01*
X127185714Y-96900000D01*
X127233333Y-96947619D01*
X127566666Y-96852380D02*
X128185714Y-96852380D01*
X127852380Y-97233333D01*
X127995238Y-97233333D01*
X128090476Y-97280952D01*
X128138095Y-97328571D01*
X128185714Y-97423809D01*
X128185714Y-97661904D01*
X128138095Y-97757142D01*
X128090476Y-97804761D01*
X127995238Y-97852380D01*
X127709523Y-97852380D01*
X127614285Y-97804761D01*
X127566666Y-97757142D01*
X181283333Y-96707142D02*
X181235714Y-96754761D01*
X181092857Y-96802380D01*
X180997619Y-96802380D01*
X180854761Y-96754761D01*
X180759523Y-96659523D01*
X180711904Y-96564285D01*
X180664285Y-96373809D01*
X180664285Y-96230952D01*
X180711904Y-96040476D01*
X180759523Y-95945238D01*
X180854761Y-95850000D01*
X180997619Y-95802380D01*
X181092857Y-95802380D01*
X181235714Y-95850000D01*
X181283333Y-95897619D01*
X181854761Y-96230952D02*
X181759523Y-96183333D01*
X181711904Y-96135714D01*
X181664285Y-96040476D01*
X181664285Y-95992857D01*
X181711904Y-95897619D01*
X181759523Y-95850000D01*
X181854761Y-95802380D01*
X182045238Y-95802380D01*
X182140476Y-95850000D01*
X182188095Y-95897619D01*
X182235714Y-95992857D01*
X182235714Y-96040476D01*
X182188095Y-96135714D01*
X182140476Y-96183333D01*
X182045238Y-96230952D01*
X181854761Y-96230952D01*
X181759523Y-96278571D01*
X181711904Y-96326190D01*
X181664285Y-96421428D01*
X181664285Y-96611904D01*
X181711904Y-96707142D01*
X181759523Y-96754761D01*
X181854761Y-96802380D01*
X182045238Y-96802380D01*
X182140476Y-96754761D01*
X182188095Y-96707142D01*
X182235714Y-96611904D01*
X182235714Y-96421428D01*
X182188095Y-96326190D01*
X182140476Y-96278571D01*
X182045238Y-96230952D01*
X181283333Y-61707142D02*
X181235714Y-61754761D01*
X181092857Y-61802380D01*
X180997619Y-61802380D01*
X180854761Y-61754761D01*
X180759523Y-61659523D01*
X180711904Y-61564285D01*
X180664285Y-61373809D01*
X180664285Y-61230952D01*
X180711904Y-61040476D01*
X180759523Y-60945238D01*
X180854761Y-60850000D01*
X180997619Y-60802380D01*
X181092857Y-60802380D01*
X181235714Y-60850000D01*
X181283333Y-60897619D01*
X181854761Y-61230952D02*
X181759523Y-61183333D01*
X181711904Y-61135714D01*
X181664285Y-61040476D01*
X181664285Y-60992857D01*
X181711904Y-60897619D01*
X181759523Y-60850000D01*
X181854761Y-60802380D01*
X182045238Y-60802380D01*
X182140476Y-60850000D01*
X182188095Y-60897619D01*
X182235714Y-60992857D01*
X182235714Y-61040476D01*
X182188095Y-61135714D01*
X182140476Y-61183333D01*
X182045238Y-61230952D01*
X181854761Y-61230952D01*
X181759523Y-61278571D01*
X181711904Y-61326190D01*
X181664285Y-61421428D01*
X181664285Y-61611904D01*
X181711904Y-61707142D01*
X181759523Y-61754761D01*
X181854761Y-61802380D01*
X182045238Y-61802380D01*
X182140476Y-61754761D01*
X182188095Y-61707142D01*
X182235714Y-61611904D01*
X182235714Y-61421428D01*
X182188095Y-61326190D01*
X182140476Y-61278571D01*
X182045238Y-61230952D01*
X137283333Y-96707142D02*
X137235714Y-96754761D01*
X137092857Y-96802380D01*
X136997619Y-96802380D01*
X136854761Y-96754761D01*
X136759523Y-96659523D01*
X136711904Y-96564285D01*
X136664285Y-96373809D01*
X136664285Y-96230952D01*
X136711904Y-96040476D01*
X136759523Y-95945238D01*
X136854761Y-95850000D01*
X136997619Y-95802380D01*
X137092857Y-95802380D01*
X137235714Y-95850000D01*
X137283333Y-95897619D01*
X137854761Y-96230952D02*
X137759523Y-96183333D01*
X137711904Y-96135714D01*
X137664285Y-96040476D01*
X137664285Y-95992857D01*
X137711904Y-95897619D01*
X137759523Y-95850000D01*
X137854761Y-95802380D01*
X138045238Y-95802380D01*
X138140476Y-95850000D01*
X138188095Y-95897619D01*
X138235714Y-95992857D01*
X138235714Y-96040476D01*
X138188095Y-96135714D01*
X138140476Y-96183333D01*
X138045238Y-96230952D01*
X137854761Y-96230952D01*
X137759523Y-96278571D01*
X137711904Y-96326190D01*
X137664285Y-96421428D01*
X137664285Y-96611904D01*
X137711904Y-96707142D01*
X137759523Y-96754761D01*
X137854761Y-96802380D01*
X138045238Y-96802380D01*
X138140476Y-96754761D01*
X138188095Y-96707142D01*
X138235714Y-96611904D01*
X138235714Y-96421428D01*
X138188095Y-96326190D01*
X138140476Y-96278571D01*
X138045238Y-96230952D01*
X171557142Y-116357142D02*
X171509523Y-116404761D01*
X171366666Y-116452380D01*
X171271428Y-116452380D01*
X171128571Y-116404761D01*
X171033333Y-116309523D01*
X170985714Y-116214285D01*
X170938095Y-116023809D01*
X170938095Y-115880952D01*
X170985714Y-115690476D01*
X171033333Y-115595238D01*
X171128571Y-115500000D01*
X171271428Y-115452380D01*
X171366666Y-115452380D01*
X171509523Y-115500000D01*
X171557142Y-115547619D01*
X172509523Y-116452380D02*
X171938095Y-116452380D01*
X172223809Y-116452380D02*
X172223809Y-115452380D01*
X172128571Y-115595238D01*
X172033333Y-115690476D01*
X171938095Y-115738095D01*
X172842857Y-115452380D02*
X173461904Y-115452380D01*
X173128571Y-115833333D01*
X173271428Y-115833333D01*
X173366666Y-115880952D01*
X173414285Y-115928571D01*
X173461904Y-116023809D01*
X173461904Y-116261904D01*
X173414285Y-116357142D01*
X173366666Y-116404761D01*
X173271428Y-116452380D01*
X172985714Y-116452380D01*
X172890476Y-116404761D01*
X172842857Y-116357142D01*
X171557142Y-81357142D02*
X171509523Y-81404761D01*
X171366666Y-81452380D01*
X171271428Y-81452380D01*
X171128571Y-81404761D01*
X171033333Y-81309523D01*
X170985714Y-81214285D01*
X170938095Y-81023809D01*
X170938095Y-80880952D01*
X170985714Y-80690476D01*
X171033333Y-80595238D01*
X171128571Y-80500000D01*
X171271428Y-80452380D01*
X171366666Y-80452380D01*
X171509523Y-80500000D01*
X171557142Y-80547619D01*
X172509523Y-81452380D02*
X171938095Y-81452380D01*
X172223809Y-81452380D02*
X172223809Y-80452380D01*
X172128571Y-80595238D01*
X172033333Y-80690476D01*
X171938095Y-80738095D01*
X172842857Y-80452380D02*
X173461904Y-80452380D01*
X173128571Y-80833333D01*
X173271428Y-80833333D01*
X173366666Y-80880952D01*
X173414285Y-80928571D01*
X173461904Y-81023809D01*
X173461904Y-81261904D01*
X173414285Y-81357142D01*
X173366666Y-81404761D01*
X173271428Y-81452380D01*
X172985714Y-81452380D01*
X172890476Y-81404761D01*
X172842857Y-81357142D01*
X127557142Y-116357142D02*
X127509523Y-116404761D01*
X127366666Y-116452380D01*
X127271428Y-116452380D01*
X127128571Y-116404761D01*
X127033333Y-116309523D01*
X126985714Y-116214285D01*
X126938095Y-116023809D01*
X126938095Y-115880952D01*
X126985714Y-115690476D01*
X127033333Y-115595238D01*
X127128571Y-115500000D01*
X127271428Y-115452380D01*
X127366666Y-115452380D01*
X127509523Y-115500000D01*
X127557142Y-115547619D01*
X128509523Y-116452380D02*
X127938095Y-116452380D01*
X128223809Y-116452380D02*
X128223809Y-115452380D01*
X128128571Y-115595238D01*
X128033333Y-115690476D01*
X127938095Y-115738095D01*
X128842857Y-115452380D02*
X129461904Y-115452380D01*
X129128571Y-115833333D01*
X129271428Y-115833333D01*
X129366666Y-115880952D01*
X129414285Y-115928571D01*
X129461904Y-116023809D01*
X129461904Y-116261904D01*
X129414285Y-116357142D01*
X129366666Y-116404761D01*
X129271428Y-116452380D01*
X128985714Y-116452380D01*
X128890476Y-116404761D01*
X128842857Y-116357142D01*
X162433333Y-88852380D02*
X162100000Y-88376190D01*
X161861904Y-88852380D02*
X161861904Y-87852380D01*
X162242857Y-87852380D01*
X162338095Y-87900000D01*
X162385714Y-87947619D01*
X162433333Y-88042857D01*
X162433333Y-88185714D01*
X162385714Y-88280952D01*
X162338095Y-88328571D01*
X162242857Y-88376190D01*
X161861904Y-88376190D01*
X163290476Y-88185714D02*
X163290476Y-88852380D01*
X163052380Y-87804761D02*
X162814285Y-88519047D01*
X163433333Y-88519047D01*
X162433333Y-53852380D02*
X162100000Y-53376190D01*
X161861904Y-53852380D02*
X161861904Y-52852380D01*
X162242857Y-52852380D01*
X162338095Y-52900000D01*
X162385714Y-52947619D01*
X162433333Y-53042857D01*
X162433333Y-53185714D01*
X162385714Y-53280952D01*
X162338095Y-53328571D01*
X162242857Y-53376190D01*
X161861904Y-53376190D01*
X163290476Y-53185714D02*
X163290476Y-53852380D01*
X163052380Y-52804761D02*
X162814285Y-53519047D01*
X163433333Y-53519047D01*
X118433333Y-88852380D02*
X118100000Y-88376190D01*
X117861904Y-88852380D02*
X117861904Y-87852380D01*
X118242857Y-87852380D01*
X118338095Y-87900000D01*
X118385714Y-87947619D01*
X118433333Y-88042857D01*
X118433333Y-88185714D01*
X118385714Y-88280952D01*
X118338095Y-88328571D01*
X118242857Y-88376190D01*
X117861904Y-88376190D01*
X119290476Y-88185714D02*
X119290476Y-88852380D01*
X119052380Y-87804761D02*
X118814285Y-88519047D01*
X119433333Y-88519047D01*
D15*
X111666056Y-66451378D02*
X111666056Y-67166971D01*
X111618350Y-67310090D01*
X111522938Y-67405502D01*
X111379819Y-67453208D01*
X111284407Y-67453208D01*
X112095412Y-66546791D02*
X112143118Y-66499085D01*
X112238530Y-66451378D01*
X112477061Y-66451378D01*
X112572474Y-66499085D01*
X112620180Y-66546791D01*
X112667886Y-66642203D01*
X112667886Y-66737615D01*
X112620180Y-66880734D01*
X112047706Y-67453208D01*
X112667886Y-67453208D01*
X111666056Y-77651378D02*
X111666056Y-78366971D01*
X111618350Y-78510090D01*
X111522938Y-78605502D01*
X111379819Y-78653208D01*
X111284407Y-78653208D01*
X112047706Y-77651378D02*
X112667886Y-77651378D01*
X112333943Y-78033028D01*
X112477061Y-78033028D01*
X112572474Y-78080734D01*
X112620180Y-78128440D01*
X112667886Y-78223853D01*
X112667886Y-78462384D01*
X112620180Y-78557796D01*
X112572474Y-78605502D01*
X112477061Y-78653208D01*
X112190824Y-78653208D01*
X112095412Y-78605502D01*
X112047706Y-78557796D01*
D12*
X136738095Y-62352380D02*
X136738095Y-63161904D01*
X136785714Y-63257142D01*
X136833333Y-63304761D01*
X136928571Y-63352380D01*
X137119047Y-63352380D01*
X137214285Y-63304761D01*
X137261904Y-63257142D01*
X137309523Y-63161904D01*
X137309523Y-62352380D01*
X137738095Y-62447619D02*
X137785714Y-62400000D01*
X137880952Y-62352380D01*
X138119047Y-62352380D01*
X138214285Y-62400000D01*
X138261904Y-62447619D01*
X138309523Y-62542857D01*
X138309523Y-62638095D01*
X138261904Y-62780952D01*
X137690476Y-63352380D01*
X138309523Y-63352380D01*
X108433333Y-59357142D02*
X108385714Y-59404761D01*
X108242857Y-59452380D01*
X108147619Y-59452380D01*
X108004761Y-59404761D01*
X107909523Y-59309523D01*
X107861904Y-59214285D01*
X107814285Y-59023809D01*
X107814285Y-58880952D01*
X107861904Y-58690476D01*
X107909523Y-58595238D01*
X108004761Y-58500000D01*
X108147619Y-58452380D01*
X108242857Y-58452380D01*
X108385714Y-58500000D01*
X108433333Y-58547619D01*
X108814285Y-58547619D02*
X108861904Y-58500000D01*
X108957142Y-58452380D01*
X109195238Y-58452380D01*
X109290476Y-58500000D01*
X109338095Y-58547619D01*
X109385714Y-58642857D01*
X109385714Y-58738095D01*
X109338095Y-58880952D01*
X108766666Y-59452380D01*
X109385714Y-59452380D01*
X112033333Y-62357142D02*
X111985714Y-62404761D01*
X111842857Y-62452380D01*
X111747619Y-62452380D01*
X111604761Y-62404761D01*
X111509523Y-62309523D01*
X111461904Y-62214285D01*
X111414285Y-62023809D01*
X111414285Y-61880952D01*
X111461904Y-61690476D01*
X111509523Y-61595238D01*
X111604761Y-61500000D01*
X111747619Y-61452380D01*
X111842857Y-61452380D01*
X111985714Y-61500000D01*
X112033333Y-61547619D01*
X112938095Y-61452380D02*
X112461904Y-61452380D01*
X112414285Y-61928571D01*
X112461904Y-61880952D01*
X112557142Y-61833333D01*
X112795238Y-61833333D01*
X112890476Y-61880952D01*
X112938095Y-61928571D01*
X112985714Y-62023809D01*
X112985714Y-62261904D01*
X112938095Y-62357142D01*
X112890476Y-62404761D01*
X112795238Y-62452380D01*
X112557142Y-62452380D01*
X112461904Y-62404761D01*
X112414285Y-62357142D01*
X115833333Y-53757142D02*
X115785714Y-53804761D01*
X115642857Y-53852380D01*
X115547619Y-53852380D01*
X115404761Y-53804761D01*
X115309523Y-53709523D01*
X115261904Y-53614285D01*
X115214285Y-53423809D01*
X115214285Y-53280952D01*
X115261904Y-53090476D01*
X115309523Y-52995238D01*
X115404761Y-52900000D01*
X115547619Y-52852380D01*
X115642857Y-52852380D01*
X115785714Y-52900000D01*
X115833333Y-52947619D01*
X116166666Y-52852380D02*
X116833333Y-52852380D01*
X116404761Y-53852380D01*
X128633333Y-58807142D02*
X128585714Y-58854761D01*
X128442857Y-58902380D01*
X128347619Y-58902380D01*
X128204761Y-58854761D01*
X128109523Y-58759523D01*
X128061904Y-58664285D01*
X128014285Y-58473809D01*
X128014285Y-58330952D01*
X128061904Y-58140476D01*
X128109523Y-58045238D01*
X128204761Y-57950000D01*
X128347619Y-57902380D01*
X128442857Y-57902380D01*
X128585714Y-57950000D01*
X128633333Y-57997619D01*
X129585714Y-58902380D02*
X129014285Y-58902380D01*
X129300000Y-58902380D02*
X129300000Y-57902380D01*
X129204761Y-58045238D01*
X129109523Y-58140476D01*
X129014285Y-58188095D01*
X127233333Y-62757142D02*
X127185714Y-62804761D01*
X127042857Y-62852380D01*
X126947619Y-62852380D01*
X126804761Y-62804761D01*
X126709523Y-62709523D01*
X126661904Y-62614285D01*
X126614285Y-62423809D01*
X126614285Y-62280952D01*
X126661904Y-62090476D01*
X126709523Y-61995238D01*
X126804761Y-61900000D01*
X126947619Y-61852380D01*
X127042857Y-61852380D01*
X127185714Y-61900000D01*
X127233333Y-61947619D01*
X127566666Y-61852380D02*
X128185714Y-61852380D01*
X127852380Y-62233333D01*
X127995238Y-62233333D01*
X128090476Y-62280952D01*
X128138095Y-62328571D01*
X128185714Y-62423809D01*
X128185714Y-62661904D01*
X128138095Y-62757142D01*
X128090476Y-62804761D01*
X127995238Y-62852380D01*
X127709523Y-62852380D01*
X127614285Y-62804761D01*
X127566666Y-62757142D01*
X127383333Y-71557142D02*
X127335714Y-71604761D01*
X127192857Y-71652380D01*
X127097619Y-71652380D01*
X126954761Y-71604761D01*
X126859523Y-71509523D01*
X126811904Y-71414285D01*
X126764285Y-71223809D01*
X126764285Y-71080952D01*
X126811904Y-70890476D01*
X126859523Y-70795238D01*
X126954761Y-70700000D01*
X127097619Y-70652380D01*
X127192857Y-70652380D01*
X127335714Y-70700000D01*
X127383333Y-70747619D01*
X128240476Y-70652380D02*
X128050000Y-70652380D01*
X127954761Y-70700000D01*
X127907142Y-70747619D01*
X127811904Y-70890476D01*
X127764285Y-71080952D01*
X127764285Y-71461904D01*
X127811904Y-71557142D01*
X127859523Y-71604761D01*
X127954761Y-71652380D01*
X128145238Y-71652380D01*
X128240476Y-71604761D01*
X128288095Y-71557142D01*
X128335714Y-71461904D01*
X128335714Y-71223809D01*
X128288095Y-71128571D01*
X128240476Y-71080952D01*
X128145238Y-71033333D01*
X127954761Y-71033333D01*
X127859523Y-71080952D01*
X127811904Y-71128571D01*
X127764285Y-71223809D01*
X131557142Y-81357142D02*
X131509523Y-81404761D01*
X131366666Y-81452380D01*
X131271428Y-81452380D01*
X131128571Y-81404761D01*
X131033333Y-81309523D01*
X130985714Y-81214285D01*
X130938095Y-81023809D01*
X130938095Y-80880952D01*
X130985714Y-80690476D01*
X131033333Y-80595238D01*
X131128571Y-80500000D01*
X131271428Y-80452380D01*
X131366666Y-80452380D01*
X131509523Y-80500000D01*
X131557142Y-80547619D01*
X132509523Y-81452380D02*
X131938095Y-81452380D01*
X132223809Y-81452380D02*
X132223809Y-80452380D01*
X132128571Y-80595238D01*
X132033333Y-80690476D01*
X131938095Y-80738095D01*
X133128571Y-80452380D02*
X133223809Y-80452380D01*
X133319047Y-80500000D01*
X133366666Y-80547619D01*
X133414285Y-80642857D01*
X133461904Y-80833333D01*
X133461904Y-81071428D01*
X133414285Y-81261904D01*
X133366666Y-81357142D01*
X133319047Y-81404761D01*
X133223809Y-81452380D01*
X133128571Y-81452380D01*
X133033333Y-81404761D01*
X132985714Y-81357142D01*
X132938095Y-81261904D01*
X132890476Y-81071428D01*
X132890476Y-80833333D01*
X132938095Y-80642857D01*
X132985714Y-80547619D01*
X133033333Y-80500000D01*
X133128571Y-80452380D01*
X127557142Y-81357142D02*
X127509523Y-81404761D01*
X127366666Y-81452380D01*
X127271428Y-81452380D01*
X127128571Y-81404761D01*
X127033333Y-81309523D01*
X126985714Y-81214285D01*
X126938095Y-81023809D01*
X126938095Y-80880952D01*
X126985714Y-80690476D01*
X127033333Y-80595238D01*
X127128571Y-80500000D01*
X127271428Y-80452380D01*
X127366666Y-80452380D01*
X127509523Y-80500000D01*
X127557142Y-80547619D01*
X128509523Y-81452380D02*
X127938095Y-81452380D01*
X128223809Y-81452380D02*
X128223809Y-80452380D01*
X128128571Y-80595238D01*
X128033333Y-80690476D01*
X127938095Y-80738095D01*
X128842857Y-80452380D02*
X129461904Y-80452380D01*
X129128571Y-80833333D01*
X129271428Y-80833333D01*
X129366666Y-80880952D01*
X129414285Y-80928571D01*
X129461904Y-81023809D01*
X129461904Y-81261904D01*
X129414285Y-81357142D01*
X129366666Y-81404761D01*
X129271428Y-81452380D01*
X128985714Y-81452380D01*
X128890476Y-81404761D01*
X128842857Y-81357142D01*
X139033333Y-74057142D02*
X138985714Y-74104761D01*
X138842857Y-74152380D01*
X138747619Y-74152380D01*
X138604761Y-74104761D01*
X138509523Y-74009523D01*
X138461904Y-73914285D01*
X138414285Y-73723809D01*
X138414285Y-73580952D01*
X138461904Y-73390476D01*
X138509523Y-73295238D01*
X138604761Y-73200000D01*
X138747619Y-73152380D01*
X138842857Y-73152380D01*
X138985714Y-73200000D01*
X139033333Y-73247619D01*
X139509523Y-74152380D02*
X139700000Y-74152380D01*
X139795238Y-74104761D01*
X139842857Y-74057142D01*
X139938095Y-73914285D01*
X139985714Y-73723809D01*
X139985714Y-73342857D01*
X139938095Y-73247619D01*
X139890476Y-73200000D01*
X139795238Y-73152380D01*
X139604761Y-73152380D01*
X139509523Y-73200000D01*
X139461904Y-73247619D01*
X139414285Y-73342857D01*
X139414285Y-73580952D01*
X139461904Y-73676190D01*
X139509523Y-73723809D01*
X139604761Y-73771428D01*
X139795238Y-73771428D01*
X139890476Y-73723809D01*
X139938095Y-73676190D01*
X139985714Y-73580952D01*
X119857142Y-76857142D02*
X119809523Y-76904761D01*
X119666666Y-76952380D01*
X119571428Y-76952380D01*
X119428571Y-76904761D01*
X119333333Y-76809523D01*
X119285714Y-76714285D01*
X119238095Y-76523809D01*
X119238095Y-76380952D01*
X119285714Y-76190476D01*
X119333333Y-76095238D01*
X119428571Y-76000000D01*
X119571428Y-75952380D01*
X119666666Y-75952380D01*
X119809523Y-76000000D01*
X119857142Y-76047619D01*
X120809523Y-76952380D02*
X120238095Y-76952380D01*
X120523809Y-76952380D02*
X120523809Y-75952380D01*
X120428571Y-76095238D01*
X120333333Y-76190476D01*
X120238095Y-76238095D01*
X121666666Y-76285714D02*
X121666666Y-76952380D01*
X121428571Y-75904761D02*
X121190476Y-76619047D01*
X121809523Y-76619047D01*
X119857142Y-84857142D02*
X119809523Y-84904761D01*
X119666666Y-84952380D01*
X119571428Y-84952380D01*
X119428571Y-84904761D01*
X119333333Y-84809523D01*
X119285714Y-84714285D01*
X119238095Y-84523809D01*
X119238095Y-84380952D01*
X119285714Y-84190476D01*
X119333333Y-84095238D01*
X119428571Y-84000000D01*
X119571428Y-83952380D01*
X119666666Y-83952380D01*
X119809523Y-84000000D01*
X119857142Y-84047619D01*
X120809523Y-84952380D02*
X120238095Y-84952380D01*
X120523809Y-84952380D02*
X120523809Y-83952380D01*
X120428571Y-84095238D01*
X120333333Y-84190476D01*
X120238095Y-84238095D01*
X121714285Y-83952380D02*
X121238095Y-83952380D01*
X121190476Y-84428571D01*
X121238095Y-84380952D01*
X121333333Y-84333333D01*
X121571428Y-84333333D01*
X121666666Y-84380952D01*
X121714285Y-84428571D01*
X121761904Y-84523809D01*
X121761904Y-84761904D01*
X121714285Y-84857142D01*
X121666666Y-84904761D01*
X121571428Y-84952380D01*
X121333333Y-84952380D01*
X121238095Y-84904761D01*
X121190476Y-84857142D01*
X134857142Y-77857142D02*
X134809523Y-77904761D01*
X134666666Y-77952380D01*
X134571428Y-77952380D01*
X134428571Y-77904761D01*
X134333333Y-77809523D01*
X134285714Y-77714285D01*
X134238095Y-77523809D01*
X134238095Y-77380952D01*
X134285714Y-77190476D01*
X134333333Y-77095238D01*
X134428571Y-77000000D01*
X134571428Y-76952380D01*
X134666666Y-76952380D01*
X134809523Y-77000000D01*
X134857142Y-77047619D01*
X135809523Y-77952380D02*
X135238095Y-77952380D01*
X135523809Y-77952380D02*
X135523809Y-76952380D01*
X135428571Y-77095238D01*
X135333333Y-77190476D01*
X135238095Y-77238095D01*
X136761904Y-77952380D02*
X136190476Y-77952380D01*
X136476190Y-77952380D02*
X136476190Y-76952380D01*
X136380952Y-77095238D01*
X136285714Y-77190476D01*
X136190476Y-77238095D01*
X139057142Y-70057142D02*
X139009523Y-70104761D01*
X138866666Y-70152380D01*
X138771428Y-70152380D01*
X138628571Y-70104761D01*
X138533333Y-70009523D01*
X138485714Y-69914285D01*
X138438095Y-69723809D01*
X138438095Y-69580952D01*
X138485714Y-69390476D01*
X138533333Y-69295238D01*
X138628571Y-69200000D01*
X138771428Y-69152380D01*
X138866666Y-69152380D01*
X139009523Y-69200000D01*
X139057142Y-69247619D01*
X140009523Y-70152380D02*
X139438095Y-70152380D01*
X139723809Y-70152380D02*
X139723809Y-69152380D01*
X139628571Y-69295238D01*
X139533333Y-69390476D01*
X139438095Y-69438095D01*
X140390476Y-69247619D02*
X140438095Y-69200000D01*
X140533333Y-69152380D01*
X140771428Y-69152380D01*
X140866666Y-69200000D01*
X140914285Y-69247619D01*
X140961904Y-69342857D01*
X140961904Y-69438095D01*
X140914285Y-69580952D01*
X140342857Y-70152380D01*
X140961904Y-70152380D01*
X137283333Y-61707142D02*
X137235714Y-61754761D01*
X137092857Y-61802380D01*
X136997619Y-61802380D01*
X136854761Y-61754761D01*
X136759523Y-61659523D01*
X136711904Y-61564285D01*
X136664285Y-61373809D01*
X136664285Y-61230952D01*
X136711904Y-61040476D01*
X136759523Y-60945238D01*
X136854761Y-60850000D01*
X136997619Y-60802380D01*
X137092857Y-60802380D01*
X137235714Y-60850000D01*
X137283333Y-60897619D01*
X137854761Y-61230952D02*
X137759523Y-61183333D01*
X137711904Y-61135714D01*
X137664285Y-61040476D01*
X137664285Y-60992857D01*
X137711904Y-60897619D01*
X137759523Y-60850000D01*
X137854761Y-60802380D01*
X138045238Y-60802380D01*
X138140476Y-60850000D01*
X138188095Y-60897619D01*
X138235714Y-60992857D01*
X138235714Y-61040476D01*
X138188095Y-61135714D01*
X138140476Y-61183333D01*
X138045238Y-61230952D01*
X137854761Y-61230952D01*
X137759523Y-61278571D01*
X137711904Y-61326190D01*
X137664285Y-61421428D01*
X137664285Y-61611904D01*
X137711904Y-61707142D01*
X137759523Y-61754761D01*
X137854761Y-61802380D01*
X138045238Y-61802380D01*
X138140476Y-61754761D01*
X138188095Y-61707142D01*
X138235714Y-61611904D01*
X138235714Y-61421428D01*
X138188095Y-61326190D01*
X138140476Y-61278571D01*
X138045238Y-61230952D01*
X135861904Y-57702380D02*
X135861904Y-56702380D01*
X136100000Y-56702380D01*
X136242857Y-56750000D01*
X136338095Y-56845238D01*
X136385714Y-56940476D01*
X136433333Y-57130952D01*
X136433333Y-57273809D01*
X136385714Y-57464285D01*
X136338095Y-57559523D01*
X136242857Y-57654761D01*
X136100000Y-57702380D01*
X135861904Y-57702380D01*
X137385714Y-57702380D02*
X136814285Y-57702380D01*
X137100000Y-57702380D02*
X137100000Y-56702380D01*
X137004761Y-56845238D01*
X136909523Y-56940476D01*
X136814285Y-56988095D01*
X119861904Y-62952380D02*
X119861904Y-61952380D01*
X120100000Y-61952380D01*
X120242857Y-62000000D01*
X120338095Y-62095238D01*
X120385714Y-62190476D01*
X120433333Y-62380952D01*
X120433333Y-62523809D01*
X120385714Y-62714285D01*
X120338095Y-62809523D01*
X120242857Y-62904761D01*
X120100000Y-62952380D01*
X119861904Y-62952380D01*
X120814285Y-62047619D02*
X120861904Y-62000000D01*
X120957142Y-61952380D01*
X121195238Y-61952380D01*
X121290476Y-62000000D01*
X121338095Y-62047619D01*
X121385714Y-62142857D01*
X121385714Y-62238095D01*
X121338095Y-62380952D01*
X120766666Y-62952380D01*
X121385714Y-62952380D01*
X107666666Y-53652380D02*
X107666666Y-54366666D01*
X107619047Y-54509523D01*
X107523809Y-54604761D01*
X107380952Y-54652380D01*
X107285714Y-54652380D01*
X108666666Y-54652380D02*
X108095238Y-54652380D01*
X108380952Y-54652380D02*
X108380952Y-53652380D01*
X108285714Y-53795238D01*
X108190476Y-53890476D01*
X108095238Y-53938095D01*
X132233333Y-72952380D02*
X131757142Y-72952380D01*
X131757142Y-71952380D01*
X133090476Y-72952380D02*
X132519047Y-72952380D01*
X132804761Y-72952380D02*
X132804761Y-71952380D01*
X132709523Y-72095238D01*
X132614285Y-72190476D01*
X132519047Y-72238095D01*
X119780952Y-60752380D02*
X119304761Y-60752380D01*
X119304761Y-59752380D01*
X120114285Y-60228571D02*
X120447619Y-60228571D01*
X120590476Y-60752380D02*
X120114285Y-60752380D01*
X120114285Y-59752380D01*
X120590476Y-59752380D01*
X121019047Y-60752380D02*
X121019047Y-59752380D01*
X121257142Y-59752380D01*
X121400000Y-59800000D01*
X121495238Y-59895238D01*
X121542857Y-59990476D01*
X121590476Y-60180952D01*
X121590476Y-60323809D01*
X121542857Y-60514285D01*
X121495238Y-60609523D01*
X121400000Y-60704761D01*
X121257142Y-60752380D01*
X121019047Y-60752380D01*
X122542857Y-60752380D02*
X121971428Y-60752380D01*
X122257142Y-60752380D02*
X122257142Y-59752380D01*
X122161904Y-59895238D01*
X122066666Y-59990476D01*
X121971428Y-60038095D01*
X119561904Y-70552380D02*
X119561904Y-69552380D01*
X119942857Y-69552380D01*
X120038095Y-69600000D01*
X120085714Y-69647619D01*
X120133333Y-69742857D01*
X120133333Y-69885714D01*
X120085714Y-69980952D01*
X120038095Y-70028571D01*
X119942857Y-70076190D01*
X119561904Y-70076190D01*
X121085714Y-70552380D02*
X120514285Y-70552380D01*
X120800000Y-70552380D02*
X120800000Y-69552380D01*
X120704761Y-69695238D01*
X120609523Y-69790476D01*
X120514285Y-69838095D01*
X116333333Y-62952380D02*
X116000000Y-62476190D01*
X115761904Y-62952380D02*
X115761904Y-61952380D01*
X116142857Y-61952380D01*
X116238095Y-62000000D01*
X116285714Y-62047619D01*
X116333333Y-62142857D01*
X116333333Y-62285714D01*
X116285714Y-62380952D01*
X116238095Y-62428571D01*
X116142857Y-62476190D01*
X115761904Y-62476190D01*
X116714285Y-62047619D02*
X116761904Y-62000000D01*
X116857142Y-61952380D01*
X117095238Y-61952380D01*
X117190476Y-62000000D01*
X117238095Y-62047619D01*
X117285714Y-62142857D01*
X117285714Y-62238095D01*
X117238095Y-62380952D01*
X116666666Y-62952380D01*
X117285714Y-62952380D01*
X136433333Y-60152380D02*
X136100000Y-59676190D01*
X135861904Y-60152380D02*
X135861904Y-59152380D01*
X136242857Y-59152380D01*
X136338095Y-59200000D01*
X136385714Y-59247619D01*
X136433333Y-59342857D01*
X136433333Y-59485714D01*
X136385714Y-59580952D01*
X136338095Y-59628571D01*
X136242857Y-59676190D01*
X135861904Y-59676190D01*
X137385714Y-60152380D02*
X136814285Y-60152380D01*
X137100000Y-60152380D02*
X137100000Y-59152380D01*
X137004761Y-59295238D01*
X136909523Y-59390476D01*
X136814285Y-59438095D01*
X123333333Y-62952380D02*
X123000000Y-62476190D01*
X122761904Y-62952380D02*
X122761904Y-61952380D01*
X123142857Y-61952380D01*
X123238095Y-62000000D01*
X123285714Y-62047619D01*
X123333333Y-62142857D01*
X123333333Y-62285714D01*
X123285714Y-62380952D01*
X123238095Y-62428571D01*
X123142857Y-62476190D01*
X122761904Y-62476190D01*
X123666666Y-61952380D02*
X124285714Y-61952380D01*
X123952380Y-62333333D01*
X124095238Y-62333333D01*
X124190476Y-62380952D01*
X124238095Y-62428571D01*
X124285714Y-62523809D01*
X124285714Y-62761904D01*
X124238095Y-62857142D01*
X124190476Y-62904761D01*
X124095238Y-62952380D01*
X123809523Y-62952380D01*
X123714285Y-62904761D01*
X123666666Y-62857142D01*
X118433333Y-53852380D02*
X118100000Y-53376190D01*
X117861904Y-53852380D02*
X117861904Y-52852380D01*
X118242857Y-52852380D01*
X118338095Y-52900000D01*
X118385714Y-52947619D01*
X118433333Y-53042857D01*
X118433333Y-53185714D01*
X118385714Y-53280952D01*
X118338095Y-53328571D01*
X118242857Y-53376190D01*
X117861904Y-53376190D01*
X119290476Y-53185714D02*
X119290476Y-53852380D01*
X119052380Y-52804761D02*
X118814285Y-53519047D01*
X119433333Y-53519047D01*
X119833333Y-79452380D02*
X119500000Y-78976190D01*
X119261904Y-79452380D02*
X119261904Y-78452380D01*
X119642857Y-78452380D01*
X119738095Y-78500000D01*
X119785714Y-78547619D01*
X119833333Y-78642857D01*
X119833333Y-78785714D01*
X119785714Y-78880952D01*
X119738095Y-78928571D01*
X119642857Y-78976190D01*
X119261904Y-78976190D01*
X120690476Y-78452380D02*
X120500000Y-78452380D01*
X120404761Y-78500000D01*
X120357142Y-78547619D01*
X120261904Y-78690476D01*
X120214285Y-78880952D01*
X120214285Y-79261904D01*
X120261904Y-79357142D01*
X120309523Y-79404761D01*
X120404761Y-79452380D01*
X120595238Y-79452380D01*
X120690476Y-79404761D01*
X120738095Y-79357142D01*
X120785714Y-79261904D01*
X120785714Y-79023809D01*
X120738095Y-78928571D01*
X120690476Y-78880952D01*
X120595238Y-78833333D01*
X120404761Y-78833333D01*
X120309523Y-78880952D01*
X120261904Y-78928571D01*
X120214285Y-79023809D01*
X119833333Y-82452380D02*
X119500000Y-81976190D01*
X119261904Y-82452380D02*
X119261904Y-81452380D01*
X119642857Y-81452380D01*
X119738095Y-81500000D01*
X119785714Y-81547619D01*
X119833333Y-81642857D01*
X119833333Y-81785714D01*
X119785714Y-81880952D01*
X119738095Y-81928571D01*
X119642857Y-81976190D01*
X119261904Y-81976190D01*
X120166666Y-81452380D02*
X120833333Y-81452380D01*
X120404761Y-82452380D01*
D16*
X107916666Y-53226190D02*
X107750000Y-52988095D01*
X107630952Y-53226190D02*
X107630952Y-52726190D01*
X107821428Y-52726190D01*
X107869047Y-52750000D01*
X107892857Y-52773809D01*
X107916666Y-52821428D01*
X107916666Y-52892857D01*
X107892857Y-52940476D01*
X107869047Y-52964285D01*
X107821428Y-52988095D01*
X107630952Y-52988095D01*
X108369047Y-52726190D02*
X108130952Y-52726190D01*
X108107142Y-52964285D01*
X108130952Y-52940476D01*
X108178571Y-52916666D01*
X108297619Y-52916666D01*
X108345238Y-52940476D01*
X108369047Y-52964285D01*
X108392857Y-53011904D01*
X108392857Y-53130952D01*
X108369047Y-53178571D01*
X108345238Y-53202380D01*
X108297619Y-53226190D01*
X108178571Y-53226190D01*
X108130952Y-53202380D01*
X108107142Y-53178571D01*
D12*
X112838095Y-52852380D02*
X112838095Y-53661904D01*
X112885714Y-53757142D01*
X112933333Y-53804761D01*
X113028571Y-53852380D01*
X113219047Y-53852380D01*
X113314285Y-53804761D01*
X113361904Y-53757142D01*
X113409523Y-53661904D01*
X113409523Y-52852380D01*
X114409523Y-53852380D02*
X113838095Y-53852380D01*
X114123809Y-53852380D02*
X114123809Y-52852380D01*
X114028571Y-52995238D01*
X113933333Y-53090476D01*
X113838095Y-53138095D01*
M02*
