G04 #@! TF.GenerationSoftware,KiCad,Pcbnew,5.1.2*
G04 #@! TF.CreationDate,2019-07-04T09:21:13+09:00*
G04 #@! TF.ProjectId,SAM2695_yarou_menduke,53414d32-3639-4355-9f79-61726f755f6d,rev?*
G04 #@! TF.SameCoordinates,Original*
G04 #@! TF.FileFunction,Paste,Top*
G04 #@! TF.FilePolarity,Positive*
%FSLAX46Y46*%
G04 Gerber Fmt 4.6, Leading zero omitted, Abs format (unit mm)*
G04 Created by KiCad (PCBNEW 5.1.2) date 2019-07-04 09:21:13*
%MOMM*%
%LPD*%
G04 APERTURE LIST*
%ADD10R,0.200000X0.800000*%
%ADD11R,0.800000X0.800000*%
%ADD12R,0.900000X0.900000*%
G04 APERTURE END LIST*
D10*
X147700000Y-111300000D03*
X145700000Y-118700000D03*
D11*
X155100000Y-118700000D03*
D10*
X147700000Y-76300000D03*
X145700000Y-83700000D03*
D11*
X155100000Y-83700000D03*
D10*
X103700000Y-111300000D03*
X101700000Y-118700000D03*
D11*
X111100000Y-118700000D03*
D12*
X180725000Y-100275000D03*
X179575000Y-100275000D03*
X178425000Y-100275000D03*
X177275000Y-100275000D03*
X180725000Y-101425000D03*
X179575000Y-101425000D03*
X178425000Y-101425000D03*
X177275000Y-101425000D03*
X180725000Y-102575000D03*
X179575000Y-102575000D03*
X178425000Y-102575000D03*
X177275000Y-102575000D03*
X180725000Y-103725000D03*
X179575000Y-103725000D03*
X178425000Y-103725000D03*
X177275000Y-103725000D03*
X180725000Y-65275000D03*
X179575000Y-65275000D03*
X178425000Y-65275000D03*
X177275000Y-65275000D03*
X180725000Y-66425000D03*
X179575000Y-66425000D03*
X178425000Y-66425000D03*
X177275000Y-66425000D03*
X180725000Y-67575000D03*
X179575000Y-67575000D03*
X178425000Y-67575000D03*
X177275000Y-67575000D03*
X180725000Y-68725000D03*
X179575000Y-68725000D03*
X178425000Y-68725000D03*
X177275000Y-68725000D03*
X136725000Y-100275000D03*
X135575000Y-100275000D03*
X134425000Y-100275000D03*
X133275000Y-100275000D03*
X136725000Y-101425000D03*
X135575000Y-101425000D03*
X134425000Y-101425000D03*
X133275000Y-101425000D03*
X136725000Y-102575000D03*
X135575000Y-102575000D03*
X134425000Y-102575000D03*
X133275000Y-102575000D03*
X136725000Y-103725000D03*
X135575000Y-103725000D03*
X134425000Y-103725000D03*
X133275000Y-103725000D03*
D10*
X147650000Y-100050000D03*
X145650000Y-107450000D03*
D11*
X155050000Y-107450000D03*
D10*
X147650000Y-65050000D03*
X145650000Y-72450000D03*
D11*
X155050000Y-72450000D03*
D10*
X103650000Y-100050000D03*
X101650000Y-107450000D03*
D11*
X111050000Y-107450000D03*
X111050000Y-72450000D03*
D10*
X101650000Y-72450000D03*
X103650000Y-65050000D03*
D11*
X111100000Y-83700000D03*
D10*
X101700000Y-83700000D03*
X103700000Y-76300000D03*
D12*
X133275000Y-68725000D03*
X134425000Y-68725000D03*
X135575000Y-68725000D03*
X136725000Y-68725000D03*
X133275000Y-67575000D03*
X134425000Y-67575000D03*
X135575000Y-67575000D03*
X136725000Y-67575000D03*
X133275000Y-66425000D03*
X134425000Y-66425000D03*
X135575000Y-66425000D03*
X136725000Y-66425000D03*
X133275000Y-65275000D03*
X134425000Y-65275000D03*
X135575000Y-65275000D03*
X136725000Y-65275000D03*
M02*
