M48
; DRILL file {KiCad 5.1.2} date 2019年07月04日 09時21分22秒
; FORMAT={-:-/ absolute / metric / decimal}
; #@! TF.CreationDate,2019-07-04T09:21:22+09:00
; #@! TF.GenerationSoftware,Kicad,Pcbnew,5.1.2
; #@! TF.FileFunction,Plated,1,2,PTH
FMAT,2
METRIC
T1C0.300
T2C0.400
T3C1.400
%
G90
G05
T1
X125.2Y-67.4
X125.2Y-102.4
X127.2Y-67.0
X127.2Y-102.0
X128.8Y-67.0
X128.8Y-102.0
X131.0Y-70.6
X131.0Y-71.2
X131.0Y-71.8
X131.0Y-72.4
X131.0Y-105.6
X131.0Y-106.2
X131.0Y-106.8
X131.0Y-107.4
X132.0Y-70.6
X132.0Y-71.2
X132.0Y-71.8
X132.0Y-72.4
X132.0Y-105.6
X132.0Y-106.2
X132.0Y-106.8
X132.0Y-107.4
X133.6Y-62.4
X133.6Y-63.4
X133.6Y-97.4
X133.6Y-98.4
X135.8Y-71.0
X135.8Y-106.0
X136.837Y-71.0
X136.837Y-106.0
X169.2Y-67.4
X169.2Y-102.4
X171.2Y-67.0
X171.2Y-102.0
X172.8Y-67.0
X172.8Y-102.0
X175.0Y-70.6
X175.0Y-71.2
X175.0Y-71.8
X175.0Y-72.4
X175.0Y-105.6
X175.0Y-106.2
X175.0Y-106.8
X175.0Y-107.4
X176.0Y-70.6
X176.0Y-71.2
X176.0Y-71.8
X176.0Y-72.4
X176.0Y-105.6
X176.0Y-106.2
X176.0Y-106.8
X176.0Y-107.4
X177.6Y-62.4
X177.6Y-63.4
X177.6Y-97.4
X177.6Y-98.4
X179.8Y-71.0
X179.8Y-106.0
X180.837Y-71.0
X180.837Y-106.0
T2
X103.8Y-83.6
X103.8Y-118.6
X112.2Y-76.2
X112.2Y-111.2
X113.4Y-81.6
X113.4Y-116.6
X116.5Y-62.0
X116.5Y-67.0
X116.5Y-97.0
X116.5Y-102.0
X120.0Y-55.0
X120.0Y-90.0
X121.0Y-55.0
X121.0Y-90.0
X122.0Y-55.0
X122.0Y-90.0
X123.0Y-55.0
X123.0Y-90.0
X123.6Y-62.2
X123.6Y-97.2
X124.0Y-79.6
X124.0Y-114.6
X127.0Y-71.8
X127.0Y-106.8
X127.8Y-74.0
X127.8Y-109.0
X129.4Y-72.4
X129.4Y-107.4
X130.4Y-67.4
X130.4Y-102.4
X134.4Y-72.4
X134.4Y-107.4
X134.6Y-54.6
X134.6Y-89.6
X135.8Y-62.8
X135.8Y-97.8
X136.2Y-71.8
X136.2Y-106.8
X138.2Y-71.2
X138.2Y-106.2
X139.2Y-68.0
X139.2Y-103.0
X140.4Y-64.6
X140.4Y-99.6
X147.8Y-83.6
X147.8Y-118.6
X156.2Y-76.2
X156.2Y-111.2
X157.4Y-81.6
X157.4Y-116.6
X160.5Y-62.0
X160.5Y-67.0
X160.5Y-97.0
X160.5Y-102.0
X164.0Y-55.0
X164.0Y-90.0
X165.0Y-55.0
X165.0Y-90.0
X166.0Y-55.0
X166.0Y-90.0
X167.0Y-55.0
X167.0Y-90.0
X167.6Y-62.2
X167.6Y-97.2
X168.0Y-79.6
X168.0Y-114.6
X171.0Y-71.8
X171.0Y-106.8
X171.8Y-74.0
X171.8Y-109.0
X173.4Y-72.4
X173.4Y-107.4
X174.4Y-67.4
X174.4Y-102.4
X178.4Y-72.4
X178.4Y-107.4
X178.6Y-54.6
X178.6Y-89.6
X179.8Y-62.8
X179.8Y-97.8
X180.2Y-71.8
X180.2Y-106.8
X182.2Y-71.2
X182.2Y-106.2
X183.2Y-68.0
X183.2Y-103.0
X184.4Y-64.6
X184.4Y-99.6
T3
X144.0Y-88.2
X144.0Y-95.6
X144.0Y-53.2
X144.0Y-60.6
X100.0Y-88.2
X100.0Y-95.6
X100.0Y-53.2
X100.0Y-60.6
T0
M30
