G04 #@! TF.GenerationSoftware,KiCad,Pcbnew,5.1.2*
G04 #@! TF.CreationDate,2019-07-04T09:21:13+09:00*
G04 #@! TF.ProjectId,SAM2695_yarou_menduke,53414d32-3639-4355-9f79-61726f755f6d,rev?*
G04 #@! TF.SameCoordinates,Original*
G04 #@! TF.FileFunction,Soldermask,Top*
G04 #@! TF.FilePolarity,Negative*
%FSLAX46Y46*%
G04 Gerber Fmt 4.6, Leading zero omitted, Abs format (unit mm)*
G04 Created by KiCad (PCBNEW 5.1.2) date 2019-07-04 09:21:13*
%MOMM*%
%LPD*%
G04 APERTURE LIST*
%ADD10C,0.100000*%
G04 APERTURE END LIST*
D10*
G36*
X180120000Y-98810000D02*
G01*
X179880000Y-98810000D01*
X179880000Y-98600000D01*
X180120000Y-98600000D01*
X180120000Y-98810000D01*
G37*
G36*
X180120000Y-63810000D02*
G01*
X179880000Y-63810000D01*
X179880000Y-63600000D01*
X180120000Y-63600000D01*
X180120000Y-63810000D01*
G37*
G36*
X136120000Y-98810000D02*
G01*
X135880000Y-98810000D01*
X135880000Y-98600000D01*
X136120000Y-98600000D01*
X136120000Y-98810000D01*
G37*
G36*
X175810000Y-103920000D02*
G01*
X175600000Y-103920000D01*
X175600000Y-103680000D01*
X175810000Y-103680000D01*
X175810000Y-103920000D01*
G37*
G36*
X175810000Y-68920000D02*
G01*
X175600000Y-68920000D01*
X175600000Y-68680000D01*
X175810000Y-68680000D01*
X175810000Y-68920000D01*
G37*
G36*
X131810000Y-103920000D02*
G01*
X131600000Y-103920000D01*
X131600000Y-103680000D01*
X131810000Y-103680000D01*
X131810000Y-103920000D01*
G37*
G36*
X175800000Y-101920000D02*
G01*
X175590000Y-101920000D01*
X175590000Y-101680000D01*
X175800000Y-101680000D01*
X175800000Y-101920000D01*
G37*
G36*
X175800000Y-66920000D02*
G01*
X175590000Y-66920000D01*
X175590000Y-66680000D01*
X175800000Y-66680000D01*
X175800000Y-66920000D01*
G37*
G36*
X131800000Y-101920000D02*
G01*
X131590000Y-101920000D01*
X131590000Y-101680000D01*
X131800000Y-101680000D01*
X131800000Y-101920000D01*
G37*
G36*
X182400000Y-100720000D02*
G01*
X182190000Y-100720000D01*
X182190000Y-100480000D01*
X182400000Y-100480000D01*
X182400000Y-100720000D01*
G37*
G36*
X182400000Y-65720000D02*
G01*
X182190000Y-65720000D01*
X182190000Y-65480000D01*
X182400000Y-65480000D01*
X182400000Y-65720000D01*
G37*
G36*
X138400000Y-100720000D02*
G01*
X138190000Y-100720000D01*
X138190000Y-100480000D01*
X138400000Y-100480000D01*
X138400000Y-100720000D01*
G37*
G36*
X181320000Y-105410000D02*
G01*
X181080000Y-105410000D01*
X181080000Y-105200000D01*
X181320000Y-105200000D01*
X181320000Y-105410000D01*
G37*
G36*
X181320000Y-70410000D02*
G01*
X181080000Y-70410000D01*
X181080000Y-70200000D01*
X181320000Y-70200000D01*
X181320000Y-70410000D01*
G37*
G36*
X137320000Y-105410000D02*
G01*
X137080000Y-105410000D01*
X137080000Y-105200000D01*
X137320000Y-105200000D01*
X137320000Y-105410000D01*
G37*
G36*
X175810000Y-99920000D02*
G01*
X175600000Y-99920000D01*
X175600000Y-99680000D01*
X175810000Y-99680000D01*
X175810000Y-99920000D01*
G37*
G36*
X175810000Y-64920000D02*
G01*
X175600000Y-64920000D01*
X175600000Y-64680000D01*
X175810000Y-64680000D01*
X175810000Y-64920000D01*
G37*
G36*
X131810000Y-99920000D02*
G01*
X131600000Y-99920000D01*
X131600000Y-99680000D01*
X131810000Y-99680000D01*
X131810000Y-99920000D01*
G37*
G36*
X180120000Y-105400000D02*
G01*
X179880000Y-105400000D01*
X179880000Y-105190000D01*
X180120000Y-105190000D01*
X180120000Y-105400000D01*
G37*
G36*
X180120000Y-70400000D02*
G01*
X179880000Y-70400000D01*
X179880000Y-70190000D01*
X180120000Y-70190000D01*
X180120000Y-70400000D01*
G37*
G36*
X136120000Y-105400000D02*
G01*
X135880000Y-105400000D01*
X135880000Y-105190000D01*
X136120000Y-105190000D01*
X136120000Y-105400000D01*
G37*
G36*
X182400000Y-101520000D02*
G01*
X182190000Y-101520000D01*
X182190000Y-101280000D01*
X182400000Y-101280000D01*
X182400000Y-101520000D01*
G37*
G36*
X182400000Y-66520000D02*
G01*
X182190000Y-66520000D01*
X182190000Y-66280000D01*
X182400000Y-66280000D01*
X182400000Y-66520000D01*
G37*
G36*
X138400000Y-101520000D02*
G01*
X138190000Y-101520000D01*
X138190000Y-101280000D01*
X138400000Y-101280000D01*
X138400000Y-101520000D01*
G37*
G36*
X175830000Y-104320000D02*
G01*
X175620000Y-104320000D01*
X175620000Y-104080000D01*
X175830000Y-104080000D01*
X175830000Y-104320000D01*
G37*
G36*
X175830000Y-69320000D02*
G01*
X175620000Y-69320000D01*
X175620000Y-69080000D01*
X175830000Y-69080000D01*
X175830000Y-69320000D01*
G37*
G36*
X131830000Y-104320000D02*
G01*
X131620000Y-104320000D01*
X131620000Y-104080000D01*
X131830000Y-104080000D01*
X131830000Y-104320000D01*
G37*
G36*
X179320000Y-98810000D02*
G01*
X179080000Y-98810000D01*
X179080000Y-98600000D01*
X179320000Y-98600000D01*
X179320000Y-98810000D01*
G37*
G36*
X179320000Y-63810000D02*
G01*
X179080000Y-63810000D01*
X179080000Y-63600000D01*
X179320000Y-63600000D01*
X179320000Y-63810000D01*
G37*
G36*
X135320000Y-98810000D02*
G01*
X135080000Y-98810000D01*
X135080000Y-98600000D01*
X135320000Y-98600000D01*
X135320000Y-98810000D01*
G37*
G36*
X175810000Y-103520000D02*
G01*
X175600000Y-103520000D01*
X175600000Y-103280000D01*
X175810000Y-103280000D01*
X175810000Y-103520000D01*
G37*
G36*
X175810000Y-68520000D02*
G01*
X175600000Y-68520000D01*
X175600000Y-68280000D01*
X175810000Y-68280000D01*
X175810000Y-68520000D01*
G37*
G36*
X131810000Y-103520000D02*
G01*
X131600000Y-103520000D01*
X131600000Y-103280000D01*
X131810000Y-103280000D01*
X131810000Y-103520000D01*
G37*
G36*
X176920000Y-105400000D02*
G01*
X176680000Y-105400000D01*
X176680000Y-105190000D01*
X176920000Y-105190000D01*
X176920000Y-105400000D01*
G37*
G36*
X176920000Y-70400000D02*
G01*
X176680000Y-70400000D01*
X176680000Y-70190000D01*
X176920000Y-70190000D01*
X176920000Y-70400000D01*
G37*
G36*
X132920000Y-105400000D02*
G01*
X132680000Y-105400000D01*
X132680000Y-105190000D01*
X132920000Y-105190000D01*
X132920000Y-105400000D01*
G37*
G36*
X177320000Y-105400000D02*
G01*
X177080000Y-105400000D01*
X177080000Y-105190000D01*
X177320000Y-105190000D01*
X177320000Y-105400000D01*
G37*
G36*
X177320000Y-70400000D02*
G01*
X177080000Y-70400000D01*
X177080000Y-70190000D01*
X177320000Y-70190000D01*
X177320000Y-70400000D01*
G37*
G36*
X133320000Y-105400000D02*
G01*
X133080000Y-105400000D01*
X133080000Y-105190000D01*
X133320000Y-105190000D01*
X133320000Y-105400000D01*
G37*
G36*
X178920000Y-98810000D02*
G01*
X178680000Y-98810000D01*
X178680000Y-98600000D01*
X178920000Y-98600000D01*
X178920000Y-98810000D01*
G37*
G36*
X178920000Y-63810000D02*
G01*
X178680000Y-63810000D01*
X178680000Y-63600000D01*
X178920000Y-63600000D01*
X178920000Y-63810000D01*
G37*
G36*
X134920000Y-98810000D02*
G01*
X134680000Y-98810000D01*
X134680000Y-98600000D01*
X134920000Y-98600000D01*
X134920000Y-98810000D01*
G37*
G36*
X179320000Y-105400000D02*
G01*
X179080000Y-105400000D01*
X179080000Y-105190000D01*
X179320000Y-105190000D01*
X179320000Y-105400000D01*
G37*
G36*
X179320000Y-70400000D02*
G01*
X179080000Y-70400000D01*
X179080000Y-70190000D01*
X179320000Y-70190000D01*
X179320000Y-70400000D01*
G37*
G36*
X135320000Y-105400000D02*
G01*
X135080000Y-105400000D01*
X135080000Y-105190000D01*
X135320000Y-105190000D01*
X135320000Y-105400000D01*
G37*
G36*
X180920000Y-105400000D02*
G01*
X180680000Y-105400000D01*
X180680000Y-105190000D01*
X180920000Y-105190000D01*
X180920000Y-105400000D01*
G37*
G36*
X180920000Y-70400000D02*
G01*
X180680000Y-70400000D01*
X180680000Y-70190000D01*
X180920000Y-70190000D01*
X180920000Y-70400000D01*
G37*
G36*
X136920000Y-105400000D02*
G01*
X136680000Y-105400000D01*
X136680000Y-105190000D01*
X136920000Y-105190000D01*
X136920000Y-105400000D01*
G37*
G36*
X182400000Y-101120000D02*
G01*
X182190000Y-101120000D01*
X182190000Y-100880000D01*
X182400000Y-100880000D01*
X182400000Y-101120000D01*
G37*
G36*
X182400000Y-66120000D02*
G01*
X182190000Y-66120000D01*
X182190000Y-65880000D01*
X182400000Y-65880000D01*
X182400000Y-66120000D01*
G37*
G36*
X138400000Y-101120000D02*
G01*
X138190000Y-101120000D01*
X138190000Y-100880000D01*
X138400000Y-100880000D01*
X138400000Y-101120000D01*
G37*
G36*
X179720000Y-105400000D02*
G01*
X179480000Y-105400000D01*
X179480000Y-105190000D01*
X179720000Y-105190000D01*
X179720000Y-105400000D01*
G37*
G36*
X179720000Y-70400000D02*
G01*
X179480000Y-70400000D01*
X179480000Y-70190000D01*
X179720000Y-70190000D01*
X179720000Y-70400000D01*
G37*
G36*
X135720000Y-105400000D02*
G01*
X135480000Y-105400000D01*
X135480000Y-105190000D01*
X135720000Y-105190000D01*
X135720000Y-105400000D01*
G37*
G36*
X175800000Y-102320000D02*
G01*
X175590000Y-102320000D01*
X175590000Y-102080000D01*
X175800000Y-102080000D01*
X175800000Y-102320000D01*
G37*
G36*
X175800000Y-67320000D02*
G01*
X175590000Y-67320000D01*
X175590000Y-67080000D01*
X175800000Y-67080000D01*
X175800000Y-67320000D01*
G37*
G36*
X131800000Y-102320000D02*
G01*
X131590000Y-102320000D01*
X131590000Y-102080000D01*
X131800000Y-102080000D01*
X131800000Y-102320000D01*
G37*
G36*
X175810000Y-101120000D02*
G01*
X175600000Y-101120000D01*
X175600000Y-100880000D01*
X175810000Y-100880000D01*
X175810000Y-101120000D01*
G37*
G36*
X175810000Y-66120000D02*
G01*
X175600000Y-66120000D01*
X175600000Y-65880000D01*
X175810000Y-65880000D01*
X175810000Y-66120000D01*
G37*
G36*
X131810000Y-101120000D02*
G01*
X131600000Y-101120000D01*
X131600000Y-100880000D01*
X131810000Y-100880000D01*
X131810000Y-101120000D01*
G37*
G36*
X176920000Y-98810000D02*
G01*
X176680000Y-98810000D01*
X176680000Y-98600000D01*
X176920000Y-98600000D01*
X176920000Y-98810000D01*
G37*
G36*
X176920000Y-63810000D02*
G01*
X176680000Y-63810000D01*
X176680000Y-63600000D01*
X176920000Y-63600000D01*
X176920000Y-63810000D01*
G37*
G36*
X132920000Y-98810000D02*
G01*
X132680000Y-98810000D01*
X132680000Y-98600000D01*
X132920000Y-98600000D01*
X132920000Y-98810000D01*
G37*
G36*
X177720000Y-98810000D02*
G01*
X177480000Y-98810000D01*
X177480000Y-98600000D01*
X177720000Y-98600000D01*
X177720000Y-98810000D01*
G37*
G36*
X177720000Y-63810000D02*
G01*
X177480000Y-63810000D01*
X177480000Y-63600000D01*
X177720000Y-63600000D01*
X177720000Y-63810000D01*
G37*
G36*
X133720000Y-98810000D02*
G01*
X133480000Y-98810000D01*
X133480000Y-98600000D01*
X133720000Y-98600000D01*
X133720000Y-98810000D01*
G37*
G36*
X177320000Y-98810000D02*
G01*
X177080000Y-98810000D01*
X177080000Y-98600000D01*
X177320000Y-98600000D01*
X177320000Y-98810000D01*
G37*
G36*
X177320000Y-63810000D02*
G01*
X177080000Y-63810000D01*
X177080000Y-63600000D01*
X177320000Y-63600000D01*
X177320000Y-63810000D01*
G37*
G36*
X133320000Y-98810000D02*
G01*
X133080000Y-98810000D01*
X133080000Y-98600000D01*
X133320000Y-98600000D01*
X133320000Y-98810000D01*
G37*
G36*
X181320000Y-98810000D02*
G01*
X181080000Y-98810000D01*
X181080000Y-98600000D01*
X181320000Y-98600000D01*
X181320000Y-98810000D01*
G37*
G36*
X181320000Y-63810000D02*
G01*
X181080000Y-63810000D01*
X181080000Y-63600000D01*
X181320000Y-63600000D01*
X181320000Y-63810000D01*
G37*
G36*
X137320000Y-98810000D02*
G01*
X137080000Y-98810000D01*
X137080000Y-98600000D01*
X137320000Y-98600000D01*
X137320000Y-98810000D01*
G37*
G36*
X182400000Y-100320000D02*
G01*
X182190000Y-100320000D01*
X182190000Y-100080000D01*
X182400000Y-100080000D01*
X182400000Y-100320000D01*
G37*
G36*
X182400000Y-65320000D02*
G01*
X182190000Y-65320000D01*
X182190000Y-65080000D01*
X182400000Y-65080000D01*
X182400000Y-65320000D01*
G37*
G36*
X138400000Y-100320000D02*
G01*
X138190000Y-100320000D01*
X138190000Y-100080000D01*
X138400000Y-100080000D01*
X138400000Y-100320000D01*
G37*
G36*
X175800000Y-101520000D02*
G01*
X175590000Y-101520000D01*
X175590000Y-101280000D01*
X175800000Y-101280000D01*
X175800000Y-101520000D01*
G37*
G36*
X175800000Y-66520000D02*
G01*
X175590000Y-66520000D01*
X175590000Y-66280000D01*
X175800000Y-66280000D01*
X175800000Y-66520000D01*
G37*
G36*
X131800000Y-101520000D02*
G01*
X131590000Y-101520000D01*
X131590000Y-101280000D01*
X131800000Y-101280000D01*
X131800000Y-101520000D01*
G37*
G36*
X175820000Y-102720000D02*
G01*
X175610000Y-102720000D01*
X175610000Y-102480000D01*
X175820000Y-102480000D01*
X175820000Y-102720000D01*
G37*
G36*
X175820000Y-67720000D02*
G01*
X175610000Y-67720000D01*
X175610000Y-67480000D01*
X175820000Y-67480000D01*
X175820000Y-67720000D01*
G37*
G36*
X131820000Y-102720000D02*
G01*
X131610000Y-102720000D01*
X131610000Y-102480000D01*
X131820000Y-102480000D01*
X131820000Y-102720000D01*
G37*
G36*
X178120000Y-98810000D02*
G01*
X177880000Y-98810000D01*
X177880000Y-98600000D01*
X178120000Y-98600000D01*
X178120000Y-98810000D01*
G37*
G36*
X178120000Y-63810000D02*
G01*
X177880000Y-63810000D01*
X177880000Y-63600000D01*
X178120000Y-63600000D01*
X178120000Y-63810000D01*
G37*
G36*
X134120000Y-98810000D02*
G01*
X133880000Y-98810000D01*
X133880000Y-98600000D01*
X134120000Y-98600000D01*
X134120000Y-98810000D01*
G37*
G36*
X178520000Y-105400000D02*
G01*
X178280000Y-105400000D01*
X178280000Y-105190000D01*
X178520000Y-105190000D01*
X178520000Y-105400000D01*
G37*
G36*
X178520000Y-70400000D02*
G01*
X178280000Y-70400000D01*
X178280000Y-70190000D01*
X178520000Y-70190000D01*
X178520000Y-70400000D01*
G37*
G36*
X134520000Y-105400000D02*
G01*
X134280000Y-105400000D01*
X134280000Y-105190000D01*
X134520000Y-105190000D01*
X134520000Y-105400000D01*
G37*
G36*
X178520000Y-98800000D02*
G01*
X178280000Y-98800000D01*
X178280000Y-98590000D01*
X178520000Y-98590000D01*
X178520000Y-98800000D01*
G37*
G36*
X178520000Y-63800000D02*
G01*
X178280000Y-63800000D01*
X178280000Y-63590000D01*
X178520000Y-63590000D01*
X178520000Y-63800000D01*
G37*
G36*
X134520000Y-98800000D02*
G01*
X134280000Y-98800000D01*
X134280000Y-98590000D01*
X134520000Y-98590000D01*
X134520000Y-98800000D01*
G37*
G36*
X175800000Y-100320000D02*
G01*
X175590000Y-100320000D01*
X175590000Y-100080000D01*
X175800000Y-100080000D01*
X175800000Y-100320000D01*
G37*
G36*
X175800000Y-65320000D02*
G01*
X175590000Y-65320000D01*
X175590000Y-65080000D01*
X175800000Y-65080000D01*
X175800000Y-65320000D01*
G37*
G36*
X131800000Y-100320000D02*
G01*
X131590000Y-100320000D01*
X131590000Y-100080000D01*
X131800000Y-100080000D01*
X131800000Y-100320000D01*
G37*
G36*
X175810000Y-100720000D02*
G01*
X175600000Y-100720000D01*
X175600000Y-100480000D01*
X175810000Y-100480000D01*
X175810000Y-100720000D01*
G37*
G36*
X175810000Y-65720000D02*
G01*
X175600000Y-65720000D01*
X175600000Y-65480000D01*
X175810000Y-65480000D01*
X175810000Y-65720000D01*
G37*
G36*
X131810000Y-100720000D02*
G01*
X131600000Y-100720000D01*
X131600000Y-100480000D01*
X131810000Y-100480000D01*
X131810000Y-100720000D01*
G37*
G36*
X180520000Y-105400000D02*
G01*
X180280000Y-105400000D01*
X180280000Y-105190000D01*
X180520000Y-105190000D01*
X180520000Y-105400000D01*
G37*
G36*
X180520000Y-70400000D02*
G01*
X180280000Y-70400000D01*
X180280000Y-70190000D01*
X180520000Y-70190000D01*
X180520000Y-70400000D01*
G37*
G36*
X136520000Y-105400000D02*
G01*
X136280000Y-105400000D01*
X136280000Y-105190000D01*
X136520000Y-105190000D01*
X136520000Y-105400000D01*
G37*
G36*
X175820000Y-103120000D02*
G01*
X175610000Y-103120000D01*
X175610000Y-102880000D01*
X175820000Y-102880000D01*
X175820000Y-103120000D01*
G37*
G36*
X175820000Y-68120000D02*
G01*
X175610000Y-68120000D01*
X175610000Y-67880000D01*
X175820000Y-67880000D01*
X175820000Y-68120000D01*
G37*
G36*
X131820000Y-103120000D02*
G01*
X131610000Y-103120000D01*
X131610000Y-102880000D01*
X131820000Y-102880000D01*
X131820000Y-103120000D01*
G37*
G36*
X178920000Y-105400000D02*
G01*
X178680000Y-105400000D01*
X178680000Y-105190000D01*
X178920000Y-105190000D01*
X178920000Y-105400000D01*
G37*
G36*
X178920000Y-70400000D02*
G01*
X178680000Y-70400000D01*
X178680000Y-70190000D01*
X178920000Y-70190000D01*
X178920000Y-70400000D01*
G37*
G36*
X134920000Y-105400000D02*
G01*
X134680000Y-105400000D01*
X134680000Y-105190000D01*
X134920000Y-105190000D01*
X134920000Y-105400000D01*
G37*
G36*
X177720000Y-105400000D02*
G01*
X177480000Y-105400000D01*
X177480000Y-105190000D01*
X177720000Y-105190000D01*
X177720000Y-105400000D01*
G37*
G36*
X177720000Y-70400000D02*
G01*
X177480000Y-70400000D01*
X177480000Y-70190000D01*
X177720000Y-70190000D01*
X177720000Y-70400000D01*
G37*
G36*
X133720000Y-105400000D02*
G01*
X133480000Y-105400000D01*
X133480000Y-105190000D01*
X133720000Y-105190000D01*
X133720000Y-105400000D01*
G37*
G36*
X182400000Y-99920000D02*
G01*
X182190000Y-99920000D01*
X182190000Y-99680000D01*
X182400000Y-99680000D01*
X182400000Y-99920000D01*
G37*
G36*
X182400000Y-64920000D02*
G01*
X182190000Y-64920000D01*
X182190000Y-64680000D01*
X182400000Y-64680000D01*
X182400000Y-64920000D01*
G37*
G36*
X138400000Y-99920000D02*
G01*
X138190000Y-99920000D01*
X138190000Y-99680000D01*
X138400000Y-99680000D01*
X138400000Y-99920000D01*
G37*
G36*
X180520000Y-98810000D02*
G01*
X180280000Y-98810000D01*
X180280000Y-98600000D01*
X180520000Y-98600000D01*
X180520000Y-98810000D01*
G37*
G36*
X180520000Y-63810000D02*
G01*
X180280000Y-63810000D01*
X180280000Y-63600000D01*
X180520000Y-63600000D01*
X180520000Y-63810000D01*
G37*
G36*
X136520000Y-98810000D02*
G01*
X136280000Y-98810000D01*
X136280000Y-98600000D01*
X136520000Y-98600000D01*
X136520000Y-98810000D01*
G37*
G36*
X180920000Y-98810000D02*
G01*
X180680000Y-98810000D01*
X180680000Y-98600000D01*
X180920000Y-98600000D01*
X180920000Y-98810000D01*
G37*
G36*
X180920000Y-63810000D02*
G01*
X180680000Y-63810000D01*
X180680000Y-63600000D01*
X180920000Y-63600000D01*
X180920000Y-63810000D01*
G37*
G36*
X136920000Y-98810000D02*
G01*
X136680000Y-98810000D01*
X136680000Y-98600000D01*
X136920000Y-98600000D01*
X136920000Y-98810000D01*
G37*
G36*
X179720000Y-98810000D02*
G01*
X179480000Y-98810000D01*
X179480000Y-98600000D01*
X179720000Y-98600000D01*
X179720000Y-98810000D01*
G37*
G36*
X179720000Y-63810000D02*
G01*
X179480000Y-63810000D01*
X179480000Y-63600000D01*
X179720000Y-63600000D01*
X179720000Y-63810000D01*
G37*
G36*
X135720000Y-98810000D02*
G01*
X135480000Y-98810000D01*
X135480000Y-98600000D01*
X135720000Y-98600000D01*
X135720000Y-98810000D01*
G37*
G36*
X178120000Y-105390000D02*
G01*
X177880000Y-105390000D01*
X177880000Y-105180000D01*
X178120000Y-105180000D01*
X178120000Y-105390000D01*
G37*
G36*
X178120000Y-70390000D02*
G01*
X177880000Y-70390000D01*
X177880000Y-70180000D01*
X178120000Y-70180000D01*
X178120000Y-70390000D01*
G37*
G36*
X134120000Y-105390000D02*
G01*
X133880000Y-105390000D01*
X133880000Y-105180000D01*
X134120000Y-105180000D01*
X134120000Y-105390000D01*
G37*
G36*
X182400000Y-104320000D02*
G01*
X182190000Y-104320000D01*
X182190000Y-104080000D01*
X182400000Y-104080000D01*
X182400000Y-104320000D01*
G37*
G36*
X182400000Y-69320000D02*
G01*
X182190000Y-69320000D01*
X182190000Y-69080000D01*
X182400000Y-69080000D01*
X182400000Y-69320000D01*
G37*
G36*
X138400000Y-104320000D02*
G01*
X138190000Y-104320000D01*
X138190000Y-104080000D01*
X138400000Y-104080000D01*
X138400000Y-104320000D01*
G37*
G36*
X182400000Y-103920000D02*
G01*
X182190000Y-103920000D01*
X182190000Y-103680000D01*
X182400000Y-103680000D01*
X182400000Y-103920000D01*
G37*
G36*
X182400000Y-68920000D02*
G01*
X182190000Y-68920000D01*
X182190000Y-68680000D01*
X182400000Y-68680000D01*
X182400000Y-68920000D01*
G37*
G36*
X138400000Y-103920000D02*
G01*
X138190000Y-103920000D01*
X138190000Y-103680000D01*
X138400000Y-103680000D01*
X138400000Y-103920000D01*
G37*
G36*
X182400000Y-103520000D02*
G01*
X182190000Y-103520000D01*
X182190000Y-103280000D01*
X182400000Y-103280000D01*
X182400000Y-103520000D01*
G37*
G36*
X182400000Y-68520000D02*
G01*
X182190000Y-68520000D01*
X182190000Y-68280000D01*
X182400000Y-68280000D01*
X182400000Y-68520000D01*
G37*
G36*
X138400000Y-103520000D02*
G01*
X138190000Y-103520000D01*
X138190000Y-103280000D01*
X138400000Y-103280000D01*
X138400000Y-103520000D01*
G37*
G36*
X182400000Y-102720000D02*
G01*
X182190000Y-102720000D01*
X182190000Y-102480000D01*
X182400000Y-102480000D01*
X182400000Y-102720000D01*
G37*
G36*
X182400000Y-67720000D02*
G01*
X182190000Y-67720000D01*
X182190000Y-67480000D01*
X182400000Y-67480000D01*
X182400000Y-67720000D01*
G37*
G36*
X138400000Y-102720000D02*
G01*
X138190000Y-102720000D01*
X138190000Y-102480000D01*
X138400000Y-102480000D01*
X138400000Y-102720000D01*
G37*
G36*
X182400000Y-103120000D02*
G01*
X182190000Y-103120000D01*
X182190000Y-102880000D01*
X182400000Y-102880000D01*
X182400000Y-103120000D01*
G37*
G36*
X182400000Y-68120000D02*
G01*
X182190000Y-68120000D01*
X182190000Y-67880000D01*
X182400000Y-67880000D01*
X182400000Y-68120000D01*
G37*
G36*
X138400000Y-103120000D02*
G01*
X138190000Y-103120000D01*
X138190000Y-102880000D01*
X138400000Y-102880000D01*
X138400000Y-103120000D01*
G37*
G36*
X182400000Y-101920000D02*
G01*
X182190000Y-101920000D01*
X182190000Y-101680000D01*
X182400000Y-101680000D01*
X182400000Y-101920000D01*
G37*
G36*
X182400000Y-66920000D02*
G01*
X182190000Y-66920000D01*
X182190000Y-66680000D01*
X182400000Y-66680000D01*
X182400000Y-66920000D01*
G37*
G36*
X138400000Y-101920000D02*
G01*
X138190000Y-101920000D01*
X138190000Y-101680000D01*
X138400000Y-101680000D01*
X138400000Y-101920000D01*
G37*
G36*
X182400000Y-102320000D02*
G01*
X182190000Y-102320000D01*
X182190000Y-102080000D01*
X182400000Y-102080000D01*
X182400000Y-102320000D01*
G37*
G36*
X182400000Y-67320000D02*
G01*
X182190000Y-67320000D01*
X182190000Y-67080000D01*
X182400000Y-67080000D01*
X182400000Y-67320000D01*
G37*
G36*
X138400000Y-102320000D02*
G01*
X138190000Y-102320000D01*
X138190000Y-102080000D01*
X138400000Y-102080000D01*
X138400000Y-102320000D01*
G37*
G36*
X138400000Y-69320000D02*
G01*
X138190000Y-69320000D01*
X138190000Y-69080000D01*
X138400000Y-69080000D01*
X138400000Y-69320000D01*
G37*
G36*
X138400000Y-68920000D02*
G01*
X138190000Y-68920000D01*
X138190000Y-68680000D01*
X138400000Y-68680000D01*
X138400000Y-68920000D01*
G37*
G36*
X138400000Y-68520000D02*
G01*
X138190000Y-68520000D01*
X138190000Y-68280000D01*
X138400000Y-68280000D01*
X138400000Y-68520000D01*
G37*
G36*
X138400000Y-68120000D02*
G01*
X138190000Y-68120000D01*
X138190000Y-67880000D01*
X138400000Y-67880000D01*
X138400000Y-68120000D01*
G37*
G36*
X138400000Y-67720000D02*
G01*
X138190000Y-67720000D01*
X138190000Y-67480000D01*
X138400000Y-67480000D01*
X138400000Y-67720000D01*
G37*
G36*
X138400000Y-67320000D02*
G01*
X138190000Y-67320000D01*
X138190000Y-67080000D01*
X138400000Y-67080000D01*
X138400000Y-67320000D01*
G37*
G36*
X138400000Y-66920000D02*
G01*
X138190000Y-66920000D01*
X138190000Y-66680000D01*
X138400000Y-66680000D01*
X138400000Y-66920000D01*
G37*
G36*
X138400000Y-66520000D02*
G01*
X138190000Y-66520000D01*
X138190000Y-66280000D01*
X138400000Y-66280000D01*
X138400000Y-66520000D01*
G37*
G36*
X138400000Y-66120000D02*
G01*
X138190000Y-66120000D01*
X138190000Y-65880000D01*
X138400000Y-65880000D01*
X138400000Y-66120000D01*
G37*
G36*
X138400000Y-65720000D02*
G01*
X138190000Y-65720000D01*
X138190000Y-65480000D01*
X138400000Y-65480000D01*
X138400000Y-65720000D01*
G37*
G36*
X138400000Y-65320000D02*
G01*
X138190000Y-65320000D01*
X138190000Y-65080000D01*
X138400000Y-65080000D01*
X138400000Y-65320000D01*
G37*
G36*
X138400000Y-64920000D02*
G01*
X138190000Y-64920000D01*
X138190000Y-64680000D01*
X138400000Y-64680000D01*
X138400000Y-64920000D01*
G37*
G36*
X131830000Y-69320000D02*
G01*
X131620000Y-69320000D01*
X131620000Y-69080000D01*
X131830000Y-69080000D01*
X131830000Y-69320000D01*
G37*
G36*
X131810000Y-68920000D02*
G01*
X131600000Y-68920000D01*
X131600000Y-68680000D01*
X131810000Y-68680000D01*
X131810000Y-68920000D01*
G37*
G36*
X131810000Y-68520000D02*
G01*
X131600000Y-68520000D01*
X131600000Y-68280000D01*
X131810000Y-68280000D01*
X131810000Y-68520000D01*
G37*
G36*
X131820000Y-68120000D02*
G01*
X131610000Y-68120000D01*
X131610000Y-67880000D01*
X131820000Y-67880000D01*
X131820000Y-68120000D01*
G37*
G36*
X131820000Y-67720000D02*
G01*
X131610000Y-67720000D01*
X131610000Y-67480000D01*
X131820000Y-67480000D01*
X131820000Y-67720000D01*
G37*
G36*
X131800000Y-67320000D02*
G01*
X131590000Y-67320000D01*
X131590000Y-67080000D01*
X131800000Y-67080000D01*
X131800000Y-67320000D01*
G37*
G36*
X131800000Y-66920000D02*
G01*
X131590000Y-66920000D01*
X131590000Y-66680000D01*
X131800000Y-66680000D01*
X131800000Y-66920000D01*
G37*
G36*
X131800000Y-66520000D02*
G01*
X131590000Y-66520000D01*
X131590000Y-66280000D01*
X131800000Y-66280000D01*
X131800000Y-66520000D01*
G37*
G36*
X131810000Y-66120000D02*
G01*
X131600000Y-66120000D01*
X131600000Y-65880000D01*
X131810000Y-65880000D01*
X131810000Y-66120000D01*
G37*
G36*
X131810000Y-65720000D02*
G01*
X131600000Y-65720000D01*
X131600000Y-65480000D01*
X131810000Y-65480000D01*
X131810000Y-65720000D01*
G37*
G36*
X131800000Y-65320000D02*
G01*
X131590000Y-65320000D01*
X131590000Y-65080000D01*
X131800000Y-65080000D01*
X131800000Y-65320000D01*
G37*
G36*
X131810000Y-64920000D02*
G01*
X131600000Y-64920000D01*
X131600000Y-64680000D01*
X131810000Y-64680000D01*
X131810000Y-64920000D01*
G37*
G36*
X137320000Y-63810000D02*
G01*
X137080000Y-63810000D01*
X137080000Y-63600000D01*
X137320000Y-63600000D01*
X137320000Y-63810000D01*
G37*
G36*
X136920000Y-63810000D02*
G01*
X136680000Y-63810000D01*
X136680000Y-63600000D01*
X136920000Y-63600000D01*
X136920000Y-63810000D01*
G37*
G36*
X136520000Y-63810000D02*
G01*
X136280000Y-63810000D01*
X136280000Y-63600000D01*
X136520000Y-63600000D01*
X136520000Y-63810000D01*
G37*
G36*
X136120000Y-63810000D02*
G01*
X135880000Y-63810000D01*
X135880000Y-63600000D01*
X136120000Y-63600000D01*
X136120000Y-63810000D01*
G37*
G36*
X135720000Y-63810000D02*
G01*
X135480000Y-63810000D01*
X135480000Y-63600000D01*
X135720000Y-63600000D01*
X135720000Y-63810000D01*
G37*
G36*
X135320000Y-63810000D02*
G01*
X135080000Y-63810000D01*
X135080000Y-63600000D01*
X135320000Y-63600000D01*
X135320000Y-63810000D01*
G37*
G36*
X134920000Y-63810000D02*
G01*
X134680000Y-63810000D01*
X134680000Y-63600000D01*
X134920000Y-63600000D01*
X134920000Y-63810000D01*
G37*
G36*
X134520000Y-63800000D02*
G01*
X134280000Y-63800000D01*
X134280000Y-63590000D01*
X134520000Y-63590000D01*
X134520000Y-63800000D01*
G37*
G36*
X134120000Y-63810000D02*
G01*
X133880000Y-63810000D01*
X133880000Y-63600000D01*
X134120000Y-63600000D01*
X134120000Y-63810000D01*
G37*
G36*
X133720000Y-63810000D02*
G01*
X133480000Y-63810000D01*
X133480000Y-63600000D01*
X133720000Y-63600000D01*
X133720000Y-63810000D01*
G37*
G36*
X133320000Y-63810000D02*
G01*
X133080000Y-63810000D01*
X133080000Y-63600000D01*
X133320000Y-63600000D01*
X133320000Y-63810000D01*
G37*
G36*
X132920000Y-63810000D02*
G01*
X132680000Y-63810000D01*
X132680000Y-63600000D01*
X132920000Y-63600000D01*
X132920000Y-63810000D01*
G37*
G36*
X137320000Y-70410000D02*
G01*
X137080000Y-70410000D01*
X137080000Y-70200000D01*
X137320000Y-70200000D01*
X137320000Y-70410000D01*
G37*
G36*
X136920000Y-70400000D02*
G01*
X136680000Y-70400000D01*
X136680000Y-70190000D01*
X136920000Y-70190000D01*
X136920000Y-70400000D01*
G37*
G36*
X136520000Y-70400000D02*
G01*
X136280000Y-70400000D01*
X136280000Y-70190000D01*
X136520000Y-70190000D01*
X136520000Y-70400000D01*
G37*
G36*
X136120000Y-70400000D02*
G01*
X135880000Y-70400000D01*
X135880000Y-70190000D01*
X136120000Y-70190000D01*
X136120000Y-70400000D01*
G37*
G36*
X135720000Y-70400000D02*
G01*
X135480000Y-70400000D01*
X135480000Y-70190000D01*
X135720000Y-70190000D01*
X135720000Y-70400000D01*
G37*
G36*
X135320000Y-70400000D02*
G01*
X135080000Y-70400000D01*
X135080000Y-70190000D01*
X135320000Y-70190000D01*
X135320000Y-70400000D01*
G37*
G36*
X134920000Y-70400000D02*
G01*
X134680000Y-70400000D01*
X134680000Y-70190000D01*
X134920000Y-70190000D01*
X134920000Y-70400000D01*
G37*
G36*
X134520000Y-70400000D02*
G01*
X134280000Y-70400000D01*
X134280000Y-70190000D01*
X134520000Y-70190000D01*
X134520000Y-70400000D01*
G37*
G36*
X134120000Y-70390000D02*
G01*
X133880000Y-70390000D01*
X133880000Y-70180000D01*
X134120000Y-70180000D01*
X134120000Y-70390000D01*
G37*
G36*
X133720000Y-70400000D02*
G01*
X133480000Y-70400000D01*
X133480000Y-70190000D01*
X133720000Y-70190000D01*
X133720000Y-70400000D01*
G37*
G36*
X133320000Y-70400000D02*
G01*
X133080000Y-70400000D01*
X133080000Y-70190000D01*
X133320000Y-70190000D01*
X133320000Y-70400000D01*
G37*
G36*
X132920000Y-70400000D02*
G01*
X132680000Y-70400000D01*
X132680000Y-70190000D01*
X132920000Y-70190000D01*
X132920000Y-70400000D01*
G37*
G36*
X183966733Y-116961391D02*
G01*
X184257931Y-117082010D01*
X184520004Y-117257121D01*
X184742879Y-117479996D01*
X184917990Y-117742069D01*
X185038609Y-118033268D01*
X185100100Y-118342404D01*
X185100100Y-118657596D01*
X185038609Y-118966732D01*
X184917990Y-119257931D01*
X184742879Y-119520004D01*
X184520004Y-119742879D01*
X184257931Y-119917990D01*
X183966733Y-120038609D01*
X183657596Y-120100100D01*
X183342404Y-120100100D01*
X183033267Y-120038609D01*
X182742069Y-119917990D01*
X182479996Y-119742879D01*
X182257121Y-119520004D01*
X182082010Y-119257931D01*
X181961391Y-118966732D01*
X181899900Y-118657596D01*
X181899900Y-118342404D01*
X181961391Y-118033268D01*
X182082010Y-117742069D01*
X182257121Y-117479996D01*
X182479996Y-117257121D01*
X182742069Y-117082010D01*
X183033267Y-116961391D01*
X183342404Y-116899900D01*
X183657596Y-116899900D01*
X183966733Y-116961391D01*
X183966733Y-116961391D01*
G37*
G36*
X146800100Y-120100100D02*
G01*
X144599900Y-120100100D01*
X144599900Y-117299900D01*
X146800100Y-117299900D01*
X146800100Y-120100100D01*
X146800100Y-120100100D01*
G37*
G36*
X156500100Y-120100100D02*
G01*
X153699900Y-120100100D01*
X153699900Y-117299900D01*
X156500100Y-117299900D01*
X156500100Y-120100100D01*
X156500100Y-120100100D01*
G37*
G36*
X102800100Y-120100100D02*
G01*
X100599900Y-120100100D01*
X100599900Y-117299900D01*
X102800100Y-117299900D01*
X102800100Y-120100100D01*
X102800100Y-120100100D01*
G37*
G36*
X112500100Y-120100100D02*
G01*
X109699900Y-120100100D01*
X109699900Y-117299900D01*
X112500100Y-117299900D01*
X112500100Y-120100100D01*
X112500100Y-120100100D01*
G37*
G36*
X169966733Y-116961391D02*
G01*
X170257931Y-117082010D01*
X170520004Y-117257121D01*
X170742879Y-117479996D01*
X170917990Y-117742069D01*
X171038609Y-118033268D01*
X171100100Y-118342404D01*
X171100100Y-118657596D01*
X171038609Y-118966732D01*
X170917990Y-119257931D01*
X170742879Y-119520004D01*
X170520004Y-119742879D01*
X170257931Y-119917990D01*
X169966733Y-120038609D01*
X169657596Y-120100100D01*
X169342404Y-120100100D01*
X169033267Y-120038609D01*
X168742069Y-119917990D01*
X168479996Y-119742879D01*
X168257121Y-119520004D01*
X168082010Y-119257931D01*
X167961391Y-118966732D01*
X167899900Y-118657596D01*
X167899900Y-118342404D01*
X167961391Y-118033268D01*
X168082010Y-117742069D01*
X168257121Y-117479996D01*
X168479996Y-117257121D01*
X168742069Y-117082010D01*
X169033267Y-116961391D01*
X169342404Y-116899900D01*
X169657596Y-116899900D01*
X169966733Y-116961391D01*
X169966733Y-116961391D01*
G37*
G36*
X125966733Y-116961391D02*
G01*
X126257931Y-117082010D01*
X126520004Y-117257121D01*
X126742879Y-117479996D01*
X126917990Y-117742069D01*
X127038609Y-118033268D01*
X127100100Y-118342404D01*
X127100100Y-118657596D01*
X127038609Y-118966732D01*
X126917990Y-119257931D01*
X126742879Y-119520004D01*
X126520004Y-119742879D01*
X126257931Y-119917990D01*
X125966733Y-120038609D01*
X125657596Y-120100100D01*
X125342404Y-120100100D01*
X125033267Y-120038609D01*
X124742069Y-119917990D01*
X124479996Y-119742879D01*
X124257121Y-119520004D01*
X124082010Y-119257931D01*
X123961391Y-118966732D01*
X123899900Y-118657596D01*
X123899900Y-118342404D01*
X123961391Y-118033268D01*
X124082010Y-117742069D01*
X124257121Y-117479996D01*
X124479996Y-117257121D01*
X124742069Y-117082010D01*
X125033267Y-116961391D01*
X125342404Y-116899900D01*
X125657596Y-116899900D01*
X125966733Y-116961391D01*
X125966733Y-116961391D01*
G37*
G36*
X139966733Y-116961391D02*
G01*
X140257931Y-117082010D01*
X140520004Y-117257121D01*
X140742879Y-117479996D01*
X140917990Y-117742069D01*
X141038609Y-118033268D01*
X141100100Y-118342404D01*
X141100100Y-118657596D01*
X141038609Y-118966732D01*
X140917990Y-119257931D01*
X140742879Y-119520004D01*
X140520004Y-119742879D01*
X140257931Y-119917990D01*
X139966733Y-120038609D01*
X139657596Y-120100100D01*
X139342404Y-120100100D01*
X139033267Y-120038609D01*
X138742069Y-119917990D01*
X138479996Y-119742879D01*
X138257121Y-119520004D01*
X138082010Y-119257931D01*
X137961391Y-118966732D01*
X137899900Y-118657596D01*
X137899900Y-118342404D01*
X137961391Y-118033268D01*
X138082010Y-117742069D01*
X138257121Y-117479996D01*
X138479996Y-117257121D01*
X138742069Y-117082010D01*
X139033267Y-116961391D01*
X139342404Y-116899900D01*
X139657596Y-116899900D01*
X139966733Y-116961391D01*
X139966733Y-116961391D01*
G37*
G36*
X159950100Y-119575100D02*
G01*
X158749900Y-119575100D01*
X158749900Y-118824900D01*
X159950100Y-118824900D01*
X159950100Y-119575100D01*
X159950100Y-119575100D01*
G37*
G36*
X161850100Y-119575100D02*
G01*
X160649900Y-119575100D01*
X160649900Y-118824900D01*
X161850100Y-118824900D01*
X161850100Y-119575100D01*
X161850100Y-119575100D01*
G37*
G36*
X117850100Y-119575100D02*
G01*
X116649900Y-119575100D01*
X116649900Y-118824900D01*
X117850100Y-118824900D01*
X117850100Y-119575100D01*
X117850100Y-119575100D01*
G37*
G36*
X115950100Y-119575100D02*
G01*
X114749900Y-119575100D01*
X114749900Y-118824900D01*
X115950100Y-118824900D01*
X115950100Y-119575100D01*
X115950100Y-119575100D01*
G37*
G36*
X116100100Y-117150100D02*
G01*
X114899900Y-117150100D01*
X114899900Y-116249900D01*
X116100100Y-116249900D01*
X116100100Y-117150100D01*
X116100100Y-117150100D01*
G37*
G36*
X162300100Y-117150100D02*
G01*
X161099900Y-117150100D01*
X161099900Y-116249900D01*
X162300100Y-116249900D01*
X162300100Y-117150100D01*
X162300100Y-117150100D01*
G37*
G36*
X160100100Y-117150100D02*
G01*
X158899900Y-117150100D01*
X158899900Y-116249900D01*
X160100100Y-116249900D01*
X160100100Y-117150100D01*
X160100100Y-117150100D01*
G37*
G36*
X118300100Y-117150100D02*
G01*
X117099900Y-117150100D01*
X117099900Y-116249900D01*
X118300100Y-116249900D01*
X118300100Y-117150100D01*
X118300100Y-117150100D01*
G37*
G36*
X147120889Y-113942176D02*
G01*
X147254358Y-113997461D01*
X147321093Y-114025104D01*
X147501273Y-114145496D01*
X147654504Y-114298727D01*
X147774896Y-114478907D01*
X147774896Y-114478908D01*
X147857824Y-114679111D01*
X147900100Y-114891650D01*
X147900100Y-115108350D01*
X147857824Y-115320889D01*
X147802539Y-115454358D01*
X147774896Y-115521093D01*
X147654504Y-115701273D01*
X147501273Y-115854504D01*
X147321093Y-115974896D01*
X147254358Y-116002539D01*
X147120889Y-116057824D01*
X146908350Y-116100100D01*
X146691650Y-116100100D01*
X146479111Y-116057824D01*
X146345642Y-116002539D01*
X146278907Y-115974896D01*
X146098727Y-115854504D01*
X145945496Y-115701273D01*
X145825104Y-115521093D01*
X145797461Y-115454358D01*
X145742176Y-115320889D01*
X145699900Y-115108350D01*
X145699900Y-114891650D01*
X145742176Y-114679111D01*
X145825104Y-114478908D01*
X145825104Y-114478907D01*
X145945496Y-114298727D01*
X146098727Y-114145496D01*
X146278907Y-114025104D01*
X146345642Y-113997461D01*
X146479111Y-113942176D01*
X146691650Y-113899900D01*
X146908350Y-113899900D01*
X147120889Y-113942176D01*
X147120889Y-113942176D01*
G37*
G36*
X110120889Y-113942176D02*
G01*
X110254358Y-113997461D01*
X110321093Y-114025104D01*
X110501273Y-114145496D01*
X110654504Y-114298727D01*
X110774896Y-114478907D01*
X110774896Y-114478908D01*
X110857824Y-114679111D01*
X110900100Y-114891650D01*
X110900100Y-115108350D01*
X110857824Y-115320889D01*
X110802539Y-115454358D01*
X110774896Y-115521093D01*
X110654504Y-115701273D01*
X110501273Y-115854504D01*
X110321093Y-115974896D01*
X110254358Y-116002539D01*
X110120889Y-116057824D01*
X109908350Y-116100100D01*
X109691650Y-116100100D01*
X109479111Y-116057824D01*
X109345642Y-116002539D01*
X109278907Y-115974896D01*
X109098727Y-115854504D01*
X108945496Y-115701273D01*
X108825104Y-115521093D01*
X108797461Y-115454358D01*
X108742176Y-115320889D01*
X108699900Y-115108350D01*
X108699900Y-114891650D01*
X108742176Y-114679111D01*
X108825104Y-114478908D01*
X108825104Y-114478907D01*
X108945496Y-114298727D01*
X109098727Y-114145496D01*
X109278907Y-114025104D01*
X109345642Y-113997461D01*
X109479111Y-113942176D01*
X109691650Y-113899900D01*
X109908350Y-113899900D01*
X110120889Y-113942176D01*
X110120889Y-113942176D01*
G37*
G36*
X103120889Y-113942176D02*
G01*
X103254358Y-113997461D01*
X103321093Y-114025104D01*
X103501273Y-114145496D01*
X103654504Y-114298727D01*
X103774896Y-114478907D01*
X103774896Y-114478908D01*
X103857824Y-114679111D01*
X103900100Y-114891650D01*
X103900100Y-115108350D01*
X103857824Y-115320889D01*
X103802539Y-115454358D01*
X103774896Y-115521093D01*
X103654504Y-115701273D01*
X103501273Y-115854504D01*
X103321093Y-115974896D01*
X103254358Y-116002539D01*
X103120889Y-116057824D01*
X102908350Y-116100100D01*
X102691650Y-116100100D01*
X102479111Y-116057824D01*
X102345642Y-116002539D01*
X102278907Y-115974896D01*
X102098727Y-115854504D01*
X101945496Y-115701273D01*
X101825104Y-115521093D01*
X101797461Y-115454358D01*
X101742176Y-115320889D01*
X101699900Y-115108350D01*
X101699900Y-114891650D01*
X101742176Y-114679111D01*
X101825104Y-114478908D01*
X101825104Y-114478907D01*
X101945496Y-114298727D01*
X102098727Y-114145496D01*
X102278907Y-114025104D01*
X102345642Y-113997461D01*
X102479111Y-113942176D01*
X102691650Y-113899900D01*
X102908350Y-113899900D01*
X103120889Y-113942176D01*
X103120889Y-113942176D01*
G37*
G36*
X154120889Y-113942176D02*
G01*
X154254358Y-113997461D01*
X154321093Y-114025104D01*
X154501273Y-114145496D01*
X154654504Y-114298727D01*
X154774896Y-114478907D01*
X154774896Y-114478908D01*
X154857824Y-114679111D01*
X154900100Y-114891650D01*
X154900100Y-115108350D01*
X154857824Y-115320889D01*
X154802539Y-115454358D01*
X154774896Y-115521093D01*
X154654504Y-115701273D01*
X154501273Y-115854504D01*
X154321093Y-115974896D01*
X154254358Y-116002539D01*
X154120889Y-116057824D01*
X153908350Y-116100100D01*
X153691650Y-116100100D01*
X153479111Y-116057824D01*
X153345642Y-116002539D01*
X153278907Y-115974896D01*
X153098727Y-115854504D01*
X152945496Y-115701273D01*
X152825104Y-115521093D01*
X152797461Y-115454358D01*
X152742176Y-115320889D01*
X152699900Y-115108350D01*
X152699900Y-114891650D01*
X152742176Y-114679111D01*
X152825104Y-114478908D01*
X152825104Y-114478907D01*
X152945496Y-114298727D01*
X153098727Y-114145496D01*
X153278907Y-114025104D01*
X153345642Y-113997461D01*
X153479111Y-113942176D01*
X153691650Y-113899900D01*
X153908350Y-113899900D01*
X154120889Y-113942176D01*
X154120889Y-113942176D01*
G37*
G36*
X171850100Y-114775100D02*
G01*
X170649900Y-114775100D01*
X170649900Y-114024900D01*
X171850100Y-114024900D01*
X171850100Y-114775100D01*
X171850100Y-114775100D01*
G37*
G36*
X127850100Y-114775100D02*
G01*
X126649900Y-114775100D01*
X126649900Y-114024900D01*
X127850100Y-114024900D01*
X127850100Y-114775100D01*
X127850100Y-114775100D01*
G37*
G36*
X129750100Y-114775100D02*
G01*
X128549900Y-114775100D01*
X128549900Y-114024900D01*
X129750100Y-114024900D01*
X129750100Y-114775100D01*
X129750100Y-114775100D01*
G37*
G36*
X173750100Y-114775100D02*
G01*
X172549900Y-114775100D01*
X172549900Y-114024900D01*
X173750100Y-114024900D01*
X173750100Y-114775100D01*
X173750100Y-114775100D01*
G37*
G36*
X177750100Y-114775100D02*
G01*
X176549900Y-114775100D01*
X176549900Y-114024900D01*
X177750100Y-114024900D01*
X177750100Y-114775100D01*
X177750100Y-114775100D01*
G37*
G36*
X175850100Y-114775100D02*
G01*
X174649900Y-114775100D01*
X174649900Y-114024900D01*
X175850100Y-114024900D01*
X175850100Y-114775100D01*
X175850100Y-114775100D01*
G37*
G36*
X133750100Y-114775100D02*
G01*
X132549900Y-114775100D01*
X132549900Y-114024900D01*
X133750100Y-114024900D01*
X133750100Y-114775100D01*
X133750100Y-114775100D01*
G37*
G36*
X131850100Y-114775100D02*
G01*
X130649900Y-114775100D01*
X130649900Y-114024900D01*
X131850100Y-114024900D01*
X131850100Y-114775100D01*
X131850100Y-114775100D01*
G37*
G36*
X162250100Y-114150100D02*
G01*
X161049900Y-114150100D01*
X161049900Y-113249900D01*
X162250100Y-113249900D01*
X162250100Y-114150100D01*
X162250100Y-114150100D01*
G37*
G36*
X160050100Y-114150100D02*
G01*
X158849900Y-114150100D01*
X158849900Y-113249900D01*
X160050100Y-113249900D01*
X160050100Y-114150100D01*
X160050100Y-114150100D01*
G37*
G36*
X118250100Y-114150100D02*
G01*
X117049900Y-114150100D01*
X117049900Y-113249900D01*
X118250100Y-113249900D01*
X118250100Y-114150100D01*
X118250100Y-114150100D01*
G37*
G36*
X116050100Y-114150100D02*
G01*
X114849900Y-114150100D01*
X114849900Y-113249900D01*
X116050100Y-113249900D01*
X116050100Y-114150100D01*
X116050100Y-114150100D01*
G37*
G36*
X175850100Y-112775100D02*
G01*
X174649900Y-112775100D01*
X174649900Y-112024900D01*
X175850100Y-112024900D01*
X175850100Y-112775100D01*
X175850100Y-112775100D01*
G37*
G36*
X133750100Y-112775100D02*
G01*
X132549900Y-112775100D01*
X132549900Y-112024900D01*
X133750100Y-112024900D01*
X133750100Y-112775100D01*
X133750100Y-112775100D01*
G37*
G36*
X131850100Y-112775100D02*
G01*
X130649900Y-112775100D01*
X130649900Y-112024900D01*
X131850100Y-112024900D01*
X131850100Y-112775100D01*
X131850100Y-112775100D01*
G37*
G36*
X177750100Y-112775100D02*
G01*
X176549900Y-112775100D01*
X176549900Y-112024900D01*
X177750100Y-112024900D01*
X177750100Y-112775100D01*
X177750100Y-112775100D01*
G37*
G36*
X104800100Y-112700100D02*
G01*
X102599900Y-112700100D01*
X102599900Y-109899900D01*
X104800100Y-109899900D01*
X104800100Y-112700100D01*
X104800100Y-112700100D01*
G37*
G36*
X148800100Y-112700100D02*
G01*
X146599900Y-112700100D01*
X146599900Y-109899900D01*
X148800100Y-109899900D01*
X148800100Y-112700100D01*
X148800100Y-112700100D01*
G37*
G36*
X116200100Y-111575100D02*
G01*
X114999900Y-111575100D01*
X114999900Y-110824900D01*
X116200100Y-110824900D01*
X116200100Y-111575100D01*
X116200100Y-111575100D01*
G37*
G36*
X160200100Y-111575100D02*
G01*
X158999900Y-111575100D01*
X158999900Y-110824900D01*
X160200100Y-110824900D01*
X160200100Y-111575100D01*
X160200100Y-111575100D01*
G37*
G36*
X118100100Y-111575100D02*
G01*
X116899900Y-111575100D01*
X116899900Y-110824900D01*
X118100100Y-110824900D01*
X118100100Y-111575100D01*
X118100100Y-111575100D01*
G37*
G36*
X162100100Y-111575100D02*
G01*
X160899900Y-111575100D01*
X160899900Y-110824900D01*
X162100100Y-110824900D01*
X162100100Y-111575100D01*
X162100100Y-111575100D01*
G37*
G36*
X181775100Y-110350100D02*
G01*
X181024900Y-110350100D01*
X181024900Y-109149900D01*
X181775100Y-109149900D01*
X181775100Y-110350100D01*
X181775100Y-110350100D01*
G37*
G36*
X137775100Y-110350100D02*
G01*
X137024900Y-110350100D01*
X137024900Y-109149900D01*
X137775100Y-109149900D01*
X137775100Y-110350100D01*
X137775100Y-110350100D01*
G37*
G36*
X131900100Y-109850100D02*
G01*
X130699900Y-109850100D01*
X130699900Y-108949900D01*
X131900100Y-108949900D01*
X131900100Y-109850100D01*
X131900100Y-109850100D01*
G37*
G36*
X178100100Y-109850100D02*
G01*
X176899900Y-109850100D01*
X176899900Y-108949900D01*
X178100100Y-108949900D01*
X178100100Y-109850100D01*
X178100100Y-109850100D01*
G37*
G36*
X175900100Y-109850100D02*
G01*
X174699900Y-109850100D01*
X174699900Y-108949900D01*
X175900100Y-108949900D01*
X175900100Y-109850100D01*
X175900100Y-109850100D01*
G37*
G36*
X134100100Y-109850100D02*
G01*
X132899900Y-109850100D01*
X132899900Y-108949900D01*
X134100100Y-108949900D01*
X134100100Y-109850100D01*
X134100100Y-109850100D01*
G37*
G36*
X112450100Y-108850100D02*
G01*
X109649900Y-108850100D01*
X109649900Y-106049900D01*
X112450100Y-106049900D01*
X112450100Y-108850100D01*
X112450100Y-108850100D01*
G37*
G36*
X146750100Y-108850100D02*
G01*
X144549900Y-108850100D01*
X144549900Y-106049900D01*
X146750100Y-106049900D01*
X146750100Y-108850100D01*
X146750100Y-108850100D01*
G37*
G36*
X102750100Y-108850100D02*
G01*
X100549900Y-108850100D01*
X100549900Y-106049900D01*
X102750100Y-106049900D01*
X102750100Y-108850100D01*
X102750100Y-108850100D01*
G37*
G36*
X156450100Y-108850100D02*
G01*
X153649900Y-108850100D01*
X153649900Y-106049900D01*
X156450100Y-106049900D01*
X156450100Y-108850100D01*
X156450100Y-108850100D01*
G37*
G36*
X137775100Y-108450100D02*
G01*
X137024900Y-108450100D01*
X137024900Y-107249900D01*
X137775100Y-107249900D01*
X137775100Y-108450100D01*
X137775100Y-108450100D01*
G37*
G36*
X181775100Y-108450100D02*
G01*
X181024900Y-108450100D01*
X181024900Y-107249900D01*
X181775100Y-107249900D01*
X181775100Y-108450100D01*
X181775100Y-108450100D01*
G37*
G36*
X162125100Y-108335100D02*
G01*
X160674900Y-108335100D01*
X160674900Y-107734900D01*
X162125100Y-107734900D01*
X162125100Y-108335100D01*
X162125100Y-108335100D01*
G37*
G36*
X168125100Y-108335100D02*
G01*
X166674900Y-108335100D01*
X166674900Y-107734900D01*
X168125100Y-107734900D01*
X168125100Y-108335100D01*
X168125100Y-108335100D01*
G37*
G36*
X124125100Y-108335100D02*
G01*
X122674900Y-108335100D01*
X122674900Y-107734900D01*
X124125100Y-107734900D01*
X124125100Y-108335100D01*
X124125100Y-108335100D01*
G37*
G36*
X118125100Y-108335100D02*
G01*
X116674900Y-108335100D01*
X116674900Y-107734900D01*
X118125100Y-107734900D01*
X118125100Y-108335100D01*
X118125100Y-108335100D01*
G37*
G36*
X118125100Y-107065100D02*
G01*
X116674900Y-107065100D01*
X116674900Y-106464900D01*
X118125100Y-106464900D01*
X118125100Y-107065100D01*
X118125100Y-107065100D01*
G37*
G36*
X124125100Y-107065100D02*
G01*
X122674900Y-107065100D01*
X122674900Y-106464900D01*
X124125100Y-106464900D01*
X124125100Y-107065100D01*
X124125100Y-107065100D01*
G37*
G36*
X162125100Y-107065100D02*
G01*
X160674900Y-107065100D01*
X160674900Y-106464900D01*
X162125100Y-106464900D01*
X162125100Y-107065100D01*
X162125100Y-107065100D01*
G37*
G36*
X168125100Y-107065100D02*
G01*
X166674900Y-107065100D01*
X166674900Y-106464900D01*
X168125100Y-106464900D01*
X168125100Y-107065100D01*
X168125100Y-107065100D01*
G37*
G36*
X127200100Y-105325100D02*
G01*
X125999900Y-105325100D01*
X125999900Y-104574900D01*
X127200100Y-104574900D01*
X127200100Y-105325100D01*
X127200100Y-105325100D01*
G37*
G36*
X171200100Y-105325100D02*
G01*
X169999900Y-105325100D01*
X169999900Y-104574900D01*
X171200100Y-104574900D01*
X171200100Y-105325100D01*
X171200100Y-105325100D01*
G37*
G36*
X129100100Y-105325100D02*
G01*
X127899900Y-105325100D01*
X127899900Y-104574900D01*
X129100100Y-104574900D01*
X129100100Y-105325100D01*
X129100100Y-105325100D01*
G37*
G36*
X173100100Y-105325100D02*
G01*
X171899900Y-105325100D01*
X171899900Y-104574900D01*
X173100100Y-104574900D01*
X173100100Y-105325100D01*
X173100100Y-105325100D01*
G37*
G36*
X133325100Y-105200100D02*
G01*
X133074900Y-105200100D01*
X133074900Y-104519900D01*
X133325100Y-104519900D01*
X133325100Y-105200100D01*
X133325100Y-105200100D01*
G37*
G36*
X133725100Y-105200100D02*
G01*
X133474900Y-105200100D01*
X133474900Y-104519900D01*
X133725100Y-104519900D01*
X133725100Y-105200100D01*
X133725100Y-105200100D01*
G37*
G36*
X134125100Y-105200100D02*
G01*
X133874900Y-105200100D01*
X133874900Y-104519900D01*
X134125100Y-104519900D01*
X134125100Y-105200100D01*
X134125100Y-105200100D01*
G37*
G36*
X134925100Y-105200100D02*
G01*
X134674900Y-105200100D01*
X134674900Y-104519900D01*
X134925100Y-104519900D01*
X134925100Y-105200100D01*
X134925100Y-105200100D01*
G37*
G36*
X135325100Y-105200100D02*
G01*
X135074900Y-105200100D01*
X135074900Y-104519900D01*
X135325100Y-104519900D01*
X135325100Y-105200100D01*
X135325100Y-105200100D01*
G37*
G36*
X135725100Y-105200100D02*
G01*
X135474900Y-105200100D01*
X135474900Y-104519900D01*
X135725100Y-104519900D01*
X135725100Y-105200100D01*
X135725100Y-105200100D01*
G37*
G36*
X136125100Y-105200100D02*
G01*
X135874900Y-105200100D01*
X135874900Y-104519900D01*
X136125100Y-104519900D01*
X136125100Y-105200100D01*
X136125100Y-105200100D01*
G37*
G36*
X136525100Y-105200100D02*
G01*
X136274900Y-105200100D01*
X136274900Y-104519900D01*
X136525100Y-104519900D01*
X136525100Y-105200100D01*
X136525100Y-105200100D01*
G37*
G36*
X136925100Y-105200100D02*
G01*
X136674900Y-105200100D01*
X136674900Y-104519900D01*
X136925100Y-104519900D01*
X136925100Y-105200100D01*
X136925100Y-105200100D01*
G37*
G36*
X137325100Y-105200100D02*
G01*
X137074900Y-105200100D01*
X137074900Y-104519900D01*
X137325100Y-104519900D01*
X137325100Y-105200100D01*
X137325100Y-105200100D01*
G37*
G36*
X176925100Y-105200100D02*
G01*
X176674900Y-105200100D01*
X176674900Y-104519900D01*
X176925100Y-104519900D01*
X176925100Y-105200100D01*
X176925100Y-105200100D01*
G37*
G36*
X180925100Y-105200100D02*
G01*
X180674900Y-105200100D01*
X180674900Y-104519900D01*
X180925100Y-104519900D01*
X180925100Y-105200100D01*
X180925100Y-105200100D01*
G37*
G36*
X134525100Y-105200100D02*
G01*
X134274900Y-105200100D01*
X134274900Y-104519900D01*
X134525100Y-104519900D01*
X134525100Y-105200100D01*
X134525100Y-105200100D01*
G37*
G36*
X132925100Y-105200100D02*
G01*
X132674900Y-105200100D01*
X132674900Y-104519900D01*
X132925100Y-104519900D01*
X132925100Y-105200100D01*
X132925100Y-105200100D01*
G37*
G36*
X181325100Y-105200100D02*
G01*
X181074900Y-105200100D01*
X181074900Y-104519900D01*
X181325100Y-104519900D01*
X181325100Y-105200100D01*
X181325100Y-105200100D01*
G37*
G36*
X177725100Y-105200100D02*
G01*
X177474900Y-105200100D01*
X177474900Y-104519900D01*
X177725100Y-104519900D01*
X177725100Y-105200100D01*
X177725100Y-105200100D01*
G37*
G36*
X177325100Y-105200100D02*
G01*
X177074900Y-105200100D01*
X177074900Y-104519900D01*
X177325100Y-104519900D01*
X177325100Y-105200100D01*
X177325100Y-105200100D01*
G37*
G36*
X180525100Y-105200100D02*
G01*
X180274900Y-105200100D01*
X180274900Y-104519900D01*
X180525100Y-104519900D01*
X180525100Y-105200100D01*
X180525100Y-105200100D01*
G37*
G36*
X180125100Y-105200100D02*
G01*
X179874900Y-105200100D01*
X179874900Y-104519900D01*
X180125100Y-104519900D01*
X180125100Y-105200100D01*
X180125100Y-105200100D01*
G37*
G36*
X179325100Y-105200100D02*
G01*
X179074900Y-105200100D01*
X179074900Y-104519900D01*
X179325100Y-104519900D01*
X179325100Y-105200100D01*
X179325100Y-105200100D01*
G37*
G36*
X178925100Y-105200100D02*
G01*
X178674900Y-105200100D01*
X178674900Y-104519900D01*
X178925100Y-104519900D01*
X178925100Y-105200100D01*
X178925100Y-105200100D01*
G37*
G36*
X178525100Y-105200100D02*
G01*
X178274900Y-105200100D01*
X178274900Y-104519900D01*
X178525100Y-104519900D01*
X178525100Y-105200100D01*
X178525100Y-105200100D01*
G37*
G36*
X178125100Y-105200100D02*
G01*
X177874900Y-105200100D01*
X177874900Y-104519900D01*
X178125100Y-104519900D01*
X178125100Y-105200100D01*
X178125100Y-105200100D01*
G37*
G36*
X179725100Y-105200100D02*
G01*
X179474900Y-105200100D01*
X179474900Y-104519900D01*
X179725100Y-104519900D01*
X179725100Y-105200100D01*
X179725100Y-105200100D01*
G37*
G36*
X103070889Y-102692176D02*
G01*
X103150373Y-102725100D01*
X103271093Y-102775104D01*
X103451273Y-102895496D01*
X103604504Y-103048727D01*
X103724896Y-103228907D01*
X103724896Y-103228908D01*
X103807824Y-103429111D01*
X103850100Y-103641650D01*
X103850100Y-103858350D01*
X103807824Y-104070889D01*
X103752539Y-104204358D01*
X103724896Y-104271093D01*
X103604504Y-104451273D01*
X103451273Y-104604504D01*
X103271093Y-104724896D01*
X103204358Y-104752539D01*
X103070889Y-104807824D01*
X102858350Y-104850100D01*
X102641650Y-104850100D01*
X102429111Y-104807824D01*
X102295642Y-104752539D01*
X102228907Y-104724896D01*
X102048727Y-104604504D01*
X101895496Y-104451273D01*
X101775104Y-104271093D01*
X101747461Y-104204358D01*
X101692176Y-104070889D01*
X101649900Y-103858350D01*
X101649900Y-103641650D01*
X101692176Y-103429111D01*
X101775104Y-103228908D01*
X101775104Y-103228907D01*
X101895496Y-103048727D01*
X102048727Y-102895496D01*
X102228907Y-102775104D01*
X102349627Y-102725100D01*
X102429111Y-102692176D01*
X102641650Y-102649900D01*
X102858350Y-102649900D01*
X103070889Y-102692176D01*
X103070889Y-102692176D01*
G37*
G36*
X110070889Y-102692176D02*
G01*
X110150373Y-102725100D01*
X110271093Y-102775104D01*
X110451273Y-102895496D01*
X110604504Y-103048727D01*
X110724896Y-103228907D01*
X110724896Y-103228908D01*
X110807824Y-103429111D01*
X110850100Y-103641650D01*
X110850100Y-103858350D01*
X110807824Y-104070889D01*
X110752539Y-104204358D01*
X110724896Y-104271093D01*
X110604504Y-104451273D01*
X110451273Y-104604504D01*
X110271093Y-104724896D01*
X110204358Y-104752539D01*
X110070889Y-104807824D01*
X109858350Y-104850100D01*
X109641650Y-104850100D01*
X109429111Y-104807824D01*
X109295642Y-104752539D01*
X109228907Y-104724896D01*
X109048727Y-104604504D01*
X108895496Y-104451273D01*
X108775104Y-104271093D01*
X108747461Y-104204358D01*
X108692176Y-104070889D01*
X108649900Y-103858350D01*
X108649900Y-103641650D01*
X108692176Y-103429111D01*
X108775104Y-103228908D01*
X108775104Y-103228907D01*
X108895496Y-103048727D01*
X109048727Y-102895496D01*
X109228907Y-102775104D01*
X109349627Y-102725100D01*
X109429111Y-102692176D01*
X109641650Y-102649900D01*
X109858350Y-102649900D01*
X110070889Y-102692176D01*
X110070889Y-102692176D01*
G37*
G36*
X147070889Y-102692176D02*
G01*
X147150373Y-102725100D01*
X147271093Y-102775104D01*
X147451273Y-102895496D01*
X147604504Y-103048727D01*
X147724896Y-103228907D01*
X147724896Y-103228908D01*
X147807824Y-103429111D01*
X147850100Y-103641650D01*
X147850100Y-103858350D01*
X147807824Y-104070889D01*
X147752539Y-104204358D01*
X147724896Y-104271093D01*
X147604504Y-104451273D01*
X147451273Y-104604504D01*
X147271093Y-104724896D01*
X147204358Y-104752539D01*
X147070889Y-104807824D01*
X146858350Y-104850100D01*
X146641650Y-104850100D01*
X146429111Y-104807824D01*
X146295642Y-104752539D01*
X146228907Y-104724896D01*
X146048727Y-104604504D01*
X145895496Y-104451273D01*
X145775104Y-104271093D01*
X145747461Y-104204358D01*
X145692176Y-104070889D01*
X145649900Y-103858350D01*
X145649900Y-103641650D01*
X145692176Y-103429111D01*
X145775104Y-103228908D01*
X145775104Y-103228907D01*
X145895496Y-103048727D01*
X146048727Y-102895496D01*
X146228907Y-102775104D01*
X146349627Y-102725100D01*
X146429111Y-102692176D01*
X146641650Y-102649900D01*
X146858350Y-102649900D01*
X147070889Y-102692176D01*
X147070889Y-102692176D01*
G37*
G36*
X154070889Y-102692176D02*
G01*
X154150373Y-102725100D01*
X154271093Y-102775104D01*
X154451273Y-102895496D01*
X154604504Y-103048727D01*
X154724896Y-103228907D01*
X154724896Y-103228908D01*
X154807824Y-103429111D01*
X154850100Y-103641650D01*
X154850100Y-103858350D01*
X154807824Y-104070889D01*
X154752539Y-104204358D01*
X154724896Y-104271093D01*
X154604504Y-104451273D01*
X154451273Y-104604504D01*
X154271093Y-104724896D01*
X154204358Y-104752539D01*
X154070889Y-104807824D01*
X153858350Y-104850100D01*
X153641650Y-104850100D01*
X153429111Y-104807824D01*
X153295642Y-104752539D01*
X153228907Y-104724896D01*
X153048727Y-104604504D01*
X152895496Y-104451273D01*
X152775104Y-104271093D01*
X152747461Y-104204358D01*
X152692176Y-104070889D01*
X152649900Y-103858350D01*
X152649900Y-103641650D01*
X152692176Y-103429111D01*
X152775104Y-103228908D01*
X152775104Y-103228907D01*
X152895496Y-103048727D01*
X153048727Y-102895496D01*
X153228907Y-102775104D01*
X153349627Y-102725100D01*
X153429111Y-102692176D01*
X153641650Y-102649900D01*
X153858350Y-102649900D01*
X154070889Y-102692176D01*
X154070889Y-102692176D01*
G37*
G36*
X137330100Y-104330100D02*
G01*
X132669900Y-104330100D01*
X132669900Y-99669900D01*
X137330100Y-99669900D01*
X137330100Y-104330100D01*
X137330100Y-104330100D01*
G37*
G36*
X181330100Y-104330100D02*
G01*
X176669900Y-104330100D01*
X176669900Y-99669900D01*
X181330100Y-99669900D01*
X181330100Y-104330100D01*
X181330100Y-104330100D01*
G37*
G36*
X182200100Y-104325100D02*
G01*
X181519900Y-104325100D01*
X181519900Y-104074900D01*
X182200100Y-104074900D01*
X182200100Y-104325100D01*
X182200100Y-104325100D01*
G37*
G36*
X132480100Y-104325100D02*
G01*
X131799900Y-104325100D01*
X131799900Y-104074900D01*
X132480100Y-104074900D01*
X132480100Y-104325100D01*
X132480100Y-104325100D01*
G37*
G36*
X138200100Y-104325100D02*
G01*
X137519900Y-104325100D01*
X137519900Y-104074900D01*
X138200100Y-104074900D01*
X138200100Y-104325100D01*
X138200100Y-104325100D01*
G37*
G36*
X176480100Y-104325100D02*
G01*
X175799900Y-104325100D01*
X175799900Y-104074900D01*
X176480100Y-104074900D01*
X176480100Y-104325100D01*
X176480100Y-104325100D01*
G37*
G36*
X138200100Y-103925100D02*
G01*
X137519900Y-103925100D01*
X137519900Y-103674900D01*
X138200100Y-103674900D01*
X138200100Y-103925100D01*
X138200100Y-103925100D01*
G37*
G36*
X176480100Y-103925100D02*
G01*
X175799900Y-103925100D01*
X175799900Y-103674900D01*
X176480100Y-103674900D01*
X176480100Y-103925100D01*
X176480100Y-103925100D01*
G37*
G36*
X182200100Y-103925100D02*
G01*
X181519900Y-103925100D01*
X181519900Y-103674900D01*
X182200100Y-103674900D01*
X182200100Y-103925100D01*
X182200100Y-103925100D01*
G37*
G36*
X132480100Y-103925100D02*
G01*
X131799900Y-103925100D01*
X131799900Y-103674900D01*
X132480100Y-103674900D01*
X132480100Y-103925100D01*
X132480100Y-103925100D01*
G37*
G36*
X129000100Y-103650100D02*
G01*
X127799900Y-103650100D01*
X127799900Y-102449900D01*
X129000100Y-102449900D01*
X129000100Y-103650100D01*
X129000100Y-103650100D01*
G37*
G36*
X173000100Y-103650100D02*
G01*
X171799900Y-103650100D01*
X171799900Y-102449900D01*
X173000100Y-102449900D01*
X173000100Y-103650100D01*
X173000100Y-103650100D01*
G37*
G36*
X127300100Y-103650100D02*
G01*
X126099900Y-103650100D01*
X126099900Y-102449900D01*
X127300100Y-102449900D01*
X127300100Y-103650100D01*
X127300100Y-103650100D01*
G37*
G36*
X171300100Y-103650100D02*
G01*
X170099900Y-103650100D01*
X170099900Y-102449900D01*
X171300100Y-102449900D01*
X171300100Y-103650100D01*
X171300100Y-103650100D01*
G37*
G36*
X184775100Y-103550100D02*
G01*
X184024900Y-103550100D01*
X184024900Y-102349900D01*
X184775100Y-102349900D01*
X184775100Y-103550100D01*
X184775100Y-103550100D01*
G37*
G36*
X140775100Y-103550100D02*
G01*
X140024900Y-103550100D01*
X140024900Y-102349900D01*
X140775100Y-102349900D01*
X140775100Y-103550100D01*
X140775100Y-103550100D01*
G37*
G36*
X182200100Y-103525100D02*
G01*
X181519900Y-103525100D01*
X181519900Y-103274900D01*
X182200100Y-103274900D01*
X182200100Y-103525100D01*
X182200100Y-103525100D01*
G37*
G36*
X138200100Y-103525100D02*
G01*
X137519900Y-103525100D01*
X137519900Y-103274900D01*
X138200100Y-103274900D01*
X138200100Y-103525100D01*
X138200100Y-103525100D01*
G37*
G36*
X132480100Y-103525100D02*
G01*
X131799900Y-103525100D01*
X131799900Y-103274900D01*
X132480100Y-103274900D01*
X132480100Y-103525100D01*
X132480100Y-103525100D01*
G37*
G36*
X176480100Y-103525100D02*
G01*
X175799900Y-103525100D01*
X175799900Y-103274900D01*
X176480100Y-103274900D01*
X176480100Y-103525100D01*
X176480100Y-103525100D01*
G37*
G36*
X132480100Y-103125100D02*
G01*
X131799900Y-103125100D01*
X131799900Y-102874900D01*
X132480100Y-102874900D01*
X132480100Y-103125100D01*
X132480100Y-103125100D01*
G37*
G36*
X176480100Y-103125100D02*
G01*
X175799900Y-103125100D01*
X175799900Y-102874900D01*
X176480100Y-102874900D01*
X176480100Y-103125100D01*
X176480100Y-103125100D01*
G37*
G36*
X182200100Y-103125100D02*
G01*
X181519900Y-103125100D01*
X181519900Y-102874900D01*
X182200100Y-102874900D01*
X182200100Y-103125100D01*
X182200100Y-103125100D01*
G37*
G36*
X138200100Y-103125100D02*
G01*
X137519900Y-103125100D01*
X137519900Y-102874900D01*
X138200100Y-102874900D01*
X138200100Y-103125100D01*
X138200100Y-103125100D01*
G37*
G36*
X132480100Y-102725100D02*
G01*
X131799900Y-102725100D01*
X131799900Y-102474900D01*
X132480100Y-102474900D01*
X132480100Y-102725100D01*
X132480100Y-102725100D01*
G37*
G36*
X176480100Y-102725100D02*
G01*
X175799900Y-102725100D01*
X175799900Y-102474900D01*
X176480100Y-102474900D01*
X176480100Y-102725100D01*
X176480100Y-102725100D01*
G37*
G36*
X138200100Y-102725100D02*
G01*
X137519900Y-102725100D01*
X137519900Y-102474900D01*
X138200100Y-102474900D01*
X138200100Y-102725100D01*
X138200100Y-102725100D01*
G37*
G36*
X182200100Y-102725100D02*
G01*
X181519900Y-102725100D01*
X181519900Y-102474900D01*
X182200100Y-102474900D01*
X182200100Y-102725100D01*
X182200100Y-102725100D01*
G37*
G36*
X121050100Y-102450100D02*
G01*
X119949900Y-102450100D01*
X119949900Y-101349900D01*
X121050100Y-101349900D01*
X121050100Y-102450100D01*
X121050100Y-102450100D01*
G37*
G36*
X165050100Y-102450100D02*
G01*
X163949900Y-102450100D01*
X163949900Y-101349900D01*
X165050100Y-101349900D01*
X165050100Y-102450100D01*
X165050100Y-102450100D01*
G37*
G36*
X182200100Y-102325100D02*
G01*
X181519900Y-102325100D01*
X181519900Y-102074900D01*
X182200100Y-102074900D01*
X182200100Y-102325100D01*
X182200100Y-102325100D01*
G37*
G36*
X176480100Y-102325100D02*
G01*
X175799900Y-102325100D01*
X175799900Y-102074900D01*
X176480100Y-102074900D01*
X176480100Y-102325100D01*
X176480100Y-102325100D01*
G37*
G36*
X138200100Y-102325100D02*
G01*
X137519900Y-102325100D01*
X137519900Y-102074900D01*
X138200100Y-102074900D01*
X138200100Y-102325100D01*
X138200100Y-102325100D01*
G37*
G36*
X132480100Y-102325100D02*
G01*
X131799900Y-102325100D01*
X131799900Y-102074900D01*
X132480100Y-102074900D01*
X132480100Y-102325100D01*
X132480100Y-102325100D01*
G37*
G36*
X168050100Y-102100100D02*
G01*
X167149900Y-102100100D01*
X167149900Y-100899900D01*
X168050100Y-100899900D01*
X168050100Y-102100100D01*
X168050100Y-102100100D01*
G37*
G36*
X124050100Y-102100100D02*
G01*
X123149900Y-102100100D01*
X123149900Y-100899900D01*
X124050100Y-100899900D01*
X124050100Y-102100100D01*
X124050100Y-102100100D01*
G37*
G36*
X132480100Y-101925100D02*
G01*
X131799900Y-101925100D01*
X131799900Y-101674900D01*
X132480100Y-101674900D01*
X132480100Y-101925100D01*
X132480100Y-101925100D01*
G37*
G36*
X182200100Y-101925100D02*
G01*
X181519900Y-101925100D01*
X181519900Y-101674900D01*
X182200100Y-101674900D01*
X182200100Y-101925100D01*
X182200100Y-101925100D01*
G37*
G36*
X138200100Y-101925100D02*
G01*
X137519900Y-101925100D01*
X137519900Y-101674900D01*
X138200100Y-101674900D01*
X138200100Y-101925100D01*
X138200100Y-101925100D01*
G37*
G36*
X176480100Y-101925100D02*
G01*
X175799900Y-101925100D01*
X175799900Y-101674900D01*
X176480100Y-101674900D01*
X176480100Y-101925100D01*
X176480100Y-101925100D01*
G37*
G36*
X140775100Y-101650100D02*
G01*
X140024900Y-101650100D01*
X140024900Y-100449900D01*
X140775100Y-100449900D01*
X140775100Y-101650100D01*
X140775100Y-101650100D01*
G37*
G36*
X184775100Y-101650100D02*
G01*
X184024900Y-101650100D01*
X184024900Y-100449900D01*
X184775100Y-100449900D01*
X184775100Y-101650100D01*
X184775100Y-101650100D01*
G37*
G36*
X138200100Y-101525100D02*
G01*
X137519900Y-101525100D01*
X137519900Y-101274900D01*
X138200100Y-101274900D01*
X138200100Y-101525100D01*
X138200100Y-101525100D01*
G37*
G36*
X182200100Y-101525100D02*
G01*
X181519900Y-101525100D01*
X181519900Y-101274900D01*
X182200100Y-101274900D01*
X182200100Y-101525100D01*
X182200100Y-101525100D01*
G37*
G36*
X132480100Y-101525100D02*
G01*
X131799900Y-101525100D01*
X131799900Y-101274900D01*
X132480100Y-101274900D01*
X132480100Y-101525100D01*
X132480100Y-101525100D01*
G37*
G36*
X176480100Y-101525100D02*
G01*
X175799900Y-101525100D01*
X175799900Y-101274900D01*
X176480100Y-101274900D01*
X176480100Y-101525100D01*
X176480100Y-101525100D01*
G37*
G36*
X148750100Y-101450100D02*
G01*
X146549900Y-101450100D01*
X146549900Y-98649900D01*
X148750100Y-98649900D01*
X148750100Y-101450100D01*
X148750100Y-101450100D01*
G37*
G36*
X173000100Y-101450100D02*
G01*
X171799900Y-101450100D01*
X171799900Y-100249900D01*
X173000100Y-100249900D01*
X173000100Y-101450100D01*
X173000100Y-101450100D01*
G37*
G36*
X129000100Y-101450100D02*
G01*
X127799900Y-101450100D01*
X127799900Y-100249900D01*
X129000100Y-100249900D01*
X129000100Y-101450100D01*
X129000100Y-101450100D01*
G37*
G36*
X127300100Y-101450100D02*
G01*
X126099900Y-101450100D01*
X126099900Y-100249900D01*
X127300100Y-100249900D01*
X127300100Y-101450100D01*
X127300100Y-101450100D01*
G37*
G36*
X104750100Y-101450100D02*
G01*
X102549900Y-101450100D01*
X102549900Y-98649900D01*
X104750100Y-98649900D01*
X104750100Y-101450100D01*
X104750100Y-101450100D01*
G37*
G36*
X171300100Y-101450100D02*
G01*
X170099900Y-101450100D01*
X170099900Y-100249900D01*
X171300100Y-100249900D01*
X171300100Y-101450100D01*
X171300100Y-101450100D01*
G37*
G36*
X132480100Y-101125100D02*
G01*
X131799900Y-101125100D01*
X131799900Y-100874900D01*
X132480100Y-100874900D01*
X132480100Y-101125100D01*
X132480100Y-101125100D01*
G37*
G36*
X182200100Y-101125100D02*
G01*
X181519900Y-101125100D01*
X181519900Y-100874900D01*
X182200100Y-100874900D01*
X182200100Y-101125100D01*
X182200100Y-101125100D01*
G37*
G36*
X138200100Y-101125100D02*
G01*
X137519900Y-101125100D01*
X137519900Y-100874900D01*
X138200100Y-100874900D01*
X138200100Y-101125100D01*
X138200100Y-101125100D01*
G37*
G36*
X176480100Y-101125100D02*
G01*
X175799900Y-101125100D01*
X175799900Y-100874900D01*
X176480100Y-100874900D01*
X176480100Y-101125100D01*
X176480100Y-101125100D01*
G37*
G36*
X176480100Y-100725100D02*
G01*
X175799900Y-100725100D01*
X175799900Y-100474900D01*
X176480100Y-100474900D01*
X176480100Y-100725100D01*
X176480100Y-100725100D01*
G37*
G36*
X182200100Y-100725100D02*
G01*
X181519900Y-100725100D01*
X181519900Y-100474900D01*
X182200100Y-100474900D01*
X182200100Y-100725100D01*
X182200100Y-100725100D01*
G37*
G36*
X138200100Y-100725100D02*
G01*
X137519900Y-100725100D01*
X137519900Y-100474900D01*
X138200100Y-100474900D01*
X138200100Y-100725100D01*
X138200100Y-100725100D01*
G37*
G36*
X132480100Y-100725100D02*
G01*
X131799900Y-100725100D01*
X131799900Y-100474900D01*
X132480100Y-100474900D01*
X132480100Y-100725100D01*
X132480100Y-100725100D01*
G37*
G36*
X182200100Y-100325100D02*
G01*
X181519900Y-100325100D01*
X181519900Y-100074900D01*
X182200100Y-100074900D01*
X182200100Y-100325100D01*
X182200100Y-100325100D01*
G37*
G36*
X132480100Y-100325100D02*
G01*
X131799900Y-100325100D01*
X131799900Y-100074900D01*
X132480100Y-100074900D01*
X132480100Y-100325100D01*
X132480100Y-100325100D01*
G37*
G36*
X138200100Y-100325100D02*
G01*
X137519900Y-100325100D01*
X137519900Y-100074900D01*
X138200100Y-100074900D01*
X138200100Y-100325100D01*
X138200100Y-100325100D01*
G37*
G36*
X176480100Y-100325100D02*
G01*
X175799900Y-100325100D01*
X175799900Y-100074900D01*
X176480100Y-100074900D01*
X176480100Y-100325100D01*
X176480100Y-100325100D01*
G37*
G36*
X182200100Y-99925100D02*
G01*
X181519900Y-99925100D01*
X181519900Y-99674900D01*
X182200100Y-99674900D01*
X182200100Y-99925100D01*
X182200100Y-99925100D01*
G37*
G36*
X132480100Y-99925100D02*
G01*
X131799900Y-99925100D01*
X131799900Y-99674900D01*
X132480100Y-99674900D01*
X132480100Y-99925100D01*
X132480100Y-99925100D01*
G37*
G36*
X138200100Y-99925100D02*
G01*
X137519900Y-99925100D01*
X137519900Y-99674900D01*
X138200100Y-99674900D01*
X138200100Y-99925100D01*
X138200100Y-99925100D01*
G37*
G36*
X176480100Y-99925100D02*
G01*
X175799900Y-99925100D01*
X175799900Y-99674900D01*
X176480100Y-99674900D01*
X176480100Y-99925100D01*
X176480100Y-99925100D01*
G37*
G36*
X168050100Y-99900100D02*
G01*
X167149900Y-99900100D01*
X167149900Y-98699900D01*
X168050100Y-98699900D01*
X168050100Y-99900100D01*
X168050100Y-99900100D01*
G37*
G36*
X124050100Y-99900100D02*
G01*
X123149900Y-99900100D01*
X123149900Y-98699900D01*
X124050100Y-98699900D01*
X124050100Y-99900100D01*
X124050100Y-99900100D01*
G37*
G36*
X121050100Y-99650100D02*
G01*
X119949900Y-99650100D01*
X119949900Y-98549900D01*
X121050100Y-98549900D01*
X121050100Y-99650100D01*
X121050100Y-99650100D01*
G37*
G36*
X165050100Y-99650100D02*
G01*
X163949900Y-99650100D01*
X163949900Y-98549900D01*
X165050100Y-98549900D01*
X165050100Y-99650100D01*
X165050100Y-99650100D01*
G37*
G36*
X136925100Y-99480100D02*
G01*
X136674900Y-99480100D01*
X136674900Y-98799900D01*
X136925100Y-98799900D01*
X136925100Y-99480100D01*
X136925100Y-99480100D01*
G37*
G36*
X180925100Y-99480100D02*
G01*
X180674900Y-99480100D01*
X180674900Y-98799900D01*
X180925100Y-98799900D01*
X180925100Y-99480100D01*
X180925100Y-99480100D01*
G37*
G36*
X181325100Y-99480100D02*
G01*
X181074900Y-99480100D01*
X181074900Y-98799900D01*
X181325100Y-98799900D01*
X181325100Y-99480100D01*
X181325100Y-99480100D01*
G37*
G36*
X134525100Y-99480100D02*
G01*
X134274900Y-99480100D01*
X134274900Y-98799900D01*
X134525100Y-98799900D01*
X134525100Y-99480100D01*
X134525100Y-99480100D01*
G37*
G36*
X132925100Y-99480100D02*
G01*
X132674900Y-99480100D01*
X132674900Y-98799900D01*
X132925100Y-98799900D01*
X132925100Y-99480100D01*
X132925100Y-99480100D01*
G37*
G36*
X133325100Y-99480100D02*
G01*
X133074900Y-99480100D01*
X133074900Y-98799900D01*
X133325100Y-98799900D01*
X133325100Y-99480100D01*
X133325100Y-99480100D01*
G37*
G36*
X133725100Y-99480100D02*
G01*
X133474900Y-99480100D01*
X133474900Y-98799900D01*
X133725100Y-98799900D01*
X133725100Y-99480100D01*
X133725100Y-99480100D01*
G37*
G36*
X134125100Y-99480100D02*
G01*
X133874900Y-99480100D01*
X133874900Y-98799900D01*
X134125100Y-98799900D01*
X134125100Y-99480100D01*
X134125100Y-99480100D01*
G37*
G36*
X134925100Y-99480100D02*
G01*
X134674900Y-99480100D01*
X134674900Y-98799900D01*
X134925100Y-98799900D01*
X134925100Y-99480100D01*
X134925100Y-99480100D01*
G37*
G36*
X135325100Y-99480100D02*
G01*
X135074900Y-99480100D01*
X135074900Y-98799900D01*
X135325100Y-98799900D01*
X135325100Y-99480100D01*
X135325100Y-99480100D01*
G37*
G36*
X137325100Y-99480100D02*
G01*
X137074900Y-99480100D01*
X137074900Y-98799900D01*
X137325100Y-98799900D01*
X137325100Y-99480100D01*
X137325100Y-99480100D01*
G37*
G36*
X178525100Y-99480100D02*
G01*
X178274900Y-99480100D01*
X178274900Y-98799900D01*
X178525100Y-98799900D01*
X178525100Y-99480100D01*
X178525100Y-99480100D01*
G37*
G36*
X135725100Y-99480100D02*
G01*
X135474900Y-99480100D01*
X135474900Y-98799900D01*
X135725100Y-98799900D01*
X135725100Y-99480100D01*
X135725100Y-99480100D01*
G37*
G36*
X180125100Y-99480100D02*
G01*
X179874900Y-99480100D01*
X179874900Y-98799900D01*
X180125100Y-98799900D01*
X180125100Y-99480100D01*
X180125100Y-99480100D01*
G37*
G36*
X179725100Y-99480100D02*
G01*
X179474900Y-99480100D01*
X179474900Y-98799900D01*
X179725100Y-98799900D01*
X179725100Y-99480100D01*
X179725100Y-99480100D01*
G37*
G36*
X179325100Y-99480100D02*
G01*
X179074900Y-99480100D01*
X179074900Y-98799900D01*
X179325100Y-98799900D01*
X179325100Y-99480100D01*
X179325100Y-99480100D01*
G37*
G36*
X178925100Y-99480100D02*
G01*
X178674900Y-99480100D01*
X178674900Y-98799900D01*
X178925100Y-98799900D01*
X178925100Y-99480100D01*
X178925100Y-99480100D01*
G37*
G36*
X136525100Y-99480100D02*
G01*
X136274900Y-99480100D01*
X136274900Y-98799900D01*
X136525100Y-98799900D01*
X136525100Y-99480100D01*
X136525100Y-99480100D01*
G37*
G36*
X178125100Y-99480100D02*
G01*
X177874900Y-99480100D01*
X177874900Y-98799900D01*
X178125100Y-98799900D01*
X178125100Y-99480100D01*
X178125100Y-99480100D01*
G37*
G36*
X177725100Y-99480100D02*
G01*
X177474900Y-99480100D01*
X177474900Y-98799900D01*
X177725100Y-98799900D01*
X177725100Y-99480100D01*
X177725100Y-99480100D01*
G37*
G36*
X177325100Y-99480100D02*
G01*
X177074900Y-99480100D01*
X177074900Y-98799900D01*
X177325100Y-98799900D01*
X177325100Y-99480100D01*
X177325100Y-99480100D01*
G37*
G36*
X176925100Y-99480100D02*
G01*
X176674900Y-99480100D01*
X176674900Y-98799900D01*
X176925100Y-98799900D01*
X176925100Y-99480100D01*
X176925100Y-99480100D01*
G37*
G36*
X136125100Y-99480100D02*
G01*
X135874900Y-99480100D01*
X135874900Y-98799900D01*
X136125100Y-98799900D01*
X136125100Y-99480100D01*
X136125100Y-99480100D01*
G37*
G36*
X180525100Y-99480100D02*
G01*
X180274900Y-99480100D01*
X180274900Y-98799900D01*
X180525100Y-98799900D01*
X180525100Y-99480100D01*
X180525100Y-99480100D01*
G37*
G36*
X160000100Y-99450100D02*
G01*
X158799900Y-99450100D01*
X158799900Y-98549900D01*
X160000100Y-98549900D01*
X160000100Y-99450100D01*
X160000100Y-99450100D01*
G37*
G36*
X162200100Y-99450100D02*
G01*
X160999900Y-99450100D01*
X160999900Y-98549900D01*
X162200100Y-98549900D01*
X162200100Y-99450100D01*
X162200100Y-99450100D01*
G37*
G36*
X116000100Y-99450100D02*
G01*
X114799900Y-99450100D01*
X114799900Y-98549900D01*
X116000100Y-98549900D01*
X116000100Y-99450100D01*
X116000100Y-99450100D01*
G37*
G36*
X118200100Y-99450100D02*
G01*
X116999900Y-99450100D01*
X116999900Y-98549900D01*
X118200100Y-98549900D01*
X118200100Y-99450100D01*
X118200100Y-99450100D01*
G37*
G36*
X127100100Y-99325100D02*
G01*
X125899900Y-99325100D01*
X125899900Y-98574900D01*
X127100100Y-98574900D01*
X127100100Y-99325100D01*
X127100100Y-99325100D01*
G37*
G36*
X171100100Y-99325100D02*
G01*
X169899900Y-99325100D01*
X169899900Y-98574900D01*
X171100100Y-98574900D01*
X171100100Y-99325100D01*
X171100100Y-99325100D01*
G37*
G36*
X173000100Y-99325100D02*
G01*
X171799900Y-99325100D01*
X171799900Y-98574900D01*
X173000100Y-98574900D01*
X173000100Y-99325100D01*
X173000100Y-99325100D01*
G37*
G36*
X129000100Y-99325100D02*
G01*
X127799900Y-99325100D01*
X127799900Y-98574900D01*
X129000100Y-98574900D01*
X129000100Y-99325100D01*
X129000100Y-99325100D01*
G37*
G36*
X134250100Y-96775100D02*
G01*
X133049900Y-96775100D01*
X133049900Y-96024900D01*
X134250100Y-96024900D01*
X134250100Y-96775100D01*
X134250100Y-96775100D01*
G37*
G36*
X180150100Y-96775100D02*
G01*
X178949900Y-96775100D01*
X178949900Y-96024900D01*
X180150100Y-96024900D01*
X180150100Y-96775100D01*
X180150100Y-96775100D01*
G37*
G36*
X136150100Y-96775100D02*
G01*
X134949900Y-96775100D01*
X134949900Y-96024900D01*
X136150100Y-96024900D01*
X136150100Y-96775100D01*
X136150100Y-96775100D01*
G37*
G36*
X178250100Y-96775100D02*
G01*
X177049900Y-96775100D01*
X177049900Y-96024900D01*
X178250100Y-96024900D01*
X178250100Y-96775100D01*
X178250100Y-96775100D01*
G37*
G36*
X100291720Y-94638333D02*
G01*
X100413056Y-94688593D01*
X100473725Y-94713723D01*
X100637527Y-94823172D01*
X100776828Y-94962473D01*
X100886277Y-95126275D01*
X100886277Y-95126276D01*
X100961667Y-95308280D01*
X101000100Y-95501499D01*
X101000100Y-95698501D01*
X100961667Y-95891720D01*
X100911407Y-96013056D01*
X100886277Y-96073725D01*
X100776828Y-96237527D01*
X100637527Y-96376828D01*
X100473725Y-96486277D01*
X100413056Y-96511407D01*
X100291720Y-96561667D01*
X100098501Y-96600100D01*
X99901499Y-96600100D01*
X99708280Y-96561667D01*
X99586944Y-96511407D01*
X99526275Y-96486277D01*
X99362473Y-96376828D01*
X99223172Y-96237527D01*
X99113723Y-96073725D01*
X99088593Y-96013056D01*
X99038333Y-95891720D01*
X98999900Y-95698501D01*
X98999900Y-95501499D01*
X99038333Y-95308280D01*
X99113723Y-95126276D01*
X99113723Y-95126275D01*
X99223172Y-94962473D01*
X99362473Y-94823172D01*
X99526275Y-94713723D01*
X99586944Y-94688593D01*
X99708280Y-94638333D01*
X99901499Y-94599900D01*
X100098501Y-94599900D01*
X100291720Y-94638333D01*
X100291720Y-94638333D01*
G37*
G36*
X144291720Y-94638333D02*
G01*
X144413056Y-94688593D01*
X144473725Y-94713723D01*
X144637527Y-94823172D01*
X144776828Y-94962473D01*
X144886277Y-95126275D01*
X144886277Y-95126276D01*
X144961667Y-95308280D01*
X145000100Y-95501499D01*
X145000100Y-95698501D01*
X144961667Y-95891720D01*
X144911407Y-96013056D01*
X144886277Y-96073725D01*
X144776828Y-96237527D01*
X144637527Y-96376828D01*
X144473725Y-96486277D01*
X144413056Y-96511407D01*
X144291720Y-96561667D01*
X144098501Y-96600100D01*
X143901499Y-96600100D01*
X143708280Y-96561667D01*
X143586944Y-96511407D01*
X143526275Y-96486277D01*
X143362473Y-96376828D01*
X143223172Y-96237527D01*
X143113723Y-96073725D01*
X143088593Y-96013056D01*
X143038333Y-95891720D01*
X142999900Y-95698501D01*
X142999900Y-95501499D01*
X143038333Y-95308280D01*
X143113723Y-95126276D01*
X143113723Y-95126275D01*
X143223172Y-94962473D01*
X143362473Y-94823172D01*
X143526275Y-94713723D01*
X143586944Y-94688593D01*
X143708280Y-94638333D01*
X143901499Y-94599900D01*
X144098501Y-94599900D01*
X144291720Y-94638333D01*
X144291720Y-94638333D01*
G37*
G36*
X118700100Y-95650100D02*
G01*
X117499900Y-95650100D01*
X117499900Y-94749900D01*
X118700100Y-94749900D01*
X118700100Y-95650100D01*
X118700100Y-95650100D01*
G37*
G36*
X116500100Y-95650100D02*
G01*
X115299900Y-95650100D01*
X115299900Y-94749900D01*
X116500100Y-94749900D01*
X116500100Y-95650100D01*
X116500100Y-95650100D01*
G37*
G36*
X162700100Y-95650100D02*
G01*
X161499900Y-95650100D01*
X161499900Y-94749900D01*
X162700100Y-94749900D01*
X162700100Y-95650100D01*
X162700100Y-95650100D01*
G37*
G36*
X160500100Y-95650100D02*
G01*
X159299900Y-95650100D01*
X159299900Y-94749900D01*
X160500100Y-94749900D01*
X160500100Y-95650100D01*
X160500100Y-95650100D01*
G37*
G36*
X155850100Y-95575100D02*
G01*
X154649900Y-95575100D01*
X154649900Y-94824900D01*
X155850100Y-94824900D01*
X155850100Y-95575100D01*
X155850100Y-95575100D01*
G37*
G36*
X157750100Y-95575100D02*
G01*
X156549900Y-95575100D01*
X156549900Y-94824900D01*
X157750100Y-94824900D01*
X157750100Y-95575100D01*
X157750100Y-95575100D01*
G37*
G36*
X113750100Y-95575100D02*
G01*
X112549900Y-95575100D01*
X112549900Y-94824900D01*
X113750100Y-94824900D01*
X113750100Y-95575100D01*
X113750100Y-95575100D01*
G37*
G36*
X111850100Y-95575100D02*
G01*
X110649900Y-95575100D01*
X110649900Y-94824900D01*
X111850100Y-94824900D01*
X111850100Y-95575100D01*
X111850100Y-95575100D01*
G37*
G36*
X179100100Y-95200100D02*
G01*
X177899900Y-95200100D01*
X177899900Y-94299900D01*
X179100100Y-94299900D01*
X179100100Y-95200100D01*
X179100100Y-95200100D01*
G37*
G36*
X176900100Y-95200100D02*
G01*
X175699900Y-95200100D01*
X175699900Y-94299900D01*
X176900100Y-94299900D01*
X176900100Y-95200100D01*
X176900100Y-95200100D01*
G37*
G36*
X135100100Y-95200100D02*
G01*
X133899900Y-95200100D01*
X133899900Y-94299900D01*
X135100100Y-94299900D01*
X135100100Y-95200100D01*
X135100100Y-95200100D01*
G37*
G36*
X132900100Y-95200100D02*
G01*
X131699900Y-95200100D01*
X131699900Y-94299900D01*
X132900100Y-94299900D01*
X132900100Y-95200100D01*
X132900100Y-95200100D01*
G37*
G36*
X107000100Y-93700100D02*
G01*
X104139900Y-93700100D01*
X104139900Y-92499900D01*
X107000100Y-92499900D01*
X107000100Y-93700100D01*
X107000100Y-93700100D01*
G37*
G36*
X151000100Y-93700100D02*
G01*
X148139900Y-93700100D01*
X148139900Y-92499900D01*
X151000100Y-92499900D01*
X151000100Y-93700100D01*
X151000100Y-93700100D01*
G37*
G36*
X158350100Y-93200100D02*
G01*
X157549900Y-93200100D01*
X157549900Y-92199900D01*
X158350100Y-92199900D01*
X158350100Y-93200100D01*
X158350100Y-93200100D01*
G37*
G36*
X156450100Y-93200100D02*
G01*
X155649900Y-93200100D01*
X155649900Y-92199900D01*
X156450100Y-92199900D01*
X156450100Y-93200100D01*
X156450100Y-93200100D01*
G37*
G36*
X157300100Y-93200100D02*
G01*
X156699900Y-93200100D01*
X156699900Y-92199900D01*
X157300100Y-92199900D01*
X157300100Y-93200100D01*
X157300100Y-93200100D01*
G37*
G36*
X112450100Y-93200100D02*
G01*
X111649900Y-93200100D01*
X111649900Y-92199900D01*
X112450100Y-92199900D01*
X112450100Y-93200100D01*
X112450100Y-93200100D01*
G37*
G36*
X114350100Y-93200100D02*
G01*
X113549900Y-93200100D01*
X113549900Y-92199900D01*
X114350100Y-92199900D01*
X114350100Y-93200100D01*
X114350100Y-93200100D01*
G37*
G36*
X113300100Y-93200100D02*
G01*
X112699900Y-93200100D01*
X112699900Y-92199900D01*
X113300100Y-92199900D01*
X113300100Y-93200100D01*
X113300100Y-93200100D01*
G37*
G36*
X110125100Y-93050100D02*
G01*
X109374900Y-93050100D01*
X109374900Y-91849900D01*
X110125100Y-91849900D01*
X110125100Y-93050100D01*
X110125100Y-93050100D01*
G37*
G36*
X154125100Y-93050100D02*
G01*
X153374900Y-93050100D01*
X153374900Y-91849900D01*
X154125100Y-91849900D01*
X154125100Y-93050100D01*
X154125100Y-93050100D01*
G37*
G36*
X118600100Y-93000100D02*
G01*
X117699900Y-93000100D01*
X117699900Y-91799900D01*
X118600100Y-91799900D01*
X118600100Y-93000100D01*
X118600100Y-93000100D01*
G37*
G36*
X162600100Y-93000100D02*
G01*
X161699900Y-93000100D01*
X161699900Y-91799900D01*
X162600100Y-91799900D01*
X162600100Y-93000100D01*
X162600100Y-93000100D01*
G37*
G36*
X116525100Y-92850100D02*
G01*
X115774900Y-92850100D01*
X115774900Y-91649900D01*
X116525100Y-91649900D01*
X116525100Y-92850100D01*
X116525100Y-92850100D01*
G37*
G36*
X160525100Y-92850100D02*
G01*
X159774900Y-92850100D01*
X159774900Y-91649900D01*
X160525100Y-91649900D01*
X160525100Y-92850100D01*
X160525100Y-92850100D01*
G37*
G36*
X135100100Y-92800100D02*
G01*
X133999900Y-92800100D01*
X133999900Y-91699900D01*
X135100100Y-91699900D01*
X135100100Y-92800100D01*
X135100100Y-92800100D01*
G37*
G36*
X132300100Y-92800100D02*
G01*
X131199900Y-92800100D01*
X131199900Y-91699900D01*
X132300100Y-91699900D01*
X132300100Y-92800100D01*
X132300100Y-92800100D01*
G37*
G36*
X176300100Y-92800100D02*
G01*
X175199900Y-92800100D01*
X175199900Y-91699900D01*
X176300100Y-91699900D01*
X176300100Y-92800100D01*
X176300100Y-92800100D01*
G37*
G36*
X179100100Y-92800100D02*
G01*
X177999900Y-92800100D01*
X177999900Y-91699900D01*
X179100100Y-91699900D01*
X179100100Y-92800100D01*
X179100100Y-92800100D01*
G37*
G36*
X172450100Y-92575100D02*
G01*
X171249900Y-92575100D01*
X171249900Y-91824900D01*
X172450100Y-91824900D01*
X172450100Y-92575100D01*
X172450100Y-92575100D01*
G37*
G36*
X130350100Y-92575100D02*
G01*
X129149900Y-92575100D01*
X129149900Y-91824900D01*
X130350100Y-91824900D01*
X130350100Y-92575100D01*
X130350100Y-92575100D01*
G37*
G36*
X128450100Y-92575100D02*
G01*
X127249900Y-92575100D01*
X127249900Y-91824900D01*
X128450100Y-91824900D01*
X128450100Y-92575100D01*
X128450100Y-92575100D01*
G37*
G36*
X174350100Y-92575100D02*
G01*
X173149900Y-92575100D01*
X173149900Y-91824900D01*
X174350100Y-91824900D01*
X174350100Y-92575100D01*
X174350100Y-92575100D01*
G37*
G36*
X107000100Y-91300100D02*
G01*
X104139900Y-91300100D01*
X104139900Y-90099900D01*
X107000100Y-90099900D01*
X107000100Y-91300100D01*
X107000100Y-91300100D01*
G37*
G36*
X151000100Y-91300100D02*
G01*
X148139900Y-91300100D01*
X148139900Y-90099900D01*
X151000100Y-90099900D01*
X151000100Y-91300100D01*
X151000100Y-91300100D01*
G37*
G36*
X110125100Y-91150100D02*
G01*
X109374900Y-91150100D01*
X109374900Y-89949900D01*
X110125100Y-89949900D01*
X110125100Y-91150100D01*
X110125100Y-91150100D01*
G37*
G36*
X154125100Y-91150100D02*
G01*
X153374900Y-91150100D01*
X153374900Y-89949900D01*
X154125100Y-89949900D01*
X154125100Y-91150100D01*
X154125100Y-91150100D01*
G37*
G36*
X160525100Y-90950100D02*
G01*
X159774900Y-90950100D01*
X159774900Y-89749900D01*
X160525100Y-89749900D01*
X160525100Y-90950100D01*
X160525100Y-90950100D01*
G37*
G36*
X116525100Y-90950100D02*
G01*
X115774900Y-90950100D01*
X115774900Y-89749900D01*
X116525100Y-89749900D01*
X116525100Y-90950100D01*
X116525100Y-90950100D01*
G37*
G36*
X112450100Y-90800100D02*
G01*
X111649900Y-90800100D01*
X111649900Y-89799900D01*
X112450100Y-89799900D01*
X112450100Y-90800100D01*
X112450100Y-90800100D01*
G37*
G36*
X114350100Y-90800100D02*
G01*
X113549900Y-90800100D01*
X113549900Y-89799900D01*
X114350100Y-89799900D01*
X114350100Y-90800100D01*
X114350100Y-90800100D01*
G37*
G36*
X162600100Y-90800100D02*
G01*
X161699900Y-90800100D01*
X161699900Y-89599900D01*
X162600100Y-89599900D01*
X162600100Y-90800100D01*
X162600100Y-90800100D01*
G37*
G36*
X156450100Y-90800100D02*
G01*
X155649900Y-90800100D01*
X155649900Y-89799900D01*
X156450100Y-89799900D01*
X156450100Y-90800100D01*
X156450100Y-90800100D01*
G37*
G36*
X158350100Y-90800100D02*
G01*
X157549900Y-90800100D01*
X157549900Y-89799900D01*
X158350100Y-89799900D01*
X158350100Y-90800100D01*
X158350100Y-90800100D01*
G37*
G36*
X118600100Y-90800100D02*
G01*
X117699900Y-90800100D01*
X117699900Y-89599900D01*
X118600100Y-89599900D01*
X118600100Y-90800100D01*
X118600100Y-90800100D01*
G37*
G36*
X183966733Y-86961391D02*
G01*
X184257931Y-87082010D01*
X184520004Y-87257121D01*
X184742879Y-87479996D01*
X184907437Y-87726275D01*
X184917990Y-87742069D01*
X185038609Y-88033267D01*
X185100100Y-88342404D01*
X185100100Y-88657596D01*
X185038609Y-88966733D01*
X184917990Y-89257931D01*
X184742879Y-89520004D01*
X184520004Y-89742879D01*
X184257931Y-89917990D01*
X183966733Y-90038609D01*
X183657596Y-90100100D01*
X183342404Y-90100100D01*
X183033267Y-90038609D01*
X182742069Y-89917990D01*
X182479996Y-89742879D01*
X182257121Y-89520004D01*
X182082010Y-89257931D01*
X181961391Y-88966733D01*
X181899900Y-88657596D01*
X181899900Y-88342404D01*
X181961391Y-88033267D01*
X182082010Y-87742069D01*
X182092563Y-87726275D01*
X182257121Y-87479996D01*
X182479996Y-87257121D01*
X182742069Y-87082010D01*
X183033267Y-86961391D01*
X183342404Y-86899900D01*
X183657596Y-86899900D01*
X183966733Y-86961391D01*
X183966733Y-86961391D01*
G37*
G36*
X139966733Y-86961391D02*
G01*
X140257931Y-87082010D01*
X140520004Y-87257121D01*
X140742879Y-87479996D01*
X140907437Y-87726275D01*
X140917990Y-87742069D01*
X141038609Y-88033267D01*
X141100100Y-88342404D01*
X141100100Y-88657596D01*
X141038609Y-88966733D01*
X140917990Y-89257931D01*
X140742879Y-89520004D01*
X140520004Y-89742879D01*
X140257931Y-89917990D01*
X139966733Y-90038609D01*
X139657596Y-90100100D01*
X139342404Y-90100100D01*
X139033267Y-90038609D01*
X138742069Y-89917990D01*
X138479996Y-89742879D01*
X138257121Y-89520004D01*
X138082010Y-89257931D01*
X137961391Y-88966733D01*
X137899900Y-88657596D01*
X137899900Y-88342404D01*
X137961391Y-88033267D01*
X138082010Y-87742069D01*
X138092563Y-87726275D01*
X138257121Y-87479996D01*
X138479996Y-87257121D01*
X138742069Y-87082010D01*
X139033267Y-86961391D01*
X139342404Y-86899900D01*
X139657596Y-86899900D01*
X139966733Y-86961391D01*
X139966733Y-86961391D01*
G37*
G36*
X125966733Y-86961391D02*
G01*
X126257931Y-87082010D01*
X126520004Y-87257121D01*
X126742879Y-87479996D01*
X126907437Y-87726275D01*
X126917990Y-87742069D01*
X127038609Y-88033267D01*
X127100100Y-88342404D01*
X127100100Y-88657596D01*
X127038609Y-88966733D01*
X126917990Y-89257931D01*
X126742879Y-89520004D01*
X126520004Y-89742879D01*
X126257931Y-89917990D01*
X125966733Y-90038609D01*
X125657596Y-90100100D01*
X125342404Y-90100100D01*
X125033267Y-90038609D01*
X124742069Y-89917990D01*
X124479996Y-89742879D01*
X124257121Y-89520004D01*
X124082010Y-89257931D01*
X123961391Y-88966733D01*
X123899900Y-88657596D01*
X123899900Y-88342404D01*
X123961391Y-88033267D01*
X124082010Y-87742069D01*
X124092563Y-87726275D01*
X124257121Y-87479996D01*
X124479996Y-87257121D01*
X124742069Y-87082010D01*
X125033267Y-86961391D01*
X125342404Y-86899900D01*
X125657596Y-86899900D01*
X125966733Y-86961391D01*
X125966733Y-86961391D01*
G37*
G36*
X169966733Y-86961391D02*
G01*
X170257931Y-87082010D01*
X170520004Y-87257121D01*
X170742879Y-87479996D01*
X170907437Y-87726275D01*
X170917990Y-87742069D01*
X171038609Y-88033267D01*
X171100100Y-88342404D01*
X171100100Y-88657596D01*
X171038609Y-88966733D01*
X170917990Y-89257931D01*
X170742879Y-89520004D01*
X170520004Y-89742879D01*
X170257931Y-89917990D01*
X169966733Y-90038609D01*
X169657596Y-90100100D01*
X169342404Y-90100100D01*
X169033267Y-90038609D01*
X168742069Y-89917990D01*
X168479996Y-89742879D01*
X168257121Y-89520004D01*
X168082010Y-89257931D01*
X167961391Y-88966733D01*
X167899900Y-88657596D01*
X167899900Y-88342404D01*
X167961391Y-88033267D01*
X168082010Y-87742069D01*
X168092563Y-87726275D01*
X168257121Y-87479996D01*
X168479996Y-87257121D01*
X168742069Y-87082010D01*
X169033267Y-86961391D01*
X169342404Y-86899900D01*
X169657596Y-86899900D01*
X169966733Y-86961391D01*
X169966733Y-86961391D01*
G37*
G36*
X144291720Y-87238333D02*
G01*
X144413056Y-87288593D01*
X144473725Y-87313723D01*
X144637527Y-87423172D01*
X144776828Y-87562473D01*
X144886277Y-87726275D01*
X144886277Y-87726276D01*
X144961667Y-87908280D01*
X145000100Y-88101499D01*
X145000100Y-88298501D01*
X144961667Y-88491720D01*
X144911407Y-88613056D01*
X144886277Y-88673725D01*
X144776828Y-88837527D01*
X144637527Y-88976828D01*
X144473725Y-89086277D01*
X144413056Y-89111407D01*
X144291720Y-89161667D01*
X144098501Y-89200100D01*
X143901499Y-89200100D01*
X143708280Y-89161667D01*
X143586944Y-89111407D01*
X143526275Y-89086277D01*
X143362473Y-88976828D01*
X143223172Y-88837527D01*
X143113723Y-88673725D01*
X143088593Y-88613056D01*
X143038333Y-88491720D01*
X142999900Y-88298501D01*
X142999900Y-88101499D01*
X143038333Y-87908280D01*
X143113723Y-87726276D01*
X143113723Y-87726275D01*
X143223172Y-87562473D01*
X143362473Y-87423172D01*
X143526275Y-87313723D01*
X143586944Y-87288593D01*
X143708280Y-87238333D01*
X143901499Y-87199900D01*
X144098501Y-87199900D01*
X144291720Y-87238333D01*
X144291720Y-87238333D01*
G37*
G36*
X100291720Y-87238333D02*
G01*
X100413056Y-87288593D01*
X100473725Y-87313723D01*
X100637527Y-87423172D01*
X100776828Y-87562473D01*
X100886277Y-87726275D01*
X100886277Y-87726276D01*
X100961667Y-87908280D01*
X101000100Y-88101499D01*
X101000100Y-88298501D01*
X100961667Y-88491720D01*
X100911407Y-88613056D01*
X100886277Y-88673725D01*
X100776828Y-88837527D01*
X100637527Y-88976828D01*
X100473725Y-89086277D01*
X100413056Y-89111407D01*
X100291720Y-89161667D01*
X100098501Y-89200100D01*
X99901499Y-89200100D01*
X99708280Y-89161667D01*
X99586944Y-89111407D01*
X99526275Y-89086277D01*
X99362473Y-88976828D01*
X99223172Y-88837527D01*
X99113723Y-88673725D01*
X99088593Y-88613056D01*
X99038333Y-88491720D01*
X98999900Y-88298501D01*
X98999900Y-88101499D01*
X99038333Y-87908280D01*
X99113723Y-87726276D01*
X99113723Y-87726275D01*
X99223172Y-87562473D01*
X99362473Y-87423172D01*
X99526275Y-87313723D01*
X99586944Y-87288593D01*
X99708280Y-87238333D01*
X99901499Y-87199900D01*
X100098501Y-87199900D01*
X100291720Y-87238333D01*
X100291720Y-87238333D01*
G37*
G36*
X156300100Y-88250100D02*
G01*
X155099900Y-88250100D01*
X155099900Y-87349900D01*
X156300100Y-87349900D01*
X156300100Y-88250100D01*
X156300100Y-88250100D01*
G37*
G36*
X154100100Y-88250100D02*
G01*
X152899900Y-88250100D01*
X152899900Y-87349900D01*
X154100100Y-87349900D01*
X154100100Y-88250100D01*
X154100100Y-88250100D01*
G37*
G36*
X112300100Y-88250100D02*
G01*
X111099900Y-88250100D01*
X111099900Y-87349900D01*
X112300100Y-87349900D01*
X112300100Y-88250100D01*
X112300100Y-88250100D01*
G37*
G36*
X110100100Y-88250100D02*
G01*
X108899900Y-88250100D01*
X108899900Y-87349900D01*
X110100100Y-87349900D01*
X110100100Y-88250100D01*
X110100100Y-88250100D01*
G37*
G36*
X112500100Y-85100100D02*
G01*
X109699900Y-85100100D01*
X109699900Y-82299900D01*
X112500100Y-82299900D01*
X112500100Y-85100100D01*
X112500100Y-85100100D01*
G37*
G36*
X183966733Y-81961391D02*
G01*
X184257931Y-82082010D01*
X184520004Y-82257121D01*
X184742879Y-82479996D01*
X184917990Y-82742069D01*
X185038609Y-83033268D01*
X185100100Y-83342404D01*
X185100100Y-83657596D01*
X185038609Y-83966732D01*
X184917990Y-84257931D01*
X184742879Y-84520004D01*
X184520004Y-84742879D01*
X184257931Y-84917990D01*
X183966733Y-85038609D01*
X183657596Y-85100100D01*
X183342404Y-85100100D01*
X183033267Y-85038609D01*
X182742069Y-84917990D01*
X182479996Y-84742879D01*
X182257121Y-84520004D01*
X182082010Y-84257931D01*
X181961391Y-83966732D01*
X181899900Y-83657596D01*
X181899900Y-83342404D01*
X181961391Y-83033268D01*
X182082010Y-82742069D01*
X182257121Y-82479996D01*
X182479996Y-82257121D01*
X182742069Y-82082010D01*
X183033267Y-81961391D01*
X183342404Y-81899900D01*
X183657596Y-81899900D01*
X183966733Y-81961391D01*
X183966733Y-81961391D01*
G37*
G36*
X169966733Y-81961391D02*
G01*
X170257931Y-82082010D01*
X170520004Y-82257121D01*
X170742879Y-82479996D01*
X170917990Y-82742069D01*
X171038609Y-83033268D01*
X171100100Y-83342404D01*
X171100100Y-83657596D01*
X171038609Y-83966732D01*
X170917990Y-84257931D01*
X170742879Y-84520004D01*
X170520004Y-84742879D01*
X170257931Y-84917990D01*
X169966733Y-85038609D01*
X169657596Y-85100100D01*
X169342404Y-85100100D01*
X169033267Y-85038609D01*
X168742069Y-84917990D01*
X168479996Y-84742879D01*
X168257121Y-84520004D01*
X168082010Y-84257931D01*
X167961391Y-83966732D01*
X167899900Y-83657596D01*
X167899900Y-83342404D01*
X167961391Y-83033268D01*
X168082010Y-82742069D01*
X168257121Y-82479996D01*
X168479996Y-82257121D01*
X168742069Y-82082010D01*
X169033267Y-81961391D01*
X169342404Y-81899900D01*
X169657596Y-81899900D01*
X169966733Y-81961391D01*
X169966733Y-81961391D01*
G37*
G36*
X102800100Y-85100100D02*
G01*
X100599900Y-85100100D01*
X100599900Y-82299900D01*
X102800100Y-82299900D01*
X102800100Y-85100100D01*
X102800100Y-85100100D01*
G37*
G36*
X146800100Y-85100100D02*
G01*
X144599900Y-85100100D01*
X144599900Y-82299900D01*
X146800100Y-82299900D01*
X146800100Y-85100100D01*
X146800100Y-85100100D01*
G37*
G36*
X156500100Y-85100100D02*
G01*
X153699900Y-85100100D01*
X153699900Y-82299900D01*
X156500100Y-82299900D01*
X156500100Y-85100100D01*
X156500100Y-85100100D01*
G37*
G36*
X125966733Y-81961391D02*
G01*
X126257931Y-82082010D01*
X126520004Y-82257121D01*
X126742879Y-82479996D01*
X126917990Y-82742069D01*
X127038609Y-83033268D01*
X127100100Y-83342404D01*
X127100100Y-83657596D01*
X127038609Y-83966732D01*
X126917990Y-84257931D01*
X126742879Y-84520004D01*
X126520004Y-84742879D01*
X126257931Y-84917990D01*
X125966733Y-85038609D01*
X125657596Y-85100100D01*
X125342404Y-85100100D01*
X125033267Y-85038609D01*
X124742069Y-84917990D01*
X124479996Y-84742879D01*
X124257121Y-84520004D01*
X124082010Y-84257931D01*
X123961391Y-83966732D01*
X123899900Y-83657596D01*
X123899900Y-83342404D01*
X123961391Y-83033268D01*
X124082010Y-82742069D01*
X124257121Y-82479996D01*
X124479996Y-82257121D01*
X124742069Y-82082010D01*
X125033267Y-81961391D01*
X125342404Y-81899900D01*
X125657596Y-81899900D01*
X125966733Y-81961391D01*
X125966733Y-81961391D01*
G37*
G36*
X139966733Y-81961391D02*
G01*
X140257931Y-82082010D01*
X140520004Y-82257121D01*
X140742879Y-82479996D01*
X140917990Y-82742069D01*
X141038609Y-83033268D01*
X141100100Y-83342404D01*
X141100100Y-83657596D01*
X141038609Y-83966732D01*
X140917990Y-84257931D01*
X140742879Y-84520004D01*
X140520004Y-84742879D01*
X140257931Y-84917990D01*
X139966733Y-85038609D01*
X139657596Y-85100100D01*
X139342404Y-85100100D01*
X139033267Y-85038609D01*
X138742069Y-84917990D01*
X138479996Y-84742879D01*
X138257121Y-84520004D01*
X138082010Y-84257931D01*
X137961391Y-83966732D01*
X137899900Y-83657596D01*
X137899900Y-83342404D01*
X137961391Y-83033268D01*
X138082010Y-82742069D01*
X138257121Y-82479996D01*
X138479996Y-82257121D01*
X138742069Y-82082010D01*
X139033267Y-81961391D01*
X139342404Y-81899900D01*
X139657596Y-81899900D01*
X139966733Y-81961391D01*
X139966733Y-81961391D01*
G37*
G36*
X115950100Y-84575100D02*
G01*
X114749900Y-84575100D01*
X114749900Y-83824900D01*
X115950100Y-83824900D01*
X115950100Y-84575100D01*
X115950100Y-84575100D01*
G37*
G36*
X159950100Y-84575100D02*
G01*
X158749900Y-84575100D01*
X158749900Y-83824900D01*
X159950100Y-83824900D01*
X159950100Y-84575100D01*
X159950100Y-84575100D01*
G37*
G36*
X117850100Y-84575100D02*
G01*
X116649900Y-84575100D01*
X116649900Y-83824900D01*
X117850100Y-83824900D01*
X117850100Y-84575100D01*
X117850100Y-84575100D01*
G37*
G36*
X161850100Y-84575100D02*
G01*
X160649900Y-84575100D01*
X160649900Y-83824900D01*
X161850100Y-83824900D01*
X161850100Y-84575100D01*
X161850100Y-84575100D01*
G37*
G36*
X162300100Y-82150100D02*
G01*
X161099900Y-82150100D01*
X161099900Y-81249900D01*
X162300100Y-81249900D01*
X162300100Y-82150100D01*
X162300100Y-82150100D01*
G37*
G36*
X160100100Y-82150100D02*
G01*
X158899900Y-82150100D01*
X158899900Y-81249900D01*
X160100100Y-81249900D01*
X160100100Y-82150100D01*
X160100100Y-82150100D01*
G37*
G36*
X118300100Y-82150100D02*
G01*
X117099900Y-82150100D01*
X117099900Y-81249900D01*
X118300100Y-81249900D01*
X118300100Y-82150100D01*
X118300100Y-82150100D01*
G37*
G36*
X116100100Y-82150100D02*
G01*
X114899900Y-82150100D01*
X114899900Y-81249900D01*
X116100100Y-81249900D01*
X116100100Y-82150100D01*
X116100100Y-82150100D01*
G37*
G36*
X110120889Y-78942176D02*
G01*
X110254358Y-78997461D01*
X110321093Y-79025104D01*
X110501273Y-79145496D01*
X110654504Y-79298727D01*
X110774896Y-79478907D01*
X110774896Y-79478908D01*
X110857824Y-79679111D01*
X110900100Y-79891650D01*
X110900100Y-80108350D01*
X110857824Y-80320889D01*
X110802539Y-80454358D01*
X110774896Y-80521093D01*
X110654504Y-80701273D01*
X110501273Y-80854504D01*
X110321093Y-80974896D01*
X110254358Y-81002539D01*
X110120889Y-81057824D01*
X109908350Y-81100100D01*
X109691650Y-81100100D01*
X109479111Y-81057824D01*
X109345642Y-81002539D01*
X109278907Y-80974896D01*
X109098727Y-80854504D01*
X108945496Y-80701273D01*
X108825104Y-80521093D01*
X108797461Y-80454358D01*
X108742176Y-80320889D01*
X108699900Y-80108350D01*
X108699900Y-79891650D01*
X108742176Y-79679111D01*
X108825104Y-79478908D01*
X108825104Y-79478907D01*
X108945496Y-79298727D01*
X109098727Y-79145496D01*
X109278907Y-79025104D01*
X109345642Y-78997461D01*
X109479111Y-78942176D01*
X109691650Y-78899900D01*
X109908350Y-78899900D01*
X110120889Y-78942176D01*
X110120889Y-78942176D01*
G37*
G36*
X103120889Y-78942176D02*
G01*
X103254358Y-78997461D01*
X103321093Y-79025104D01*
X103501273Y-79145496D01*
X103654504Y-79298727D01*
X103774896Y-79478907D01*
X103774896Y-79478908D01*
X103857824Y-79679111D01*
X103900100Y-79891650D01*
X103900100Y-80108350D01*
X103857824Y-80320889D01*
X103802539Y-80454358D01*
X103774896Y-80521093D01*
X103654504Y-80701273D01*
X103501273Y-80854504D01*
X103321093Y-80974896D01*
X103254358Y-81002539D01*
X103120889Y-81057824D01*
X102908350Y-81100100D01*
X102691650Y-81100100D01*
X102479111Y-81057824D01*
X102345642Y-81002539D01*
X102278907Y-80974896D01*
X102098727Y-80854504D01*
X101945496Y-80701273D01*
X101825104Y-80521093D01*
X101797461Y-80454358D01*
X101742176Y-80320889D01*
X101699900Y-80108350D01*
X101699900Y-79891650D01*
X101742176Y-79679111D01*
X101825104Y-79478908D01*
X101825104Y-79478907D01*
X101945496Y-79298727D01*
X102098727Y-79145496D01*
X102278907Y-79025104D01*
X102345642Y-78997461D01*
X102479111Y-78942176D01*
X102691650Y-78899900D01*
X102908350Y-78899900D01*
X103120889Y-78942176D01*
X103120889Y-78942176D01*
G37*
G36*
X154120889Y-78942176D02*
G01*
X154254358Y-78997461D01*
X154321093Y-79025104D01*
X154501273Y-79145496D01*
X154654504Y-79298727D01*
X154774896Y-79478907D01*
X154774896Y-79478908D01*
X154857824Y-79679111D01*
X154900100Y-79891650D01*
X154900100Y-80108350D01*
X154857824Y-80320889D01*
X154802539Y-80454358D01*
X154774896Y-80521093D01*
X154654504Y-80701273D01*
X154501273Y-80854504D01*
X154321093Y-80974896D01*
X154254358Y-81002539D01*
X154120889Y-81057824D01*
X153908350Y-81100100D01*
X153691650Y-81100100D01*
X153479111Y-81057824D01*
X153345642Y-81002539D01*
X153278907Y-80974896D01*
X153098727Y-80854504D01*
X152945496Y-80701273D01*
X152825104Y-80521093D01*
X152797461Y-80454358D01*
X152742176Y-80320889D01*
X152699900Y-80108350D01*
X152699900Y-79891650D01*
X152742176Y-79679111D01*
X152825104Y-79478908D01*
X152825104Y-79478907D01*
X152945496Y-79298727D01*
X153098727Y-79145496D01*
X153278907Y-79025104D01*
X153345642Y-78997461D01*
X153479111Y-78942176D01*
X153691650Y-78899900D01*
X153908350Y-78899900D01*
X154120889Y-78942176D01*
X154120889Y-78942176D01*
G37*
G36*
X147120889Y-78942176D02*
G01*
X147254358Y-78997461D01*
X147321093Y-79025104D01*
X147501273Y-79145496D01*
X147654504Y-79298727D01*
X147774896Y-79478907D01*
X147774896Y-79478908D01*
X147857824Y-79679111D01*
X147900100Y-79891650D01*
X147900100Y-80108350D01*
X147857824Y-80320889D01*
X147802539Y-80454358D01*
X147774896Y-80521093D01*
X147654504Y-80701273D01*
X147501273Y-80854504D01*
X147321093Y-80974896D01*
X147254358Y-81002539D01*
X147120889Y-81057824D01*
X146908350Y-81100100D01*
X146691650Y-81100100D01*
X146479111Y-81057824D01*
X146345642Y-81002539D01*
X146278907Y-80974896D01*
X146098727Y-80854504D01*
X145945496Y-80701273D01*
X145825104Y-80521093D01*
X145797461Y-80454358D01*
X145742176Y-80320889D01*
X145699900Y-80108350D01*
X145699900Y-79891650D01*
X145742176Y-79679111D01*
X145825104Y-79478908D01*
X145825104Y-79478907D01*
X145945496Y-79298727D01*
X146098727Y-79145496D01*
X146278907Y-79025104D01*
X146345642Y-78997461D01*
X146479111Y-78942176D01*
X146691650Y-78899900D01*
X146908350Y-78899900D01*
X147120889Y-78942176D01*
X147120889Y-78942176D01*
G37*
G36*
X175850100Y-79775100D02*
G01*
X174649900Y-79775100D01*
X174649900Y-79024900D01*
X175850100Y-79024900D01*
X175850100Y-79775100D01*
X175850100Y-79775100D01*
G37*
G36*
X177750100Y-79775100D02*
G01*
X176549900Y-79775100D01*
X176549900Y-79024900D01*
X177750100Y-79024900D01*
X177750100Y-79775100D01*
X177750100Y-79775100D01*
G37*
G36*
X171850100Y-79775100D02*
G01*
X170649900Y-79775100D01*
X170649900Y-79024900D01*
X171850100Y-79024900D01*
X171850100Y-79775100D01*
X171850100Y-79775100D01*
G37*
G36*
X133750100Y-79775100D02*
G01*
X132549900Y-79775100D01*
X132549900Y-79024900D01*
X133750100Y-79024900D01*
X133750100Y-79775100D01*
X133750100Y-79775100D01*
G37*
G36*
X127850100Y-79775100D02*
G01*
X126649900Y-79775100D01*
X126649900Y-79024900D01*
X127850100Y-79024900D01*
X127850100Y-79775100D01*
X127850100Y-79775100D01*
G37*
G36*
X173750100Y-79775100D02*
G01*
X172549900Y-79775100D01*
X172549900Y-79024900D01*
X173750100Y-79024900D01*
X173750100Y-79775100D01*
X173750100Y-79775100D01*
G37*
G36*
X131850100Y-79775100D02*
G01*
X130649900Y-79775100D01*
X130649900Y-79024900D01*
X131850100Y-79024900D01*
X131850100Y-79775100D01*
X131850100Y-79775100D01*
G37*
G36*
X129750100Y-79775100D02*
G01*
X128549900Y-79775100D01*
X128549900Y-79024900D01*
X129750100Y-79024900D01*
X129750100Y-79775100D01*
X129750100Y-79775100D01*
G37*
G36*
X116050100Y-79150100D02*
G01*
X114849900Y-79150100D01*
X114849900Y-78249900D01*
X116050100Y-78249900D01*
X116050100Y-79150100D01*
X116050100Y-79150100D01*
G37*
G36*
X118250100Y-79150100D02*
G01*
X117049900Y-79150100D01*
X117049900Y-78249900D01*
X118250100Y-78249900D01*
X118250100Y-79150100D01*
X118250100Y-79150100D01*
G37*
G36*
X162250100Y-79150100D02*
G01*
X161049900Y-79150100D01*
X161049900Y-78249900D01*
X162250100Y-78249900D01*
X162250100Y-79150100D01*
X162250100Y-79150100D01*
G37*
G36*
X160050100Y-79150100D02*
G01*
X158849900Y-79150100D01*
X158849900Y-78249900D01*
X160050100Y-78249900D01*
X160050100Y-79150100D01*
X160050100Y-79150100D01*
G37*
G36*
X133750100Y-77775100D02*
G01*
X132549900Y-77775100D01*
X132549900Y-77024900D01*
X133750100Y-77024900D01*
X133750100Y-77775100D01*
X133750100Y-77775100D01*
G37*
G36*
X177750100Y-77775100D02*
G01*
X176549900Y-77775100D01*
X176549900Y-77024900D01*
X177750100Y-77024900D01*
X177750100Y-77775100D01*
X177750100Y-77775100D01*
G37*
G36*
X131850100Y-77775100D02*
G01*
X130649900Y-77775100D01*
X130649900Y-77024900D01*
X131850100Y-77024900D01*
X131850100Y-77775100D01*
X131850100Y-77775100D01*
G37*
G36*
X175850100Y-77775100D02*
G01*
X174649900Y-77775100D01*
X174649900Y-77024900D01*
X175850100Y-77024900D01*
X175850100Y-77775100D01*
X175850100Y-77775100D01*
G37*
G36*
X104800100Y-77700100D02*
G01*
X102599900Y-77700100D01*
X102599900Y-74899900D01*
X104800100Y-74899900D01*
X104800100Y-77700100D01*
X104800100Y-77700100D01*
G37*
G36*
X148800100Y-77700100D02*
G01*
X146599900Y-77700100D01*
X146599900Y-74899900D01*
X148800100Y-74899900D01*
X148800100Y-77700100D01*
X148800100Y-77700100D01*
G37*
G36*
X118100100Y-76575100D02*
G01*
X116899900Y-76575100D01*
X116899900Y-75824900D01*
X118100100Y-75824900D01*
X118100100Y-76575100D01*
X118100100Y-76575100D01*
G37*
G36*
X162100100Y-76575100D02*
G01*
X160899900Y-76575100D01*
X160899900Y-75824900D01*
X162100100Y-75824900D01*
X162100100Y-76575100D01*
X162100100Y-76575100D01*
G37*
G36*
X160200100Y-76575100D02*
G01*
X158999900Y-76575100D01*
X158999900Y-75824900D01*
X160200100Y-75824900D01*
X160200100Y-76575100D01*
X160200100Y-76575100D01*
G37*
G36*
X116200100Y-76575100D02*
G01*
X114999900Y-76575100D01*
X114999900Y-75824900D01*
X116200100Y-75824900D01*
X116200100Y-76575100D01*
X116200100Y-76575100D01*
G37*
G36*
X137775100Y-75350100D02*
G01*
X137024900Y-75350100D01*
X137024900Y-74149900D01*
X137775100Y-74149900D01*
X137775100Y-75350100D01*
X137775100Y-75350100D01*
G37*
G36*
X181775100Y-75350100D02*
G01*
X181024900Y-75350100D01*
X181024900Y-74149900D01*
X181775100Y-74149900D01*
X181775100Y-75350100D01*
X181775100Y-75350100D01*
G37*
G36*
X175900100Y-74850100D02*
G01*
X174699900Y-74850100D01*
X174699900Y-73949900D01*
X175900100Y-73949900D01*
X175900100Y-74850100D01*
X175900100Y-74850100D01*
G37*
G36*
X131900100Y-74850100D02*
G01*
X130699900Y-74850100D01*
X130699900Y-73949900D01*
X131900100Y-73949900D01*
X131900100Y-74850100D01*
X131900100Y-74850100D01*
G37*
G36*
X178100100Y-74850100D02*
G01*
X176899900Y-74850100D01*
X176899900Y-73949900D01*
X178100100Y-73949900D01*
X178100100Y-74850100D01*
X178100100Y-74850100D01*
G37*
G36*
X134100100Y-74850100D02*
G01*
X132899900Y-74850100D01*
X132899900Y-73949900D01*
X134100100Y-73949900D01*
X134100100Y-74850100D01*
X134100100Y-74850100D01*
G37*
G36*
X146750100Y-73850100D02*
G01*
X144549900Y-73850100D01*
X144549900Y-71049900D01*
X146750100Y-71049900D01*
X146750100Y-73850100D01*
X146750100Y-73850100D01*
G37*
G36*
X156450100Y-73850100D02*
G01*
X153649900Y-73850100D01*
X153649900Y-71049900D01*
X156450100Y-71049900D01*
X156450100Y-73850100D01*
X156450100Y-73850100D01*
G37*
G36*
X102750100Y-73850100D02*
G01*
X100549900Y-73850100D01*
X100549900Y-71049900D01*
X102750100Y-71049900D01*
X102750100Y-73850100D01*
X102750100Y-73850100D01*
G37*
G36*
X112450100Y-73850100D02*
G01*
X109649900Y-73850100D01*
X109649900Y-71049900D01*
X112450100Y-71049900D01*
X112450100Y-73850100D01*
X112450100Y-73850100D01*
G37*
G36*
X181775100Y-73450100D02*
G01*
X181024900Y-73450100D01*
X181024900Y-72249900D01*
X181775100Y-72249900D01*
X181775100Y-73450100D01*
X181775100Y-73450100D01*
G37*
G36*
X137775100Y-73450100D02*
G01*
X137024900Y-73450100D01*
X137024900Y-72249900D01*
X137775100Y-72249900D01*
X137775100Y-73450100D01*
X137775100Y-73450100D01*
G37*
G36*
X168125100Y-73335100D02*
G01*
X166674900Y-73335100D01*
X166674900Y-72734900D01*
X168125100Y-72734900D01*
X168125100Y-73335100D01*
X168125100Y-73335100D01*
G37*
G36*
X162125100Y-73335100D02*
G01*
X160674900Y-73335100D01*
X160674900Y-72734900D01*
X162125100Y-72734900D01*
X162125100Y-73335100D01*
X162125100Y-73335100D01*
G37*
G36*
X124125100Y-73335100D02*
G01*
X122674900Y-73335100D01*
X122674900Y-72734900D01*
X124125100Y-72734900D01*
X124125100Y-73335100D01*
X124125100Y-73335100D01*
G37*
G36*
X118125100Y-73335100D02*
G01*
X116674900Y-73335100D01*
X116674900Y-72734900D01*
X118125100Y-72734900D01*
X118125100Y-73335100D01*
X118125100Y-73335100D01*
G37*
G36*
X118125100Y-72065100D02*
G01*
X116674900Y-72065100D01*
X116674900Y-71464900D01*
X118125100Y-71464900D01*
X118125100Y-72065100D01*
X118125100Y-72065100D01*
G37*
G36*
X124125100Y-72065100D02*
G01*
X122674900Y-72065100D01*
X122674900Y-71464900D01*
X124125100Y-71464900D01*
X124125100Y-72065100D01*
X124125100Y-72065100D01*
G37*
G36*
X168125100Y-72065100D02*
G01*
X166674900Y-72065100D01*
X166674900Y-71464900D01*
X168125100Y-71464900D01*
X168125100Y-72065100D01*
X168125100Y-72065100D01*
G37*
G36*
X162125100Y-72065100D02*
G01*
X160674900Y-72065100D01*
X160674900Y-71464900D01*
X162125100Y-71464900D01*
X162125100Y-72065100D01*
X162125100Y-72065100D01*
G37*
G36*
X127200100Y-70325100D02*
G01*
X125999900Y-70325100D01*
X125999900Y-69574900D01*
X127200100Y-69574900D01*
X127200100Y-70325100D01*
X127200100Y-70325100D01*
G37*
G36*
X129100100Y-70325100D02*
G01*
X127899900Y-70325100D01*
X127899900Y-69574900D01*
X129100100Y-69574900D01*
X129100100Y-70325100D01*
X129100100Y-70325100D01*
G37*
G36*
X173100100Y-70325100D02*
G01*
X171899900Y-70325100D01*
X171899900Y-69574900D01*
X173100100Y-69574900D01*
X173100100Y-70325100D01*
X173100100Y-70325100D01*
G37*
G36*
X171200100Y-70325100D02*
G01*
X169999900Y-70325100D01*
X169999900Y-69574900D01*
X171200100Y-69574900D01*
X171200100Y-70325100D01*
X171200100Y-70325100D01*
G37*
G36*
X179725100Y-70200100D02*
G01*
X179474900Y-70200100D01*
X179474900Y-69519900D01*
X179725100Y-69519900D01*
X179725100Y-70200100D01*
X179725100Y-70200100D01*
G37*
G36*
X179325100Y-70200100D02*
G01*
X179074900Y-70200100D01*
X179074900Y-69519900D01*
X179325100Y-69519900D01*
X179325100Y-70200100D01*
X179325100Y-70200100D01*
G37*
G36*
X180925100Y-70200100D02*
G01*
X180674900Y-70200100D01*
X180674900Y-69519900D01*
X180925100Y-69519900D01*
X180925100Y-70200100D01*
X180925100Y-70200100D01*
G37*
G36*
X181325100Y-70200100D02*
G01*
X181074900Y-70200100D01*
X181074900Y-69519900D01*
X181325100Y-69519900D01*
X181325100Y-70200100D01*
X181325100Y-70200100D01*
G37*
G36*
X132925100Y-70200100D02*
G01*
X132674900Y-70200100D01*
X132674900Y-69519900D01*
X132925100Y-69519900D01*
X132925100Y-70200100D01*
X132925100Y-70200100D01*
G37*
G36*
X133325100Y-70200100D02*
G01*
X133074900Y-70200100D01*
X133074900Y-69519900D01*
X133325100Y-69519900D01*
X133325100Y-70200100D01*
X133325100Y-70200100D01*
G37*
G36*
X133725100Y-70200100D02*
G01*
X133474900Y-70200100D01*
X133474900Y-69519900D01*
X133725100Y-69519900D01*
X133725100Y-70200100D01*
X133725100Y-70200100D01*
G37*
G36*
X134125100Y-70200100D02*
G01*
X133874900Y-70200100D01*
X133874900Y-69519900D01*
X134125100Y-69519900D01*
X134125100Y-70200100D01*
X134125100Y-70200100D01*
G37*
G36*
X136925100Y-70200100D02*
G01*
X136674900Y-70200100D01*
X136674900Y-69519900D01*
X136925100Y-69519900D01*
X136925100Y-70200100D01*
X136925100Y-70200100D01*
G37*
G36*
X134525100Y-70200100D02*
G01*
X134274900Y-70200100D01*
X134274900Y-69519900D01*
X134525100Y-69519900D01*
X134525100Y-70200100D01*
X134525100Y-70200100D01*
G37*
G36*
X134925100Y-70200100D02*
G01*
X134674900Y-70200100D01*
X134674900Y-69519900D01*
X134925100Y-69519900D01*
X134925100Y-70200100D01*
X134925100Y-70200100D01*
G37*
G36*
X135325100Y-70200100D02*
G01*
X135074900Y-70200100D01*
X135074900Y-69519900D01*
X135325100Y-69519900D01*
X135325100Y-70200100D01*
X135325100Y-70200100D01*
G37*
G36*
X178125100Y-70200100D02*
G01*
X177874900Y-70200100D01*
X177874900Y-69519900D01*
X178125100Y-69519900D01*
X178125100Y-70200100D01*
X178125100Y-70200100D01*
G37*
G36*
X178525100Y-70200100D02*
G01*
X178274900Y-70200100D01*
X178274900Y-69519900D01*
X178525100Y-69519900D01*
X178525100Y-70200100D01*
X178525100Y-70200100D01*
G37*
G36*
X176925100Y-70200100D02*
G01*
X176674900Y-70200100D01*
X176674900Y-69519900D01*
X176925100Y-69519900D01*
X176925100Y-70200100D01*
X176925100Y-70200100D01*
G37*
G36*
X180525100Y-70200100D02*
G01*
X180274900Y-70200100D01*
X180274900Y-69519900D01*
X180525100Y-69519900D01*
X180525100Y-70200100D01*
X180525100Y-70200100D01*
G37*
G36*
X180125100Y-70200100D02*
G01*
X179874900Y-70200100D01*
X179874900Y-69519900D01*
X180125100Y-69519900D01*
X180125100Y-70200100D01*
X180125100Y-70200100D01*
G37*
G36*
X136125100Y-70200100D02*
G01*
X135874900Y-70200100D01*
X135874900Y-69519900D01*
X136125100Y-69519900D01*
X136125100Y-70200100D01*
X136125100Y-70200100D01*
G37*
G36*
X136525100Y-70200100D02*
G01*
X136274900Y-70200100D01*
X136274900Y-69519900D01*
X136525100Y-69519900D01*
X136525100Y-70200100D01*
X136525100Y-70200100D01*
G37*
G36*
X178925100Y-70200100D02*
G01*
X178674900Y-70200100D01*
X178674900Y-69519900D01*
X178925100Y-69519900D01*
X178925100Y-70200100D01*
X178925100Y-70200100D01*
G37*
G36*
X177325100Y-70200100D02*
G01*
X177074900Y-70200100D01*
X177074900Y-69519900D01*
X177325100Y-69519900D01*
X177325100Y-70200100D01*
X177325100Y-70200100D01*
G37*
G36*
X177725100Y-70200100D02*
G01*
X177474900Y-70200100D01*
X177474900Y-69519900D01*
X177725100Y-69519900D01*
X177725100Y-70200100D01*
X177725100Y-70200100D01*
G37*
G36*
X135725100Y-70200100D02*
G01*
X135474900Y-70200100D01*
X135474900Y-69519900D01*
X135725100Y-69519900D01*
X135725100Y-70200100D01*
X135725100Y-70200100D01*
G37*
G36*
X137325100Y-70200100D02*
G01*
X137074900Y-70200100D01*
X137074900Y-69519900D01*
X137325100Y-69519900D01*
X137325100Y-70200100D01*
X137325100Y-70200100D01*
G37*
G36*
X103070889Y-67692176D02*
G01*
X103150373Y-67725100D01*
X103271093Y-67775104D01*
X103451273Y-67895496D01*
X103604504Y-68048727D01*
X103724896Y-68228907D01*
X103724896Y-68228908D01*
X103807824Y-68429111D01*
X103850100Y-68641650D01*
X103850100Y-68858350D01*
X103807824Y-69070889D01*
X103752539Y-69204358D01*
X103724896Y-69271093D01*
X103604504Y-69451273D01*
X103451273Y-69604504D01*
X103271093Y-69724896D01*
X103204358Y-69752539D01*
X103070889Y-69807824D01*
X102858350Y-69850100D01*
X102641650Y-69850100D01*
X102429111Y-69807824D01*
X102295642Y-69752539D01*
X102228907Y-69724896D01*
X102048727Y-69604504D01*
X101895496Y-69451273D01*
X101775104Y-69271093D01*
X101747461Y-69204358D01*
X101692176Y-69070889D01*
X101649900Y-68858350D01*
X101649900Y-68641650D01*
X101692176Y-68429111D01*
X101775104Y-68228908D01*
X101775104Y-68228907D01*
X101895496Y-68048727D01*
X102048727Y-67895496D01*
X102228907Y-67775104D01*
X102349627Y-67725100D01*
X102429111Y-67692176D01*
X102641650Y-67649900D01*
X102858350Y-67649900D01*
X103070889Y-67692176D01*
X103070889Y-67692176D01*
G37*
G36*
X110070889Y-67692176D02*
G01*
X110150373Y-67725100D01*
X110271093Y-67775104D01*
X110451273Y-67895496D01*
X110604504Y-68048727D01*
X110724896Y-68228907D01*
X110724896Y-68228908D01*
X110807824Y-68429111D01*
X110850100Y-68641650D01*
X110850100Y-68858350D01*
X110807824Y-69070889D01*
X110752539Y-69204358D01*
X110724896Y-69271093D01*
X110604504Y-69451273D01*
X110451273Y-69604504D01*
X110271093Y-69724896D01*
X110204358Y-69752539D01*
X110070889Y-69807824D01*
X109858350Y-69850100D01*
X109641650Y-69850100D01*
X109429111Y-69807824D01*
X109295642Y-69752539D01*
X109228907Y-69724896D01*
X109048727Y-69604504D01*
X108895496Y-69451273D01*
X108775104Y-69271093D01*
X108747461Y-69204358D01*
X108692176Y-69070889D01*
X108649900Y-68858350D01*
X108649900Y-68641650D01*
X108692176Y-68429111D01*
X108775104Y-68228908D01*
X108775104Y-68228907D01*
X108895496Y-68048727D01*
X109048727Y-67895496D01*
X109228907Y-67775104D01*
X109349627Y-67725100D01*
X109429111Y-67692176D01*
X109641650Y-67649900D01*
X109858350Y-67649900D01*
X110070889Y-67692176D01*
X110070889Y-67692176D01*
G37*
G36*
X147070889Y-67692176D02*
G01*
X147150373Y-67725100D01*
X147271093Y-67775104D01*
X147451273Y-67895496D01*
X147604504Y-68048727D01*
X147724896Y-68228907D01*
X147724896Y-68228908D01*
X147807824Y-68429111D01*
X147850100Y-68641650D01*
X147850100Y-68858350D01*
X147807824Y-69070889D01*
X147752539Y-69204358D01*
X147724896Y-69271093D01*
X147604504Y-69451273D01*
X147451273Y-69604504D01*
X147271093Y-69724896D01*
X147204358Y-69752539D01*
X147070889Y-69807824D01*
X146858350Y-69850100D01*
X146641650Y-69850100D01*
X146429111Y-69807824D01*
X146295642Y-69752539D01*
X146228907Y-69724896D01*
X146048727Y-69604504D01*
X145895496Y-69451273D01*
X145775104Y-69271093D01*
X145747461Y-69204358D01*
X145692176Y-69070889D01*
X145649900Y-68858350D01*
X145649900Y-68641650D01*
X145692176Y-68429111D01*
X145775104Y-68228908D01*
X145775104Y-68228907D01*
X145895496Y-68048727D01*
X146048727Y-67895496D01*
X146228907Y-67775104D01*
X146349627Y-67725100D01*
X146429111Y-67692176D01*
X146641650Y-67649900D01*
X146858350Y-67649900D01*
X147070889Y-67692176D01*
X147070889Y-67692176D01*
G37*
G36*
X154070889Y-67692176D02*
G01*
X154150373Y-67725100D01*
X154271093Y-67775104D01*
X154451273Y-67895496D01*
X154604504Y-68048727D01*
X154724896Y-68228907D01*
X154724896Y-68228908D01*
X154807824Y-68429111D01*
X154850100Y-68641650D01*
X154850100Y-68858350D01*
X154807824Y-69070889D01*
X154752539Y-69204358D01*
X154724896Y-69271093D01*
X154604504Y-69451273D01*
X154451273Y-69604504D01*
X154271093Y-69724896D01*
X154204358Y-69752539D01*
X154070889Y-69807824D01*
X153858350Y-69850100D01*
X153641650Y-69850100D01*
X153429111Y-69807824D01*
X153295642Y-69752539D01*
X153228907Y-69724896D01*
X153048727Y-69604504D01*
X152895496Y-69451273D01*
X152775104Y-69271093D01*
X152747461Y-69204358D01*
X152692176Y-69070889D01*
X152649900Y-68858350D01*
X152649900Y-68641650D01*
X152692176Y-68429111D01*
X152775104Y-68228908D01*
X152775104Y-68228907D01*
X152895496Y-68048727D01*
X153048727Y-67895496D01*
X153228907Y-67775104D01*
X153349627Y-67725100D01*
X153429111Y-67692176D01*
X153641650Y-67649900D01*
X153858350Y-67649900D01*
X154070889Y-67692176D01*
X154070889Y-67692176D01*
G37*
G36*
X137330100Y-69330100D02*
G01*
X132669900Y-69330100D01*
X132669900Y-64669900D01*
X137330100Y-64669900D01*
X137330100Y-69330100D01*
X137330100Y-69330100D01*
G37*
G36*
X181330100Y-69330100D02*
G01*
X176669900Y-69330100D01*
X176669900Y-64669900D01*
X181330100Y-64669900D01*
X181330100Y-69330100D01*
X181330100Y-69330100D01*
G37*
G36*
X182200100Y-69325100D02*
G01*
X181519900Y-69325100D01*
X181519900Y-69074900D01*
X182200100Y-69074900D01*
X182200100Y-69325100D01*
X182200100Y-69325100D01*
G37*
G36*
X176480100Y-69325100D02*
G01*
X175799900Y-69325100D01*
X175799900Y-69074900D01*
X176480100Y-69074900D01*
X176480100Y-69325100D01*
X176480100Y-69325100D01*
G37*
G36*
X132480100Y-69325100D02*
G01*
X131799900Y-69325100D01*
X131799900Y-69074900D01*
X132480100Y-69074900D01*
X132480100Y-69325100D01*
X132480100Y-69325100D01*
G37*
G36*
X138200100Y-69325100D02*
G01*
X137519900Y-69325100D01*
X137519900Y-69074900D01*
X138200100Y-69074900D01*
X138200100Y-69325100D01*
X138200100Y-69325100D01*
G37*
G36*
X176480100Y-68925100D02*
G01*
X175799900Y-68925100D01*
X175799900Y-68674900D01*
X176480100Y-68674900D01*
X176480100Y-68925100D01*
X176480100Y-68925100D01*
G37*
G36*
X138200100Y-68925100D02*
G01*
X137519900Y-68925100D01*
X137519900Y-68674900D01*
X138200100Y-68674900D01*
X138200100Y-68925100D01*
X138200100Y-68925100D01*
G37*
G36*
X132480100Y-68925100D02*
G01*
X131799900Y-68925100D01*
X131799900Y-68674900D01*
X132480100Y-68674900D01*
X132480100Y-68925100D01*
X132480100Y-68925100D01*
G37*
G36*
X182200100Y-68925100D02*
G01*
X181519900Y-68925100D01*
X181519900Y-68674900D01*
X182200100Y-68674900D01*
X182200100Y-68925100D01*
X182200100Y-68925100D01*
G37*
G36*
X129000100Y-68650100D02*
G01*
X127799900Y-68650100D01*
X127799900Y-67449900D01*
X129000100Y-67449900D01*
X129000100Y-68650100D01*
X129000100Y-68650100D01*
G37*
G36*
X173000100Y-68650100D02*
G01*
X171799900Y-68650100D01*
X171799900Y-67449900D01*
X173000100Y-67449900D01*
X173000100Y-68650100D01*
X173000100Y-68650100D01*
G37*
G36*
X171300100Y-68650100D02*
G01*
X170099900Y-68650100D01*
X170099900Y-67449900D01*
X171300100Y-67449900D01*
X171300100Y-68650100D01*
X171300100Y-68650100D01*
G37*
G36*
X127300100Y-68650100D02*
G01*
X126099900Y-68650100D01*
X126099900Y-67449900D01*
X127300100Y-67449900D01*
X127300100Y-68650100D01*
X127300100Y-68650100D01*
G37*
G36*
X184775100Y-68550100D02*
G01*
X184024900Y-68550100D01*
X184024900Y-67349900D01*
X184775100Y-67349900D01*
X184775100Y-68550100D01*
X184775100Y-68550100D01*
G37*
G36*
X140775100Y-68550100D02*
G01*
X140024900Y-68550100D01*
X140024900Y-67349900D01*
X140775100Y-67349900D01*
X140775100Y-68550100D01*
X140775100Y-68550100D01*
G37*
G36*
X182200100Y-68525100D02*
G01*
X181519900Y-68525100D01*
X181519900Y-68274900D01*
X182200100Y-68274900D01*
X182200100Y-68525100D01*
X182200100Y-68525100D01*
G37*
G36*
X138200100Y-68525100D02*
G01*
X137519900Y-68525100D01*
X137519900Y-68274900D01*
X138200100Y-68274900D01*
X138200100Y-68525100D01*
X138200100Y-68525100D01*
G37*
G36*
X176480100Y-68525100D02*
G01*
X175799900Y-68525100D01*
X175799900Y-68274900D01*
X176480100Y-68274900D01*
X176480100Y-68525100D01*
X176480100Y-68525100D01*
G37*
G36*
X132480100Y-68525100D02*
G01*
X131799900Y-68525100D01*
X131799900Y-68274900D01*
X132480100Y-68274900D01*
X132480100Y-68525100D01*
X132480100Y-68525100D01*
G37*
G36*
X176480100Y-68125100D02*
G01*
X175799900Y-68125100D01*
X175799900Y-67874900D01*
X176480100Y-67874900D01*
X176480100Y-68125100D01*
X176480100Y-68125100D01*
G37*
G36*
X138200100Y-68125100D02*
G01*
X137519900Y-68125100D01*
X137519900Y-67874900D01*
X138200100Y-67874900D01*
X138200100Y-68125100D01*
X138200100Y-68125100D01*
G37*
G36*
X182200100Y-68125100D02*
G01*
X181519900Y-68125100D01*
X181519900Y-67874900D01*
X182200100Y-67874900D01*
X182200100Y-68125100D01*
X182200100Y-68125100D01*
G37*
G36*
X132480100Y-68125100D02*
G01*
X131799900Y-68125100D01*
X131799900Y-67874900D01*
X132480100Y-67874900D01*
X132480100Y-68125100D01*
X132480100Y-68125100D01*
G37*
G36*
X132480100Y-67725100D02*
G01*
X131799900Y-67725100D01*
X131799900Y-67474900D01*
X132480100Y-67474900D01*
X132480100Y-67725100D01*
X132480100Y-67725100D01*
G37*
G36*
X138200100Y-67725100D02*
G01*
X137519900Y-67725100D01*
X137519900Y-67474900D01*
X138200100Y-67474900D01*
X138200100Y-67725100D01*
X138200100Y-67725100D01*
G37*
G36*
X176480100Y-67725100D02*
G01*
X175799900Y-67725100D01*
X175799900Y-67474900D01*
X176480100Y-67474900D01*
X176480100Y-67725100D01*
X176480100Y-67725100D01*
G37*
G36*
X182200100Y-67725100D02*
G01*
X181519900Y-67725100D01*
X181519900Y-67474900D01*
X182200100Y-67474900D01*
X182200100Y-67725100D01*
X182200100Y-67725100D01*
G37*
G36*
X165050100Y-67450100D02*
G01*
X163949900Y-67450100D01*
X163949900Y-66349900D01*
X165050100Y-66349900D01*
X165050100Y-67450100D01*
X165050100Y-67450100D01*
G37*
G36*
X121050100Y-67450100D02*
G01*
X119949900Y-67450100D01*
X119949900Y-66349900D01*
X121050100Y-66349900D01*
X121050100Y-67450100D01*
X121050100Y-67450100D01*
G37*
G36*
X138200100Y-67325100D02*
G01*
X137519900Y-67325100D01*
X137519900Y-67074900D01*
X138200100Y-67074900D01*
X138200100Y-67325100D01*
X138200100Y-67325100D01*
G37*
G36*
X176480100Y-67325100D02*
G01*
X175799900Y-67325100D01*
X175799900Y-67074900D01*
X176480100Y-67074900D01*
X176480100Y-67325100D01*
X176480100Y-67325100D01*
G37*
G36*
X182200100Y-67325100D02*
G01*
X181519900Y-67325100D01*
X181519900Y-67074900D01*
X182200100Y-67074900D01*
X182200100Y-67325100D01*
X182200100Y-67325100D01*
G37*
G36*
X132480100Y-67325100D02*
G01*
X131799900Y-67325100D01*
X131799900Y-67074900D01*
X132480100Y-67074900D01*
X132480100Y-67325100D01*
X132480100Y-67325100D01*
G37*
G36*
X124050100Y-67100100D02*
G01*
X123149900Y-67100100D01*
X123149900Y-65899900D01*
X124050100Y-65899900D01*
X124050100Y-67100100D01*
X124050100Y-67100100D01*
G37*
G36*
X168050100Y-67100100D02*
G01*
X167149900Y-67100100D01*
X167149900Y-65899900D01*
X168050100Y-65899900D01*
X168050100Y-67100100D01*
X168050100Y-67100100D01*
G37*
G36*
X138200100Y-66925100D02*
G01*
X137519900Y-66925100D01*
X137519900Y-66674900D01*
X138200100Y-66674900D01*
X138200100Y-66925100D01*
X138200100Y-66925100D01*
G37*
G36*
X132480100Y-66925100D02*
G01*
X131799900Y-66925100D01*
X131799900Y-66674900D01*
X132480100Y-66674900D01*
X132480100Y-66925100D01*
X132480100Y-66925100D01*
G37*
G36*
X182200100Y-66925100D02*
G01*
X181519900Y-66925100D01*
X181519900Y-66674900D01*
X182200100Y-66674900D01*
X182200100Y-66925100D01*
X182200100Y-66925100D01*
G37*
G36*
X176480100Y-66925100D02*
G01*
X175799900Y-66925100D01*
X175799900Y-66674900D01*
X176480100Y-66674900D01*
X176480100Y-66925100D01*
X176480100Y-66925100D01*
G37*
G36*
X140775100Y-66650100D02*
G01*
X140024900Y-66650100D01*
X140024900Y-65449900D01*
X140775100Y-65449900D01*
X140775100Y-66650100D01*
X140775100Y-66650100D01*
G37*
G36*
X184775100Y-66650100D02*
G01*
X184024900Y-66650100D01*
X184024900Y-65449900D01*
X184775100Y-65449900D01*
X184775100Y-66650100D01*
X184775100Y-66650100D01*
G37*
G36*
X176480100Y-66525100D02*
G01*
X175799900Y-66525100D01*
X175799900Y-66274900D01*
X176480100Y-66274900D01*
X176480100Y-66525100D01*
X176480100Y-66525100D01*
G37*
G36*
X182200100Y-66525100D02*
G01*
X181519900Y-66525100D01*
X181519900Y-66274900D01*
X182200100Y-66274900D01*
X182200100Y-66525100D01*
X182200100Y-66525100D01*
G37*
G36*
X138200100Y-66525100D02*
G01*
X137519900Y-66525100D01*
X137519900Y-66274900D01*
X138200100Y-66274900D01*
X138200100Y-66525100D01*
X138200100Y-66525100D01*
G37*
G36*
X132480100Y-66525100D02*
G01*
X131799900Y-66525100D01*
X131799900Y-66274900D01*
X132480100Y-66274900D01*
X132480100Y-66525100D01*
X132480100Y-66525100D01*
G37*
G36*
X104750100Y-66450100D02*
G01*
X102549900Y-66450100D01*
X102549900Y-63649900D01*
X104750100Y-63649900D01*
X104750100Y-66450100D01*
X104750100Y-66450100D01*
G37*
G36*
X148750100Y-66450100D02*
G01*
X146549900Y-66450100D01*
X146549900Y-63649900D01*
X148750100Y-63649900D01*
X148750100Y-66450100D01*
X148750100Y-66450100D01*
G37*
G36*
X171300100Y-66450100D02*
G01*
X170099900Y-66450100D01*
X170099900Y-65249900D01*
X171300100Y-65249900D01*
X171300100Y-66450100D01*
X171300100Y-66450100D01*
G37*
G36*
X173000100Y-66450100D02*
G01*
X171799900Y-66450100D01*
X171799900Y-65249900D01*
X173000100Y-65249900D01*
X173000100Y-66450100D01*
X173000100Y-66450100D01*
G37*
G36*
X127300100Y-66450100D02*
G01*
X126099900Y-66450100D01*
X126099900Y-65249900D01*
X127300100Y-65249900D01*
X127300100Y-66450100D01*
X127300100Y-66450100D01*
G37*
G36*
X129000100Y-66450100D02*
G01*
X127799900Y-66450100D01*
X127799900Y-65249900D01*
X129000100Y-65249900D01*
X129000100Y-66450100D01*
X129000100Y-66450100D01*
G37*
G36*
X176480100Y-66125100D02*
G01*
X175799900Y-66125100D01*
X175799900Y-65874900D01*
X176480100Y-65874900D01*
X176480100Y-66125100D01*
X176480100Y-66125100D01*
G37*
G36*
X182200100Y-66125100D02*
G01*
X181519900Y-66125100D01*
X181519900Y-65874900D01*
X182200100Y-65874900D01*
X182200100Y-66125100D01*
X182200100Y-66125100D01*
G37*
G36*
X132480100Y-66125100D02*
G01*
X131799900Y-66125100D01*
X131799900Y-65874900D01*
X132480100Y-65874900D01*
X132480100Y-66125100D01*
X132480100Y-66125100D01*
G37*
G36*
X138200100Y-66125100D02*
G01*
X137519900Y-66125100D01*
X137519900Y-65874900D01*
X138200100Y-65874900D01*
X138200100Y-66125100D01*
X138200100Y-66125100D01*
G37*
G36*
X132480100Y-65725100D02*
G01*
X131799900Y-65725100D01*
X131799900Y-65474900D01*
X132480100Y-65474900D01*
X132480100Y-65725100D01*
X132480100Y-65725100D01*
G37*
G36*
X182200100Y-65725100D02*
G01*
X181519900Y-65725100D01*
X181519900Y-65474900D01*
X182200100Y-65474900D01*
X182200100Y-65725100D01*
X182200100Y-65725100D01*
G37*
G36*
X138200100Y-65725100D02*
G01*
X137519900Y-65725100D01*
X137519900Y-65474900D01*
X138200100Y-65474900D01*
X138200100Y-65725100D01*
X138200100Y-65725100D01*
G37*
G36*
X176480100Y-65725100D02*
G01*
X175799900Y-65725100D01*
X175799900Y-65474900D01*
X176480100Y-65474900D01*
X176480100Y-65725100D01*
X176480100Y-65725100D01*
G37*
G36*
X138200100Y-65325100D02*
G01*
X137519900Y-65325100D01*
X137519900Y-65074900D01*
X138200100Y-65074900D01*
X138200100Y-65325100D01*
X138200100Y-65325100D01*
G37*
G36*
X132480100Y-65325100D02*
G01*
X131799900Y-65325100D01*
X131799900Y-65074900D01*
X132480100Y-65074900D01*
X132480100Y-65325100D01*
X132480100Y-65325100D01*
G37*
G36*
X182200100Y-65325100D02*
G01*
X181519900Y-65325100D01*
X181519900Y-65074900D01*
X182200100Y-65074900D01*
X182200100Y-65325100D01*
X182200100Y-65325100D01*
G37*
G36*
X176480100Y-65325100D02*
G01*
X175799900Y-65325100D01*
X175799900Y-65074900D01*
X176480100Y-65074900D01*
X176480100Y-65325100D01*
X176480100Y-65325100D01*
G37*
G36*
X182200100Y-64925100D02*
G01*
X181519900Y-64925100D01*
X181519900Y-64674900D01*
X182200100Y-64674900D01*
X182200100Y-64925100D01*
X182200100Y-64925100D01*
G37*
G36*
X138200100Y-64925100D02*
G01*
X137519900Y-64925100D01*
X137519900Y-64674900D01*
X138200100Y-64674900D01*
X138200100Y-64925100D01*
X138200100Y-64925100D01*
G37*
G36*
X132480100Y-64925100D02*
G01*
X131799900Y-64925100D01*
X131799900Y-64674900D01*
X132480100Y-64674900D01*
X132480100Y-64925100D01*
X132480100Y-64925100D01*
G37*
G36*
X176480100Y-64925100D02*
G01*
X175799900Y-64925100D01*
X175799900Y-64674900D01*
X176480100Y-64674900D01*
X176480100Y-64925100D01*
X176480100Y-64925100D01*
G37*
G36*
X124050100Y-64900100D02*
G01*
X123149900Y-64900100D01*
X123149900Y-63699900D01*
X124050100Y-63699900D01*
X124050100Y-64900100D01*
X124050100Y-64900100D01*
G37*
G36*
X168050100Y-64900100D02*
G01*
X167149900Y-64900100D01*
X167149900Y-63699900D01*
X168050100Y-63699900D01*
X168050100Y-64900100D01*
X168050100Y-64900100D01*
G37*
G36*
X121050100Y-64650100D02*
G01*
X119949900Y-64650100D01*
X119949900Y-63549900D01*
X121050100Y-63549900D01*
X121050100Y-64650100D01*
X121050100Y-64650100D01*
G37*
G36*
X165050100Y-64650100D02*
G01*
X163949900Y-64650100D01*
X163949900Y-63549900D01*
X165050100Y-63549900D01*
X165050100Y-64650100D01*
X165050100Y-64650100D01*
G37*
G36*
X135725100Y-64480100D02*
G01*
X135474900Y-64480100D01*
X135474900Y-63799900D01*
X135725100Y-63799900D01*
X135725100Y-64480100D01*
X135725100Y-64480100D01*
G37*
G36*
X176925100Y-64480100D02*
G01*
X176674900Y-64480100D01*
X176674900Y-63799900D01*
X176925100Y-63799900D01*
X176925100Y-64480100D01*
X176925100Y-64480100D01*
G37*
G36*
X177325100Y-64480100D02*
G01*
X177074900Y-64480100D01*
X177074900Y-63799900D01*
X177325100Y-63799900D01*
X177325100Y-64480100D01*
X177325100Y-64480100D01*
G37*
G36*
X177725100Y-64480100D02*
G01*
X177474900Y-64480100D01*
X177474900Y-63799900D01*
X177725100Y-63799900D01*
X177725100Y-64480100D01*
X177725100Y-64480100D01*
G37*
G36*
X178525100Y-64480100D02*
G01*
X178274900Y-64480100D01*
X178274900Y-63799900D01*
X178525100Y-63799900D01*
X178525100Y-64480100D01*
X178525100Y-64480100D01*
G37*
G36*
X178925100Y-64480100D02*
G01*
X178674900Y-64480100D01*
X178674900Y-63799900D01*
X178925100Y-63799900D01*
X178925100Y-64480100D01*
X178925100Y-64480100D01*
G37*
G36*
X179325100Y-64480100D02*
G01*
X179074900Y-64480100D01*
X179074900Y-63799900D01*
X179325100Y-63799900D01*
X179325100Y-64480100D01*
X179325100Y-64480100D01*
G37*
G36*
X179725100Y-64480100D02*
G01*
X179474900Y-64480100D01*
X179474900Y-63799900D01*
X179725100Y-63799900D01*
X179725100Y-64480100D01*
X179725100Y-64480100D01*
G37*
G36*
X180125100Y-64480100D02*
G01*
X179874900Y-64480100D01*
X179874900Y-63799900D01*
X180125100Y-63799900D01*
X180125100Y-64480100D01*
X180125100Y-64480100D01*
G37*
G36*
X180525100Y-64480100D02*
G01*
X180274900Y-64480100D01*
X180274900Y-63799900D01*
X180525100Y-63799900D01*
X180525100Y-64480100D01*
X180525100Y-64480100D01*
G37*
G36*
X180925100Y-64480100D02*
G01*
X180674900Y-64480100D01*
X180674900Y-63799900D01*
X180925100Y-63799900D01*
X180925100Y-64480100D01*
X180925100Y-64480100D01*
G37*
G36*
X181325100Y-64480100D02*
G01*
X181074900Y-64480100D01*
X181074900Y-63799900D01*
X181325100Y-63799900D01*
X181325100Y-64480100D01*
X181325100Y-64480100D01*
G37*
G36*
X132925100Y-64480100D02*
G01*
X132674900Y-64480100D01*
X132674900Y-63799900D01*
X132925100Y-63799900D01*
X132925100Y-64480100D01*
X132925100Y-64480100D01*
G37*
G36*
X135325100Y-64480100D02*
G01*
X135074900Y-64480100D01*
X135074900Y-63799900D01*
X135325100Y-63799900D01*
X135325100Y-64480100D01*
X135325100Y-64480100D01*
G37*
G36*
X137325100Y-64480100D02*
G01*
X137074900Y-64480100D01*
X137074900Y-63799900D01*
X137325100Y-63799900D01*
X137325100Y-64480100D01*
X137325100Y-64480100D01*
G37*
G36*
X136925100Y-64480100D02*
G01*
X136674900Y-64480100D01*
X136674900Y-63799900D01*
X136925100Y-63799900D01*
X136925100Y-64480100D01*
X136925100Y-64480100D01*
G37*
G36*
X136525100Y-64480100D02*
G01*
X136274900Y-64480100D01*
X136274900Y-63799900D01*
X136525100Y-63799900D01*
X136525100Y-64480100D01*
X136525100Y-64480100D01*
G37*
G36*
X136125100Y-64480100D02*
G01*
X135874900Y-64480100D01*
X135874900Y-63799900D01*
X136125100Y-63799900D01*
X136125100Y-64480100D01*
X136125100Y-64480100D01*
G37*
G36*
X134925100Y-64480100D02*
G01*
X134674900Y-64480100D01*
X134674900Y-63799900D01*
X134925100Y-63799900D01*
X134925100Y-64480100D01*
X134925100Y-64480100D01*
G37*
G36*
X134525100Y-64480100D02*
G01*
X134274900Y-64480100D01*
X134274900Y-63799900D01*
X134525100Y-63799900D01*
X134525100Y-64480100D01*
X134525100Y-64480100D01*
G37*
G36*
X134125100Y-64480100D02*
G01*
X133874900Y-64480100D01*
X133874900Y-63799900D01*
X134125100Y-63799900D01*
X134125100Y-64480100D01*
X134125100Y-64480100D01*
G37*
G36*
X133725100Y-64480100D02*
G01*
X133474900Y-64480100D01*
X133474900Y-63799900D01*
X133725100Y-63799900D01*
X133725100Y-64480100D01*
X133725100Y-64480100D01*
G37*
G36*
X133325100Y-64480100D02*
G01*
X133074900Y-64480100D01*
X133074900Y-63799900D01*
X133325100Y-63799900D01*
X133325100Y-64480100D01*
X133325100Y-64480100D01*
G37*
G36*
X178125100Y-64480100D02*
G01*
X177874900Y-64480100D01*
X177874900Y-63799900D01*
X178125100Y-63799900D01*
X178125100Y-64480100D01*
X178125100Y-64480100D01*
G37*
G36*
X162200100Y-64450100D02*
G01*
X160999900Y-64450100D01*
X160999900Y-63549900D01*
X162200100Y-63549900D01*
X162200100Y-64450100D01*
X162200100Y-64450100D01*
G37*
G36*
X160000100Y-64450100D02*
G01*
X158799900Y-64450100D01*
X158799900Y-63549900D01*
X160000100Y-63549900D01*
X160000100Y-64450100D01*
X160000100Y-64450100D01*
G37*
G36*
X118200100Y-64450100D02*
G01*
X116999900Y-64450100D01*
X116999900Y-63549900D01*
X118200100Y-63549900D01*
X118200100Y-64450100D01*
X118200100Y-64450100D01*
G37*
G36*
X116000100Y-64450100D02*
G01*
X114799900Y-64450100D01*
X114799900Y-63549900D01*
X116000100Y-63549900D01*
X116000100Y-64450100D01*
X116000100Y-64450100D01*
G37*
G36*
X173000100Y-64325100D02*
G01*
X171799900Y-64325100D01*
X171799900Y-63574900D01*
X173000100Y-63574900D01*
X173000100Y-64325100D01*
X173000100Y-64325100D01*
G37*
G36*
X171100100Y-64325100D02*
G01*
X169899900Y-64325100D01*
X169899900Y-63574900D01*
X171100100Y-63574900D01*
X171100100Y-64325100D01*
X171100100Y-64325100D01*
G37*
G36*
X129000100Y-64325100D02*
G01*
X127799900Y-64325100D01*
X127799900Y-63574900D01*
X129000100Y-63574900D01*
X129000100Y-64325100D01*
X129000100Y-64325100D01*
G37*
G36*
X127100100Y-64325100D02*
G01*
X125899900Y-64325100D01*
X125899900Y-63574900D01*
X127100100Y-63574900D01*
X127100100Y-64325100D01*
X127100100Y-64325100D01*
G37*
G36*
X136150100Y-61775100D02*
G01*
X134949900Y-61775100D01*
X134949900Y-61024900D01*
X136150100Y-61024900D01*
X136150100Y-61775100D01*
X136150100Y-61775100D01*
G37*
G36*
X178250100Y-61775100D02*
G01*
X177049900Y-61775100D01*
X177049900Y-61024900D01*
X178250100Y-61024900D01*
X178250100Y-61775100D01*
X178250100Y-61775100D01*
G37*
G36*
X180150100Y-61775100D02*
G01*
X178949900Y-61775100D01*
X178949900Y-61024900D01*
X180150100Y-61024900D01*
X180150100Y-61775100D01*
X180150100Y-61775100D01*
G37*
G36*
X134250100Y-61775100D02*
G01*
X133049900Y-61775100D01*
X133049900Y-61024900D01*
X134250100Y-61024900D01*
X134250100Y-61775100D01*
X134250100Y-61775100D01*
G37*
G36*
X100291720Y-59638333D02*
G01*
X100413056Y-59688593D01*
X100473725Y-59713723D01*
X100637527Y-59823172D01*
X100776828Y-59962473D01*
X100886277Y-60126275D01*
X100886277Y-60126276D01*
X100961667Y-60308280D01*
X101000100Y-60501499D01*
X101000100Y-60698501D01*
X100961667Y-60891720D01*
X100911407Y-61013056D01*
X100886277Y-61073725D01*
X100776828Y-61237527D01*
X100637527Y-61376828D01*
X100473725Y-61486277D01*
X100413056Y-61511407D01*
X100291720Y-61561667D01*
X100098501Y-61600100D01*
X99901499Y-61600100D01*
X99708280Y-61561667D01*
X99586944Y-61511407D01*
X99526275Y-61486277D01*
X99362473Y-61376828D01*
X99223172Y-61237527D01*
X99113723Y-61073725D01*
X99088593Y-61013056D01*
X99038333Y-60891720D01*
X98999900Y-60698501D01*
X98999900Y-60501499D01*
X99038333Y-60308280D01*
X99113723Y-60126276D01*
X99113723Y-60126275D01*
X99223172Y-59962473D01*
X99362473Y-59823172D01*
X99526275Y-59713723D01*
X99586944Y-59688593D01*
X99708280Y-59638333D01*
X99901499Y-59599900D01*
X100098501Y-59599900D01*
X100291720Y-59638333D01*
X100291720Y-59638333D01*
G37*
G36*
X144291720Y-59638333D02*
G01*
X144413056Y-59688593D01*
X144473725Y-59713723D01*
X144637527Y-59823172D01*
X144776828Y-59962473D01*
X144886277Y-60126275D01*
X144886277Y-60126276D01*
X144961667Y-60308280D01*
X145000100Y-60501499D01*
X145000100Y-60698501D01*
X144961667Y-60891720D01*
X144911407Y-61013056D01*
X144886277Y-61073725D01*
X144776828Y-61237527D01*
X144637527Y-61376828D01*
X144473725Y-61486277D01*
X144413056Y-61511407D01*
X144291720Y-61561667D01*
X144098501Y-61600100D01*
X143901499Y-61600100D01*
X143708280Y-61561667D01*
X143586944Y-61511407D01*
X143526275Y-61486277D01*
X143362473Y-61376828D01*
X143223172Y-61237527D01*
X143113723Y-61073725D01*
X143088593Y-61013056D01*
X143038333Y-60891720D01*
X142999900Y-60698501D01*
X142999900Y-60501499D01*
X143038333Y-60308280D01*
X143113723Y-60126276D01*
X143113723Y-60126275D01*
X143223172Y-59962473D01*
X143362473Y-59823172D01*
X143526275Y-59713723D01*
X143586944Y-59688593D01*
X143708280Y-59638333D01*
X143901499Y-59599900D01*
X144098501Y-59599900D01*
X144291720Y-59638333D01*
X144291720Y-59638333D01*
G37*
G36*
X162700100Y-60650100D02*
G01*
X161499900Y-60650100D01*
X161499900Y-59749900D01*
X162700100Y-59749900D01*
X162700100Y-60650100D01*
X162700100Y-60650100D01*
G37*
G36*
X118700100Y-60650100D02*
G01*
X117499900Y-60650100D01*
X117499900Y-59749900D01*
X118700100Y-59749900D01*
X118700100Y-60650100D01*
X118700100Y-60650100D01*
G37*
G36*
X116500100Y-60650100D02*
G01*
X115299900Y-60650100D01*
X115299900Y-59749900D01*
X116500100Y-59749900D01*
X116500100Y-60650100D01*
X116500100Y-60650100D01*
G37*
G36*
X160500100Y-60650100D02*
G01*
X159299900Y-60650100D01*
X159299900Y-59749900D01*
X160500100Y-59749900D01*
X160500100Y-60650100D01*
X160500100Y-60650100D01*
G37*
G36*
X155850100Y-60575100D02*
G01*
X154649900Y-60575100D01*
X154649900Y-59824900D01*
X155850100Y-59824900D01*
X155850100Y-60575100D01*
X155850100Y-60575100D01*
G37*
G36*
X113750100Y-60575100D02*
G01*
X112549900Y-60575100D01*
X112549900Y-59824900D01*
X113750100Y-59824900D01*
X113750100Y-60575100D01*
X113750100Y-60575100D01*
G37*
G36*
X111850100Y-60575100D02*
G01*
X110649900Y-60575100D01*
X110649900Y-59824900D01*
X111850100Y-59824900D01*
X111850100Y-60575100D01*
X111850100Y-60575100D01*
G37*
G36*
X157750100Y-60575100D02*
G01*
X156549900Y-60575100D01*
X156549900Y-59824900D01*
X157750100Y-59824900D01*
X157750100Y-60575100D01*
X157750100Y-60575100D01*
G37*
G36*
X176900100Y-60200100D02*
G01*
X175699900Y-60200100D01*
X175699900Y-59299900D01*
X176900100Y-59299900D01*
X176900100Y-60200100D01*
X176900100Y-60200100D01*
G37*
G36*
X132900100Y-60200100D02*
G01*
X131699900Y-60200100D01*
X131699900Y-59299900D01*
X132900100Y-59299900D01*
X132900100Y-60200100D01*
X132900100Y-60200100D01*
G37*
G36*
X135100100Y-60200100D02*
G01*
X133899900Y-60200100D01*
X133899900Y-59299900D01*
X135100100Y-59299900D01*
X135100100Y-60200100D01*
X135100100Y-60200100D01*
G37*
G36*
X179100100Y-60200100D02*
G01*
X177899900Y-60200100D01*
X177899900Y-59299900D01*
X179100100Y-59299900D01*
X179100100Y-60200100D01*
X179100100Y-60200100D01*
G37*
G36*
X107000100Y-58700100D02*
G01*
X104139900Y-58700100D01*
X104139900Y-57499900D01*
X107000100Y-57499900D01*
X107000100Y-58700100D01*
X107000100Y-58700100D01*
G37*
G36*
X151000100Y-58700100D02*
G01*
X148139900Y-58700100D01*
X148139900Y-57499900D01*
X151000100Y-57499900D01*
X151000100Y-58700100D01*
X151000100Y-58700100D01*
G37*
G36*
X157300100Y-58200100D02*
G01*
X156699900Y-58200100D01*
X156699900Y-57199900D01*
X157300100Y-57199900D01*
X157300100Y-58200100D01*
X157300100Y-58200100D01*
G37*
G36*
X113300100Y-58200100D02*
G01*
X112699900Y-58200100D01*
X112699900Y-57199900D01*
X113300100Y-57199900D01*
X113300100Y-58200100D01*
X113300100Y-58200100D01*
G37*
G36*
X156450100Y-58200100D02*
G01*
X155649900Y-58200100D01*
X155649900Y-57199900D01*
X156450100Y-57199900D01*
X156450100Y-58200100D01*
X156450100Y-58200100D01*
G37*
G36*
X114350100Y-58200100D02*
G01*
X113549900Y-58200100D01*
X113549900Y-57199900D01*
X114350100Y-57199900D01*
X114350100Y-58200100D01*
X114350100Y-58200100D01*
G37*
G36*
X112450100Y-58200100D02*
G01*
X111649900Y-58200100D01*
X111649900Y-57199900D01*
X112450100Y-57199900D01*
X112450100Y-58200100D01*
X112450100Y-58200100D01*
G37*
G36*
X158350100Y-58200100D02*
G01*
X157549900Y-58200100D01*
X157549900Y-57199900D01*
X158350100Y-57199900D01*
X158350100Y-58200100D01*
X158350100Y-58200100D01*
G37*
G36*
X110125100Y-58050100D02*
G01*
X109374900Y-58050100D01*
X109374900Y-56849900D01*
X110125100Y-56849900D01*
X110125100Y-58050100D01*
X110125100Y-58050100D01*
G37*
G36*
X154125100Y-58050100D02*
G01*
X153374900Y-58050100D01*
X153374900Y-56849900D01*
X154125100Y-56849900D01*
X154125100Y-58050100D01*
X154125100Y-58050100D01*
G37*
G36*
X162600100Y-58000100D02*
G01*
X161699900Y-58000100D01*
X161699900Y-56799900D01*
X162600100Y-56799900D01*
X162600100Y-58000100D01*
X162600100Y-58000100D01*
G37*
G36*
X118600100Y-58000100D02*
G01*
X117699900Y-58000100D01*
X117699900Y-56799900D01*
X118600100Y-56799900D01*
X118600100Y-58000100D01*
X118600100Y-58000100D01*
G37*
G36*
X116525100Y-57850100D02*
G01*
X115774900Y-57850100D01*
X115774900Y-56649900D01*
X116525100Y-56649900D01*
X116525100Y-57850100D01*
X116525100Y-57850100D01*
G37*
G36*
X160525100Y-57850100D02*
G01*
X159774900Y-57850100D01*
X159774900Y-56649900D01*
X160525100Y-56649900D01*
X160525100Y-57850100D01*
X160525100Y-57850100D01*
G37*
G36*
X132300100Y-57800100D02*
G01*
X131199900Y-57800100D01*
X131199900Y-56699900D01*
X132300100Y-56699900D01*
X132300100Y-57800100D01*
X132300100Y-57800100D01*
G37*
G36*
X179100100Y-57800100D02*
G01*
X177999900Y-57800100D01*
X177999900Y-56699900D01*
X179100100Y-56699900D01*
X179100100Y-57800100D01*
X179100100Y-57800100D01*
G37*
G36*
X176300100Y-57800100D02*
G01*
X175199900Y-57800100D01*
X175199900Y-56699900D01*
X176300100Y-56699900D01*
X176300100Y-57800100D01*
X176300100Y-57800100D01*
G37*
G36*
X135100100Y-57800100D02*
G01*
X133999900Y-57800100D01*
X133999900Y-56699900D01*
X135100100Y-56699900D01*
X135100100Y-57800100D01*
X135100100Y-57800100D01*
G37*
G36*
X128450100Y-57575100D02*
G01*
X127249900Y-57575100D01*
X127249900Y-56824900D01*
X128450100Y-56824900D01*
X128450100Y-57575100D01*
X128450100Y-57575100D01*
G37*
G36*
X130350100Y-57575100D02*
G01*
X129149900Y-57575100D01*
X129149900Y-56824900D01*
X130350100Y-56824900D01*
X130350100Y-57575100D01*
X130350100Y-57575100D01*
G37*
G36*
X174350100Y-57575100D02*
G01*
X173149900Y-57575100D01*
X173149900Y-56824900D01*
X174350100Y-56824900D01*
X174350100Y-57575100D01*
X174350100Y-57575100D01*
G37*
G36*
X172450100Y-57575100D02*
G01*
X171249900Y-57575100D01*
X171249900Y-56824900D01*
X172450100Y-56824900D01*
X172450100Y-57575100D01*
X172450100Y-57575100D01*
G37*
G36*
X151000100Y-56300100D02*
G01*
X148139900Y-56300100D01*
X148139900Y-55099900D01*
X151000100Y-55099900D01*
X151000100Y-56300100D01*
X151000100Y-56300100D01*
G37*
G36*
X107000100Y-56300100D02*
G01*
X104139900Y-56300100D01*
X104139900Y-55099900D01*
X107000100Y-55099900D01*
X107000100Y-56300100D01*
X107000100Y-56300100D01*
G37*
G36*
X154125100Y-56150100D02*
G01*
X153374900Y-56150100D01*
X153374900Y-54949900D01*
X154125100Y-54949900D01*
X154125100Y-56150100D01*
X154125100Y-56150100D01*
G37*
G36*
X110125100Y-56150100D02*
G01*
X109374900Y-56150100D01*
X109374900Y-54949900D01*
X110125100Y-54949900D01*
X110125100Y-56150100D01*
X110125100Y-56150100D01*
G37*
G36*
X160525100Y-55950100D02*
G01*
X159774900Y-55950100D01*
X159774900Y-54749900D01*
X160525100Y-54749900D01*
X160525100Y-55950100D01*
X160525100Y-55950100D01*
G37*
G36*
X116525100Y-55950100D02*
G01*
X115774900Y-55950100D01*
X115774900Y-54749900D01*
X116525100Y-54749900D01*
X116525100Y-55950100D01*
X116525100Y-55950100D01*
G37*
G36*
X162600100Y-55800100D02*
G01*
X161699900Y-55800100D01*
X161699900Y-54599900D01*
X162600100Y-54599900D01*
X162600100Y-55800100D01*
X162600100Y-55800100D01*
G37*
G36*
X156450100Y-55800100D02*
G01*
X155649900Y-55800100D01*
X155649900Y-54799900D01*
X156450100Y-54799900D01*
X156450100Y-55800100D01*
X156450100Y-55800100D01*
G37*
G36*
X158350100Y-55800100D02*
G01*
X157549900Y-55800100D01*
X157549900Y-54799900D01*
X158350100Y-54799900D01*
X158350100Y-55800100D01*
X158350100Y-55800100D01*
G37*
G36*
X118600100Y-55800100D02*
G01*
X117699900Y-55800100D01*
X117699900Y-54599900D01*
X118600100Y-54599900D01*
X118600100Y-55800100D01*
X118600100Y-55800100D01*
G37*
G36*
X112450100Y-55800100D02*
G01*
X111649900Y-55800100D01*
X111649900Y-54799900D01*
X112450100Y-54799900D01*
X112450100Y-55800100D01*
X112450100Y-55800100D01*
G37*
G36*
X114350100Y-55800100D02*
G01*
X113549900Y-55800100D01*
X113549900Y-54799900D01*
X114350100Y-54799900D01*
X114350100Y-55800100D01*
X114350100Y-55800100D01*
G37*
G36*
X139966733Y-51961391D02*
G01*
X140257931Y-52082010D01*
X140520004Y-52257121D01*
X140742879Y-52479996D01*
X140907437Y-52726275D01*
X140917990Y-52742069D01*
X141038609Y-53033267D01*
X141100100Y-53342404D01*
X141100100Y-53657596D01*
X141038609Y-53966733D01*
X140917990Y-54257931D01*
X140742879Y-54520004D01*
X140520004Y-54742879D01*
X140257931Y-54917990D01*
X139966733Y-55038609D01*
X139657596Y-55100100D01*
X139342404Y-55100100D01*
X139033267Y-55038609D01*
X138742069Y-54917990D01*
X138479996Y-54742879D01*
X138257121Y-54520004D01*
X138082010Y-54257931D01*
X137961391Y-53966733D01*
X137899900Y-53657596D01*
X137899900Y-53342404D01*
X137961391Y-53033267D01*
X138082010Y-52742069D01*
X138092563Y-52726275D01*
X138257121Y-52479996D01*
X138479996Y-52257121D01*
X138742069Y-52082010D01*
X139033267Y-51961391D01*
X139342404Y-51899900D01*
X139657596Y-51899900D01*
X139966733Y-51961391D01*
X139966733Y-51961391D01*
G37*
G36*
X125966733Y-51961391D02*
G01*
X126257931Y-52082010D01*
X126520004Y-52257121D01*
X126742879Y-52479996D01*
X126907437Y-52726275D01*
X126917990Y-52742069D01*
X127038609Y-53033267D01*
X127100100Y-53342404D01*
X127100100Y-53657596D01*
X127038609Y-53966733D01*
X126917990Y-54257931D01*
X126742879Y-54520004D01*
X126520004Y-54742879D01*
X126257931Y-54917990D01*
X125966733Y-55038609D01*
X125657596Y-55100100D01*
X125342404Y-55100100D01*
X125033267Y-55038609D01*
X124742069Y-54917990D01*
X124479996Y-54742879D01*
X124257121Y-54520004D01*
X124082010Y-54257931D01*
X123961391Y-53966733D01*
X123899900Y-53657596D01*
X123899900Y-53342404D01*
X123961391Y-53033267D01*
X124082010Y-52742069D01*
X124092563Y-52726275D01*
X124257121Y-52479996D01*
X124479996Y-52257121D01*
X124742069Y-52082010D01*
X125033267Y-51961391D01*
X125342404Y-51899900D01*
X125657596Y-51899900D01*
X125966733Y-51961391D01*
X125966733Y-51961391D01*
G37*
G36*
X183966733Y-51961391D02*
G01*
X184257931Y-52082010D01*
X184520004Y-52257121D01*
X184742879Y-52479996D01*
X184907437Y-52726275D01*
X184917990Y-52742069D01*
X185038609Y-53033267D01*
X185100100Y-53342404D01*
X185100100Y-53657596D01*
X185038609Y-53966733D01*
X184917990Y-54257931D01*
X184742879Y-54520004D01*
X184520004Y-54742879D01*
X184257931Y-54917990D01*
X183966733Y-55038609D01*
X183657596Y-55100100D01*
X183342404Y-55100100D01*
X183033267Y-55038609D01*
X182742069Y-54917990D01*
X182479996Y-54742879D01*
X182257121Y-54520004D01*
X182082010Y-54257931D01*
X181961391Y-53966733D01*
X181899900Y-53657596D01*
X181899900Y-53342404D01*
X181961391Y-53033267D01*
X182082010Y-52742069D01*
X182092563Y-52726275D01*
X182257121Y-52479996D01*
X182479996Y-52257121D01*
X182742069Y-52082010D01*
X183033267Y-51961391D01*
X183342404Y-51899900D01*
X183657596Y-51899900D01*
X183966733Y-51961391D01*
X183966733Y-51961391D01*
G37*
G36*
X169966733Y-51961391D02*
G01*
X170257931Y-52082010D01*
X170520004Y-52257121D01*
X170742879Y-52479996D01*
X170907437Y-52726275D01*
X170917990Y-52742069D01*
X171038609Y-53033267D01*
X171100100Y-53342404D01*
X171100100Y-53657596D01*
X171038609Y-53966733D01*
X170917990Y-54257931D01*
X170742879Y-54520004D01*
X170520004Y-54742879D01*
X170257931Y-54917990D01*
X169966733Y-55038609D01*
X169657596Y-55100100D01*
X169342404Y-55100100D01*
X169033267Y-55038609D01*
X168742069Y-54917990D01*
X168479996Y-54742879D01*
X168257121Y-54520004D01*
X168082010Y-54257931D01*
X167961391Y-53966733D01*
X167899900Y-53657596D01*
X167899900Y-53342404D01*
X167961391Y-53033267D01*
X168082010Y-52742069D01*
X168092563Y-52726275D01*
X168257121Y-52479996D01*
X168479996Y-52257121D01*
X168742069Y-52082010D01*
X169033267Y-51961391D01*
X169342404Y-51899900D01*
X169657596Y-51899900D01*
X169966733Y-51961391D01*
X169966733Y-51961391D01*
G37*
G36*
X100291720Y-52238333D02*
G01*
X100413056Y-52288593D01*
X100473725Y-52313723D01*
X100637527Y-52423172D01*
X100776828Y-52562473D01*
X100886277Y-52726275D01*
X100886277Y-52726276D01*
X100961667Y-52908280D01*
X101000100Y-53101499D01*
X101000100Y-53298501D01*
X100961667Y-53491720D01*
X100911407Y-53613056D01*
X100886277Y-53673725D01*
X100776828Y-53837527D01*
X100637527Y-53976828D01*
X100473725Y-54086277D01*
X100413056Y-54111407D01*
X100291720Y-54161667D01*
X100098501Y-54200100D01*
X99901499Y-54200100D01*
X99708280Y-54161667D01*
X99586944Y-54111407D01*
X99526275Y-54086277D01*
X99362473Y-53976828D01*
X99223172Y-53837527D01*
X99113723Y-53673725D01*
X99088593Y-53613056D01*
X99038333Y-53491720D01*
X98999900Y-53298501D01*
X98999900Y-53101499D01*
X99038333Y-52908280D01*
X99113723Y-52726276D01*
X99113723Y-52726275D01*
X99223172Y-52562473D01*
X99362473Y-52423172D01*
X99526275Y-52313723D01*
X99586944Y-52288593D01*
X99708280Y-52238333D01*
X99901499Y-52199900D01*
X100098501Y-52199900D01*
X100291720Y-52238333D01*
X100291720Y-52238333D01*
G37*
G36*
X144291720Y-52238333D02*
G01*
X144413056Y-52288593D01*
X144473725Y-52313723D01*
X144637527Y-52423172D01*
X144776828Y-52562473D01*
X144886277Y-52726275D01*
X144886277Y-52726276D01*
X144961667Y-52908280D01*
X145000100Y-53101499D01*
X145000100Y-53298501D01*
X144961667Y-53491720D01*
X144911407Y-53613056D01*
X144886277Y-53673725D01*
X144776828Y-53837527D01*
X144637527Y-53976828D01*
X144473725Y-54086277D01*
X144413056Y-54111407D01*
X144291720Y-54161667D01*
X144098501Y-54200100D01*
X143901499Y-54200100D01*
X143708280Y-54161667D01*
X143586944Y-54111407D01*
X143526275Y-54086277D01*
X143362473Y-53976828D01*
X143223172Y-53837527D01*
X143113723Y-53673725D01*
X143088593Y-53613056D01*
X143038333Y-53491720D01*
X142999900Y-53298501D01*
X142999900Y-53101499D01*
X143038333Y-52908280D01*
X143113723Y-52726276D01*
X143113723Y-52726275D01*
X143223172Y-52562473D01*
X143362473Y-52423172D01*
X143526275Y-52313723D01*
X143586944Y-52288593D01*
X143708280Y-52238333D01*
X143901499Y-52199900D01*
X144098501Y-52199900D01*
X144291720Y-52238333D01*
X144291720Y-52238333D01*
G37*
G36*
X154100100Y-53250100D02*
G01*
X152899900Y-53250100D01*
X152899900Y-52349900D01*
X154100100Y-52349900D01*
X154100100Y-53250100D01*
X154100100Y-53250100D01*
G37*
G36*
X156300100Y-53250100D02*
G01*
X155099900Y-53250100D01*
X155099900Y-52349900D01*
X156300100Y-52349900D01*
X156300100Y-53250100D01*
X156300100Y-53250100D01*
G37*
G36*
X110100100Y-53250100D02*
G01*
X108899900Y-53250100D01*
X108899900Y-52349900D01*
X110100100Y-52349900D01*
X110100100Y-53250100D01*
X110100100Y-53250100D01*
G37*
G36*
X112300100Y-53250100D02*
G01*
X111099900Y-53250100D01*
X111099900Y-52349900D01*
X112300100Y-52349900D01*
X112300100Y-53250100D01*
X112300100Y-53250100D01*
G37*
M02*
