M48
; DRILL file {KiCad 5.1.5} date 2020年02月06日 11時23分39秒
; FORMAT={-:-/ absolute / metric / decimal}
; #@! TF.CreationDate,2020-02-06T11:23:39+09:00
; #@! TF.GenerationSoftware,Kicad,Pcbnew,5.1.5
; #@! TF.FileFunction,NonPlated,1,2,NPTH
FMAT,2
METRIC
T1C1.700
T2C3.200
%
G90
G05
T1
X73.8Y-116.0
X117.8Y-116.0
X124.8Y-116.0
X117.75Y-104.75
X124.75Y-104.75
X117.8Y-81.0
X124.8Y-81.0
X73.8Y-81.0
X80.8Y-81.0
X117.75Y-69.75
X124.75Y-69.75
X80.8Y-116.0
X73.75Y-69.75
X80.75Y-69.75
X73.75Y-104.75
X80.75Y-104.75
T2
X96.5Y-119.5
X96.5Y-54.5
X154.5Y-119.5
X96.5Y-89.5
X140.5Y-84.5
X154.5Y-84.5
X110.5Y-84.5
X140.5Y-54.5
X140.5Y-119.5
X110.5Y-89.5
X140.5Y-89.5
X154.5Y-54.5
X154.5Y-89.5
X110.5Y-119.5
X110.5Y-54.5
X96.5Y-84.5
T0
M30
