M48
; DRILL file {KiCad 5.1.5} date 2020年02月06日 11時23分39秒
; FORMAT={-:-/ absolute / metric / decimal}
; #@! TF.CreationDate,2020-02-06T11:23:39+09:00
; #@! TF.GenerationSoftware,Kicad,Pcbnew,5.1.5
; #@! TF.FileFunction,Plated,1,2,PTH
FMAT,2
METRIC
T1C0.300
T2C0.400
T3C1.400
%
G90
G05
T1
X96.2Y-68.4
X96.2Y-103.4
X98.2Y-68.0
X98.2Y-103.0
X99.8Y-68.0
X99.8Y-103.0
X102.0Y-71.6
X102.0Y-72.2
X102.0Y-72.8
X102.0Y-73.4
X102.0Y-106.6
X102.0Y-107.2
X102.0Y-107.8
X102.0Y-108.4
X103.0Y-71.6
X103.0Y-72.2
X103.0Y-72.8
X103.0Y-73.4
X103.0Y-106.6
X103.0Y-107.2
X103.0Y-107.8
X103.0Y-108.4
X104.6Y-63.4
X104.6Y-64.4
X104.6Y-98.4
X104.6Y-99.4
X106.8Y-72.0
X106.8Y-107.0
X107.837Y-72.0
X107.837Y-107.0
X140.2Y-68.4
X140.2Y-103.4
X142.2Y-68.0
X142.2Y-103.0
X143.8Y-68.0
X143.8Y-103.0
X146.0Y-71.6
X146.0Y-72.2
X146.0Y-72.8
X146.0Y-73.4
X146.0Y-106.6
X146.0Y-107.2
X146.0Y-107.8
X146.0Y-108.4
X147.0Y-71.6
X147.0Y-72.2
X147.0Y-72.8
X147.0Y-73.4
X147.0Y-106.6
X147.0Y-107.2
X147.0Y-107.8
X147.0Y-108.4
X148.6Y-63.4
X148.6Y-64.4
X148.6Y-98.4
X148.6Y-99.4
X150.8Y-72.0
X150.8Y-107.0
X151.837Y-72.0
X151.837Y-107.0
T2
X74.8Y-84.6
X74.8Y-119.6
X83.2Y-77.2
X83.2Y-112.2
X84.4Y-82.6
X84.4Y-117.6
X87.5Y-63.0
X87.5Y-68.0
X87.5Y-98.0
X87.5Y-103.0
X91.0Y-56.0
X91.0Y-91.0
X92.0Y-56.0
X92.0Y-91.0
X93.0Y-56.0
X93.0Y-91.0
X94.0Y-56.0
X94.0Y-91.0
X94.6Y-63.2
X94.6Y-98.2
X95.0Y-80.6
X95.0Y-115.6
X98.0Y-72.8
X98.0Y-107.8
X98.8Y-75.0
X98.8Y-110.0
X100.4Y-73.4
X100.4Y-108.4
X101.4Y-68.4
X101.4Y-103.4
X105.4Y-73.4
X105.4Y-108.4
X105.6Y-55.6
X105.6Y-90.6
X106.8Y-63.8
X106.8Y-98.8
X107.2Y-72.8
X107.2Y-107.8
X109.2Y-72.2
X109.2Y-107.2
X110.2Y-69.0
X110.2Y-104.0
X111.0Y-67.0
X111.0Y-102.0
X111.5Y-59.75
X111.5Y-94.75
X118.8Y-84.6
X118.8Y-119.6
X127.2Y-77.2
X127.2Y-112.2
X128.4Y-82.6
X128.4Y-117.6
X131.5Y-63.0
X131.5Y-68.0
X131.5Y-98.0
X131.5Y-103.0
X135.0Y-56.0
X135.0Y-91.0
X136.0Y-56.0
X136.0Y-91.0
X137.0Y-56.0
X137.0Y-91.0
X138.0Y-56.0
X138.0Y-91.0
X138.6Y-63.2
X138.6Y-98.2
X139.0Y-80.6
X139.0Y-115.6
X142.0Y-72.8
X142.0Y-107.8
X142.8Y-75.0
X142.8Y-110.0
X144.4Y-73.4
X144.4Y-108.4
X145.4Y-68.4
X145.4Y-103.4
X149.4Y-73.4
X149.4Y-108.4
X149.6Y-55.6
X149.6Y-90.6
X150.8Y-63.8
X150.8Y-98.8
X151.2Y-72.8
X151.2Y-107.8
X153.2Y-72.2
X153.2Y-107.2
X154.2Y-69.0
X154.2Y-104.0
X155.0Y-67.0
X155.0Y-102.0
X155.5Y-59.75
X155.5Y-94.75
T3
X71.0Y-89.2
X71.0Y-96.6
X71.0Y-54.2
X71.0Y-61.6
X115.0Y-54.2
X115.0Y-61.6
X115.0Y-89.2
X115.0Y-96.6
T0
M30
