G04 #@! TF.GenerationSoftware,KiCad,Pcbnew,5.1.5*
G04 #@! TF.CreationDate,2020-02-06T11:23:30+09:00*
G04 #@! TF.ProjectId,MIDI-Guy_menduke,4d494449-2d47-4757-995f-6d656e64756b,rev?*
G04 #@! TF.SameCoordinates,Original*
G04 #@! TF.FileFunction,Legend,Top*
G04 #@! TF.FilePolarity,Positive*
%FSLAX46Y46*%
G04 Gerber Fmt 4.6, Leading zero omitted, Abs format (unit mm)*
G04 Created by KiCad (PCBNEW 5.1.5) date 2020-02-06 11:23:30*
%MOMM*%
%LPD*%
G04 APERTURE LIST*
%ADD10C,0.150000*%
%ADD11C,0.120000*%
%ADD12C,0.250000*%
%ADD13C,0.127000*%
%ADD14C,0.200000*%
%ADD15C,0.100000*%
%ADD16C,0.050000*%
G04 APERTURE END LIST*
D10*
X113850000Y-89240000D02*
X122000000Y-89240000D01*
X113850000Y-96550000D02*
X113850000Y-89240000D01*
X122000000Y-96550000D02*
X113850000Y-96550000D01*
X122000000Y-92900000D02*
X122000000Y-96550000D01*
X122000000Y-92900000D02*
X122000000Y-89250000D01*
X69850000Y-89240000D02*
X78000000Y-89240000D01*
X69850000Y-96550000D02*
X69850000Y-89240000D01*
X78000000Y-96550000D02*
X69850000Y-96550000D01*
X78000000Y-92900000D02*
X78000000Y-96550000D01*
X78000000Y-92900000D02*
X78000000Y-89250000D01*
X113850000Y-54240000D02*
X122000000Y-54240000D01*
X113850000Y-61550000D02*
X113850000Y-54240000D01*
X122000000Y-61550000D02*
X113850000Y-61550000D01*
X122000000Y-57900000D02*
X122000000Y-61550000D01*
X122000000Y-57900000D02*
X122000000Y-54250000D01*
X126400000Y-91600000D02*
X126400000Y-91900000D01*
X126600000Y-91600000D02*
X126400000Y-91600000D01*
X126600000Y-93400000D02*
X126400000Y-93200000D01*
X129600000Y-93400000D02*
X129600000Y-93100000D01*
X129400000Y-93400000D02*
X129600000Y-93400000D01*
X129600000Y-91600000D02*
X129600000Y-91900000D01*
X129400000Y-91600000D02*
X129600000Y-91600000D01*
X82400000Y-91600000D02*
X82400000Y-91900000D01*
X82600000Y-91600000D02*
X82400000Y-91600000D01*
X82600000Y-93400000D02*
X82400000Y-93200000D01*
X85600000Y-93400000D02*
X85600000Y-93100000D01*
X85400000Y-93400000D02*
X85600000Y-93400000D01*
X85600000Y-91600000D02*
X85600000Y-91900000D01*
X85400000Y-91600000D02*
X85600000Y-91600000D01*
X126400000Y-56600000D02*
X126400000Y-56900000D01*
X126600000Y-56600000D02*
X126400000Y-56600000D01*
X126600000Y-58400000D02*
X126400000Y-58200000D01*
X129600000Y-58400000D02*
X129600000Y-58100000D01*
X129400000Y-58400000D02*
X129600000Y-58400000D01*
X129600000Y-56600000D02*
X129600000Y-56900000D01*
X129400000Y-56600000D02*
X129600000Y-56600000D01*
D11*
X125100000Y-88120000D02*
X126100000Y-88120000D01*
X126100000Y-89480000D02*
X125100000Y-89480000D01*
X81100000Y-88120000D02*
X82100000Y-88120000D01*
X82100000Y-89480000D02*
X81100000Y-89480000D01*
X125100000Y-53120000D02*
X126100000Y-53120000D01*
X126100000Y-54480000D02*
X125100000Y-54480000D01*
X132000000Y-100680000D02*
X131000000Y-100680000D01*
X131000000Y-99320000D02*
X132000000Y-99320000D01*
X88000000Y-100680000D02*
X87000000Y-100680000D01*
X87000000Y-99320000D02*
X88000000Y-99320000D01*
X132000000Y-65680000D02*
X131000000Y-65680000D01*
X131000000Y-64320000D02*
X132000000Y-64320000D01*
X132470000Y-92800000D02*
X132470000Y-91800000D01*
X133830000Y-91800000D02*
X133830000Y-92800000D01*
X88470000Y-92800000D02*
X88470000Y-91800000D01*
X89830000Y-91800000D02*
X89830000Y-92800000D01*
X132470000Y-57800000D02*
X132470000Y-56800000D01*
X133830000Y-56800000D02*
X133830000Y-57800000D01*
X146880000Y-106120000D02*
X146880000Y-105550000D01*
X147500000Y-99880000D02*
X146880000Y-99880000D01*
X153120000Y-100450000D02*
X153120000Y-99880000D01*
X153120000Y-99880000D02*
X152550000Y-99880000D01*
X153120000Y-105550000D02*
X153120000Y-106120000D01*
X153120000Y-106120000D02*
X152550000Y-106120000D01*
X146880000Y-100450000D02*
X146880000Y-99880000D01*
X102880000Y-106120000D02*
X102880000Y-105550000D01*
X103500000Y-99880000D02*
X102880000Y-99880000D01*
X109120000Y-100450000D02*
X109120000Y-99880000D01*
X109120000Y-99880000D02*
X108550000Y-99880000D01*
X109120000Y-105550000D02*
X109120000Y-106120000D01*
X109120000Y-106120000D02*
X108550000Y-106120000D01*
X102880000Y-100450000D02*
X102880000Y-99880000D01*
X146880000Y-71120000D02*
X146880000Y-70550000D01*
X147500000Y-64880000D02*
X146880000Y-64880000D01*
X153120000Y-65450000D02*
X153120000Y-64880000D01*
X153120000Y-64880000D02*
X152550000Y-64880000D01*
X153120000Y-70550000D02*
X153120000Y-71120000D01*
X153120000Y-71120000D02*
X152550000Y-71120000D01*
X146880000Y-65450000D02*
X146880000Y-64880000D01*
X131650000Y-120800000D02*
X130950000Y-120800000D01*
X130950000Y-119600000D02*
X131650000Y-119600000D01*
X87650000Y-120800000D02*
X86950000Y-120800000D01*
X86950000Y-119600000D02*
X87650000Y-119600000D01*
X131650000Y-85800000D02*
X130950000Y-85800000D01*
X130950000Y-84600000D02*
X131650000Y-84600000D01*
X143450000Y-92600000D02*
X144150000Y-92600000D01*
X144150000Y-93800000D02*
X143450000Y-93800000D01*
X99450000Y-92600000D02*
X100150000Y-92600000D01*
X100150000Y-93800000D02*
X99450000Y-93800000D01*
X143450000Y-57600000D02*
X144150000Y-57600000D01*
X144150000Y-58800000D02*
X143450000Y-58800000D01*
X136500000Y-99300000D02*
X134500000Y-99300000D01*
X134500000Y-99300000D02*
X134500000Y-103150000D01*
X136500000Y-99300000D02*
X136500000Y-103150000D01*
X92500000Y-99300000D02*
X90500000Y-99300000D01*
X90500000Y-99300000D02*
X90500000Y-103150000D01*
X92500000Y-99300000D02*
X92500000Y-103150000D01*
X136500000Y-64300000D02*
X134500000Y-64300000D01*
X134500000Y-64300000D02*
X134500000Y-68150000D01*
X136500000Y-64300000D02*
X136500000Y-68150000D01*
X139280000Y-100900000D02*
X139280000Y-101900000D01*
X137920000Y-101900000D02*
X137920000Y-100900000D01*
X95280000Y-100900000D02*
X95280000Y-101900000D01*
X93920000Y-101900000D02*
X93920000Y-100900000D01*
X139280000Y-65900000D02*
X139280000Y-66900000D01*
X137920000Y-66900000D02*
X137920000Y-65900000D01*
X153000000Y-109450000D02*
X153000000Y-110150000D01*
X151800000Y-110150000D02*
X151800000Y-109450000D01*
X109000000Y-109450000D02*
X109000000Y-110150000D01*
X107800000Y-110150000D02*
X107800000Y-109450000D01*
X153000000Y-74450000D02*
X153000000Y-75150000D01*
X151800000Y-75150000D02*
X151800000Y-74450000D01*
X142850000Y-114800000D02*
X143550000Y-114800000D01*
X143550000Y-116000000D02*
X142850000Y-116000000D01*
X98850000Y-114800000D02*
X99550000Y-114800000D01*
X99550000Y-116000000D02*
X98850000Y-116000000D01*
X142850000Y-79800000D02*
X143550000Y-79800000D01*
X143550000Y-81000000D02*
X142850000Y-81000000D01*
D12*
X144386020Y-104220000D02*
G75*
G03X144386020Y-104220000I-86020J0D01*
G01*
X100386020Y-104220000D02*
G75*
G03X100386020Y-104220000I-86020J0D01*
G01*
X144386020Y-69220000D02*
G75*
G03X144386020Y-69220000I-86020J0D01*
G01*
D11*
X142900000Y-106550000D02*
X142200000Y-106550000D01*
X142200000Y-105350000D02*
X142900000Y-105350000D01*
X98900000Y-106550000D02*
X98200000Y-106550000D01*
X98200000Y-105350000D02*
X98900000Y-105350000D01*
X142900000Y-71550000D02*
X142200000Y-71550000D01*
X142200000Y-70350000D02*
X142900000Y-70350000D01*
X147550000Y-116000000D02*
X146850000Y-116000000D01*
X146850000Y-114800000D02*
X147550000Y-114800000D01*
X103550000Y-116000000D02*
X102850000Y-116000000D01*
X102850000Y-114800000D02*
X103550000Y-114800000D01*
X147550000Y-81000000D02*
X146850000Y-81000000D01*
X146850000Y-79800000D02*
X147550000Y-79800000D01*
X124150000Y-92850000D02*
X124150000Y-92150000D01*
X125350000Y-92150000D02*
X125350000Y-92850000D01*
X80150000Y-92850000D02*
X80150000Y-92150000D01*
X81350000Y-92150000D02*
X81350000Y-92850000D01*
X124150000Y-57850000D02*
X124150000Y-57150000D01*
X125350000Y-57150000D02*
X125350000Y-57850000D01*
X126850000Y-95600000D02*
X127550000Y-95600000D01*
X127550000Y-96800000D02*
X126850000Y-96800000D01*
X82850000Y-95600000D02*
X83550000Y-95600000D01*
X83550000Y-96800000D02*
X82850000Y-96800000D01*
X126850000Y-60600000D02*
X127550000Y-60600000D01*
X127550000Y-61800000D02*
X126850000Y-61800000D01*
X154800000Y-97600000D02*
X154800000Y-96900000D01*
X156000000Y-96900000D02*
X156000000Y-97600000D01*
X110800000Y-97600000D02*
X110800000Y-96900000D01*
X112000000Y-96900000D02*
X112000000Y-97600000D01*
X154800000Y-62600000D02*
X154800000Y-61900000D01*
X156000000Y-61900000D02*
X156000000Y-62600000D01*
D13*
X114300000Y-119000000D02*
X114300000Y-118500000D01*
X114300000Y-118500000D02*
X114300000Y-113500000D01*
X114300000Y-113500000D02*
X114300000Y-113000000D01*
X114300000Y-113000000D02*
X117400000Y-113000000D01*
X120000000Y-113000000D02*
X128800000Y-113000000D01*
X128800000Y-113000000D02*
X128800000Y-119000000D01*
X114300000Y-119000000D02*
X115400000Y-119000000D01*
X118000000Y-119000000D02*
X124500000Y-119000000D01*
D14*
X113600000Y-119300000D02*
G75*
G03X113600000Y-119300000I-100000J0D01*
G01*
D13*
X127700000Y-119000000D02*
X128800000Y-119000000D01*
X114300000Y-113500000D02*
X111800000Y-113500000D01*
X111800000Y-113500000D02*
X111800000Y-118500000D01*
X111800000Y-118500000D02*
X114300000Y-118500000D01*
X70300000Y-119000000D02*
X70300000Y-118500000D01*
X70300000Y-118500000D02*
X70300000Y-113500000D01*
X70300000Y-113500000D02*
X70300000Y-113000000D01*
X70300000Y-113000000D02*
X73400000Y-113000000D01*
X76000000Y-113000000D02*
X84800000Y-113000000D01*
X84800000Y-113000000D02*
X84800000Y-119000000D01*
X70300000Y-119000000D02*
X71400000Y-119000000D01*
X74000000Y-119000000D02*
X80500000Y-119000000D01*
D14*
X69600000Y-119300000D02*
G75*
G03X69600000Y-119300000I-100000J0D01*
G01*
D13*
X83700000Y-119000000D02*
X84800000Y-119000000D01*
X70300000Y-113500000D02*
X67800000Y-113500000D01*
X67800000Y-113500000D02*
X67800000Y-118500000D01*
X67800000Y-118500000D02*
X70300000Y-118500000D01*
X114300000Y-84000000D02*
X114300000Y-83500000D01*
X114300000Y-83500000D02*
X114300000Y-78500000D01*
X114300000Y-78500000D02*
X114300000Y-78000000D01*
X114300000Y-78000000D02*
X117400000Y-78000000D01*
X120000000Y-78000000D02*
X128800000Y-78000000D01*
X128800000Y-78000000D02*
X128800000Y-84000000D01*
X114300000Y-84000000D02*
X115400000Y-84000000D01*
X118000000Y-84000000D02*
X124500000Y-84000000D01*
D14*
X113600000Y-84300000D02*
G75*
G03X113600000Y-84300000I-100000J0D01*
G01*
D13*
X127700000Y-84000000D02*
X128800000Y-84000000D01*
X114300000Y-78500000D02*
X111800000Y-78500000D01*
X111800000Y-78500000D02*
X111800000Y-83500000D01*
X111800000Y-83500000D02*
X114300000Y-83500000D01*
D11*
X142800000Y-100550000D02*
X142100000Y-100550000D01*
X142100000Y-99350000D02*
X142800000Y-99350000D01*
X98800000Y-100550000D02*
X98100000Y-100550000D01*
X98100000Y-99350000D02*
X98800000Y-99350000D01*
X142800000Y-65550000D02*
X142100000Y-65550000D01*
X142100000Y-64350000D02*
X142800000Y-64350000D01*
X149250000Y-96800000D02*
X149950000Y-96800000D01*
X149950000Y-98000000D02*
X149250000Y-98000000D01*
X105250000Y-96800000D02*
X105950000Y-96800000D01*
X105950000Y-98000000D02*
X105250000Y-98000000D01*
X149250000Y-61800000D02*
X149950000Y-61800000D01*
X149950000Y-63000000D02*
X149250000Y-63000000D01*
X131900000Y-112800000D02*
X131200000Y-112800000D01*
X131200000Y-111600000D02*
X131900000Y-111600000D01*
X87900000Y-112800000D02*
X87200000Y-112800000D01*
X87200000Y-111600000D02*
X87900000Y-111600000D01*
X131900000Y-77800000D02*
X131200000Y-77800000D01*
X131200000Y-76600000D02*
X131900000Y-76600000D01*
D13*
X114250000Y-107750000D02*
X114250000Y-107250000D01*
X114250000Y-107250000D02*
X114250000Y-102250000D01*
X114250000Y-102250000D02*
X114250000Y-101750000D01*
X114250000Y-101750000D02*
X117350000Y-101750000D01*
X119950000Y-101750000D02*
X128750000Y-101750000D01*
X128750000Y-101750000D02*
X128750000Y-107750000D01*
X114250000Y-107750000D02*
X115350000Y-107750000D01*
X117950000Y-107750000D02*
X124450000Y-107750000D01*
D14*
X113550000Y-108050000D02*
G75*
G03X113550000Y-108050000I-100000J0D01*
G01*
D13*
X127650000Y-107750000D02*
X128750000Y-107750000D01*
X114250000Y-102250000D02*
X111750000Y-102250000D01*
X111750000Y-102250000D02*
X111750000Y-107250000D01*
X111750000Y-107250000D02*
X114250000Y-107250000D01*
X70250000Y-107750000D02*
X70250000Y-107250000D01*
X70250000Y-107250000D02*
X70250000Y-102250000D01*
X70250000Y-102250000D02*
X70250000Y-101750000D01*
X70250000Y-101750000D02*
X73350000Y-101750000D01*
X75950000Y-101750000D02*
X84750000Y-101750000D01*
X84750000Y-101750000D02*
X84750000Y-107750000D01*
X70250000Y-107750000D02*
X71350000Y-107750000D01*
X73950000Y-107750000D02*
X80450000Y-107750000D01*
D14*
X69550000Y-108050000D02*
G75*
G03X69550000Y-108050000I-100000J0D01*
G01*
D13*
X83650000Y-107750000D02*
X84750000Y-107750000D01*
X70250000Y-102250000D02*
X67750000Y-102250000D01*
X67750000Y-102250000D02*
X67750000Y-107250000D01*
X67750000Y-107250000D02*
X70250000Y-107250000D01*
X114250000Y-72750000D02*
X114250000Y-72250000D01*
X114250000Y-72250000D02*
X114250000Y-67250000D01*
X114250000Y-67250000D02*
X114250000Y-66750000D01*
X114250000Y-66750000D02*
X117350000Y-66750000D01*
X119950000Y-66750000D02*
X128750000Y-66750000D01*
X128750000Y-66750000D02*
X128750000Y-72750000D01*
X114250000Y-72750000D02*
X115350000Y-72750000D01*
X117950000Y-72750000D02*
X124450000Y-72750000D01*
D14*
X113550000Y-73050000D02*
G75*
G03X113550000Y-73050000I-100000J0D01*
G01*
D13*
X127650000Y-72750000D02*
X128750000Y-72750000D01*
X114250000Y-67250000D02*
X111750000Y-67250000D01*
X111750000Y-67250000D02*
X111750000Y-72250000D01*
X111750000Y-72250000D02*
X114250000Y-72250000D01*
D11*
X147900000Y-111080000D02*
X146900000Y-111080000D01*
X146900000Y-109720000D02*
X147900000Y-109720000D01*
X103900000Y-111080000D02*
X102900000Y-111080000D01*
X102900000Y-109720000D02*
X103900000Y-109720000D01*
X147900000Y-76080000D02*
X146900000Y-76080000D01*
X146900000Y-74720000D02*
X147900000Y-74720000D01*
X131750000Y-91950000D02*
X131750000Y-92650000D01*
X130550000Y-92650000D02*
X130550000Y-91950000D01*
X87750000Y-91950000D02*
X87750000Y-92650000D01*
X86550000Y-92650000D02*
X86550000Y-91950000D01*
X131750000Y-56950000D02*
X131750000Y-57650000D01*
X130550000Y-57650000D02*
X130550000Y-56950000D01*
X146850000Y-112800000D02*
X147550000Y-112800000D01*
X147550000Y-114000000D02*
X146850000Y-114000000D01*
X102850000Y-112800000D02*
X103550000Y-112800000D01*
X103550000Y-114000000D02*
X102850000Y-114000000D01*
X146850000Y-77800000D02*
X147550000Y-77800000D01*
X147550000Y-79000000D02*
X146850000Y-79000000D01*
X150350000Y-94250000D02*
X146500000Y-94250000D01*
X150350000Y-92250000D02*
X146500000Y-92250000D01*
X150350000Y-94250000D02*
X150350000Y-92250000D01*
X106350000Y-94250000D02*
X102500000Y-94250000D01*
X106350000Y-92250000D02*
X102500000Y-92250000D01*
X106350000Y-94250000D02*
X106350000Y-92250000D01*
X150350000Y-59250000D02*
X146500000Y-59250000D01*
X150350000Y-57250000D02*
X146500000Y-57250000D01*
X150350000Y-59250000D02*
X150350000Y-57250000D01*
X148900000Y-96430000D02*
X147900000Y-96430000D01*
X147900000Y-95070000D02*
X148900000Y-95070000D01*
X104900000Y-96430000D02*
X103900000Y-96430000D01*
X103900000Y-95070000D02*
X104900000Y-95070000D01*
X148900000Y-61430000D02*
X147900000Y-61430000D01*
X147900000Y-60070000D02*
X148900000Y-60070000D01*
X131100000Y-117020000D02*
X132100000Y-117020000D01*
X132100000Y-118380000D02*
X131100000Y-118380000D01*
X87100000Y-117020000D02*
X88100000Y-117020000D01*
X88100000Y-118380000D02*
X87100000Y-118380000D01*
X131100000Y-82020000D02*
X132100000Y-82020000D01*
X132100000Y-83380000D02*
X131100000Y-83380000D01*
X131050000Y-114020000D02*
X132050000Y-114020000D01*
X132050000Y-115380000D02*
X131050000Y-115380000D01*
X87050000Y-114020000D02*
X88050000Y-114020000D01*
X88050000Y-115380000D02*
X87050000Y-115380000D01*
X131050000Y-79020000D02*
X132050000Y-79020000D01*
X132050000Y-80380000D02*
X131050000Y-80380000D01*
X130200000Y-95650000D02*
X130200000Y-96750000D01*
X130200000Y-96750000D02*
X132800000Y-96750000D01*
X130200000Y-95650000D02*
X132800000Y-95650000D01*
X86200000Y-95650000D02*
X86200000Y-96750000D01*
X86200000Y-96750000D02*
X88800000Y-96750000D01*
X86200000Y-95650000D02*
X88800000Y-95650000D01*
X130200000Y-60650000D02*
X130200000Y-61750000D01*
X130200000Y-61750000D02*
X132800000Y-61750000D01*
X130200000Y-60650000D02*
X132800000Y-60650000D01*
D10*
X133000000Y-109800000D02*
X133000000Y-109600000D01*
X133000000Y-109800000D02*
X133300000Y-109800000D01*
X137800000Y-109800000D02*
X137500000Y-109800000D01*
X137800000Y-109800000D02*
X137800000Y-109500000D01*
X137800000Y-107000000D02*
X137500000Y-107000000D01*
X137800000Y-107300000D02*
X137800000Y-107000000D01*
X133100000Y-107300000D02*
X132600000Y-107300000D01*
X133400000Y-107000000D02*
X133100000Y-107300000D01*
X133800000Y-107000000D02*
X133400000Y-107000000D01*
X89000000Y-109800000D02*
X89000000Y-109600000D01*
X89000000Y-109800000D02*
X89300000Y-109800000D01*
X93800000Y-109800000D02*
X93500000Y-109800000D01*
X93800000Y-109800000D02*
X93800000Y-109500000D01*
X93800000Y-107000000D02*
X93500000Y-107000000D01*
X93800000Y-107300000D02*
X93800000Y-107000000D01*
X89100000Y-107300000D02*
X88600000Y-107300000D01*
X89400000Y-107000000D02*
X89100000Y-107300000D01*
X89800000Y-107000000D02*
X89400000Y-107000000D01*
X133000000Y-74800000D02*
X133000000Y-74600000D01*
X133000000Y-74800000D02*
X133300000Y-74800000D01*
X137800000Y-74800000D02*
X137500000Y-74800000D01*
X137800000Y-74800000D02*
X137800000Y-74500000D01*
X137800000Y-72000000D02*
X137500000Y-72000000D01*
X137800000Y-72300000D02*
X137800000Y-72000000D01*
X133100000Y-72300000D02*
X132600000Y-72300000D01*
X133400000Y-72000000D02*
X133100000Y-72300000D01*
X133800000Y-72000000D02*
X133400000Y-72000000D01*
D13*
X67800000Y-83500000D02*
X70300000Y-83500000D01*
X67800000Y-78500000D02*
X67800000Y-83500000D01*
X70300000Y-78500000D02*
X67800000Y-78500000D01*
X83700000Y-84000000D02*
X84800000Y-84000000D01*
D14*
X69600000Y-84300000D02*
G75*
G03X69600000Y-84300000I-100000J0D01*
G01*
D13*
X74000000Y-84000000D02*
X80500000Y-84000000D01*
X70300000Y-84000000D02*
X71400000Y-84000000D01*
X84800000Y-78000000D02*
X84800000Y-84000000D01*
X76000000Y-78000000D02*
X84800000Y-78000000D01*
X70300000Y-78000000D02*
X73400000Y-78000000D01*
X70300000Y-78500000D02*
X70300000Y-78000000D01*
X70300000Y-83500000D02*
X70300000Y-78500000D01*
X70300000Y-84000000D02*
X70300000Y-83500000D01*
X67750000Y-72250000D02*
X70250000Y-72250000D01*
X67750000Y-67250000D02*
X67750000Y-72250000D01*
X70250000Y-67250000D02*
X67750000Y-67250000D01*
X83650000Y-72750000D02*
X84750000Y-72750000D01*
D14*
X69550000Y-73050000D02*
G75*
G03X69550000Y-73050000I-100000J0D01*
G01*
D13*
X73950000Y-72750000D02*
X80450000Y-72750000D01*
X70250000Y-72750000D02*
X71350000Y-72750000D01*
X84750000Y-66750000D02*
X84750000Y-72750000D01*
X75950000Y-66750000D02*
X84750000Y-66750000D01*
X70250000Y-66750000D02*
X73350000Y-66750000D01*
X70250000Y-67250000D02*
X70250000Y-66750000D01*
X70250000Y-72250000D02*
X70250000Y-67250000D01*
X70250000Y-72750000D02*
X70250000Y-72250000D01*
D12*
X100386020Y-69220000D02*
G75*
G03X100386020Y-69220000I-86020J0D01*
G01*
D11*
X102880000Y-65450000D02*
X102880000Y-64880000D01*
X109120000Y-71120000D02*
X108550000Y-71120000D01*
X109120000Y-70550000D02*
X109120000Y-71120000D01*
X109120000Y-64880000D02*
X108550000Y-64880000D01*
X109120000Y-65450000D02*
X109120000Y-64880000D01*
X103500000Y-64880000D02*
X102880000Y-64880000D01*
X102880000Y-71120000D02*
X102880000Y-70550000D01*
X81350000Y-57150000D02*
X81350000Y-57850000D01*
X80150000Y-57850000D02*
X80150000Y-57150000D01*
X83550000Y-61800000D02*
X82850000Y-61800000D01*
X82850000Y-60600000D02*
X83550000Y-60600000D01*
X86550000Y-57650000D02*
X86550000Y-56950000D01*
X87750000Y-56950000D02*
X87750000Y-57650000D01*
X100150000Y-58800000D02*
X99450000Y-58800000D01*
X99450000Y-57600000D02*
X100150000Y-57600000D01*
X98100000Y-64350000D02*
X98800000Y-64350000D01*
X98800000Y-65550000D02*
X98100000Y-65550000D01*
X98200000Y-70350000D02*
X98900000Y-70350000D01*
X98900000Y-71550000D02*
X98200000Y-71550000D01*
X102850000Y-79800000D02*
X103550000Y-79800000D01*
X103550000Y-81000000D02*
X102850000Y-81000000D01*
X99550000Y-81000000D02*
X98850000Y-81000000D01*
X98850000Y-79800000D02*
X99550000Y-79800000D01*
X107800000Y-75150000D02*
X107800000Y-74450000D01*
X109000000Y-74450000D02*
X109000000Y-75150000D01*
X87200000Y-76600000D02*
X87900000Y-76600000D01*
X87900000Y-77800000D02*
X87200000Y-77800000D01*
X86950000Y-84600000D02*
X87650000Y-84600000D01*
X87650000Y-85800000D02*
X86950000Y-85800000D01*
X103550000Y-79000000D02*
X102850000Y-79000000D01*
X102850000Y-77800000D02*
X103550000Y-77800000D01*
X112000000Y-61900000D02*
X112000000Y-62600000D01*
X110800000Y-62600000D02*
X110800000Y-61900000D01*
X105950000Y-63000000D02*
X105250000Y-63000000D01*
X105250000Y-61800000D02*
X105950000Y-61800000D01*
X106350000Y-59250000D02*
X106350000Y-57250000D01*
X106350000Y-57250000D02*
X102500000Y-57250000D01*
X106350000Y-59250000D02*
X102500000Y-59250000D01*
X92500000Y-64300000D02*
X92500000Y-68150000D01*
X90500000Y-64300000D02*
X90500000Y-68150000D01*
X92500000Y-64300000D02*
X90500000Y-64300000D01*
D10*
X78000000Y-57900000D02*
X78000000Y-54250000D01*
X78000000Y-57900000D02*
X78000000Y-61550000D01*
X78000000Y-61550000D02*
X69850000Y-61550000D01*
X69850000Y-61550000D02*
X69850000Y-54240000D01*
X69850000Y-54240000D02*
X78000000Y-54240000D01*
D11*
X102900000Y-74720000D02*
X103900000Y-74720000D01*
X103900000Y-76080000D02*
X102900000Y-76080000D01*
X86200000Y-60650000D02*
X88800000Y-60650000D01*
X86200000Y-61750000D02*
X88800000Y-61750000D01*
X86200000Y-60650000D02*
X86200000Y-61750000D01*
D10*
X89800000Y-72000000D02*
X89400000Y-72000000D01*
X89400000Y-72000000D02*
X89100000Y-72300000D01*
X89100000Y-72300000D02*
X88600000Y-72300000D01*
X93800000Y-72300000D02*
X93800000Y-72000000D01*
X93800000Y-72000000D02*
X93500000Y-72000000D01*
X93800000Y-74800000D02*
X93800000Y-74500000D01*
X93800000Y-74800000D02*
X93500000Y-74800000D01*
X89000000Y-74800000D02*
X89300000Y-74800000D01*
X89000000Y-74800000D02*
X89000000Y-74600000D01*
D11*
X87000000Y-64320000D02*
X88000000Y-64320000D01*
X88000000Y-65680000D02*
X87000000Y-65680000D01*
X103900000Y-60070000D02*
X104900000Y-60070000D01*
X104900000Y-61430000D02*
X103900000Y-61430000D01*
X93920000Y-66900000D02*
X93920000Y-65900000D01*
X95280000Y-65900000D02*
X95280000Y-66900000D01*
X89830000Y-56800000D02*
X89830000Y-57800000D01*
X88470000Y-57800000D02*
X88470000Y-56800000D01*
X88050000Y-80380000D02*
X87050000Y-80380000D01*
X87050000Y-79020000D02*
X88050000Y-79020000D01*
X88100000Y-83380000D02*
X87100000Y-83380000D01*
X87100000Y-82020000D02*
X88100000Y-82020000D01*
X82100000Y-54480000D02*
X81100000Y-54480000D01*
X81100000Y-53120000D02*
X82100000Y-53120000D01*
D10*
X85400000Y-56600000D02*
X85600000Y-56600000D01*
X85600000Y-56600000D02*
X85600000Y-56900000D01*
X85400000Y-58400000D02*
X85600000Y-58400000D01*
X85600000Y-58400000D02*
X85600000Y-58100000D01*
X82600000Y-58400000D02*
X82400000Y-58200000D01*
X82600000Y-56600000D02*
X82400000Y-56600000D01*
X82400000Y-56600000D02*
X82400000Y-56900000D01*
X122666666Y-89652380D02*
X122666666Y-90366666D01*
X122619047Y-90509523D01*
X122523809Y-90604761D01*
X122380952Y-90652380D01*
X122285714Y-90652380D01*
X123666666Y-90652380D02*
X123095238Y-90652380D01*
X123380952Y-90652380D02*
X123380952Y-89652380D01*
X123285714Y-89795238D01*
X123190476Y-89890476D01*
X123095238Y-89938095D01*
X78666666Y-89652380D02*
X78666666Y-90366666D01*
X78619047Y-90509523D01*
X78523809Y-90604761D01*
X78380952Y-90652380D01*
X78285714Y-90652380D01*
X79666666Y-90652380D02*
X79095238Y-90652380D01*
X79380952Y-90652380D02*
X79380952Y-89652380D01*
X79285714Y-89795238D01*
X79190476Y-89890476D01*
X79095238Y-89938095D01*
X122666666Y-54652380D02*
X122666666Y-55366666D01*
X122619047Y-55509523D01*
X122523809Y-55604761D01*
X122380952Y-55652380D01*
X122285714Y-55652380D01*
X123666666Y-55652380D02*
X123095238Y-55652380D01*
X123380952Y-55652380D02*
X123380952Y-54652380D01*
X123285714Y-54795238D01*
X123190476Y-54890476D01*
X123095238Y-54938095D01*
X127838095Y-88852380D02*
X127838095Y-89661904D01*
X127885714Y-89757142D01*
X127933333Y-89804761D01*
X128028571Y-89852380D01*
X128219047Y-89852380D01*
X128314285Y-89804761D01*
X128361904Y-89757142D01*
X128409523Y-89661904D01*
X128409523Y-88852380D01*
X129409523Y-89852380D02*
X128838095Y-89852380D01*
X129123809Y-89852380D02*
X129123809Y-88852380D01*
X129028571Y-88995238D01*
X128933333Y-89090476D01*
X128838095Y-89138095D01*
X83838095Y-88852380D02*
X83838095Y-89661904D01*
X83885714Y-89757142D01*
X83933333Y-89804761D01*
X84028571Y-89852380D01*
X84219047Y-89852380D01*
X84314285Y-89804761D01*
X84361904Y-89757142D01*
X84409523Y-89661904D01*
X84409523Y-88852380D01*
X85409523Y-89852380D02*
X84838095Y-89852380D01*
X85123809Y-89852380D02*
X85123809Y-88852380D01*
X85028571Y-88995238D01*
X84933333Y-89090476D01*
X84838095Y-89138095D01*
X127838095Y-53852380D02*
X127838095Y-54661904D01*
X127885714Y-54757142D01*
X127933333Y-54804761D01*
X128028571Y-54852380D01*
X128219047Y-54852380D01*
X128314285Y-54804761D01*
X128361904Y-54757142D01*
X128409523Y-54661904D01*
X128409523Y-53852380D01*
X129409523Y-54852380D02*
X128838095Y-54852380D01*
X129123809Y-54852380D02*
X129123809Y-53852380D01*
X129028571Y-53995238D01*
X128933333Y-54090476D01*
X128838095Y-54138095D01*
D15*
X122916666Y-89226190D02*
X122750000Y-88988095D01*
X122630952Y-89226190D02*
X122630952Y-88726190D01*
X122821428Y-88726190D01*
X122869047Y-88750000D01*
X122892857Y-88773809D01*
X122916666Y-88821428D01*
X122916666Y-88892857D01*
X122892857Y-88940476D01*
X122869047Y-88964285D01*
X122821428Y-88988095D01*
X122630952Y-88988095D01*
X123369047Y-88726190D02*
X123130952Y-88726190D01*
X123107142Y-88964285D01*
X123130952Y-88940476D01*
X123178571Y-88916666D01*
X123297619Y-88916666D01*
X123345238Y-88940476D01*
X123369047Y-88964285D01*
X123392857Y-89011904D01*
X123392857Y-89130952D01*
X123369047Y-89178571D01*
X123345238Y-89202380D01*
X123297619Y-89226190D01*
X123178571Y-89226190D01*
X123130952Y-89202380D01*
X123107142Y-89178571D01*
X78916666Y-89226190D02*
X78750000Y-88988095D01*
X78630952Y-89226190D02*
X78630952Y-88726190D01*
X78821428Y-88726190D01*
X78869047Y-88750000D01*
X78892857Y-88773809D01*
X78916666Y-88821428D01*
X78916666Y-88892857D01*
X78892857Y-88940476D01*
X78869047Y-88964285D01*
X78821428Y-88988095D01*
X78630952Y-88988095D01*
X79369047Y-88726190D02*
X79130952Y-88726190D01*
X79107142Y-88964285D01*
X79130952Y-88940476D01*
X79178571Y-88916666D01*
X79297619Y-88916666D01*
X79345238Y-88940476D01*
X79369047Y-88964285D01*
X79392857Y-89011904D01*
X79392857Y-89130952D01*
X79369047Y-89178571D01*
X79345238Y-89202380D01*
X79297619Y-89226190D01*
X79178571Y-89226190D01*
X79130952Y-89202380D01*
X79107142Y-89178571D01*
X122916666Y-54226190D02*
X122750000Y-53988095D01*
X122630952Y-54226190D02*
X122630952Y-53726190D01*
X122821428Y-53726190D01*
X122869047Y-53750000D01*
X122892857Y-53773809D01*
X122916666Y-53821428D01*
X122916666Y-53892857D01*
X122892857Y-53940476D01*
X122869047Y-53964285D01*
X122821428Y-53988095D01*
X122630952Y-53988095D01*
X123369047Y-53726190D02*
X123130952Y-53726190D01*
X123107142Y-53964285D01*
X123130952Y-53940476D01*
X123178571Y-53916666D01*
X123297619Y-53916666D01*
X123345238Y-53940476D01*
X123369047Y-53964285D01*
X123392857Y-54011904D01*
X123392857Y-54130952D01*
X123369047Y-54178571D01*
X123345238Y-54202380D01*
X123297619Y-54226190D01*
X123178571Y-54226190D01*
X123130952Y-54202380D01*
X123107142Y-54178571D01*
D10*
X131333333Y-98952380D02*
X131000000Y-98476190D01*
X130761904Y-98952380D02*
X130761904Y-97952380D01*
X131142857Y-97952380D01*
X131238095Y-98000000D01*
X131285714Y-98047619D01*
X131333333Y-98142857D01*
X131333333Y-98285714D01*
X131285714Y-98380952D01*
X131238095Y-98428571D01*
X131142857Y-98476190D01*
X130761904Y-98476190D01*
X131714285Y-98047619D02*
X131761904Y-98000000D01*
X131857142Y-97952380D01*
X132095238Y-97952380D01*
X132190476Y-98000000D01*
X132238095Y-98047619D01*
X132285714Y-98142857D01*
X132285714Y-98238095D01*
X132238095Y-98380952D01*
X131666666Y-98952380D01*
X132285714Y-98952380D01*
X87333333Y-98952380D02*
X87000000Y-98476190D01*
X86761904Y-98952380D02*
X86761904Y-97952380D01*
X87142857Y-97952380D01*
X87238095Y-98000000D01*
X87285714Y-98047619D01*
X87333333Y-98142857D01*
X87333333Y-98285714D01*
X87285714Y-98380952D01*
X87238095Y-98428571D01*
X87142857Y-98476190D01*
X86761904Y-98476190D01*
X87714285Y-98047619D02*
X87761904Y-98000000D01*
X87857142Y-97952380D01*
X88095238Y-97952380D01*
X88190476Y-98000000D01*
X88238095Y-98047619D01*
X88285714Y-98142857D01*
X88285714Y-98238095D01*
X88238095Y-98380952D01*
X87666666Y-98952380D01*
X88285714Y-98952380D01*
X131333333Y-63952380D02*
X131000000Y-63476190D01*
X130761904Y-63952380D02*
X130761904Y-62952380D01*
X131142857Y-62952380D01*
X131238095Y-63000000D01*
X131285714Y-63047619D01*
X131333333Y-63142857D01*
X131333333Y-63285714D01*
X131285714Y-63380952D01*
X131238095Y-63428571D01*
X131142857Y-63476190D01*
X130761904Y-63476190D01*
X131714285Y-63047619D02*
X131761904Y-63000000D01*
X131857142Y-62952380D01*
X132095238Y-62952380D01*
X132190476Y-63000000D01*
X132238095Y-63047619D01*
X132285714Y-63142857D01*
X132285714Y-63238095D01*
X132238095Y-63380952D01*
X131666666Y-63952380D01*
X132285714Y-63952380D01*
X133433333Y-89852380D02*
X133100000Y-89376190D01*
X132861904Y-89852380D02*
X132861904Y-88852380D01*
X133242857Y-88852380D01*
X133338095Y-88900000D01*
X133385714Y-88947619D01*
X133433333Y-89042857D01*
X133433333Y-89185714D01*
X133385714Y-89280952D01*
X133338095Y-89328571D01*
X133242857Y-89376190D01*
X132861904Y-89376190D01*
X134290476Y-89185714D02*
X134290476Y-89852380D01*
X134052380Y-88804761D02*
X133814285Y-89519047D01*
X134433333Y-89519047D01*
X89433333Y-89852380D02*
X89100000Y-89376190D01*
X88861904Y-89852380D02*
X88861904Y-88852380D01*
X89242857Y-88852380D01*
X89338095Y-88900000D01*
X89385714Y-88947619D01*
X89433333Y-89042857D01*
X89433333Y-89185714D01*
X89385714Y-89280952D01*
X89338095Y-89328571D01*
X89242857Y-89376190D01*
X88861904Y-89376190D01*
X90290476Y-89185714D02*
X90290476Y-89852380D01*
X90052380Y-88804761D02*
X89814285Y-89519047D01*
X90433333Y-89519047D01*
X133433333Y-54852380D02*
X133100000Y-54376190D01*
X132861904Y-54852380D02*
X132861904Y-53852380D01*
X133242857Y-53852380D01*
X133338095Y-53900000D01*
X133385714Y-53947619D01*
X133433333Y-54042857D01*
X133433333Y-54185714D01*
X133385714Y-54280952D01*
X133338095Y-54328571D01*
X133242857Y-54376190D01*
X132861904Y-54376190D01*
X134290476Y-54185714D02*
X134290476Y-54852380D01*
X134052380Y-53804761D02*
X133814285Y-54519047D01*
X134433333Y-54519047D01*
X151738095Y-98352380D02*
X151738095Y-99161904D01*
X151785714Y-99257142D01*
X151833333Y-99304761D01*
X151928571Y-99352380D01*
X152119047Y-99352380D01*
X152214285Y-99304761D01*
X152261904Y-99257142D01*
X152309523Y-99161904D01*
X152309523Y-98352380D01*
X152738095Y-98447619D02*
X152785714Y-98400000D01*
X152880952Y-98352380D01*
X153119047Y-98352380D01*
X153214285Y-98400000D01*
X153261904Y-98447619D01*
X153309523Y-98542857D01*
X153309523Y-98638095D01*
X153261904Y-98780952D01*
X152690476Y-99352380D01*
X153309523Y-99352380D01*
X107738095Y-98352380D02*
X107738095Y-99161904D01*
X107785714Y-99257142D01*
X107833333Y-99304761D01*
X107928571Y-99352380D01*
X108119047Y-99352380D01*
X108214285Y-99304761D01*
X108261904Y-99257142D01*
X108309523Y-99161904D01*
X108309523Y-98352380D01*
X108738095Y-98447619D02*
X108785714Y-98400000D01*
X108880952Y-98352380D01*
X109119047Y-98352380D01*
X109214285Y-98400000D01*
X109261904Y-98447619D01*
X109309523Y-98542857D01*
X109309523Y-98638095D01*
X109261904Y-98780952D01*
X108690476Y-99352380D01*
X109309523Y-99352380D01*
X151738095Y-63352380D02*
X151738095Y-64161904D01*
X151785714Y-64257142D01*
X151833333Y-64304761D01*
X151928571Y-64352380D01*
X152119047Y-64352380D01*
X152214285Y-64304761D01*
X152261904Y-64257142D01*
X152309523Y-64161904D01*
X152309523Y-63352380D01*
X152738095Y-63447619D02*
X152785714Y-63400000D01*
X152880952Y-63352380D01*
X153119047Y-63352380D01*
X153214285Y-63400000D01*
X153261904Y-63447619D01*
X153309523Y-63542857D01*
X153309523Y-63638095D01*
X153261904Y-63780952D01*
X152690476Y-64352380D01*
X153309523Y-64352380D01*
X134857142Y-120857142D02*
X134809523Y-120904761D01*
X134666666Y-120952380D01*
X134571428Y-120952380D01*
X134428571Y-120904761D01*
X134333333Y-120809523D01*
X134285714Y-120714285D01*
X134238095Y-120523809D01*
X134238095Y-120380952D01*
X134285714Y-120190476D01*
X134333333Y-120095238D01*
X134428571Y-120000000D01*
X134571428Y-119952380D01*
X134666666Y-119952380D01*
X134809523Y-120000000D01*
X134857142Y-120047619D01*
X135809523Y-120952380D02*
X135238095Y-120952380D01*
X135523809Y-120952380D02*
X135523809Y-119952380D01*
X135428571Y-120095238D01*
X135333333Y-120190476D01*
X135238095Y-120238095D01*
X136714285Y-119952380D02*
X136238095Y-119952380D01*
X136190476Y-120428571D01*
X136238095Y-120380952D01*
X136333333Y-120333333D01*
X136571428Y-120333333D01*
X136666666Y-120380952D01*
X136714285Y-120428571D01*
X136761904Y-120523809D01*
X136761904Y-120761904D01*
X136714285Y-120857142D01*
X136666666Y-120904761D01*
X136571428Y-120952380D01*
X136333333Y-120952380D01*
X136238095Y-120904761D01*
X136190476Y-120857142D01*
X90857142Y-120857142D02*
X90809523Y-120904761D01*
X90666666Y-120952380D01*
X90571428Y-120952380D01*
X90428571Y-120904761D01*
X90333333Y-120809523D01*
X90285714Y-120714285D01*
X90238095Y-120523809D01*
X90238095Y-120380952D01*
X90285714Y-120190476D01*
X90333333Y-120095238D01*
X90428571Y-120000000D01*
X90571428Y-119952380D01*
X90666666Y-119952380D01*
X90809523Y-120000000D01*
X90857142Y-120047619D01*
X91809523Y-120952380D02*
X91238095Y-120952380D01*
X91523809Y-120952380D02*
X91523809Y-119952380D01*
X91428571Y-120095238D01*
X91333333Y-120190476D01*
X91238095Y-120238095D01*
X92714285Y-119952380D02*
X92238095Y-119952380D01*
X92190476Y-120428571D01*
X92238095Y-120380952D01*
X92333333Y-120333333D01*
X92571428Y-120333333D01*
X92666666Y-120380952D01*
X92714285Y-120428571D01*
X92761904Y-120523809D01*
X92761904Y-120761904D01*
X92714285Y-120857142D01*
X92666666Y-120904761D01*
X92571428Y-120952380D01*
X92333333Y-120952380D01*
X92238095Y-120904761D01*
X92190476Y-120857142D01*
X134857142Y-85857142D02*
X134809523Y-85904761D01*
X134666666Y-85952380D01*
X134571428Y-85952380D01*
X134428571Y-85904761D01*
X134333333Y-85809523D01*
X134285714Y-85714285D01*
X134238095Y-85523809D01*
X134238095Y-85380952D01*
X134285714Y-85190476D01*
X134333333Y-85095238D01*
X134428571Y-85000000D01*
X134571428Y-84952380D01*
X134666666Y-84952380D01*
X134809523Y-85000000D01*
X134857142Y-85047619D01*
X135809523Y-85952380D02*
X135238095Y-85952380D01*
X135523809Y-85952380D02*
X135523809Y-84952380D01*
X135428571Y-85095238D01*
X135333333Y-85190476D01*
X135238095Y-85238095D01*
X136714285Y-84952380D02*
X136238095Y-84952380D01*
X136190476Y-85428571D01*
X136238095Y-85380952D01*
X136333333Y-85333333D01*
X136571428Y-85333333D01*
X136666666Y-85380952D01*
X136714285Y-85428571D01*
X136761904Y-85523809D01*
X136761904Y-85761904D01*
X136714285Y-85857142D01*
X136666666Y-85904761D01*
X136571428Y-85952380D01*
X136333333Y-85952380D01*
X136238095Y-85904761D01*
X136190476Y-85857142D01*
X143633333Y-94807142D02*
X143585714Y-94854761D01*
X143442857Y-94902380D01*
X143347619Y-94902380D01*
X143204761Y-94854761D01*
X143109523Y-94759523D01*
X143061904Y-94664285D01*
X143014285Y-94473809D01*
X143014285Y-94330952D01*
X143061904Y-94140476D01*
X143109523Y-94045238D01*
X143204761Y-93950000D01*
X143347619Y-93902380D01*
X143442857Y-93902380D01*
X143585714Y-93950000D01*
X143633333Y-93997619D01*
X144585714Y-94902380D02*
X144014285Y-94902380D01*
X144300000Y-94902380D02*
X144300000Y-93902380D01*
X144204761Y-94045238D01*
X144109523Y-94140476D01*
X144014285Y-94188095D01*
X99633333Y-94807142D02*
X99585714Y-94854761D01*
X99442857Y-94902380D01*
X99347619Y-94902380D01*
X99204761Y-94854761D01*
X99109523Y-94759523D01*
X99061904Y-94664285D01*
X99014285Y-94473809D01*
X99014285Y-94330952D01*
X99061904Y-94140476D01*
X99109523Y-94045238D01*
X99204761Y-93950000D01*
X99347619Y-93902380D01*
X99442857Y-93902380D01*
X99585714Y-93950000D01*
X99633333Y-93997619D01*
X100585714Y-94902380D02*
X100014285Y-94902380D01*
X100300000Y-94902380D02*
X100300000Y-93902380D01*
X100204761Y-94045238D01*
X100109523Y-94140476D01*
X100014285Y-94188095D01*
X143633333Y-59807142D02*
X143585714Y-59854761D01*
X143442857Y-59902380D01*
X143347619Y-59902380D01*
X143204761Y-59854761D01*
X143109523Y-59759523D01*
X143061904Y-59664285D01*
X143014285Y-59473809D01*
X143014285Y-59330952D01*
X143061904Y-59140476D01*
X143109523Y-59045238D01*
X143204761Y-58950000D01*
X143347619Y-58902380D01*
X143442857Y-58902380D01*
X143585714Y-58950000D01*
X143633333Y-58997619D01*
X144585714Y-59902380D02*
X144014285Y-59902380D01*
X144300000Y-59902380D02*
X144300000Y-58902380D01*
X144204761Y-59045238D01*
X144109523Y-59140476D01*
X144014285Y-59188095D01*
X134861904Y-98952380D02*
X134861904Y-97952380D01*
X135100000Y-97952380D01*
X135242857Y-98000000D01*
X135338095Y-98095238D01*
X135385714Y-98190476D01*
X135433333Y-98380952D01*
X135433333Y-98523809D01*
X135385714Y-98714285D01*
X135338095Y-98809523D01*
X135242857Y-98904761D01*
X135100000Y-98952380D01*
X134861904Y-98952380D01*
X135814285Y-98047619D02*
X135861904Y-98000000D01*
X135957142Y-97952380D01*
X136195238Y-97952380D01*
X136290476Y-98000000D01*
X136338095Y-98047619D01*
X136385714Y-98142857D01*
X136385714Y-98238095D01*
X136338095Y-98380952D01*
X135766666Y-98952380D01*
X136385714Y-98952380D01*
X90861904Y-98952380D02*
X90861904Y-97952380D01*
X91100000Y-97952380D01*
X91242857Y-98000000D01*
X91338095Y-98095238D01*
X91385714Y-98190476D01*
X91433333Y-98380952D01*
X91433333Y-98523809D01*
X91385714Y-98714285D01*
X91338095Y-98809523D01*
X91242857Y-98904761D01*
X91100000Y-98952380D01*
X90861904Y-98952380D01*
X91814285Y-98047619D02*
X91861904Y-98000000D01*
X91957142Y-97952380D01*
X92195238Y-97952380D01*
X92290476Y-98000000D01*
X92338095Y-98047619D01*
X92385714Y-98142857D01*
X92385714Y-98238095D01*
X92338095Y-98380952D01*
X91766666Y-98952380D01*
X92385714Y-98952380D01*
X134861904Y-63952380D02*
X134861904Y-62952380D01*
X135100000Y-62952380D01*
X135242857Y-63000000D01*
X135338095Y-63095238D01*
X135385714Y-63190476D01*
X135433333Y-63380952D01*
X135433333Y-63523809D01*
X135385714Y-63714285D01*
X135338095Y-63809523D01*
X135242857Y-63904761D01*
X135100000Y-63952380D01*
X134861904Y-63952380D01*
X135814285Y-63047619D02*
X135861904Y-63000000D01*
X135957142Y-62952380D01*
X136195238Y-62952380D01*
X136290476Y-63000000D01*
X136338095Y-63047619D01*
X136385714Y-63142857D01*
X136385714Y-63238095D01*
X136338095Y-63380952D01*
X135766666Y-63952380D01*
X136385714Y-63952380D01*
X138333333Y-98952380D02*
X138000000Y-98476190D01*
X137761904Y-98952380D02*
X137761904Y-97952380D01*
X138142857Y-97952380D01*
X138238095Y-98000000D01*
X138285714Y-98047619D01*
X138333333Y-98142857D01*
X138333333Y-98285714D01*
X138285714Y-98380952D01*
X138238095Y-98428571D01*
X138142857Y-98476190D01*
X137761904Y-98476190D01*
X138666666Y-97952380D02*
X139285714Y-97952380D01*
X138952380Y-98333333D01*
X139095238Y-98333333D01*
X139190476Y-98380952D01*
X139238095Y-98428571D01*
X139285714Y-98523809D01*
X139285714Y-98761904D01*
X139238095Y-98857142D01*
X139190476Y-98904761D01*
X139095238Y-98952380D01*
X138809523Y-98952380D01*
X138714285Y-98904761D01*
X138666666Y-98857142D01*
X94333333Y-98952380D02*
X94000000Y-98476190D01*
X93761904Y-98952380D02*
X93761904Y-97952380D01*
X94142857Y-97952380D01*
X94238095Y-98000000D01*
X94285714Y-98047619D01*
X94333333Y-98142857D01*
X94333333Y-98285714D01*
X94285714Y-98380952D01*
X94238095Y-98428571D01*
X94142857Y-98476190D01*
X93761904Y-98476190D01*
X94666666Y-97952380D02*
X95285714Y-97952380D01*
X94952380Y-98333333D01*
X95095238Y-98333333D01*
X95190476Y-98380952D01*
X95238095Y-98428571D01*
X95285714Y-98523809D01*
X95285714Y-98761904D01*
X95238095Y-98857142D01*
X95190476Y-98904761D01*
X95095238Y-98952380D01*
X94809523Y-98952380D01*
X94714285Y-98904761D01*
X94666666Y-98857142D01*
X138333333Y-63952380D02*
X138000000Y-63476190D01*
X137761904Y-63952380D02*
X137761904Y-62952380D01*
X138142857Y-62952380D01*
X138238095Y-63000000D01*
X138285714Y-63047619D01*
X138333333Y-63142857D01*
X138333333Y-63285714D01*
X138285714Y-63380952D01*
X138238095Y-63428571D01*
X138142857Y-63476190D01*
X137761904Y-63476190D01*
X138666666Y-62952380D02*
X139285714Y-62952380D01*
X138952380Y-63333333D01*
X139095238Y-63333333D01*
X139190476Y-63380952D01*
X139238095Y-63428571D01*
X139285714Y-63523809D01*
X139285714Y-63761904D01*
X139238095Y-63857142D01*
X139190476Y-63904761D01*
X139095238Y-63952380D01*
X138809523Y-63952380D01*
X138714285Y-63904761D01*
X138666666Y-63857142D01*
X154033333Y-110057142D02*
X153985714Y-110104761D01*
X153842857Y-110152380D01*
X153747619Y-110152380D01*
X153604761Y-110104761D01*
X153509523Y-110009523D01*
X153461904Y-109914285D01*
X153414285Y-109723809D01*
X153414285Y-109580952D01*
X153461904Y-109390476D01*
X153509523Y-109295238D01*
X153604761Y-109200000D01*
X153747619Y-109152380D01*
X153842857Y-109152380D01*
X153985714Y-109200000D01*
X154033333Y-109247619D01*
X154509523Y-110152380D02*
X154700000Y-110152380D01*
X154795238Y-110104761D01*
X154842857Y-110057142D01*
X154938095Y-109914285D01*
X154985714Y-109723809D01*
X154985714Y-109342857D01*
X154938095Y-109247619D01*
X154890476Y-109200000D01*
X154795238Y-109152380D01*
X154604761Y-109152380D01*
X154509523Y-109200000D01*
X154461904Y-109247619D01*
X154414285Y-109342857D01*
X154414285Y-109580952D01*
X154461904Y-109676190D01*
X154509523Y-109723809D01*
X154604761Y-109771428D01*
X154795238Y-109771428D01*
X154890476Y-109723809D01*
X154938095Y-109676190D01*
X154985714Y-109580952D01*
X110033333Y-110057142D02*
X109985714Y-110104761D01*
X109842857Y-110152380D01*
X109747619Y-110152380D01*
X109604761Y-110104761D01*
X109509523Y-110009523D01*
X109461904Y-109914285D01*
X109414285Y-109723809D01*
X109414285Y-109580952D01*
X109461904Y-109390476D01*
X109509523Y-109295238D01*
X109604761Y-109200000D01*
X109747619Y-109152380D01*
X109842857Y-109152380D01*
X109985714Y-109200000D01*
X110033333Y-109247619D01*
X110509523Y-110152380D02*
X110700000Y-110152380D01*
X110795238Y-110104761D01*
X110842857Y-110057142D01*
X110938095Y-109914285D01*
X110985714Y-109723809D01*
X110985714Y-109342857D01*
X110938095Y-109247619D01*
X110890476Y-109200000D01*
X110795238Y-109152380D01*
X110604761Y-109152380D01*
X110509523Y-109200000D01*
X110461904Y-109247619D01*
X110414285Y-109342857D01*
X110414285Y-109580952D01*
X110461904Y-109676190D01*
X110509523Y-109723809D01*
X110604761Y-109771428D01*
X110795238Y-109771428D01*
X110890476Y-109723809D01*
X110938095Y-109676190D01*
X110985714Y-109580952D01*
X154033333Y-75057142D02*
X153985714Y-75104761D01*
X153842857Y-75152380D01*
X153747619Y-75152380D01*
X153604761Y-75104761D01*
X153509523Y-75009523D01*
X153461904Y-74914285D01*
X153414285Y-74723809D01*
X153414285Y-74580952D01*
X153461904Y-74390476D01*
X153509523Y-74295238D01*
X153604761Y-74200000D01*
X153747619Y-74152380D01*
X153842857Y-74152380D01*
X153985714Y-74200000D01*
X154033333Y-74247619D01*
X154509523Y-75152380D02*
X154700000Y-75152380D01*
X154795238Y-75104761D01*
X154842857Y-75057142D01*
X154938095Y-74914285D01*
X154985714Y-74723809D01*
X154985714Y-74342857D01*
X154938095Y-74247619D01*
X154890476Y-74200000D01*
X154795238Y-74152380D01*
X154604761Y-74152380D01*
X154509523Y-74200000D01*
X154461904Y-74247619D01*
X154414285Y-74342857D01*
X154414285Y-74580952D01*
X154461904Y-74676190D01*
X154509523Y-74723809D01*
X154604761Y-74771428D01*
X154795238Y-74771428D01*
X154890476Y-74723809D01*
X154938095Y-74676190D01*
X154985714Y-74580952D01*
X142557142Y-117357142D02*
X142509523Y-117404761D01*
X142366666Y-117452380D01*
X142271428Y-117452380D01*
X142128571Y-117404761D01*
X142033333Y-117309523D01*
X141985714Y-117214285D01*
X141938095Y-117023809D01*
X141938095Y-116880952D01*
X141985714Y-116690476D01*
X142033333Y-116595238D01*
X142128571Y-116500000D01*
X142271428Y-116452380D01*
X142366666Y-116452380D01*
X142509523Y-116500000D01*
X142557142Y-116547619D01*
X143509523Y-117452380D02*
X142938095Y-117452380D01*
X143223809Y-117452380D02*
X143223809Y-116452380D01*
X143128571Y-116595238D01*
X143033333Y-116690476D01*
X142938095Y-116738095D01*
X143842857Y-116452380D02*
X144461904Y-116452380D01*
X144128571Y-116833333D01*
X144271428Y-116833333D01*
X144366666Y-116880952D01*
X144414285Y-116928571D01*
X144461904Y-117023809D01*
X144461904Y-117261904D01*
X144414285Y-117357142D01*
X144366666Y-117404761D01*
X144271428Y-117452380D01*
X143985714Y-117452380D01*
X143890476Y-117404761D01*
X143842857Y-117357142D01*
X98557142Y-117357142D02*
X98509523Y-117404761D01*
X98366666Y-117452380D01*
X98271428Y-117452380D01*
X98128571Y-117404761D01*
X98033333Y-117309523D01*
X97985714Y-117214285D01*
X97938095Y-117023809D01*
X97938095Y-116880952D01*
X97985714Y-116690476D01*
X98033333Y-116595238D01*
X98128571Y-116500000D01*
X98271428Y-116452380D01*
X98366666Y-116452380D01*
X98509523Y-116500000D01*
X98557142Y-116547619D01*
X99509523Y-117452380D02*
X98938095Y-117452380D01*
X99223809Y-117452380D02*
X99223809Y-116452380D01*
X99128571Y-116595238D01*
X99033333Y-116690476D01*
X98938095Y-116738095D01*
X99842857Y-116452380D02*
X100461904Y-116452380D01*
X100128571Y-116833333D01*
X100271428Y-116833333D01*
X100366666Y-116880952D01*
X100414285Y-116928571D01*
X100461904Y-117023809D01*
X100461904Y-117261904D01*
X100414285Y-117357142D01*
X100366666Y-117404761D01*
X100271428Y-117452380D01*
X99985714Y-117452380D01*
X99890476Y-117404761D01*
X99842857Y-117357142D01*
X142557142Y-82357142D02*
X142509523Y-82404761D01*
X142366666Y-82452380D01*
X142271428Y-82452380D01*
X142128571Y-82404761D01*
X142033333Y-82309523D01*
X141985714Y-82214285D01*
X141938095Y-82023809D01*
X141938095Y-81880952D01*
X141985714Y-81690476D01*
X142033333Y-81595238D01*
X142128571Y-81500000D01*
X142271428Y-81452380D01*
X142366666Y-81452380D01*
X142509523Y-81500000D01*
X142557142Y-81547619D01*
X143509523Y-82452380D02*
X142938095Y-82452380D01*
X143223809Y-82452380D02*
X143223809Y-81452380D01*
X143128571Y-81595238D01*
X143033333Y-81690476D01*
X142938095Y-81738095D01*
X143842857Y-81452380D02*
X144461904Y-81452380D01*
X144128571Y-81833333D01*
X144271428Y-81833333D01*
X144366666Y-81880952D01*
X144414285Y-81928571D01*
X144461904Y-82023809D01*
X144461904Y-82261904D01*
X144414285Y-82357142D01*
X144366666Y-82404761D01*
X144271428Y-82452380D01*
X143985714Y-82452380D01*
X143890476Y-82404761D01*
X143842857Y-82357142D01*
X142383333Y-107557142D02*
X142335714Y-107604761D01*
X142192857Y-107652380D01*
X142097619Y-107652380D01*
X141954761Y-107604761D01*
X141859523Y-107509523D01*
X141811904Y-107414285D01*
X141764285Y-107223809D01*
X141764285Y-107080952D01*
X141811904Y-106890476D01*
X141859523Y-106795238D01*
X141954761Y-106700000D01*
X142097619Y-106652380D01*
X142192857Y-106652380D01*
X142335714Y-106700000D01*
X142383333Y-106747619D01*
X143240476Y-106652380D02*
X143050000Y-106652380D01*
X142954761Y-106700000D01*
X142907142Y-106747619D01*
X142811904Y-106890476D01*
X142764285Y-107080952D01*
X142764285Y-107461904D01*
X142811904Y-107557142D01*
X142859523Y-107604761D01*
X142954761Y-107652380D01*
X143145238Y-107652380D01*
X143240476Y-107604761D01*
X143288095Y-107557142D01*
X143335714Y-107461904D01*
X143335714Y-107223809D01*
X143288095Y-107128571D01*
X143240476Y-107080952D01*
X143145238Y-107033333D01*
X142954761Y-107033333D01*
X142859523Y-107080952D01*
X142811904Y-107128571D01*
X142764285Y-107223809D01*
X98383333Y-107557142D02*
X98335714Y-107604761D01*
X98192857Y-107652380D01*
X98097619Y-107652380D01*
X97954761Y-107604761D01*
X97859523Y-107509523D01*
X97811904Y-107414285D01*
X97764285Y-107223809D01*
X97764285Y-107080952D01*
X97811904Y-106890476D01*
X97859523Y-106795238D01*
X97954761Y-106700000D01*
X98097619Y-106652380D01*
X98192857Y-106652380D01*
X98335714Y-106700000D01*
X98383333Y-106747619D01*
X99240476Y-106652380D02*
X99050000Y-106652380D01*
X98954761Y-106700000D01*
X98907142Y-106747619D01*
X98811904Y-106890476D01*
X98764285Y-107080952D01*
X98764285Y-107461904D01*
X98811904Y-107557142D01*
X98859523Y-107604761D01*
X98954761Y-107652380D01*
X99145238Y-107652380D01*
X99240476Y-107604761D01*
X99288095Y-107557142D01*
X99335714Y-107461904D01*
X99335714Y-107223809D01*
X99288095Y-107128571D01*
X99240476Y-107080952D01*
X99145238Y-107033333D01*
X98954761Y-107033333D01*
X98859523Y-107080952D01*
X98811904Y-107128571D01*
X98764285Y-107223809D01*
X142383333Y-72557142D02*
X142335714Y-72604761D01*
X142192857Y-72652380D01*
X142097619Y-72652380D01*
X141954761Y-72604761D01*
X141859523Y-72509523D01*
X141811904Y-72414285D01*
X141764285Y-72223809D01*
X141764285Y-72080952D01*
X141811904Y-71890476D01*
X141859523Y-71795238D01*
X141954761Y-71700000D01*
X142097619Y-71652380D01*
X142192857Y-71652380D01*
X142335714Y-71700000D01*
X142383333Y-71747619D01*
X143240476Y-71652380D02*
X143050000Y-71652380D01*
X142954761Y-71700000D01*
X142907142Y-71747619D01*
X142811904Y-71890476D01*
X142764285Y-72080952D01*
X142764285Y-72461904D01*
X142811904Y-72557142D01*
X142859523Y-72604761D01*
X142954761Y-72652380D01*
X143145238Y-72652380D01*
X143240476Y-72604761D01*
X143288095Y-72557142D01*
X143335714Y-72461904D01*
X143335714Y-72223809D01*
X143288095Y-72128571D01*
X143240476Y-72080952D01*
X143145238Y-72033333D01*
X142954761Y-72033333D01*
X142859523Y-72080952D01*
X142811904Y-72128571D01*
X142764285Y-72223809D01*
X146557142Y-117357142D02*
X146509523Y-117404761D01*
X146366666Y-117452380D01*
X146271428Y-117452380D01*
X146128571Y-117404761D01*
X146033333Y-117309523D01*
X145985714Y-117214285D01*
X145938095Y-117023809D01*
X145938095Y-116880952D01*
X145985714Y-116690476D01*
X146033333Y-116595238D01*
X146128571Y-116500000D01*
X146271428Y-116452380D01*
X146366666Y-116452380D01*
X146509523Y-116500000D01*
X146557142Y-116547619D01*
X147509523Y-117452380D02*
X146938095Y-117452380D01*
X147223809Y-117452380D02*
X147223809Y-116452380D01*
X147128571Y-116595238D01*
X147033333Y-116690476D01*
X146938095Y-116738095D01*
X148128571Y-116452380D02*
X148223809Y-116452380D01*
X148319047Y-116500000D01*
X148366666Y-116547619D01*
X148414285Y-116642857D01*
X148461904Y-116833333D01*
X148461904Y-117071428D01*
X148414285Y-117261904D01*
X148366666Y-117357142D01*
X148319047Y-117404761D01*
X148223809Y-117452380D01*
X148128571Y-117452380D01*
X148033333Y-117404761D01*
X147985714Y-117357142D01*
X147938095Y-117261904D01*
X147890476Y-117071428D01*
X147890476Y-116833333D01*
X147938095Y-116642857D01*
X147985714Y-116547619D01*
X148033333Y-116500000D01*
X148128571Y-116452380D01*
X102557142Y-117357142D02*
X102509523Y-117404761D01*
X102366666Y-117452380D01*
X102271428Y-117452380D01*
X102128571Y-117404761D01*
X102033333Y-117309523D01*
X101985714Y-117214285D01*
X101938095Y-117023809D01*
X101938095Y-116880952D01*
X101985714Y-116690476D01*
X102033333Y-116595238D01*
X102128571Y-116500000D01*
X102271428Y-116452380D01*
X102366666Y-116452380D01*
X102509523Y-116500000D01*
X102557142Y-116547619D01*
X103509523Y-117452380D02*
X102938095Y-117452380D01*
X103223809Y-117452380D02*
X103223809Y-116452380D01*
X103128571Y-116595238D01*
X103033333Y-116690476D01*
X102938095Y-116738095D01*
X104128571Y-116452380D02*
X104223809Y-116452380D01*
X104319047Y-116500000D01*
X104366666Y-116547619D01*
X104414285Y-116642857D01*
X104461904Y-116833333D01*
X104461904Y-117071428D01*
X104414285Y-117261904D01*
X104366666Y-117357142D01*
X104319047Y-117404761D01*
X104223809Y-117452380D01*
X104128571Y-117452380D01*
X104033333Y-117404761D01*
X103985714Y-117357142D01*
X103938095Y-117261904D01*
X103890476Y-117071428D01*
X103890476Y-116833333D01*
X103938095Y-116642857D01*
X103985714Y-116547619D01*
X104033333Y-116500000D01*
X104128571Y-116452380D01*
X146557142Y-82357142D02*
X146509523Y-82404761D01*
X146366666Y-82452380D01*
X146271428Y-82452380D01*
X146128571Y-82404761D01*
X146033333Y-82309523D01*
X145985714Y-82214285D01*
X145938095Y-82023809D01*
X145938095Y-81880952D01*
X145985714Y-81690476D01*
X146033333Y-81595238D01*
X146128571Y-81500000D01*
X146271428Y-81452380D01*
X146366666Y-81452380D01*
X146509523Y-81500000D01*
X146557142Y-81547619D01*
X147509523Y-82452380D02*
X146938095Y-82452380D01*
X147223809Y-82452380D02*
X147223809Y-81452380D01*
X147128571Y-81595238D01*
X147033333Y-81690476D01*
X146938095Y-81738095D01*
X148128571Y-81452380D02*
X148223809Y-81452380D01*
X148319047Y-81500000D01*
X148366666Y-81547619D01*
X148414285Y-81642857D01*
X148461904Y-81833333D01*
X148461904Y-82071428D01*
X148414285Y-82261904D01*
X148366666Y-82357142D01*
X148319047Y-82404761D01*
X148223809Y-82452380D01*
X148128571Y-82452380D01*
X148033333Y-82404761D01*
X147985714Y-82357142D01*
X147938095Y-82261904D01*
X147890476Y-82071428D01*
X147890476Y-81833333D01*
X147938095Y-81642857D01*
X147985714Y-81547619D01*
X148033333Y-81500000D01*
X148128571Y-81452380D01*
X123433333Y-95357142D02*
X123385714Y-95404761D01*
X123242857Y-95452380D01*
X123147619Y-95452380D01*
X123004761Y-95404761D01*
X122909523Y-95309523D01*
X122861904Y-95214285D01*
X122814285Y-95023809D01*
X122814285Y-94880952D01*
X122861904Y-94690476D01*
X122909523Y-94595238D01*
X123004761Y-94500000D01*
X123147619Y-94452380D01*
X123242857Y-94452380D01*
X123385714Y-94500000D01*
X123433333Y-94547619D01*
X123814285Y-94547619D02*
X123861904Y-94500000D01*
X123957142Y-94452380D01*
X124195238Y-94452380D01*
X124290476Y-94500000D01*
X124338095Y-94547619D01*
X124385714Y-94642857D01*
X124385714Y-94738095D01*
X124338095Y-94880952D01*
X123766666Y-95452380D01*
X124385714Y-95452380D01*
X79433333Y-95357142D02*
X79385714Y-95404761D01*
X79242857Y-95452380D01*
X79147619Y-95452380D01*
X79004761Y-95404761D01*
X78909523Y-95309523D01*
X78861904Y-95214285D01*
X78814285Y-95023809D01*
X78814285Y-94880952D01*
X78861904Y-94690476D01*
X78909523Y-94595238D01*
X79004761Y-94500000D01*
X79147619Y-94452380D01*
X79242857Y-94452380D01*
X79385714Y-94500000D01*
X79433333Y-94547619D01*
X79814285Y-94547619D02*
X79861904Y-94500000D01*
X79957142Y-94452380D01*
X80195238Y-94452380D01*
X80290476Y-94500000D01*
X80338095Y-94547619D01*
X80385714Y-94642857D01*
X80385714Y-94738095D01*
X80338095Y-94880952D01*
X79766666Y-95452380D01*
X80385714Y-95452380D01*
X123433333Y-60357142D02*
X123385714Y-60404761D01*
X123242857Y-60452380D01*
X123147619Y-60452380D01*
X123004761Y-60404761D01*
X122909523Y-60309523D01*
X122861904Y-60214285D01*
X122814285Y-60023809D01*
X122814285Y-59880952D01*
X122861904Y-59690476D01*
X122909523Y-59595238D01*
X123004761Y-59500000D01*
X123147619Y-59452380D01*
X123242857Y-59452380D01*
X123385714Y-59500000D01*
X123433333Y-59547619D01*
X123814285Y-59547619D02*
X123861904Y-59500000D01*
X123957142Y-59452380D01*
X124195238Y-59452380D01*
X124290476Y-59500000D01*
X124338095Y-59547619D01*
X124385714Y-59642857D01*
X124385714Y-59738095D01*
X124338095Y-59880952D01*
X123766666Y-60452380D01*
X124385714Y-60452380D01*
X127033333Y-98357142D02*
X126985714Y-98404761D01*
X126842857Y-98452380D01*
X126747619Y-98452380D01*
X126604761Y-98404761D01*
X126509523Y-98309523D01*
X126461904Y-98214285D01*
X126414285Y-98023809D01*
X126414285Y-97880952D01*
X126461904Y-97690476D01*
X126509523Y-97595238D01*
X126604761Y-97500000D01*
X126747619Y-97452380D01*
X126842857Y-97452380D01*
X126985714Y-97500000D01*
X127033333Y-97547619D01*
X127938095Y-97452380D02*
X127461904Y-97452380D01*
X127414285Y-97928571D01*
X127461904Y-97880952D01*
X127557142Y-97833333D01*
X127795238Y-97833333D01*
X127890476Y-97880952D01*
X127938095Y-97928571D01*
X127985714Y-98023809D01*
X127985714Y-98261904D01*
X127938095Y-98357142D01*
X127890476Y-98404761D01*
X127795238Y-98452380D01*
X127557142Y-98452380D01*
X127461904Y-98404761D01*
X127414285Y-98357142D01*
X83033333Y-98357142D02*
X82985714Y-98404761D01*
X82842857Y-98452380D01*
X82747619Y-98452380D01*
X82604761Y-98404761D01*
X82509523Y-98309523D01*
X82461904Y-98214285D01*
X82414285Y-98023809D01*
X82414285Y-97880952D01*
X82461904Y-97690476D01*
X82509523Y-97595238D01*
X82604761Y-97500000D01*
X82747619Y-97452380D01*
X82842857Y-97452380D01*
X82985714Y-97500000D01*
X83033333Y-97547619D01*
X83938095Y-97452380D02*
X83461904Y-97452380D01*
X83414285Y-97928571D01*
X83461904Y-97880952D01*
X83557142Y-97833333D01*
X83795238Y-97833333D01*
X83890476Y-97880952D01*
X83938095Y-97928571D01*
X83985714Y-98023809D01*
X83985714Y-98261904D01*
X83938095Y-98357142D01*
X83890476Y-98404761D01*
X83795238Y-98452380D01*
X83557142Y-98452380D01*
X83461904Y-98404761D01*
X83414285Y-98357142D01*
X127033333Y-63357142D02*
X126985714Y-63404761D01*
X126842857Y-63452380D01*
X126747619Y-63452380D01*
X126604761Y-63404761D01*
X126509523Y-63309523D01*
X126461904Y-63214285D01*
X126414285Y-63023809D01*
X126414285Y-62880952D01*
X126461904Y-62690476D01*
X126509523Y-62595238D01*
X126604761Y-62500000D01*
X126747619Y-62452380D01*
X126842857Y-62452380D01*
X126985714Y-62500000D01*
X127033333Y-62547619D01*
X127938095Y-62452380D02*
X127461904Y-62452380D01*
X127414285Y-62928571D01*
X127461904Y-62880952D01*
X127557142Y-62833333D01*
X127795238Y-62833333D01*
X127890476Y-62880952D01*
X127938095Y-62928571D01*
X127985714Y-63023809D01*
X127985714Y-63261904D01*
X127938095Y-63357142D01*
X127890476Y-63404761D01*
X127795238Y-63452380D01*
X127557142Y-63452380D01*
X127461904Y-63404761D01*
X127414285Y-63357142D01*
X154057142Y-100307142D02*
X154009523Y-100354761D01*
X153866666Y-100402380D01*
X153771428Y-100402380D01*
X153628571Y-100354761D01*
X153533333Y-100259523D01*
X153485714Y-100164285D01*
X153438095Y-99973809D01*
X153438095Y-99830952D01*
X153485714Y-99640476D01*
X153533333Y-99545238D01*
X153628571Y-99450000D01*
X153771428Y-99402380D01*
X153866666Y-99402380D01*
X154009523Y-99450000D01*
X154057142Y-99497619D01*
X155009523Y-100402380D02*
X154438095Y-100402380D01*
X154723809Y-100402380D02*
X154723809Y-99402380D01*
X154628571Y-99545238D01*
X154533333Y-99640476D01*
X154438095Y-99688095D01*
X155390476Y-99497619D02*
X155438095Y-99450000D01*
X155533333Y-99402380D01*
X155771428Y-99402380D01*
X155866666Y-99450000D01*
X155914285Y-99497619D01*
X155961904Y-99592857D01*
X155961904Y-99688095D01*
X155914285Y-99830952D01*
X155342857Y-100402380D01*
X155961904Y-100402380D01*
X110057142Y-100307142D02*
X110009523Y-100354761D01*
X109866666Y-100402380D01*
X109771428Y-100402380D01*
X109628571Y-100354761D01*
X109533333Y-100259523D01*
X109485714Y-100164285D01*
X109438095Y-99973809D01*
X109438095Y-99830952D01*
X109485714Y-99640476D01*
X109533333Y-99545238D01*
X109628571Y-99450000D01*
X109771428Y-99402380D01*
X109866666Y-99402380D01*
X110009523Y-99450000D01*
X110057142Y-99497619D01*
X111009523Y-100402380D02*
X110438095Y-100402380D01*
X110723809Y-100402380D02*
X110723809Y-99402380D01*
X110628571Y-99545238D01*
X110533333Y-99640476D01*
X110438095Y-99688095D01*
X111390476Y-99497619D02*
X111438095Y-99450000D01*
X111533333Y-99402380D01*
X111771428Y-99402380D01*
X111866666Y-99450000D01*
X111914285Y-99497619D01*
X111961904Y-99592857D01*
X111961904Y-99688095D01*
X111914285Y-99830952D01*
X111342857Y-100402380D01*
X111961904Y-100402380D01*
X154057142Y-65307142D02*
X154009523Y-65354761D01*
X153866666Y-65402380D01*
X153771428Y-65402380D01*
X153628571Y-65354761D01*
X153533333Y-65259523D01*
X153485714Y-65164285D01*
X153438095Y-64973809D01*
X153438095Y-64830952D01*
X153485714Y-64640476D01*
X153533333Y-64545238D01*
X153628571Y-64450000D01*
X153771428Y-64402380D01*
X153866666Y-64402380D01*
X154009523Y-64450000D01*
X154057142Y-64497619D01*
X155009523Y-65402380D02*
X154438095Y-65402380D01*
X154723809Y-65402380D02*
X154723809Y-64402380D01*
X154628571Y-64545238D01*
X154533333Y-64640476D01*
X154438095Y-64688095D01*
X155390476Y-64497619D02*
X155438095Y-64450000D01*
X155533333Y-64402380D01*
X155771428Y-64402380D01*
X155866666Y-64450000D01*
X155914285Y-64497619D01*
X155961904Y-64592857D01*
X155961904Y-64688095D01*
X155914285Y-64830952D01*
X155342857Y-65402380D01*
X155961904Y-65402380D01*
D16*
X126666056Y-113651378D02*
X126666056Y-114366971D01*
X126618350Y-114510090D01*
X126522938Y-114605502D01*
X126379819Y-114653208D01*
X126284407Y-114653208D01*
X127047706Y-113651378D02*
X127667886Y-113651378D01*
X127333943Y-114033028D01*
X127477061Y-114033028D01*
X127572474Y-114080734D01*
X127620180Y-114128440D01*
X127667886Y-114223853D01*
X127667886Y-114462384D01*
X127620180Y-114557796D01*
X127572474Y-114605502D01*
X127477061Y-114653208D01*
X127190824Y-114653208D01*
X127095412Y-114605502D01*
X127047706Y-114557796D01*
X82666056Y-113651378D02*
X82666056Y-114366971D01*
X82618350Y-114510090D01*
X82522938Y-114605502D01*
X82379819Y-114653208D01*
X82284407Y-114653208D01*
X83047706Y-113651378D02*
X83667886Y-113651378D01*
X83333943Y-114033028D01*
X83477061Y-114033028D01*
X83572474Y-114080734D01*
X83620180Y-114128440D01*
X83667886Y-114223853D01*
X83667886Y-114462384D01*
X83620180Y-114557796D01*
X83572474Y-114605502D01*
X83477061Y-114653208D01*
X83190824Y-114653208D01*
X83095412Y-114605502D01*
X83047706Y-114557796D01*
X126666056Y-78651378D02*
X126666056Y-79366971D01*
X126618350Y-79510090D01*
X126522938Y-79605502D01*
X126379819Y-79653208D01*
X126284407Y-79653208D01*
X127047706Y-78651378D02*
X127667886Y-78651378D01*
X127333943Y-79033028D01*
X127477061Y-79033028D01*
X127572474Y-79080734D01*
X127620180Y-79128440D01*
X127667886Y-79223853D01*
X127667886Y-79462384D01*
X127620180Y-79557796D01*
X127572474Y-79605502D01*
X127477061Y-79653208D01*
X127190824Y-79653208D01*
X127095412Y-79605502D01*
X127047706Y-79557796D01*
D10*
X142233333Y-98757142D02*
X142185714Y-98804761D01*
X142042857Y-98852380D01*
X141947619Y-98852380D01*
X141804761Y-98804761D01*
X141709523Y-98709523D01*
X141661904Y-98614285D01*
X141614285Y-98423809D01*
X141614285Y-98280952D01*
X141661904Y-98090476D01*
X141709523Y-97995238D01*
X141804761Y-97900000D01*
X141947619Y-97852380D01*
X142042857Y-97852380D01*
X142185714Y-97900000D01*
X142233333Y-97947619D01*
X142566666Y-97852380D02*
X143185714Y-97852380D01*
X142852380Y-98233333D01*
X142995238Y-98233333D01*
X143090476Y-98280952D01*
X143138095Y-98328571D01*
X143185714Y-98423809D01*
X143185714Y-98661904D01*
X143138095Y-98757142D01*
X143090476Y-98804761D01*
X142995238Y-98852380D01*
X142709523Y-98852380D01*
X142614285Y-98804761D01*
X142566666Y-98757142D01*
X98233333Y-98757142D02*
X98185714Y-98804761D01*
X98042857Y-98852380D01*
X97947619Y-98852380D01*
X97804761Y-98804761D01*
X97709523Y-98709523D01*
X97661904Y-98614285D01*
X97614285Y-98423809D01*
X97614285Y-98280952D01*
X97661904Y-98090476D01*
X97709523Y-97995238D01*
X97804761Y-97900000D01*
X97947619Y-97852380D01*
X98042857Y-97852380D01*
X98185714Y-97900000D01*
X98233333Y-97947619D01*
X98566666Y-97852380D02*
X99185714Y-97852380D01*
X98852380Y-98233333D01*
X98995238Y-98233333D01*
X99090476Y-98280952D01*
X99138095Y-98328571D01*
X99185714Y-98423809D01*
X99185714Y-98661904D01*
X99138095Y-98757142D01*
X99090476Y-98804761D01*
X98995238Y-98852380D01*
X98709523Y-98852380D01*
X98614285Y-98804761D01*
X98566666Y-98757142D01*
X142233333Y-63757142D02*
X142185714Y-63804761D01*
X142042857Y-63852380D01*
X141947619Y-63852380D01*
X141804761Y-63804761D01*
X141709523Y-63709523D01*
X141661904Y-63614285D01*
X141614285Y-63423809D01*
X141614285Y-63280952D01*
X141661904Y-63090476D01*
X141709523Y-62995238D01*
X141804761Y-62900000D01*
X141947619Y-62852380D01*
X142042857Y-62852380D01*
X142185714Y-62900000D01*
X142233333Y-62947619D01*
X142566666Y-62852380D02*
X143185714Y-62852380D01*
X142852380Y-63233333D01*
X142995238Y-63233333D01*
X143090476Y-63280952D01*
X143138095Y-63328571D01*
X143185714Y-63423809D01*
X143185714Y-63661904D01*
X143138095Y-63757142D01*
X143090476Y-63804761D01*
X142995238Y-63852380D01*
X142709523Y-63852380D01*
X142614285Y-63804761D01*
X142566666Y-63757142D01*
X152283333Y-97707142D02*
X152235714Y-97754761D01*
X152092857Y-97802380D01*
X151997619Y-97802380D01*
X151854761Y-97754761D01*
X151759523Y-97659523D01*
X151711904Y-97564285D01*
X151664285Y-97373809D01*
X151664285Y-97230952D01*
X151711904Y-97040476D01*
X151759523Y-96945238D01*
X151854761Y-96850000D01*
X151997619Y-96802380D01*
X152092857Y-96802380D01*
X152235714Y-96850000D01*
X152283333Y-96897619D01*
X152854761Y-97230952D02*
X152759523Y-97183333D01*
X152711904Y-97135714D01*
X152664285Y-97040476D01*
X152664285Y-96992857D01*
X152711904Y-96897619D01*
X152759523Y-96850000D01*
X152854761Y-96802380D01*
X153045238Y-96802380D01*
X153140476Y-96850000D01*
X153188095Y-96897619D01*
X153235714Y-96992857D01*
X153235714Y-97040476D01*
X153188095Y-97135714D01*
X153140476Y-97183333D01*
X153045238Y-97230952D01*
X152854761Y-97230952D01*
X152759523Y-97278571D01*
X152711904Y-97326190D01*
X152664285Y-97421428D01*
X152664285Y-97611904D01*
X152711904Y-97707142D01*
X152759523Y-97754761D01*
X152854761Y-97802380D01*
X153045238Y-97802380D01*
X153140476Y-97754761D01*
X153188095Y-97707142D01*
X153235714Y-97611904D01*
X153235714Y-97421428D01*
X153188095Y-97326190D01*
X153140476Y-97278571D01*
X153045238Y-97230952D01*
X108283333Y-97707142D02*
X108235714Y-97754761D01*
X108092857Y-97802380D01*
X107997619Y-97802380D01*
X107854761Y-97754761D01*
X107759523Y-97659523D01*
X107711904Y-97564285D01*
X107664285Y-97373809D01*
X107664285Y-97230952D01*
X107711904Y-97040476D01*
X107759523Y-96945238D01*
X107854761Y-96850000D01*
X107997619Y-96802380D01*
X108092857Y-96802380D01*
X108235714Y-96850000D01*
X108283333Y-96897619D01*
X108854761Y-97230952D02*
X108759523Y-97183333D01*
X108711904Y-97135714D01*
X108664285Y-97040476D01*
X108664285Y-96992857D01*
X108711904Y-96897619D01*
X108759523Y-96850000D01*
X108854761Y-96802380D01*
X109045238Y-96802380D01*
X109140476Y-96850000D01*
X109188095Y-96897619D01*
X109235714Y-96992857D01*
X109235714Y-97040476D01*
X109188095Y-97135714D01*
X109140476Y-97183333D01*
X109045238Y-97230952D01*
X108854761Y-97230952D01*
X108759523Y-97278571D01*
X108711904Y-97326190D01*
X108664285Y-97421428D01*
X108664285Y-97611904D01*
X108711904Y-97707142D01*
X108759523Y-97754761D01*
X108854761Y-97802380D01*
X109045238Y-97802380D01*
X109140476Y-97754761D01*
X109188095Y-97707142D01*
X109235714Y-97611904D01*
X109235714Y-97421428D01*
X109188095Y-97326190D01*
X109140476Y-97278571D01*
X109045238Y-97230952D01*
X152283333Y-62707142D02*
X152235714Y-62754761D01*
X152092857Y-62802380D01*
X151997619Y-62802380D01*
X151854761Y-62754761D01*
X151759523Y-62659523D01*
X151711904Y-62564285D01*
X151664285Y-62373809D01*
X151664285Y-62230952D01*
X151711904Y-62040476D01*
X151759523Y-61945238D01*
X151854761Y-61850000D01*
X151997619Y-61802380D01*
X152092857Y-61802380D01*
X152235714Y-61850000D01*
X152283333Y-61897619D01*
X152854761Y-62230952D02*
X152759523Y-62183333D01*
X152711904Y-62135714D01*
X152664285Y-62040476D01*
X152664285Y-61992857D01*
X152711904Y-61897619D01*
X152759523Y-61850000D01*
X152854761Y-61802380D01*
X153045238Y-61802380D01*
X153140476Y-61850000D01*
X153188095Y-61897619D01*
X153235714Y-61992857D01*
X153235714Y-62040476D01*
X153188095Y-62135714D01*
X153140476Y-62183333D01*
X153045238Y-62230952D01*
X152854761Y-62230952D01*
X152759523Y-62278571D01*
X152711904Y-62326190D01*
X152664285Y-62421428D01*
X152664285Y-62611904D01*
X152711904Y-62707142D01*
X152759523Y-62754761D01*
X152854761Y-62802380D01*
X153045238Y-62802380D01*
X153140476Y-62754761D01*
X153188095Y-62707142D01*
X153235714Y-62611904D01*
X153235714Y-62421428D01*
X153188095Y-62326190D01*
X153140476Y-62278571D01*
X153045238Y-62230952D01*
X134857142Y-112857142D02*
X134809523Y-112904761D01*
X134666666Y-112952380D01*
X134571428Y-112952380D01*
X134428571Y-112904761D01*
X134333333Y-112809523D01*
X134285714Y-112714285D01*
X134238095Y-112523809D01*
X134238095Y-112380952D01*
X134285714Y-112190476D01*
X134333333Y-112095238D01*
X134428571Y-112000000D01*
X134571428Y-111952380D01*
X134666666Y-111952380D01*
X134809523Y-112000000D01*
X134857142Y-112047619D01*
X135809523Y-112952380D02*
X135238095Y-112952380D01*
X135523809Y-112952380D02*
X135523809Y-111952380D01*
X135428571Y-112095238D01*
X135333333Y-112190476D01*
X135238095Y-112238095D01*
X136666666Y-112285714D02*
X136666666Y-112952380D01*
X136428571Y-111904761D02*
X136190476Y-112619047D01*
X136809523Y-112619047D01*
X90857142Y-112857142D02*
X90809523Y-112904761D01*
X90666666Y-112952380D01*
X90571428Y-112952380D01*
X90428571Y-112904761D01*
X90333333Y-112809523D01*
X90285714Y-112714285D01*
X90238095Y-112523809D01*
X90238095Y-112380952D01*
X90285714Y-112190476D01*
X90333333Y-112095238D01*
X90428571Y-112000000D01*
X90571428Y-111952380D01*
X90666666Y-111952380D01*
X90809523Y-112000000D01*
X90857142Y-112047619D01*
X91809523Y-112952380D02*
X91238095Y-112952380D01*
X91523809Y-112952380D02*
X91523809Y-111952380D01*
X91428571Y-112095238D01*
X91333333Y-112190476D01*
X91238095Y-112238095D01*
X92666666Y-112285714D02*
X92666666Y-112952380D01*
X92428571Y-111904761D02*
X92190476Y-112619047D01*
X92809523Y-112619047D01*
X134857142Y-77857142D02*
X134809523Y-77904761D01*
X134666666Y-77952380D01*
X134571428Y-77952380D01*
X134428571Y-77904761D01*
X134333333Y-77809523D01*
X134285714Y-77714285D01*
X134238095Y-77523809D01*
X134238095Y-77380952D01*
X134285714Y-77190476D01*
X134333333Y-77095238D01*
X134428571Y-77000000D01*
X134571428Y-76952380D01*
X134666666Y-76952380D01*
X134809523Y-77000000D01*
X134857142Y-77047619D01*
X135809523Y-77952380D02*
X135238095Y-77952380D01*
X135523809Y-77952380D02*
X135523809Y-76952380D01*
X135428571Y-77095238D01*
X135333333Y-77190476D01*
X135238095Y-77238095D01*
X136666666Y-77285714D02*
X136666666Y-77952380D01*
X136428571Y-76904761D02*
X136190476Y-77619047D01*
X136809523Y-77619047D01*
D16*
X126666056Y-102451378D02*
X126666056Y-103166971D01*
X126618350Y-103310090D01*
X126522938Y-103405502D01*
X126379819Y-103453208D01*
X126284407Y-103453208D01*
X127095412Y-102546791D02*
X127143118Y-102499085D01*
X127238530Y-102451378D01*
X127477061Y-102451378D01*
X127572474Y-102499085D01*
X127620180Y-102546791D01*
X127667886Y-102642203D01*
X127667886Y-102737615D01*
X127620180Y-102880734D01*
X127047706Y-103453208D01*
X127667886Y-103453208D01*
X82666056Y-102451378D02*
X82666056Y-103166971D01*
X82618350Y-103310090D01*
X82522938Y-103405502D01*
X82379819Y-103453208D01*
X82284407Y-103453208D01*
X83095412Y-102546791D02*
X83143118Y-102499085D01*
X83238530Y-102451378D01*
X83477061Y-102451378D01*
X83572474Y-102499085D01*
X83620180Y-102546791D01*
X83667886Y-102642203D01*
X83667886Y-102737615D01*
X83620180Y-102880734D01*
X83047706Y-103453208D01*
X83667886Y-103453208D01*
X126666056Y-67451378D02*
X126666056Y-68166971D01*
X126618350Y-68310090D01*
X126522938Y-68405502D01*
X126379819Y-68453208D01*
X126284407Y-68453208D01*
X127095412Y-67546791D02*
X127143118Y-67499085D01*
X127238530Y-67451378D01*
X127477061Y-67451378D01*
X127572474Y-67499085D01*
X127620180Y-67546791D01*
X127667886Y-67642203D01*
X127667886Y-67737615D01*
X127620180Y-67880734D01*
X127047706Y-68453208D01*
X127667886Y-68453208D01*
D10*
X147233333Y-108952380D02*
X146757142Y-108952380D01*
X146757142Y-107952380D01*
X148090476Y-108952380D02*
X147519047Y-108952380D01*
X147804761Y-108952380D02*
X147804761Y-107952380D01*
X147709523Y-108095238D01*
X147614285Y-108190476D01*
X147519047Y-108238095D01*
X103233333Y-108952380D02*
X102757142Y-108952380D01*
X102757142Y-107952380D01*
X104090476Y-108952380D02*
X103519047Y-108952380D01*
X103804761Y-108952380D02*
X103804761Y-107952380D01*
X103709523Y-108095238D01*
X103614285Y-108190476D01*
X103519047Y-108238095D01*
X147233333Y-73952380D02*
X146757142Y-73952380D01*
X146757142Y-72952380D01*
X148090476Y-73952380D02*
X147519047Y-73952380D01*
X147804761Y-73952380D02*
X147804761Y-72952380D01*
X147709523Y-73095238D01*
X147614285Y-73190476D01*
X147519047Y-73238095D01*
X130833333Y-89757142D02*
X130785714Y-89804761D01*
X130642857Y-89852380D01*
X130547619Y-89852380D01*
X130404761Y-89804761D01*
X130309523Y-89709523D01*
X130261904Y-89614285D01*
X130214285Y-89423809D01*
X130214285Y-89280952D01*
X130261904Y-89090476D01*
X130309523Y-88995238D01*
X130404761Y-88900000D01*
X130547619Y-88852380D01*
X130642857Y-88852380D01*
X130785714Y-88900000D01*
X130833333Y-88947619D01*
X131166666Y-88852380D02*
X131833333Y-88852380D01*
X131404761Y-89852380D01*
X86833333Y-89757142D02*
X86785714Y-89804761D01*
X86642857Y-89852380D01*
X86547619Y-89852380D01*
X86404761Y-89804761D01*
X86309523Y-89709523D01*
X86261904Y-89614285D01*
X86214285Y-89423809D01*
X86214285Y-89280952D01*
X86261904Y-89090476D01*
X86309523Y-88995238D01*
X86404761Y-88900000D01*
X86547619Y-88852380D01*
X86642857Y-88852380D01*
X86785714Y-88900000D01*
X86833333Y-88947619D01*
X87166666Y-88852380D02*
X87833333Y-88852380D01*
X87404761Y-89852380D01*
X130833333Y-54757142D02*
X130785714Y-54804761D01*
X130642857Y-54852380D01*
X130547619Y-54852380D01*
X130404761Y-54804761D01*
X130309523Y-54709523D01*
X130261904Y-54614285D01*
X130214285Y-54423809D01*
X130214285Y-54280952D01*
X130261904Y-54090476D01*
X130309523Y-53995238D01*
X130404761Y-53900000D01*
X130547619Y-53852380D01*
X130642857Y-53852380D01*
X130785714Y-53900000D01*
X130833333Y-53947619D01*
X131166666Y-53852380D02*
X131833333Y-53852380D01*
X131404761Y-54852380D01*
X149857142Y-113857142D02*
X149809523Y-113904761D01*
X149666666Y-113952380D01*
X149571428Y-113952380D01*
X149428571Y-113904761D01*
X149333333Y-113809523D01*
X149285714Y-113714285D01*
X149238095Y-113523809D01*
X149238095Y-113380952D01*
X149285714Y-113190476D01*
X149333333Y-113095238D01*
X149428571Y-113000000D01*
X149571428Y-112952380D01*
X149666666Y-112952380D01*
X149809523Y-113000000D01*
X149857142Y-113047619D01*
X150809523Y-113952380D02*
X150238095Y-113952380D01*
X150523809Y-113952380D02*
X150523809Y-112952380D01*
X150428571Y-113095238D01*
X150333333Y-113190476D01*
X150238095Y-113238095D01*
X151761904Y-113952380D02*
X151190476Y-113952380D01*
X151476190Y-113952380D02*
X151476190Y-112952380D01*
X151380952Y-113095238D01*
X151285714Y-113190476D01*
X151190476Y-113238095D01*
X105857142Y-113857142D02*
X105809523Y-113904761D01*
X105666666Y-113952380D01*
X105571428Y-113952380D01*
X105428571Y-113904761D01*
X105333333Y-113809523D01*
X105285714Y-113714285D01*
X105238095Y-113523809D01*
X105238095Y-113380952D01*
X105285714Y-113190476D01*
X105333333Y-113095238D01*
X105428571Y-113000000D01*
X105571428Y-112952380D01*
X105666666Y-112952380D01*
X105809523Y-113000000D01*
X105857142Y-113047619D01*
X106809523Y-113952380D02*
X106238095Y-113952380D01*
X106523809Y-113952380D02*
X106523809Y-112952380D01*
X106428571Y-113095238D01*
X106333333Y-113190476D01*
X106238095Y-113238095D01*
X107761904Y-113952380D02*
X107190476Y-113952380D01*
X107476190Y-113952380D02*
X107476190Y-112952380D01*
X107380952Y-113095238D01*
X107285714Y-113190476D01*
X107190476Y-113238095D01*
X149857142Y-78857142D02*
X149809523Y-78904761D01*
X149666666Y-78952380D01*
X149571428Y-78952380D01*
X149428571Y-78904761D01*
X149333333Y-78809523D01*
X149285714Y-78714285D01*
X149238095Y-78523809D01*
X149238095Y-78380952D01*
X149285714Y-78190476D01*
X149333333Y-78095238D01*
X149428571Y-78000000D01*
X149571428Y-77952380D01*
X149666666Y-77952380D01*
X149809523Y-78000000D01*
X149857142Y-78047619D01*
X150809523Y-78952380D02*
X150238095Y-78952380D01*
X150523809Y-78952380D02*
X150523809Y-77952380D01*
X150428571Y-78095238D01*
X150333333Y-78190476D01*
X150238095Y-78238095D01*
X151761904Y-78952380D02*
X151190476Y-78952380D01*
X151476190Y-78952380D02*
X151476190Y-77952380D01*
X151380952Y-78095238D01*
X151285714Y-78190476D01*
X151190476Y-78238095D01*
X150861904Y-93702380D02*
X150861904Y-92702380D01*
X151100000Y-92702380D01*
X151242857Y-92750000D01*
X151338095Y-92845238D01*
X151385714Y-92940476D01*
X151433333Y-93130952D01*
X151433333Y-93273809D01*
X151385714Y-93464285D01*
X151338095Y-93559523D01*
X151242857Y-93654761D01*
X151100000Y-93702380D01*
X150861904Y-93702380D01*
X152385714Y-93702380D02*
X151814285Y-93702380D01*
X152100000Y-93702380D02*
X152100000Y-92702380D01*
X152004761Y-92845238D01*
X151909523Y-92940476D01*
X151814285Y-92988095D01*
X106861904Y-93702380D02*
X106861904Y-92702380D01*
X107100000Y-92702380D01*
X107242857Y-92750000D01*
X107338095Y-92845238D01*
X107385714Y-92940476D01*
X107433333Y-93130952D01*
X107433333Y-93273809D01*
X107385714Y-93464285D01*
X107338095Y-93559523D01*
X107242857Y-93654761D01*
X107100000Y-93702380D01*
X106861904Y-93702380D01*
X108385714Y-93702380D02*
X107814285Y-93702380D01*
X108100000Y-93702380D02*
X108100000Y-92702380D01*
X108004761Y-92845238D01*
X107909523Y-92940476D01*
X107814285Y-92988095D01*
X150861904Y-58702380D02*
X150861904Y-57702380D01*
X151100000Y-57702380D01*
X151242857Y-57750000D01*
X151338095Y-57845238D01*
X151385714Y-57940476D01*
X151433333Y-58130952D01*
X151433333Y-58273809D01*
X151385714Y-58464285D01*
X151338095Y-58559523D01*
X151242857Y-58654761D01*
X151100000Y-58702380D01*
X150861904Y-58702380D01*
X152385714Y-58702380D02*
X151814285Y-58702380D01*
X152100000Y-58702380D02*
X152100000Y-57702380D01*
X152004761Y-57845238D01*
X151909523Y-57940476D01*
X151814285Y-57988095D01*
X151433333Y-96152380D02*
X151100000Y-95676190D01*
X150861904Y-96152380D02*
X150861904Y-95152380D01*
X151242857Y-95152380D01*
X151338095Y-95200000D01*
X151385714Y-95247619D01*
X151433333Y-95342857D01*
X151433333Y-95485714D01*
X151385714Y-95580952D01*
X151338095Y-95628571D01*
X151242857Y-95676190D01*
X150861904Y-95676190D01*
X152385714Y-96152380D02*
X151814285Y-96152380D01*
X152100000Y-96152380D02*
X152100000Y-95152380D01*
X152004761Y-95295238D01*
X151909523Y-95390476D01*
X151814285Y-95438095D01*
X107433333Y-96152380D02*
X107100000Y-95676190D01*
X106861904Y-96152380D02*
X106861904Y-95152380D01*
X107242857Y-95152380D01*
X107338095Y-95200000D01*
X107385714Y-95247619D01*
X107433333Y-95342857D01*
X107433333Y-95485714D01*
X107385714Y-95580952D01*
X107338095Y-95628571D01*
X107242857Y-95676190D01*
X106861904Y-95676190D01*
X108385714Y-96152380D02*
X107814285Y-96152380D01*
X108100000Y-96152380D02*
X108100000Y-95152380D01*
X108004761Y-95295238D01*
X107909523Y-95390476D01*
X107814285Y-95438095D01*
X151433333Y-61152380D02*
X151100000Y-60676190D01*
X150861904Y-61152380D02*
X150861904Y-60152380D01*
X151242857Y-60152380D01*
X151338095Y-60200000D01*
X151385714Y-60247619D01*
X151433333Y-60342857D01*
X151433333Y-60485714D01*
X151385714Y-60580952D01*
X151338095Y-60628571D01*
X151242857Y-60676190D01*
X150861904Y-60676190D01*
X152385714Y-61152380D02*
X151814285Y-61152380D01*
X152100000Y-61152380D02*
X152100000Y-60152380D01*
X152004761Y-60295238D01*
X151909523Y-60390476D01*
X151814285Y-60438095D01*
X134833333Y-118452380D02*
X134500000Y-117976190D01*
X134261904Y-118452380D02*
X134261904Y-117452380D01*
X134642857Y-117452380D01*
X134738095Y-117500000D01*
X134785714Y-117547619D01*
X134833333Y-117642857D01*
X134833333Y-117785714D01*
X134785714Y-117880952D01*
X134738095Y-117928571D01*
X134642857Y-117976190D01*
X134261904Y-117976190D01*
X135166666Y-117452380D02*
X135833333Y-117452380D01*
X135404761Y-118452380D01*
X90833333Y-118452380D02*
X90500000Y-117976190D01*
X90261904Y-118452380D02*
X90261904Y-117452380D01*
X90642857Y-117452380D01*
X90738095Y-117500000D01*
X90785714Y-117547619D01*
X90833333Y-117642857D01*
X90833333Y-117785714D01*
X90785714Y-117880952D01*
X90738095Y-117928571D01*
X90642857Y-117976190D01*
X90261904Y-117976190D01*
X91166666Y-117452380D02*
X91833333Y-117452380D01*
X91404761Y-118452380D01*
X134833333Y-83452380D02*
X134500000Y-82976190D01*
X134261904Y-83452380D02*
X134261904Y-82452380D01*
X134642857Y-82452380D01*
X134738095Y-82500000D01*
X134785714Y-82547619D01*
X134833333Y-82642857D01*
X134833333Y-82785714D01*
X134785714Y-82880952D01*
X134738095Y-82928571D01*
X134642857Y-82976190D01*
X134261904Y-82976190D01*
X135166666Y-82452380D02*
X135833333Y-82452380D01*
X135404761Y-83452380D01*
X134833333Y-115452380D02*
X134500000Y-114976190D01*
X134261904Y-115452380D02*
X134261904Y-114452380D01*
X134642857Y-114452380D01*
X134738095Y-114500000D01*
X134785714Y-114547619D01*
X134833333Y-114642857D01*
X134833333Y-114785714D01*
X134785714Y-114880952D01*
X134738095Y-114928571D01*
X134642857Y-114976190D01*
X134261904Y-114976190D01*
X135690476Y-114452380D02*
X135500000Y-114452380D01*
X135404761Y-114500000D01*
X135357142Y-114547619D01*
X135261904Y-114690476D01*
X135214285Y-114880952D01*
X135214285Y-115261904D01*
X135261904Y-115357142D01*
X135309523Y-115404761D01*
X135404761Y-115452380D01*
X135595238Y-115452380D01*
X135690476Y-115404761D01*
X135738095Y-115357142D01*
X135785714Y-115261904D01*
X135785714Y-115023809D01*
X135738095Y-114928571D01*
X135690476Y-114880952D01*
X135595238Y-114833333D01*
X135404761Y-114833333D01*
X135309523Y-114880952D01*
X135261904Y-114928571D01*
X135214285Y-115023809D01*
X90833333Y-115452380D02*
X90500000Y-114976190D01*
X90261904Y-115452380D02*
X90261904Y-114452380D01*
X90642857Y-114452380D01*
X90738095Y-114500000D01*
X90785714Y-114547619D01*
X90833333Y-114642857D01*
X90833333Y-114785714D01*
X90785714Y-114880952D01*
X90738095Y-114928571D01*
X90642857Y-114976190D01*
X90261904Y-114976190D01*
X91690476Y-114452380D02*
X91500000Y-114452380D01*
X91404761Y-114500000D01*
X91357142Y-114547619D01*
X91261904Y-114690476D01*
X91214285Y-114880952D01*
X91214285Y-115261904D01*
X91261904Y-115357142D01*
X91309523Y-115404761D01*
X91404761Y-115452380D01*
X91595238Y-115452380D01*
X91690476Y-115404761D01*
X91738095Y-115357142D01*
X91785714Y-115261904D01*
X91785714Y-115023809D01*
X91738095Y-114928571D01*
X91690476Y-114880952D01*
X91595238Y-114833333D01*
X91404761Y-114833333D01*
X91309523Y-114880952D01*
X91261904Y-114928571D01*
X91214285Y-115023809D01*
X134833333Y-80452380D02*
X134500000Y-79976190D01*
X134261904Y-80452380D02*
X134261904Y-79452380D01*
X134642857Y-79452380D01*
X134738095Y-79500000D01*
X134785714Y-79547619D01*
X134833333Y-79642857D01*
X134833333Y-79785714D01*
X134785714Y-79880952D01*
X134738095Y-79928571D01*
X134642857Y-79976190D01*
X134261904Y-79976190D01*
X135690476Y-79452380D02*
X135500000Y-79452380D01*
X135404761Y-79500000D01*
X135357142Y-79547619D01*
X135261904Y-79690476D01*
X135214285Y-79880952D01*
X135214285Y-80261904D01*
X135261904Y-80357142D01*
X135309523Y-80404761D01*
X135404761Y-80452380D01*
X135595238Y-80452380D01*
X135690476Y-80404761D01*
X135738095Y-80357142D01*
X135785714Y-80261904D01*
X135785714Y-80023809D01*
X135738095Y-79928571D01*
X135690476Y-79880952D01*
X135595238Y-79833333D01*
X135404761Y-79833333D01*
X135309523Y-79880952D01*
X135261904Y-79928571D01*
X135214285Y-80023809D01*
X134780952Y-96752380D02*
X134304761Y-96752380D01*
X134304761Y-95752380D01*
X135114285Y-96228571D02*
X135447619Y-96228571D01*
X135590476Y-96752380D02*
X135114285Y-96752380D01*
X135114285Y-95752380D01*
X135590476Y-95752380D01*
X136019047Y-96752380D02*
X136019047Y-95752380D01*
X136257142Y-95752380D01*
X136400000Y-95800000D01*
X136495238Y-95895238D01*
X136542857Y-95990476D01*
X136590476Y-96180952D01*
X136590476Y-96323809D01*
X136542857Y-96514285D01*
X136495238Y-96609523D01*
X136400000Y-96704761D01*
X136257142Y-96752380D01*
X136019047Y-96752380D01*
X137542857Y-96752380D02*
X136971428Y-96752380D01*
X137257142Y-96752380D02*
X137257142Y-95752380D01*
X137161904Y-95895238D01*
X137066666Y-95990476D01*
X136971428Y-96038095D01*
X90780952Y-96752380D02*
X90304761Y-96752380D01*
X90304761Y-95752380D01*
X91114285Y-96228571D02*
X91447619Y-96228571D01*
X91590476Y-96752380D02*
X91114285Y-96752380D01*
X91114285Y-95752380D01*
X91590476Y-95752380D01*
X92019047Y-96752380D02*
X92019047Y-95752380D01*
X92257142Y-95752380D01*
X92400000Y-95800000D01*
X92495238Y-95895238D01*
X92542857Y-95990476D01*
X92590476Y-96180952D01*
X92590476Y-96323809D01*
X92542857Y-96514285D01*
X92495238Y-96609523D01*
X92400000Y-96704761D01*
X92257142Y-96752380D01*
X92019047Y-96752380D01*
X93542857Y-96752380D02*
X92971428Y-96752380D01*
X93257142Y-96752380D02*
X93257142Y-95752380D01*
X93161904Y-95895238D01*
X93066666Y-95990476D01*
X92971428Y-96038095D01*
X134780952Y-61752380D02*
X134304761Y-61752380D01*
X134304761Y-60752380D01*
X135114285Y-61228571D02*
X135447619Y-61228571D01*
X135590476Y-61752380D02*
X135114285Y-61752380D01*
X135114285Y-60752380D01*
X135590476Y-60752380D01*
X136019047Y-61752380D02*
X136019047Y-60752380D01*
X136257142Y-60752380D01*
X136400000Y-60800000D01*
X136495238Y-60895238D01*
X136542857Y-60990476D01*
X136590476Y-61180952D01*
X136590476Y-61323809D01*
X136542857Y-61514285D01*
X136495238Y-61609523D01*
X136400000Y-61704761D01*
X136257142Y-61752380D01*
X136019047Y-61752380D01*
X137542857Y-61752380D02*
X136971428Y-61752380D01*
X137257142Y-61752380D02*
X137257142Y-60752380D01*
X137161904Y-60895238D01*
X137066666Y-60990476D01*
X136971428Y-61038095D01*
X134561904Y-106552380D02*
X134561904Y-105552380D01*
X134942857Y-105552380D01*
X135038095Y-105600000D01*
X135085714Y-105647619D01*
X135133333Y-105742857D01*
X135133333Y-105885714D01*
X135085714Y-105980952D01*
X135038095Y-106028571D01*
X134942857Y-106076190D01*
X134561904Y-106076190D01*
X136085714Y-106552380D02*
X135514285Y-106552380D01*
X135800000Y-106552380D02*
X135800000Y-105552380D01*
X135704761Y-105695238D01*
X135609523Y-105790476D01*
X135514285Y-105838095D01*
X90561904Y-106552380D02*
X90561904Y-105552380D01*
X90942857Y-105552380D01*
X91038095Y-105600000D01*
X91085714Y-105647619D01*
X91133333Y-105742857D01*
X91133333Y-105885714D01*
X91085714Y-105980952D01*
X91038095Y-106028571D01*
X90942857Y-106076190D01*
X90561904Y-106076190D01*
X92085714Y-106552380D02*
X91514285Y-106552380D01*
X91800000Y-106552380D02*
X91800000Y-105552380D01*
X91704761Y-105695238D01*
X91609523Y-105790476D01*
X91514285Y-105838095D01*
X134561904Y-71552380D02*
X134561904Y-70552380D01*
X134942857Y-70552380D01*
X135038095Y-70600000D01*
X135085714Y-70647619D01*
X135133333Y-70742857D01*
X135133333Y-70885714D01*
X135085714Y-70980952D01*
X135038095Y-71028571D01*
X134942857Y-71076190D01*
X134561904Y-71076190D01*
X136085714Y-71552380D02*
X135514285Y-71552380D01*
X135800000Y-71552380D02*
X135800000Y-70552380D01*
X135704761Y-70695238D01*
X135609523Y-70790476D01*
X135514285Y-70838095D01*
D16*
X82666056Y-78651378D02*
X82666056Y-79366971D01*
X82618350Y-79510090D01*
X82522938Y-79605502D01*
X82379819Y-79653208D01*
X82284407Y-79653208D01*
X83047706Y-78651378D02*
X83667886Y-78651378D01*
X83333943Y-79033028D01*
X83477061Y-79033028D01*
X83572474Y-79080734D01*
X83620180Y-79128440D01*
X83667886Y-79223853D01*
X83667886Y-79462384D01*
X83620180Y-79557796D01*
X83572474Y-79605502D01*
X83477061Y-79653208D01*
X83190824Y-79653208D01*
X83095412Y-79605502D01*
X83047706Y-79557796D01*
X82666056Y-67451378D02*
X82666056Y-68166971D01*
X82618350Y-68310090D01*
X82522938Y-68405502D01*
X82379819Y-68453208D01*
X82284407Y-68453208D01*
X83095412Y-67546791D02*
X83143118Y-67499085D01*
X83238530Y-67451378D01*
X83477061Y-67451378D01*
X83572474Y-67499085D01*
X83620180Y-67546791D01*
X83667886Y-67642203D01*
X83667886Y-67737615D01*
X83620180Y-67880734D01*
X83047706Y-68453208D01*
X83667886Y-68453208D01*
D10*
X107738095Y-63352380D02*
X107738095Y-64161904D01*
X107785714Y-64257142D01*
X107833333Y-64304761D01*
X107928571Y-64352380D01*
X108119047Y-64352380D01*
X108214285Y-64304761D01*
X108261904Y-64257142D01*
X108309523Y-64161904D01*
X108309523Y-63352380D01*
X108738095Y-63447619D02*
X108785714Y-63400000D01*
X108880952Y-63352380D01*
X109119047Y-63352380D01*
X109214285Y-63400000D01*
X109261904Y-63447619D01*
X109309523Y-63542857D01*
X109309523Y-63638095D01*
X109261904Y-63780952D01*
X108690476Y-64352380D01*
X109309523Y-64352380D01*
X79433333Y-60357142D02*
X79385714Y-60404761D01*
X79242857Y-60452380D01*
X79147619Y-60452380D01*
X79004761Y-60404761D01*
X78909523Y-60309523D01*
X78861904Y-60214285D01*
X78814285Y-60023809D01*
X78814285Y-59880952D01*
X78861904Y-59690476D01*
X78909523Y-59595238D01*
X79004761Y-59500000D01*
X79147619Y-59452380D01*
X79242857Y-59452380D01*
X79385714Y-59500000D01*
X79433333Y-59547619D01*
X79814285Y-59547619D02*
X79861904Y-59500000D01*
X79957142Y-59452380D01*
X80195238Y-59452380D01*
X80290476Y-59500000D01*
X80338095Y-59547619D01*
X80385714Y-59642857D01*
X80385714Y-59738095D01*
X80338095Y-59880952D01*
X79766666Y-60452380D01*
X80385714Y-60452380D01*
X83033333Y-63357142D02*
X82985714Y-63404761D01*
X82842857Y-63452380D01*
X82747619Y-63452380D01*
X82604761Y-63404761D01*
X82509523Y-63309523D01*
X82461904Y-63214285D01*
X82414285Y-63023809D01*
X82414285Y-62880952D01*
X82461904Y-62690476D01*
X82509523Y-62595238D01*
X82604761Y-62500000D01*
X82747619Y-62452380D01*
X82842857Y-62452380D01*
X82985714Y-62500000D01*
X83033333Y-62547619D01*
X83938095Y-62452380D02*
X83461904Y-62452380D01*
X83414285Y-62928571D01*
X83461904Y-62880952D01*
X83557142Y-62833333D01*
X83795238Y-62833333D01*
X83890476Y-62880952D01*
X83938095Y-62928571D01*
X83985714Y-63023809D01*
X83985714Y-63261904D01*
X83938095Y-63357142D01*
X83890476Y-63404761D01*
X83795238Y-63452380D01*
X83557142Y-63452380D01*
X83461904Y-63404761D01*
X83414285Y-63357142D01*
X86833333Y-54757142D02*
X86785714Y-54804761D01*
X86642857Y-54852380D01*
X86547619Y-54852380D01*
X86404761Y-54804761D01*
X86309523Y-54709523D01*
X86261904Y-54614285D01*
X86214285Y-54423809D01*
X86214285Y-54280952D01*
X86261904Y-54090476D01*
X86309523Y-53995238D01*
X86404761Y-53900000D01*
X86547619Y-53852380D01*
X86642857Y-53852380D01*
X86785714Y-53900000D01*
X86833333Y-53947619D01*
X87166666Y-53852380D02*
X87833333Y-53852380D01*
X87404761Y-54852380D01*
X99633333Y-59807142D02*
X99585714Y-59854761D01*
X99442857Y-59902380D01*
X99347619Y-59902380D01*
X99204761Y-59854761D01*
X99109523Y-59759523D01*
X99061904Y-59664285D01*
X99014285Y-59473809D01*
X99014285Y-59330952D01*
X99061904Y-59140476D01*
X99109523Y-59045238D01*
X99204761Y-58950000D01*
X99347619Y-58902380D01*
X99442857Y-58902380D01*
X99585714Y-58950000D01*
X99633333Y-58997619D01*
X100585714Y-59902380D02*
X100014285Y-59902380D01*
X100300000Y-59902380D02*
X100300000Y-58902380D01*
X100204761Y-59045238D01*
X100109523Y-59140476D01*
X100014285Y-59188095D01*
X98233333Y-63757142D02*
X98185714Y-63804761D01*
X98042857Y-63852380D01*
X97947619Y-63852380D01*
X97804761Y-63804761D01*
X97709523Y-63709523D01*
X97661904Y-63614285D01*
X97614285Y-63423809D01*
X97614285Y-63280952D01*
X97661904Y-63090476D01*
X97709523Y-62995238D01*
X97804761Y-62900000D01*
X97947619Y-62852380D01*
X98042857Y-62852380D01*
X98185714Y-62900000D01*
X98233333Y-62947619D01*
X98566666Y-62852380D02*
X99185714Y-62852380D01*
X98852380Y-63233333D01*
X98995238Y-63233333D01*
X99090476Y-63280952D01*
X99138095Y-63328571D01*
X99185714Y-63423809D01*
X99185714Y-63661904D01*
X99138095Y-63757142D01*
X99090476Y-63804761D01*
X98995238Y-63852380D01*
X98709523Y-63852380D01*
X98614285Y-63804761D01*
X98566666Y-63757142D01*
X98383333Y-72557142D02*
X98335714Y-72604761D01*
X98192857Y-72652380D01*
X98097619Y-72652380D01*
X97954761Y-72604761D01*
X97859523Y-72509523D01*
X97811904Y-72414285D01*
X97764285Y-72223809D01*
X97764285Y-72080952D01*
X97811904Y-71890476D01*
X97859523Y-71795238D01*
X97954761Y-71700000D01*
X98097619Y-71652380D01*
X98192857Y-71652380D01*
X98335714Y-71700000D01*
X98383333Y-71747619D01*
X99240476Y-71652380D02*
X99050000Y-71652380D01*
X98954761Y-71700000D01*
X98907142Y-71747619D01*
X98811904Y-71890476D01*
X98764285Y-72080952D01*
X98764285Y-72461904D01*
X98811904Y-72557142D01*
X98859523Y-72604761D01*
X98954761Y-72652380D01*
X99145238Y-72652380D01*
X99240476Y-72604761D01*
X99288095Y-72557142D01*
X99335714Y-72461904D01*
X99335714Y-72223809D01*
X99288095Y-72128571D01*
X99240476Y-72080952D01*
X99145238Y-72033333D01*
X98954761Y-72033333D01*
X98859523Y-72080952D01*
X98811904Y-72128571D01*
X98764285Y-72223809D01*
X102557142Y-82357142D02*
X102509523Y-82404761D01*
X102366666Y-82452380D01*
X102271428Y-82452380D01*
X102128571Y-82404761D01*
X102033333Y-82309523D01*
X101985714Y-82214285D01*
X101938095Y-82023809D01*
X101938095Y-81880952D01*
X101985714Y-81690476D01*
X102033333Y-81595238D01*
X102128571Y-81500000D01*
X102271428Y-81452380D01*
X102366666Y-81452380D01*
X102509523Y-81500000D01*
X102557142Y-81547619D01*
X103509523Y-82452380D02*
X102938095Y-82452380D01*
X103223809Y-82452380D02*
X103223809Y-81452380D01*
X103128571Y-81595238D01*
X103033333Y-81690476D01*
X102938095Y-81738095D01*
X104128571Y-81452380D02*
X104223809Y-81452380D01*
X104319047Y-81500000D01*
X104366666Y-81547619D01*
X104414285Y-81642857D01*
X104461904Y-81833333D01*
X104461904Y-82071428D01*
X104414285Y-82261904D01*
X104366666Y-82357142D01*
X104319047Y-82404761D01*
X104223809Y-82452380D01*
X104128571Y-82452380D01*
X104033333Y-82404761D01*
X103985714Y-82357142D01*
X103938095Y-82261904D01*
X103890476Y-82071428D01*
X103890476Y-81833333D01*
X103938095Y-81642857D01*
X103985714Y-81547619D01*
X104033333Y-81500000D01*
X104128571Y-81452380D01*
X98557142Y-82357142D02*
X98509523Y-82404761D01*
X98366666Y-82452380D01*
X98271428Y-82452380D01*
X98128571Y-82404761D01*
X98033333Y-82309523D01*
X97985714Y-82214285D01*
X97938095Y-82023809D01*
X97938095Y-81880952D01*
X97985714Y-81690476D01*
X98033333Y-81595238D01*
X98128571Y-81500000D01*
X98271428Y-81452380D01*
X98366666Y-81452380D01*
X98509523Y-81500000D01*
X98557142Y-81547619D01*
X99509523Y-82452380D02*
X98938095Y-82452380D01*
X99223809Y-82452380D02*
X99223809Y-81452380D01*
X99128571Y-81595238D01*
X99033333Y-81690476D01*
X98938095Y-81738095D01*
X99842857Y-81452380D02*
X100461904Y-81452380D01*
X100128571Y-81833333D01*
X100271428Y-81833333D01*
X100366666Y-81880952D01*
X100414285Y-81928571D01*
X100461904Y-82023809D01*
X100461904Y-82261904D01*
X100414285Y-82357142D01*
X100366666Y-82404761D01*
X100271428Y-82452380D01*
X99985714Y-82452380D01*
X99890476Y-82404761D01*
X99842857Y-82357142D01*
X110033333Y-75057142D02*
X109985714Y-75104761D01*
X109842857Y-75152380D01*
X109747619Y-75152380D01*
X109604761Y-75104761D01*
X109509523Y-75009523D01*
X109461904Y-74914285D01*
X109414285Y-74723809D01*
X109414285Y-74580952D01*
X109461904Y-74390476D01*
X109509523Y-74295238D01*
X109604761Y-74200000D01*
X109747619Y-74152380D01*
X109842857Y-74152380D01*
X109985714Y-74200000D01*
X110033333Y-74247619D01*
X110509523Y-75152380D02*
X110700000Y-75152380D01*
X110795238Y-75104761D01*
X110842857Y-75057142D01*
X110938095Y-74914285D01*
X110985714Y-74723809D01*
X110985714Y-74342857D01*
X110938095Y-74247619D01*
X110890476Y-74200000D01*
X110795238Y-74152380D01*
X110604761Y-74152380D01*
X110509523Y-74200000D01*
X110461904Y-74247619D01*
X110414285Y-74342857D01*
X110414285Y-74580952D01*
X110461904Y-74676190D01*
X110509523Y-74723809D01*
X110604761Y-74771428D01*
X110795238Y-74771428D01*
X110890476Y-74723809D01*
X110938095Y-74676190D01*
X110985714Y-74580952D01*
X90857142Y-77857142D02*
X90809523Y-77904761D01*
X90666666Y-77952380D01*
X90571428Y-77952380D01*
X90428571Y-77904761D01*
X90333333Y-77809523D01*
X90285714Y-77714285D01*
X90238095Y-77523809D01*
X90238095Y-77380952D01*
X90285714Y-77190476D01*
X90333333Y-77095238D01*
X90428571Y-77000000D01*
X90571428Y-76952380D01*
X90666666Y-76952380D01*
X90809523Y-77000000D01*
X90857142Y-77047619D01*
X91809523Y-77952380D02*
X91238095Y-77952380D01*
X91523809Y-77952380D02*
X91523809Y-76952380D01*
X91428571Y-77095238D01*
X91333333Y-77190476D01*
X91238095Y-77238095D01*
X92666666Y-77285714D02*
X92666666Y-77952380D01*
X92428571Y-76904761D02*
X92190476Y-77619047D01*
X92809523Y-77619047D01*
X90857142Y-85857142D02*
X90809523Y-85904761D01*
X90666666Y-85952380D01*
X90571428Y-85952380D01*
X90428571Y-85904761D01*
X90333333Y-85809523D01*
X90285714Y-85714285D01*
X90238095Y-85523809D01*
X90238095Y-85380952D01*
X90285714Y-85190476D01*
X90333333Y-85095238D01*
X90428571Y-85000000D01*
X90571428Y-84952380D01*
X90666666Y-84952380D01*
X90809523Y-85000000D01*
X90857142Y-85047619D01*
X91809523Y-85952380D02*
X91238095Y-85952380D01*
X91523809Y-85952380D02*
X91523809Y-84952380D01*
X91428571Y-85095238D01*
X91333333Y-85190476D01*
X91238095Y-85238095D01*
X92714285Y-84952380D02*
X92238095Y-84952380D01*
X92190476Y-85428571D01*
X92238095Y-85380952D01*
X92333333Y-85333333D01*
X92571428Y-85333333D01*
X92666666Y-85380952D01*
X92714285Y-85428571D01*
X92761904Y-85523809D01*
X92761904Y-85761904D01*
X92714285Y-85857142D01*
X92666666Y-85904761D01*
X92571428Y-85952380D01*
X92333333Y-85952380D01*
X92238095Y-85904761D01*
X92190476Y-85857142D01*
X105857142Y-78857142D02*
X105809523Y-78904761D01*
X105666666Y-78952380D01*
X105571428Y-78952380D01*
X105428571Y-78904761D01*
X105333333Y-78809523D01*
X105285714Y-78714285D01*
X105238095Y-78523809D01*
X105238095Y-78380952D01*
X105285714Y-78190476D01*
X105333333Y-78095238D01*
X105428571Y-78000000D01*
X105571428Y-77952380D01*
X105666666Y-77952380D01*
X105809523Y-78000000D01*
X105857142Y-78047619D01*
X106809523Y-78952380D02*
X106238095Y-78952380D01*
X106523809Y-78952380D02*
X106523809Y-77952380D01*
X106428571Y-78095238D01*
X106333333Y-78190476D01*
X106238095Y-78238095D01*
X107761904Y-78952380D02*
X107190476Y-78952380D01*
X107476190Y-78952380D02*
X107476190Y-77952380D01*
X107380952Y-78095238D01*
X107285714Y-78190476D01*
X107190476Y-78238095D01*
X110057142Y-65307142D02*
X110009523Y-65354761D01*
X109866666Y-65402380D01*
X109771428Y-65402380D01*
X109628571Y-65354761D01*
X109533333Y-65259523D01*
X109485714Y-65164285D01*
X109438095Y-64973809D01*
X109438095Y-64830952D01*
X109485714Y-64640476D01*
X109533333Y-64545238D01*
X109628571Y-64450000D01*
X109771428Y-64402380D01*
X109866666Y-64402380D01*
X110009523Y-64450000D01*
X110057142Y-64497619D01*
X111009523Y-65402380D02*
X110438095Y-65402380D01*
X110723809Y-65402380D02*
X110723809Y-64402380D01*
X110628571Y-64545238D01*
X110533333Y-64640476D01*
X110438095Y-64688095D01*
X111390476Y-64497619D02*
X111438095Y-64450000D01*
X111533333Y-64402380D01*
X111771428Y-64402380D01*
X111866666Y-64450000D01*
X111914285Y-64497619D01*
X111961904Y-64592857D01*
X111961904Y-64688095D01*
X111914285Y-64830952D01*
X111342857Y-65402380D01*
X111961904Y-65402380D01*
X108283333Y-62707142D02*
X108235714Y-62754761D01*
X108092857Y-62802380D01*
X107997619Y-62802380D01*
X107854761Y-62754761D01*
X107759523Y-62659523D01*
X107711904Y-62564285D01*
X107664285Y-62373809D01*
X107664285Y-62230952D01*
X107711904Y-62040476D01*
X107759523Y-61945238D01*
X107854761Y-61850000D01*
X107997619Y-61802380D01*
X108092857Y-61802380D01*
X108235714Y-61850000D01*
X108283333Y-61897619D01*
X108854761Y-62230952D02*
X108759523Y-62183333D01*
X108711904Y-62135714D01*
X108664285Y-62040476D01*
X108664285Y-61992857D01*
X108711904Y-61897619D01*
X108759523Y-61850000D01*
X108854761Y-61802380D01*
X109045238Y-61802380D01*
X109140476Y-61850000D01*
X109188095Y-61897619D01*
X109235714Y-61992857D01*
X109235714Y-62040476D01*
X109188095Y-62135714D01*
X109140476Y-62183333D01*
X109045238Y-62230952D01*
X108854761Y-62230952D01*
X108759523Y-62278571D01*
X108711904Y-62326190D01*
X108664285Y-62421428D01*
X108664285Y-62611904D01*
X108711904Y-62707142D01*
X108759523Y-62754761D01*
X108854761Y-62802380D01*
X109045238Y-62802380D01*
X109140476Y-62754761D01*
X109188095Y-62707142D01*
X109235714Y-62611904D01*
X109235714Y-62421428D01*
X109188095Y-62326190D01*
X109140476Y-62278571D01*
X109045238Y-62230952D01*
X106861904Y-58702380D02*
X106861904Y-57702380D01*
X107100000Y-57702380D01*
X107242857Y-57750000D01*
X107338095Y-57845238D01*
X107385714Y-57940476D01*
X107433333Y-58130952D01*
X107433333Y-58273809D01*
X107385714Y-58464285D01*
X107338095Y-58559523D01*
X107242857Y-58654761D01*
X107100000Y-58702380D01*
X106861904Y-58702380D01*
X108385714Y-58702380D02*
X107814285Y-58702380D01*
X108100000Y-58702380D02*
X108100000Y-57702380D01*
X108004761Y-57845238D01*
X107909523Y-57940476D01*
X107814285Y-57988095D01*
X90861904Y-63952380D02*
X90861904Y-62952380D01*
X91100000Y-62952380D01*
X91242857Y-63000000D01*
X91338095Y-63095238D01*
X91385714Y-63190476D01*
X91433333Y-63380952D01*
X91433333Y-63523809D01*
X91385714Y-63714285D01*
X91338095Y-63809523D01*
X91242857Y-63904761D01*
X91100000Y-63952380D01*
X90861904Y-63952380D01*
X91814285Y-63047619D02*
X91861904Y-63000000D01*
X91957142Y-62952380D01*
X92195238Y-62952380D01*
X92290476Y-63000000D01*
X92338095Y-63047619D01*
X92385714Y-63142857D01*
X92385714Y-63238095D01*
X92338095Y-63380952D01*
X91766666Y-63952380D01*
X92385714Y-63952380D01*
X78666666Y-54652380D02*
X78666666Y-55366666D01*
X78619047Y-55509523D01*
X78523809Y-55604761D01*
X78380952Y-55652380D01*
X78285714Y-55652380D01*
X79666666Y-55652380D02*
X79095238Y-55652380D01*
X79380952Y-55652380D02*
X79380952Y-54652380D01*
X79285714Y-54795238D01*
X79190476Y-54890476D01*
X79095238Y-54938095D01*
X103233333Y-73952380D02*
X102757142Y-73952380D01*
X102757142Y-72952380D01*
X104090476Y-73952380D02*
X103519047Y-73952380D01*
X103804761Y-73952380D02*
X103804761Y-72952380D01*
X103709523Y-73095238D01*
X103614285Y-73190476D01*
X103519047Y-73238095D01*
X90780952Y-61752380D02*
X90304761Y-61752380D01*
X90304761Y-60752380D01*
X91114285Y-61228571D02*
X91447619Y-61228571D01*
X91590476Y-61752380D02*
X91114285Y-61752380D01*
X91114285Y-60752380D01*
X91590476Y-60752380D01*
X92019047Y-61752380D02*
X92019047Y-60752380D01*
X92257142Y-60752380D01*
X92400000Y-60800000D01*
X92495238Y-60895238D01*
X92542857Y-60990476D01*
X92590476Y-61180952D01*
X92590476Y-61323809D01*
X92542857Y-61514285D01*
X92495238Y-61609523D01*
X92400000Y-61704761D01*
X92257142Y-61752380D01*
X92019047Y-61752380D01*
X93542857Y-61752380D02*
X92971428Y-61752380D01*
X93257142Y-61752380D02*
X93257142Y-60752380D01*
X93161904Y-60895238D01*
X93066666Y-60990476D01*
X92971428Y-61038095D01*
X90561904Y-71552380D02*
X90561904Y-70552380D01*
X90942857Y-70552380D01*
X91038095Y-70600000D01*
X91085714Y-70647619D01*
X91133333Y-70742857D01*
X91133333Y-70885714D01*
X91085714Y-70980952D01*
X91038095Y-71028571D01*
X90942857Y-71076190D01*
X90561904Y-71076190D01*
X92085714Y-71552380D02*
X91514285Y-71552380D01*
X91800000Y-71552380D02*
X91800000Y-70552380D01*
X91704761Y-70695238D01*
X91609523Y-70790476D01*
X91514285Y-70838095D01*
X87333333Y-63952380D02*
X87000000Y-63476190D01*
X86761904Y-63952380D02*
X86761904Y-62952380D01*
X87142857Y-62952380D01*
X87238095Y-63000000D01*
X87285714Y-63047619D01*
X87333333Y-63142857D01*
X87333333Y-63285714D01*
X87285714Y-63380952D01*
X87238095Y-63428571D01*
X87142857Y-63476190D01*
X86761904Y-63476190D01*
X87714285Y-63047619D02*
X87761904Y-63000000D01*
X87857142Y-62952380D01*
X88095238Y-62952380D01*
X88190476Y-63000000D01*
X88238095Y-63047619D01*
X88285714Y-63142857D01*
X88285714Y-63238095D01*
X88238095Y-63380952D01*
X87666666Y-63952380D01*
X88285714Y-63952380D01*
X107433333Y-61152380D02*
X107100000Y-60676190D01*
X106861904Y-61152380D02*
X106861904Y-60152380D01*
X107242857Y-60152380D01*
X107338095Y-60200000D01*
X107385714Y-60247619D01*
X107433333Y-60342857D01*
X107433333Y-60485714D01*
X107385714Y-60580952D01*
X107338095Y-60628571D01*
X107242857Y-60676190D01*
X106861904Y-60676190D01*
X108385714Y-61152380D02*
X107814285Y-61152380D01*
X108100000Y-61152380D02*
X108100000Y-60152380D01*
X108004761Y-60295238D01*
X107909523Y-60390476D01*
X107814285Y-60438095D01*
X94333333Y-63952380D02*
X94000000Y-63476190D01*
X93761904Y-63952380D02*
X93761904Y-62952380D01*
X94142857Y-62952380D01*
X94238095Y-63000000D01*
X94285714Y-63047619D01*
X94333333Y-63142857D01*
X94333333Y-63285714D01*
X94285714Y-63380952D01*
X94238095Y-63428571D01*
X94142857Y-63476190D01*
X93761904Y-63476190D01*
X94666666Y-62952380D02*
X95285714Y-62952380D01*
X94952380Y-63333333D01*
X95095238Y-63333333D01*
X95190476Y-63380952D01*
X95238095Y-63428571D01*
X95285714Y-63523809D01*
X95285714Y-63761904D01*
X95238095Y-63857142D01*
X95190476Y-63904761D01*
X95095238Y-63952380D01*
X94809523Y-63952380D01*
X94714285Y-63904761D01*
X94666666Y-63857142D01*
X89433333Y-54852380D02*
X89100000Y-54376190D01*
X88861904Y-54852380D02*
X88861904Y-53852380D01*
X89242857Y-53852380D01*
X89338095Y-53900000D01*
X89385714Y-53947619D01*
X89433333Y-54042857D01*
X89433333Y-54185714D01*
X89385714Y-54280952D01*
X89338095Y-54328571D01*
X89242857Y-54376190D01*
X88861904Y-54376190D01*
X90290476Y-54185714D02*
X90290476Y-54852380D01*
X90052380Y-53804761D02*
X89814285Y-54519047D01*
X90433333Y-54519047D01*
X90833333Y-80452380D02*
X90500000Y-79976190D01*
X90261904Y-80452380D02*
X90261904Y-79452380D01*
X90642857Y-79452380D01*
X90738095Y-79500000D01*
X90785714Y-79547619D01*
X90833333Y-79642857D01*
X90833333Y-79785714D01*
X90785714Y-79880952D01*
X90738095Y-79928571D01*
X90642857Y-79976190D01*
X90261904Y-79976190D01*
X91690476Y-79452380D02*
X91500000Y-79452380D01*
X91404761Y-79500000D01*
X91357142Y-79547619D01*
X91261904Y-79690476D01*
X91214285Y-79880952D01*
X91214285Y-80261904D01*
X91261904Y-80357142D01*
X91309523Y-80404761D01*
X91404761Y-80452380D01*
X91595238Y-80452380D01*
X91690476Y-80404761D01*
X91738095Y-80357142D01*
X91785714Y-80261904D01*
X91785714Y-80023809D01*
X91738095Y-79928571D01*
X91690476Y-79880952D01*
X91595238Y-79833333D01*
X91404761Y-79833333D01*
X91309523Y-79880952D01*
X91261904Y-79928571D01*
X91214285Y-80023809D01*
X90833333Y-83452380D02*
X90500000Y-82976190D01*
X90261904Y-83452380D02*
X90261904Y-82452380D01*
X90642857Y-82452380D01*
X90738095Y-82500000D01*
X90785714Y-82547619D01*
X90833333Y-82642857D01*
X90833333Y-82785714D01*
X90785714Y-82880952D01*
X90738095Y-82928571D01*
X90642857Y-82976190D01*
X90261904Y-82976190D01*
X91166666Y-82452380D02*
X91833333Y-82452380D01*
X91404761Y-83452380D01*
D15*
X78916666Y-54226190D02*
X78750000Y-53988095D01*
X78630952Y-54226190D02*
X78630952Y-53726190D01*
X78821428Y-53726190D01*
X78869047Y-53750000D01*
X78892857Y-53773809D01*
X78916666Y-53821428D01*
X78916666Y-53892857D01*
X78892857Y-53940476D01*
X78869047Y-53964285D01*
X78821428Y-53988095D01*
X78630952Y-53988095D01*
X79369047Y-53726190D02*
X79130952Y-53726190D01*
X79107142Y-53964285D01*
X79130952Y-53940476D01*
X79178571Y-53916666D01*
X79297619Y-53916666D01*
X79345238Y-53940476D01*
X79369047Y-53964285D01*
X79392857Y-54011904D01*
X79392857Y-54130952D01*
X79369047Y-54178571D01*
X79345238Y-54202380D01*
X79297619Y-54226190D01*
X79178571Y-54226190D01*
X79130952Y-54202380D01*
X79107142Y-54178571D01*
D10*
X83838095Y-53852380D02*
X83838095Y-54661904D01*
X83885714Y-54757142D01*
X83933333Y-54804761D01*
X84028571Y-54852380D01*
X84219047Y-54852380D01*
X84314285Y-54804761D01*
X84361904Y-54757142D01*
X84409523Y-54661904D01*
X84409523Y-53852380D01*
X85409523Y-54852380D02*
X84838095Y-54852380D01*
X85123809Y-54852380D02*
X85123809Y-53852380D01*
X85028571Y-53995238D01*
X84933333Y-54090476D01*
X84838095Y-54138095D01*
M02*
