G04 #@! TF.GenerationSoftware,KiCad,Pcbnew,5.1.5*
G04 #@! TF.CreationDate,2020-02-06T11:23:30+09:00*
G04 #@! TF.ProjectId,MIDI-Guy_menduke,4d494449-2d47-4757-995f-6d656e64756b,rev?*
G04 #@! TF.SameCoordinates,Original*
G04 #@! TF.FileFunction,Paste,Top*
G04 #@! TF.FilePolarity,Positive*
%FSLAX46Y46*%
G04 Gerber Fmt 4.6, Leading zero omitted, Abs format (unit mm)*
G04 Created by KiCad (PCBNEW 5.1.5) date 2020-02-06 11:23:30*
%MOMM*%
%LPD*%
G04 APERTURE LIST*
%ADD10R,0.900000X0.900000*%
%ADD11R,0.200000X0.800000*%
%ADD12R,0.800000X0.800000*%
G04 APERTURE END LIST*
D10*
X151725000Y-101275000D03*
X150575000Y-101275000D03*
X149425000Y-101275000D03*
X148275000Y-101275000D03*
X151725000Y-102425000D03*
X150575000Y-102425000D03*
X149425000Y-102425000D03*
X148275000Y-102425000D03*
X151725000Y-103575000D03*
X150575000Y-103575000D03*
X149425000Y-103575000D03*
X148275000Y-103575000D03*
X151725000Y-104725000D03*
X150575000Y-104725000D03*
X149425000Y-104725000D03*
X148275000Y-104725000D03*
X107725000Y-101275000D03*
X106575000Y-101275000D03*
X105425000Y-101275000D03*
X104275000Y-101275000D03*
X107725000Y-102425000D03*
X106575000Y-102425000D03*
X105425000Y-102425000D03*
X104275000Y-102425000D03*
X107725000Y-103575000D03*
X106575000Y-103575000D03*
X105425000Y-103575000D03*
X104275000Y-103575000D03*
X107725000Y-104725000D03*
X106575000Y-104725000D03*
X105425000Y-104725000D03*
X104275000Y-104725000D03*
X151725000Y-66275000D03*
X150575000Y-66275000D03*
X149425000Y-66275000D03*
X148275000Y-66275000D03*
X151725000Y-67425000D03*
X150575000Y-67425000D03*
X149425000Y-67425000D03*
X148275000Y-67425000D03*
X151725000Y-68575000D03*
X150575000Y-68575000D03*
X149425000Y-68575000D03*
X148275000Y-68575000D03*
X151725000Y-69725000D03*
X150575000Y-69725000D03*
X149425000Y-69725000D03*
X148275000Y-69725000D03*
D11*
X118700000Y-112300000D03*
X116700000Y-119700000D03*
D12*
X126100000Y-119700000D03*
D11*
X74700000Y-112300000D03*
X72700000Y-119700000D03*
D12*
X82100000Y-119700000D03*
D11*
X118700000Y-77300000D03*
X116700000Y-84700000D03*
D12*
X126100000Y-84700000D03*
D11*
X118650000Y-101050000D03*
X116650000Y-108450000D03*
D12*
X126050000Y-108450000D03*
D11*
X74650000Y-101050000D03*
X72650000Y-108450000D03*
D12*
X82050000Y-108450000D03*
D11*
X118650000Y-66050000D03*
X116650000Y-73450000D03*
D12*
X126050000Y-73450000D03*
X82100000Y-84700000D03*
D11*
X72700000Y-84700000D03*
X74700000Y-77300000D03*
D12*
X82050000Y-73450000D03*
D11*
X72650000Y-73450000D03*
X74650000Y-66050000D03*
D10*
X104275000Y-69725000D03*
X105425000Y-69725000D03*
X106575000Y-69725000D03*
X107725000Y-69725000D03*
X104275000Y-68575000D03*
X105425000Y-68575000D03*
X106575000Y-68575000D03*
X107725000Y-68575000D03*
X104275000Y-67425000D03*
X105425000Y-67425000D03*
X106575000Y-67425000D03*
X107725000Y-67425000D03*
X104275000Y-66275000D03*
X105425000Y-66275000D03*
X106575000Y-66275000D03*
X107725000Y-66275000D03*
M02*
