G04 #@! TF.GenerationSoftware,KiCad,Pcbnew,5.1.5*
G04 #@! TF.CreationDate,2020-02-06T17:50:48+09:00*
G04 #@! TF.ProjectId,MIDI-Guy,4d494449-2d47-4757-992e-6b696361645f,rev?*
G04 #@! TF.SameCoordinates,Original*
G04 #@! TF.FileFunction,Copper,L2,Bot*
G04 #@! TF.FilePolarity,Positive*
%FSLAX46Y46*%
G04 Gerber Fmt 4.6, Leading zero omitted, Abs format (unit mm)*
G04 Created by KiCad (PCBNEW 5.1.5) date 2020-02-06 17:50:48*
%MOMM*%
%LPD*%
G04 APERTURE LIST*
%ADD10C,2.200000*%
%ADD11C,2.000000*%
%ADD12C,0.800000*%
%ADD13C,0.320000*%
%ADD14C,0.250000*%
%ADD15C,0.152500*%
%ADD16C,0.500000*%
%ADD17C,0.152000*%
G04 APERTURE END LIST*
D10*
X67800000Y-69000000D03*
X60800000Y-69000000D03*
X67750000Y-57750000D03*
X60750000Y-57750000D03*
D11*
X58000000Y-49600000D03*
X58000000Y-42200000D03*
D12*
X94200000Y-60800000D03*
X92400000Y-61400000D03*
D13*
X85200000Y-56000000D03*
X86800000Y-56000000D03*
X83200000Y-56400000D03*
D12*
X74500000Y-56000000D03*
X74500000Y-51000000D03*
X79000000Y-44000000D03*
X80000000Y-44000000D03*
X81000000Y-44000000D03*
X78000000Y-44000000D03*
X81600000Y-51200000D03*
X96200000Y-60200000D03*
X88400000Y-56400000D03*
X93800000Y-51800000D03*
X92600000Y-43600000D03*
D13*
X93800000Y-60000000D03*
X94837400Y-60000000D03*
D12*
X98500000Y-47750000D03*
X98000000Y-55000000D03*
D13*
X90000000Y-60800000D03*
X89000000Y-60800000D03*
D12*
X61800000Y-72600000D03*
X87400000Y-61400000D03*
X85800000Y-63000000D03*
X82000000Y-68600000D03*
D13*
X91600000Y-52400000D03*
X91600000Y-51400000D03*
X90000000Y-59600000D03*
X89000000Y-59600000D03*
D12*
X71400000Y-70600000D03*
X70200000Y-65200000D03*
D13*
X90000000Y-60200000D03*
X89000000Y-60200000D03*
D12*
X85000000Y-60800000D03*
X97200000Y-57000000D03*
D13*
X90000000Y-61400000D03*
X89000000Y-61400000D03*
D14*
X94200000Y-60800000D02*
X93000000Y-60800000D01*
X93000000Y-60800000D02*
X92400000Y-61400000D01*
D15*
X85200000Y-56000000D02*
X86800000Y-56000000D01*
X85200000Y-56000000D02*
X83600000Y-56000000D01*
X83600000Y-56000000D02*
X83200000Y-56400000D01*
D14*
X74500000Y-56000000D02*
X74500000Y-51000000D01*
D15*
X93800000Y-60000000D02*
X94837400Y-60000000D01*
X90000000Y-60800000D02*
X89000000Y-60800000D01*
D16*
X89000000Y-60800000D02*
X88000000Y-60800000D01*
X88000000Y-60800000D02*
X87400000Y-61400000D01*
X85800000Y-63000000D02*
X85000000Y-63000000D01*
X85000000Y-63000000D02*
X82000000Y-66000000D01*
X82000000Y-66000000D02*
X82000000Y-68600000D01*
D15*
X91600000Y-52400000D02*
X91600000Y-51800000D01*
X91600000Y-51800000D02*
X91600000Y-51400000D01*
X90000000Y-59600000D02*
X89000000Y-59600000D01*
D16*
X71400000Y-70600000D02*
X70200000Y-69400000D01*
X70200000Y-69400000D02*
X70200000Y-65200000D01*
D15*
X90000000Y-60200000D02*
X89000000Y-60200000D01*
D14*
X85000000Y-60800000D02*
X87200000Y-63000000D01*
X87200000Y-63000000D02*
X92400000Y-63000000D01*
X92400000Y-63000000D02*
X96000000Y-63000000D01*
X96000000Y-63000000D02*
X97200000Y-61800000D01*
X97200000Y-61800000D02*
X97200000Y-57000000D01*
D15*
X90000000Y-61400000D02*
X89000000Y-61400000D01*
D17*
G36*
X97936210Y-40296984D02*
G01*
X98355804Y-40423668D01*
X98742801Y-40629438D01*
X99082458Y-40906455D01*
X99361842Y-41244172D01*
X99570309Y-41629724D01*
X99699917Y-42048424D01*
X99746986Y-42496251D01*
X99747000Y-42500312D01*
X99747001Y-72487611D01*
X99703016Y-72936210D01*
X99576334Y-73355801D01*
X99370564Y-73742798D01*
X99093545Y-74082458D01*
X98755828Y-74361842D01*
X98370276Y-74570309D01*
X97951581Y-74699917D01*
X97503749Y-74746986D01*
X97499688Y-74747000D01*
X58512379Y-74747000D01*
X58063790Y-74703016D01*
X57644199Y-74576334D01*
X57257202Y-74370564D01*
X56917542Y-74093545D01*
X56638158Y-73755828D01*
X56429691Y-73370276D01*
X56300083Y-72951581D01*
X56256626Y-72538108D01*
X61171600Y-72538108D01*
X61171600Y-72661892D01*
X61195749Y-72783298D01*
X61243119Y-72897659D01*
X61311890Y-73000582D01*
X61399418Y-73088110D01*
X61502341Y-73156881D01*
X61616702Y-73204251D01*
X61738108Y-73228400D01*
X61861892Y-73228400D01*
X61983298Y-73204251D01*
X62097659Y-73156881D01*
X62200582Y-73088110D01*
X62288110Y-73000582D01*
X62356881Y-72897659D01*
X62404251Y-72783298D01*
X62428400Y-72661892D01*
X62428400Y-72538108D01*
X62404251Y-72416702D01*
X62364162Y-72319918D01*
X81671600Y-72319918D01*
X81671600Y-72680082D01*
X81741864Y-73033325D01*
X81879693Y-73366072D01*
X82079789Y-73665537D01*
X82334463Y-73920211D01*
X82633928Y-74120307D01*
X82966675Y-74258136D01*
X83319918Y-74328400D01*
X83680082Y-74328400D01*
X84033325Y-74258136D01*
X84366072Y-74120307D01*
X84665537Y-73920211D01*
X84920211Y-73665537D01*
X85120307Y-73366072D01*
X85258136Y-73033325D01*
X85328400Y-72680082D01*
X85328400Y-72319918D01*
X95671600Y-72319918D01*
X95671600Y-72680082D01*
X95741864Y-73033325D01*
X95879693Y-73366072D01*
X96079789Y-73665537D01*
X96334463Y-73920211D01*
X96633928Y-74120307D01*
X96966675Y-74258136D01*
X97319918Y-74328400D01*
X97680082Y-74328400D01*
X98033325Y-74258136D01*
X98366072Y-74120307D01*
X98665537Y-73920211D01*
X98920211Y-73665537D01*
X99120307Y-73366072D01*
X99258136Y-73033325D01*
X99328400Y-72680082D01*
X99328400Y-72319918D01*
X99258136Y-71966675D01*
X99120307Y-71633928D01*
X98920211Y-71334463D01*
X98665537Y-71079789D01*
X98366072Y-70879693D01*
X98033325Y-70741864D01*
X97680082Y-70671600D01*
X97319918Y-70671600D01*
X96966675Y-70741864D01*
X96633928Y-70879693D01*
X96334463Y-71079789D01*
X96079789Y-71334463D01*
X95879693Y-71633928D01*
X95741864Y-71966675D01*
X95671600Y-72319918D01*
X85328400Y-72319918D01*
X85258136Y-71966675D01*
X85120307Y-71633928D01*
X84920211Y-71334463D01*
X84665537Y-71079789D01*
X84366072Y-70879693D01*
X84033325Y-70741864D01*
X83680082Y-70671600D01*
X83319918Y-70671600D01*
X82966675Y-70741864D01*
X82633928Y-70879693D01*
X82334463Y-71079789D01*
X82079789Y-71334463D01*
X81879693Y-71633928D01*
X81741864Y-71966675D01*
X81671600Y-72319918D01*
X62364162Y-72319918D01*
X62356881Y-72302341D01*
X62288110Y-72199418D01*
X62200582Y-72111890D01*
X62097659Y-72043119D01*
X61983298Y-71995749D01*
X61861892Y-71971600D01*
X61738108Y-71971600D01*
X61616702Y-71995749D01*
X61502341Y-72043119D01*
X61399418Y-72111890D01*
X61311890Y-72199418D01*
X61243119Y-72302341D01*
X61195749Y-72416702D01*
X61171600Y-72538108D01*
X56256626Y-72538108D01*
X56253014Y-72503749D01*
X56253000Y-72499688D01*
X56253000Y-68869164D01*
X59471600Y-68869164D01*
X59471600Y-69130836D01*
X59522649Y-69387480D01*
X59622787Y-69629234D01*
X59768164Y-69846806D01*
X59953194Y-70031836D01*
X60170766Y-70177213D01*
X60412520Y-70277351D01*
X60669164Y-70328400D01*
X60930836Y-70328400D01*
X61187480Y-70277351D01*
X61429234Y-70177213D01*
X61646806Y-70031836D01*
X61831836Y-69846806D01*
X61977213Y-69629234D01*
X62077351Y-69387480D01*
X62128400Y-69130836D01*
X62128400Y-68869164D01*
X66471600Y-68869164D01*
X66471600Y-69130836D01*
X66522649Y-69387480D01*
X66622787Y-69629234D01*
X66768164Y-69846806D01*
X66953194Y-70031836D01*
X67170766Y-70177213D01*
X67412520Y-70277351D01*
X67669164Y-70328400D01*
X67930836Y-70328400D01*
X68187480Y-70277351D01*
X68429234Y-70177213D01*
X68646806Y-70031836D01*
X68831836Y-69846806D01*
X68977213Y-69629234D01*
X69077351Y-69387480D01*
X69128400Y-69130836D01*
X69128400Y-68869164D01*
X69077351Y-68612520D01*
X68977213Y-68370766D01*
X68831836Y-68153194D01*
X68646806Y-67968164D01*
X68429234Y-67822787D01*
X68187480Y-67722649D01*
X67930836Y-67671600D01*
X67669164Y-67671600D01*
X67412520Y-67722649D01*
X67170766Y-67822787D01*
X66953194Y-67968164D01*
X66768164Y-68153194D01*
X66622787Y-68370766D01*
X66522649Y-68612520D01*
X66471600Y-68869164D01*
X62128400Y-68869164D01*
X62077351Y-68612520D01*
X61977213Y-68370766D01*
X61831836Y-68153194D01*
X61646806Y-67968164D01*
X61429234Y-67822787D01*
X61187480Y-67722649D01*
X60930836Y-67671600D01*
X60669164Y-67671600D01*
X60412520Y-67722649D01*
X60170766Y-67822787D01*
X59953194Y-67968164D01*
X59768164Y-68153194D01*
X59622787Y-68370766D01*
X59522649Y-68612520D01*
X59471600Y-68869164D01*
X56253000Y-68869164D01*
X56253000Y-65138108D01*
X69571600Y-65138108D01*
X69571600Y-65261892D01*
X69595749Y-65383298D01*
X69643119Y-65497659D01*
X69711890Y-65600582D01*
X69721601Y-65610293D01*
X69721600Y-69376516D01*
X69719287Y-69400000D01*
X69721600Y-69423484D01*
X69721600Y-69423493D01*
X69728523Y-69493782D01*
X69755878Y-69583960D01*
X69800301Y-69667070D01*
X69860084Y-69739916D01*
X69878336Y-69754895D01*
X70771600Y-70648160D01*
X70771600Y-70661892D01*
X70795749Y-70783298D01*
X70843119Y-70897659D01*
X70911890Y-71000582D01*
X70999418Y-71088110D01*
X71102341Y-71156881D01*
X71216702Y-71204251D01*
X71338108Y-71228400D01*
X71461892Y-71228400D01*
X71583298Y-71204251D01*
X71697659Y-71156881D01*
X71800582Y-71088110D01*
X71888110Y-71000582D01*
X71956881Y-70897659D01*
X72004251Y-70783298D01*
X72028400Y-70661892D01*
X72028400Y-70538108D01*
X72004251Y-70416702D01*
X71956881Y-70302341D01*
X71888110Y-70199418D01*
X71800582Y-70111890D01*
X71697659Y-70043119D01*
X71583298Y-69995749D01*
X71461892Y-69971600D01*
X71448160Y-69971600D01*
X70678400Y-69201841D01*
X70678400Y-68538108D01*
X81371600Y-68538108D01*
X81371600Y-68661892D01*
X81395749Y-68783298D01*
X81443119Y-68897659D01*
X81511890Y-69000582D01*
X81599418Y-69088110D01*
X81702341Y-69156881D01*
X81816702Y-69204251D01*
X81938108Y-69228400D01*
X82061892Y-69228400D01*
X82183298Y-69204251D01*
X82297659Y-69156881D01*
X82400582Y-69088110D01*
X82488110Y-69000582D01*
X82556881Y-68897659D01*
X82604251Y-68783298D01*
X82628400Y-68661892D01*
X82628400Y-68538108D01*
X82604251Y-68416702D01*
X82556881Y-68302341D01*
X82488110Y-68199418D01*
X82478400Y-68189708D01*
X82478400Y-66198159D01*
X85198159Y-63478400D01*
X85389708Y-63478400D01*
X85399418Y-63488110D01*
X85502341Y-63556881D01*
X85616702Y-63604251D01*
X85738108Y-63628400D01*
X85861892Y-63628400D01*
X85983298Y-63604251D01*
X86097659Y-63556881D01*
X86200582Y-63488110D01*
X86288110Y-63400582D01*
X86356881Y-63297659D01*
X86404251Y-63183298D01*
X86428400Y-63061892D01*
X86428400Y-62938108D01*
X86404251Y-62816702D01*
X86356881Y-62702341D01*
X86288110Y-62599418D01*
X86200582Y-62511890D01*
X86097659Y-62443119D01*
X85983298Y-62395749D01*
X85861892Y-62371600D01*
X85738108Y-62371600D01*
X85616702Y-62395749D01*
X85502341Y-62443119D01*
X85399418Y-62511890D01*
X85389708Y-62521600D01*
X85023494Y-62521600D01*
X85000000Y-62519286D01*
X84976506Y-62521600D01*
X84906217Y-62528523D01*
X84816039Y-62555878D01*
X84732930Y-62600301D01*
X84660084Y-62660084D01*
X84645105Y-62678336D01*
X81678336Y-65645105D01*
X81660084Y-65660084D01*
X81600301Y-65732930D01*
X81555878Y-65816040D01*
X81528523Y-65906218D01*
X81521600Y-65976507D01*
X81521600Y-65976516D01*
X81519287Y-66000000D01*
X81521600Y-66023484D01*
X81521601Y-68189707D01*
X81511890Y-68199418D01*
X81443119Y-68302341D01*
X81395749Y-68416702D01*
X81371600Y-68538108D01*
X70678400Y-68538108D01*
X70678400Y-65610292D01*
X70688110Y-65600582D01*
X70756881Y-65497659D01*
X70804251Y-65383298D01*
X70828400Y-65261892D01*
X70828400Y-65138108D01*
X70804251Y-65016702D01*
X70756881Y-64902341D01*
X70688110Y-64799418D01*
X70600582Y-64711890D01*
X70497659Y-64643119D01*
X70383298Y-64595749D01*
X70261892Y-64571600D01*
X70138108Y-64571600D01*
X70016702Y-64595749D01*
X69902341Y-64643119D01*
X69799418Y-64711890D01*
X69711890Y-64799418D01*
X69643119Y-64902341D01*
X69595749Y-65016702D01*
X69571600Y-65138108D01*
X56253000Y-65138108D01*
X56253000Y-60738108D01*
X84371600Y-60738108D01*
X84371600Y-60861892D01*
X84395749Y-60983298D01*
X84443119Y-61097659D01*
X84511890Y-61200582D01*
X84599418Y-61288110D01*
X84702341Y-61356881D01*
X84816702Y-61404251D01*
X84938108Y-61428400D01*
X85061892Y-61428400D01*
X85117547Y-61417330D01*
X86937839Y-63237622D01*
X86948900Y-63251100D01*
X86962378Y-63262161D01*
X87002711Y-63295262D01*
X87007196Y-63297659D01*
X87064106Y-63328078D01*
X87130722Y-63348286D01*
X87182648Y-63353400D01*
X87182650Y-63353400D01*
X87200000Y-63355109D01*
X87217350Y-63353400D01*
X95982650Y-63353400D01*
X96000000Y-63355109D01*
X96017350Y-63353400D01*
X96017352Y-63353400D01*
X96069278Y-63348286D01*
X96135894Y-63328078D01*
X96197288Y-63295262D01*
X96251100Y-63251100D01*
X96262165Y-63237617D01*
X97437632Y-62062152D01*
X97451099Y-62051100D01*
X97462152Y-62037632D01*
X97462161Y-62037623D01*
X97495262Y-61997289D01*
X97528077Y-61935895D01*
X97528078Y-61935894D01*
X97548286Y-61869278D01*
X97553400Y-61817352D01*
X97553400Y-61817343D01*
X97555108Y-61800001D01*
X97553400Y-61782659D01*
X97553400Y-57519636D01*
X97600582Y-57488110D01*
X97688110Y-57400582D01*
X97756881Y-57297659D01*
X97804251Y-57183298D01*
X97828400Y-57061892D01*
X97828400Y-56938108D01*
X97804251Y-56816702D01*
X97756881Y-56702341D01*
X97688110Y-56599418D01*
X97600582Y-56511890D01*
X97497659Y-56443119D01*
X97383298Y-56395749D01*
X97261892Y-56371600D01*
X97138108Y-56371600D01*
X97016702Y-56395749D01*
X96902341Y-56443119D01*
X96799418Y-56511890D01*
X96711890Y-56599418D01*
X96643119Y-56702341D01*
X96595749Y-56816702D01*
X96571600Y-56938108D01*
X96571600Y-57061892D01*
X96595749Y-57183298D01*
X96643119Y-57297659D01*
X96711890Y-57400582D01*
X96799418Y-57488110D01*
X96846601Y-57519637D01*
X96846600Y-61653616D01*
X95853618Y-62646600D01*
X87346383Y-62646600D01*
X86037891Y-61338108D01*
X86771600Y-61338108D01*
X86771600Y-61461892D01*
X86795749Y-61583298D01*
X86843119Y-61697659D01*
X86911890Y-61800582D01*
X86999418Y-61888110D01*
X87102341Y-61956881D01*
X87216702Y-62004251D01*
X87338108Y-62028400D01*
X87461892Y-62028400D01*
X87583298Y-62004251D01*
X87697659Y-61956881D01*
X87800582Y-61888110D01*
X87888110Y-61800582D01*
X87956881Y-61697659D01*
X88004251Y-61583298D01*
X88028400Y-61461892D01*
X88028400Y-61448159D01*
X88198160Y-61278400D01*
X88629967Y-61278400D01*
X88626526Y-61286708D01*
X88611600Y-61361746D01*
X88611600Y-61438254D01*
X88626526Y-61513292D01*
X88655805Y-61583976D01*
X88698310Y-61647590D01*
X88752410Y-61701690D01*
X88816024Y-61744195D01*
X88886708Y-61773474D01*
X88961746Y-61788400D01*
X89038254Y-61788400D01*
X89113292Y-61773474D01*
X89183976Y-61744195D01*
X89243160Y-61704650D01*
X89756840Y-61704650D01*
X89816024Y-61744195D01*
X89886708Y-61773474D01*
X89961746Y-61788400D01*
X90038254Y-61788400D01*
X90113292Y-61773474D01*
X90183976Y-61744195D01*
X90247590Y-61701690D01*
X90301690Y-61647590D01*
X90344195Y-61583976D01*
X90373474Y-61513292D01*
X90388400Y-61438254D01*
X90388400Y-61361746D01*
X90383699Y-61338108D01*
X91771600Y-61338108D01*
X91771600Y-61461892D01*
X91795749Y-61583298D01*
X91843119Y-61697659D01*
X91911890Y-61800582D01*
X91999418Y-61888110D01*
X92102341Y-61956881D01*
X92216702Y-62004251D01*
X92338108Y-62028400D01*
X92461892Y-62028400D01*
X92583298Y-62004251D01*
X92697659Y-61956881D01*
X92800582Y-61888110D01*
X92888110Y-61800582D01*
X92956881Y-61697659D01*
X93004251Y-61583298D01*
X93028400Y-61461892D01*
X93028400Y-61338108D01*
X93017330Y-61282453D01*
X93146383Y-61153400D01*
X93680364Y-61153400D01*
X93711890Y-61200582D01*
X93799418Y-61288110D01*
X93902341Y-61356881D01*
X94016702Y-61404251D01*
X94138108Y-61428400D01*
X94261892Y-61428400D01*
X94383298Y-61404251D01*
X94497659Y-61356881D01*
X94600582Y-61288110D01*
X94688110Y-61200582D01*
X94756881Y-61097659D01*
X94804251Y-60983298D01*
X94828400Y-60861892D01*
X94828400Y-60738108D01*
X94804251Y-60616702D01*
X94756881Y-60502341D01*
X94688110Y-60399418D01*
X94600582Y-60311890D01*
X94497659Y-60243119D01*
X94383298Y-60195749D01*
X94261892Y-60171600D01*
X94138108Y-60171600D01*
X94016702Y-60195749D01*
X93902341Y-60243119D01*
X93799418Y-60311890D01*
X93711890Y-60399418D01*
X93680364Y-60446600D01*
X93017341Y-60446600D01*
X92999999Y-60444892D01*
X92982657Y-60446600D01*
X92982648Y-60446600D01*
X92930722Y-60451714D01*
X92864106Y-60471922D01*
X92843714Y-60482822D01*
X92802711Y-60504738D01*
X92768360Y-60532930D01*
X92748900Y-60548900D01*
X92737839Y-60562378D01*
X92517547Y-60782670D01*
X92461892Y-60771600D01*
X92338108Y-60771600D01*
X92216702Y-60795749D01*
X92102341Y-60843119D01*
X91999418Y-60911890D01*
X91911890Y-60999418D01*
X91843119Y-61102341D01*
X91795749Y-61216702D01*
X91771600Y-61338108D01*
X90383699Y-61338108D01*
X90373474Y-61286708D01*
X90344195Y-61216024D01*
X90301690Y-61152410D01*
X90249280Y-61100000D01*
X90301690Y-61047590D01*
X90344195Y-60983976D01*
X90373474Y-60913292D01*
X90388400Y-60838254D01*
X90388400Y-60761746D01*
X90373474Y-60686708D01*
X90344195Y-60616024D01*
X90301690Y-60552410D01*
X90249280Y-60500000D01*
X90301690Y-60447590D01*
X90344195Y-60383976D01*
X90373474Y-60313292D01*
X90388400Y-60238254D01*
X90388400Y-60161746D01*
X90373474Y-60086708D01*
X90344195Y-60016024D01*
X90301690Y-59952410D01*
X90249280Y-59900000D01*
X90301690Y-59847590D01*
X90344195Y-59783976D01*
X90373474Y-59713292D01*
X90388400Y-59638254D01*
X90388400Y-59561746D01*
X90373474Y-59486708D01*
X90344195Y-59416024D01*
X90301690Y-59352410D01*
X90247590Y-59298310D01*
X90183976Y-59255805D01*
X90113292Y-59226526D01*
X90038254Y-59211600D01*
X89961746Y-59211600D01*
X89886708Y-59226526D01*
X89816024Y-59255805D01*
X89756840Y-59295350D01*
X89243160Y-59295350D01*
X89183976Y-59255805D01*
X89113292Y-59226526D01*
X89038254Y-59211600D01*
X88961746Y-59211600D01*
X88886708Y-59226526D01*
X88816024Y-59255805D01*
X88752410Y-59298310D01*
X88698310Y-59352410D01*
X88655805Y-59416024D01*
X88626526Y-59486708D01*
X88611600Y-59561746D01*
X88611600Y-59638254D01*
X88626526Y-59713292D01*
X88655805Y-59783976D01*
X88698310Y-59847590D01*
X88750720Y-59900000D01*
X88698310Y-59952410D01*
X88655805Y-60016024D01*
X88626526Y-60086708D01*
X88611600Y-60161746D01*
X88611600Y-60238254D01*
X88626526Y-60313292D01*
X88629967Y-60321600D01*
X88023483Y-60321600D01*
X87999999Y-60319287D01*
X87976515Y-60321600D01*
X87976506Y-60321600D01*
X87906217Y-60328523D01*
X87816039Y-60355878D01*
X87789482Y-60370073D01*
X87732929Y-60400301D01*
X87678332Y-60445108D01*
X87660084Y-60460084D01*
X87645109Y-60478331D01*
X87351841Y-60771600D01*
X87338108Y-60771600D01*
X87216702Y-60795749D01*
X87102341Y-60843119D01*
X86999418Y-60911890D01*
X86911890Y-60999418D01*
X86843119Y-61102341D01*
X86795749Y-61216702D01*
X86771600Y-61338108D01*
X86037891Y-61338108D01*
X85617330Y-60917547D01*
X85628400Y-60861892D01*
X85628400Y-60738108D01*
X85604251Y-60616702D01*
X85556881Y-60502341D01*
X85488110Y-60399418D01*
X85400582Y-60311890D01*
X85297659Y-60243119D01*
X85183298Y-60195749D01*
X85061892Y-60171600D01*
X84938108Y-60171600D01*
X84816702Y-60195749D01*
X84702341Y-60243119D01*
X84599418Y-60311890D01*
X84511890Y-60399418D01*
X84443119Y-60502341D01*
X84395749Y-60616702D01*
X84371600Y-60738108D01*
X56253000Y-60738108D01*
X56253000Y-57619164D01*
X59421600Y-57619164D01*
X59421600Y-57880836D01*
X59472649Y-58137480D01*
X59572787Y-58379234D01*
X59718164Y-58596806D01*
X59903194Y-58781836D01*
X60120766Y-58927213D01*
X60362520Y-59027351D01*
X60619164Y-59078400D01*
X60880836Y-59078400D01*
X61137480Y-59027351D01*
X61379234Y-58927213D01*
X61596806Y-58781836D01*
X61781836Y-58596806D01*
X61927213Y-58379234D01*
X62027351Y-58137480D01*
X62078400Y-57880836D01*
X62078400Y-57619164D01*
X66421600Y-57619164D01*
X66421600Y-57880836D01*
X66472649Y-58137480D01*
X66572787Y-58379234D01*
X66718164Y-58596806D01*
X66903194Y-58781836D01*
X67120766Y-58927213D01*
X67362520Y-59027351D01*
X67619164Y-59078400D01*
X67880836Y-59078400D01*
X68137480Y-59027351D01*
X68379234Y-58927213D01*
X68596806Y-58781836D01*
X68781836Y-58596806D01*
X68927213Y-58379234D01*
X69027351Y-58137480D01*
X69078400Y-57880836D01*
X69078400Y-57619164D01*
X69027351Y-57362520D01*
X68927213Y-57120766D01*
X68781836Y-56903194D01*
X68596806Y-56718164D01*
X68379234Y-56572787D01*
X68137480Y-56472649D01*
X67880836Y-56421600D01*
X67619164Y-56421600D01*
X67362520Y-56472649D01*
X67120766Y-56572787D01*
X66903194Y-56718164D01*
X66718164Y-56903194D01*
X66572787Y-57120766D01*
X66472649Y-57362520D01*
X66421600Y-57619164D01*
X62078400Y-57619164D01*
X62027351Y-57362520D01*
X61927213Y-57120766D01*
X61781836Y-56903194D01*
X61596806Y-56718164D01*
X61379234Y-56572787D01*
X61137480Y-56472649D01*
X60880836Y-56421600D01*
X60619164Y-56421600D01*
X60362520Y-56472649D01*
X60120766Y-56572787D01*
X59903194Y-56718164D01*
X59718164Y-56903194D01*
X59572787Y-57120766D01*
X59472649Y-57362520D01*
X59421600Y-57619164D01*
X56253000Y-57619164D01*
X56253000Y-50938108D01*
X73871600Y-50938108D01*
X73871600Y-51061892D01*
X73895749Y-51183298D01*
X73943119Y-51297659D01*
X74011890Y-51400582D01*
X74099418Y-51488110D01*
X74146601Y-51519637D01*
X74146600Y-55480364D01*
X74099418Y-55511890D01*
X74011890Y-55599418D01*
X73943119Y-55702341D01*
X73895749Y-55816702D01*
X73871600Y-55938108D01*
X73871600Y-56061892D01*
X73895749Y-56183298D01*
X73943119Y-56297659D01*
X74011890Y-56400582D01*
X74099418Y-56488110D01*
X74202341Y-56556881D01*
X74316702Y-56604251D01*
X74438108Y-56628400D01*
X74561892Y-56628400D01*
X74683298Y-56604251D01*
X74797659Y-56556881D01*
X74900582Y-56488110D01*
X74988110Y-56400582D01*
X75014059Y-56361746D01*
X82811600Y-56361746D01*
X82811600Y-56438254D01*
X82826526Y-56513292D01*
X82855805Y-56583976D01*
X82898310Y-56647590D01*
X82952410Y-56701690D01*
X83016024Y-56744195D01*
X83086708Y-56773474D01*
X83161746Y-56788400D01*
X83238254Y-56788400D01*
X83313292Y-56773474D01*
X83383976Y-56744195D01*
X83447590Y-56701690D01*
X83501690Y-56647590D01*
X83544195Y-56583976D01*
X83573474Y-56513292D01*
X83587361Y-56443479D01*
X83726190Y-56304650D01*
X84956840Y-56304650D01*
X85016024Y-56344195D01*
X85086708Y-56373474D01*
X85161746Y-56388400D01*
X85238254Y-56388400D01*
X85313292Y-56373474D01*
X85383976Y-56344195D01*
X85443160Y-56304650D01*
X86556840Y-56304650D01*
X86616024Y-56344195D01*
X86686708Y-56373474D01*
X86761746Y-56388400D01*
X86838254Y-56388400D01*
X86913292Y-56373474D01*
X86983976Y-56344195D01*
X87047590Y-56301690D01*
X87101690Y-56247590D01*
X87144195Y-56183976D01*
X87173474Y-56113292D01*
X87188400Y-56038254D01*
X87188400Y-55961746D01*
X87173474Y-55886708D01*
X87144195Y-55816024D01*
X87101690Y-55752410D01*
X87047590Y-55698310D01*
X86983976Y-55655805D01*
X86913292Y-55626526D01*
X86838254Y-55611600D01*
X86761746Y-55611600D01*
X86686708Y-55626526D01*
X86616024Y-55655805D01*
X86556840Y-55695350D01*
X85443160Y-55695350D01*
X85383976Y-55655805D01*
X85313292Y-55626526D01*
X85238254Y-55611600D01*
X85161746Y-55611600D01*
X85086708Y-55626526D01*
X85016024Y-55655805D01*
X84956840Y-55695350D01*
X83614955Y-55695350D01*
X83599999Y-55693877D01*
X83585043Y-55695350D01*
X83585034Y-55695350D01*
X83540278Y-55699758D01*
X83482851Y-55717178D01*
X83429927Y-55745467D01*
X83383538Y-55783538D01*
X83373999Y-55795161D01*
X83156521Y-56012639D01*
X83086708Y-56026526D01*
X83016024Y-56055805D01*
X82952410Y-56098310D01*
X82898310Y-56152410D01*
X82855805Y-56216024D01*
X82826526Y-56286708D01*
X82811600Y-56361746D01*
X75014059Y-56361746D01*
X75056881Y-56297659D01*
X75104251Y-56183298D01*
X75128400Y-56061892D01*
X75128400Y-55938108D01*
X75104251Y-55816702D01*
X75056881Y-55702341D01*
X74988110Y-55599418D01*
X74900582Y-55511890D01*
X74853400Y-55480364D01*
X74853400Y-51519636D01*
X74900582Y-51488110D01*
X74988110Y-51400582D01*
X75014059Y-51361746D01*
X91211600Y-51361746D01*
X91211600Y-51438254D01*
X91226526Y-51513292D01*
X91255805Y-51583976D01*
X91295350Y-51643160D01*
X91295350Y-51814965D01*
X91295351Y-51814975D01*
X91295350Y-52156839D01*
X91255805Y-52216024D01*
X91226526Y-52286708D01*
X91211600Y-52361746D01*
X91211600Y-52438254D01*
X91226526Y-52513292D01*
X91255805Y-52583976D01*
X91298310Y-52647590D01*
X91352410Y-52701690D01*
X91416024Y-52744195D01*
X91486708Y-52773474D01*
X91561746Y-52788400D01*
X91638254Y-52788400D01*
X91713292Y-52773474D01*
X91783976Y-52744195D01*
X91847590Y-52701690D01*
X91901690Y-52647590D01*
X91944195Y-52583976D01*
X91973474Y-52513292D01*
X91988400Y-52438254D01*
X91988400Y-52361746D01*
X91973474Y-52286708D01*
X91944195Y-52216024D01*
X91904650Y-52156840D01*
X91904650Y-51643160D01*
X91944195Y-51583976D01*
X91973474Y-51513292D01*
X91988400Y-51438254D01*
X91988400Y-51361746D01*
X91973474Y-51286708D01*
X91944195Y-51216024D01*
X91901690Y-51152410D01*
X91847590Y-51098310D01*
X91783976Y-51055805D01*
X91713292Y-51026526D01*
X91638254Y-51011600D01*
X91561746Y-51011600D01*
X91486708Y-51026526D01*
X91416024Y-51055805D01*
X91352410Y-51098310D01*
X91298310Y-51152410D01*
X91255805Y-51216024D01*
X91226526Y-51286708D01*
X91211600Y-51361746D01*
X75014059Y-51361746D01*
X75056881Y-51297659D01*
X75104251Y-51183298D01*
X75128400Y-51061892D01*
X75128400Y-50938108D01*
X75104251Y-50816702D01*
X75056881Y-50702341D01*
X74988110Y-50599418D01*
X74900582Y-50511890D01*
X74797659Y-50443119D01*
X74683298Y-50395749D01*
X74561892Y-50371600D01*
X74438108Y-50371600D01*
X74316702Y-50395749D01*
X74202341Y-50443119D01*
X74099418Y-50511890D01*
X74011890Y-50599418D01*
X73943119Y-50702341D01*
X73895749Y-50816702D01*
X73871600Y-50938108D01*
X56253000Y-50938108D01*
X56253000Y-49479013D01*
X56771600Y-49479013D01*
X56771600Y-49720987D01*
X56818806Y-49958311D01*
X56911406Y-50181866D01*
X57045839Y-50383060D01*
X57216940Y-50554161D01*
X57418134Y-50688594D01*
X57641689Y-50781194D01*
X57879013Y-50828400D01*
X58120987Y-50828400D01*
X58358311Y-50781194D01*
X58581866Y-50688594D01*
X58783060Y-50554161D01*
X58954161Y-50383060D01*
X59088594Y-50181866D01*
X59181194Y-49958311D01*
X59228400Y-49720987D01*
X59228400Y-49479013D01*
X59181194Y-49241689D01*
X59088594Y-49018134D01*
X58954161Y-48816940D01*
X58783060Y-48645839D01*
X58581866Y-48511406D01*
X58358311Y-48418806D01*
X58120987Y-48371600D01*
X57879013Y-48371600D01*
X57641689Y-48418806D01*
X57418134Y-48511406D01*
X57216940Y-48645839D01*
X57045839Y-48816940D01*
X56911406Y-49018134D01*
X56818806Y-49241689D01*
X56771600Y-49479013D01*
X56253000Y-49479013D01*
X56253000Y-42512378D01*
X56295491Y-42079013D01*
X56771600Y-42079013D01*
X56771600Y-42320987D01*
X56818806Y-42558311D01*
X56911406Y-42781866D01*
X57045839Y-42983060D01*
X57216940Y-43154161D01*
X57418134Y-43288594D01*
X57641689Y-43381194D01*
X57879013Y-43428400D01*
X58120987Y-43428400D01*
X58358311Y-43381194D01*
X58581866Y-43288594D01*
X58783060Y-43154161D01*
X58954161Y-42983060D01*
X59088594Y-42781866D01*
X59181194Y-42558311D01*
X59228400Y-42320987D01*
X59228400Y-42319918D01*
X81671600Y-42319918D01*
X81671600Y-42680082D01*
X81741864Y-43033325D01*
X81879693Y-43366072D01*
X82079789Y-43665537D01*
X82334463Y-43920211D01*
X82633928Y-44120307D01*
X82966675Y-44258136D01*
X83319918Y-44328400D01*
X83680082Y-44328400D01*
X84033325Y-44258136D01*
X84366072Y-44120307D01*
X84665537Y-43920211D01*
X84920211Y-43665537D01*
X85120307Y-43366072D01*
X85258136Y-43033325D01*
X85328400Y-42680082D01*
X85328400Y-42319918D01*
X95671600Y-42319918D01*
X95671600Y-42680082D01*
X95741864Y-43033325D01*
X95879693Y-43366072D01*
X96079789Y-43665537D01*
X96334463Y-43920211D01*
X96633928Y-44120307D01*
X96966675Y-44258136D01*
X97319918Y-44328400D01*
X97680082Y-44328400D01*
X98033325Y-44258136D01*
X98366072Y-44120307D01*
X98665537Y-43920211D01*
X98920211Y-43665537D01*
X99120307Y-43366072D01*
X99258136Y-43033325D01*
X99328400Y-42680082D01*
X99328400Y-42319918D01*
X99258136Y-41966675D01*
X99120307Y-41633928D01*
X98920211Y-41334463D01*
X98665537Y-41079789D01*
X98366072Y-40879693D01*
X98033325Y-40741864D01*
X97680082Y-40671600D01*
X97319918Y-40671600D01*
X96966675Y-40741864D01*
X96633928Y-40879693D01*
X96334463Y-41079789D01*
X96079789Y-41334463D01*
X95879693Y-41633928D01*
X95741864Y-41966675D01*
X95671600Y-42319918D01*
X85328400Y-42319918D01*
X85258136Y-41966675D01*
X85120307Y-41633928D01*
X84920211Y-41334463D01*
X84665537Y-41079789D01*
X84366072Y-40879693D01*
X84033325Y-40741864D01*
X83680082Y-40671600D01*
X83319918Y-40671600D01*
X82966675Y-40741864D01*
X82633928Y-40879693D01*
X82334463Y-41079789D01*
X82079789Y-41334463D01*
X81879693Y-41633928D01*
X81741864Y-41966675D01*
X81671600Y-42319918D01*
X59228400Y-42319918D01*
X59228400Y-42079013D01*
X59181194Y-41841689D01*
X59088594Y-41618134D01*
X58954161Y-41416940D01*
X58783060Y-41245839D01*
X58581866Y-41111406D01*
X58358311Y-41018806D01*
X58120987Y-40971600D01*
X57879013Y-40971600D01*
X57641689Y-41018806D01*
X57418134Y-41111406D01*
X57216940Y-41245839D01*
X57045839Y-41416940D01*
X56911406Y-41618134D01*
X56818806Y-41841689D01*
X56771600Y-42079013D01*
X56295491Y-42079013D01*
X56296984Y-42063790D01*
X56423668Y-41644196D01*
X56629438Y-41257199D01*
X56906455Y-40917542D01*
X57244172Y-40638158D01*
X57629724Y-40429691D01*
X58048424Y-40300083D01*
X58496251Y-40253014D01*
X58500312Y-40253000D01*
X97487622Y-40253000D01*
X97936210Y-40296984D01*
G37*
X97936210Y-40296984D02*
X98355804Y-40423668D01*
X98742801Y-40629438D01*
X99082458Y-40906455D01*
X99361842Y-41244172D01*
X99570309Y-41629724D01*
X99699917Y-42048424D01*
X99746986Y-42496251D01*
X99747000Y-42500312D01*
X99747001Y-72487611D01*
X99703016Y-72936210D01*
X99576334Y-73355801D01*
X99370564Y-73742798D01*
X99093545Y-74082458D01*
X98755828Y-74361842D01*
X98370276Y-74570309D01*
X97951581Y-74699917D01*
X97503749Y-74746986D01*
X97499688Y-74747000D01*
X58512379Y-74747000D01*
X58063790Y-74703016D01*
X57644199Y-74576334D01*
X57257202Y-74370564D01*
X56917542Y-74093545D01*
X56638158Y-73755828D01*
X56429691Y-73370276D01*
X56300083Y-72951581D01*
X56256626Y-72538108D01*
X61171600Y-72538108D01*
X61171600Y-72661892D01*
X61195749Y-72783298D01*
X61243119Y-72897659D01*
X61311890Y-73000582D01*
X61399418Y-73088110D01*
X61502341Y-73156881D01*
X61616702Y-73204251D01*
X61738108Y-73228400D01*
X61861892Y-73228400D01*
X61983298Y-73204251D01*
X62097659Y-73156881D01*
X62200582Y-73088110D01*
X62288110Y-73000582D01*
X62356881Y-72897659D01*
X62404251Y-72783298D01*
X62428400Y-72661892D01*
X62428400Y-72538108D01*
X62404251Y-72416702D01*
X62364162Y-72319918D01*
X81671600Y-72319918D01*
X81671600Y-72680082D01*
X81741864Y-73033325D01*
X81879693Y-73366072D01*
X82079789Y-73665537D01*
X82334463Y-73920211D01*
X82633928Y-74120307D01*
X82966675Y-74258136D01*
X83319918Y-74328400D01*
X83680082Y-74328400D01*
X84033325Y-74258136D01*
X84366072Y-74120307D01*
X84665537Y-73920211D01*
X84920211Y-73665537D01*
X85120307Y-73366072D01*
X85258136Y-73033325D01*
X85328400Y-72680082D01*
X85328400Y-72319918D01*
X95671600Y-72319918D01*
X95671600Y-72680082D01*
X95741864Y-73033325D01*
X95879693Y-73366072D01*
X96079789Y-73665537D01*
X96334463Y-73920211D01*
X96633928Y-74120307D01*
X96966675Y-74258136D01*
X97319918Y-74328400D01*
X97680082Y-74328400D01*
X98033325Y-74258136D01*
X98366072Y-74120307D01*
X98665537Y-73920211D01*
X98920211Y-73665537D01*
X99120307Y-73366072D01*
X99258136Y-73033325D01*
X99328400Y-72680082D01*
X99328400Y-72319918D01*
X99258136Y-71966675D01*
X99120307Y-71633928D01*
X98920211Y-71334463D01*
X98665537Y-71079789D01*
X98366072Y-70879693D01*
X98033325Y-70741864D01*
X97680082Y-70671600D01*
X97319918Y-70671600D01*
X96966675Y-70741864D01*
X96633928Y-70879693D01*
X96334463Y-71079789D01*
X96079789Y-71334463D01*
X95879693Y-71633928D01*
X95741864Y-71966675D01*
X95671600Y-72319918D01*
X85328400Y-72319918D01*
X85258136Y-71966675D01*
X85120307Y-71633928D01*
X84920211Y-71334463D01*
X84665537Y-71079789D01*
X84366072Y-70879693D01*
X84033325Y-70741864D01*
X83680082Y-70671600D01*
X83319918Y-70671600D01*
X82966675Y-70741864D01*
X82633928Y-70879693D01*
X82334463Y-71079789D01*
X82079789Y-71334463D01*
X81879693Y-71633928D01*
X81741864Y-71966675D01*
X81671600Y-72319918D01*
X62364162Y-72319918D01*
X62356881Y-72302341D01*
X62288110Y-72199418D01*
X62200582Y-72111890D01*
X62097659Y-72043119D01*
X61983298Y-71995749D01*
X61861892Y-71971600D01*
X61738108Y-71971600D01*
X61616702Y-71995749D01*
X61502341Y-72043119D01*
X61399418Y-72111890D01*
X61311890Y-72199418D01*
X61243119Y-72302341D01*
X61195749Y-72416702D01*
X61171600Y-72538108D01*
X56256626Y-72538108D01*
X56253014Y-72503749D01*
X56253000Y-72499688D01*
X56253000Y-68869164D01*
X59471600Y-68869164D01*
X59471600Y-69130836D01*
X59522649Y-69387480D01*
X59622787Y-69629234D01*
X59768164Y-69846806D01*
X59953194Y-70031836D01*
X60170766Y-70177213D01*
X60412520Y-70277351D01*
X60669164Y-70328400D01*
X60930836Y-70328400D01*
X61187480Y-70277351D01*
X61429234Y-70177213D01*
X61646806Y-70031836D01*
X61831836Y-69846806D01*
X61977213Y-69629234D01*
X62077351Y-69387480D01*
X62128400Y-69130836D01*
X62128400Y-68869164D01*
X66471600Y-68869164D01*
X66471600Y-69130836D01*
X66522649Y-69387480D01*
X66622787Y-69629234D01*
X66768164Y-69846806D01*
X66953194Y-70031836D01*
X67170766Y-70177213D01*
X67412520Y-70277351D01*
X67669164Y-70328400D01*
X67930836Y-70328400D01*
X68187480Y-70277351D01*
X68429234Y-70177213D01*
X68646806Y-70031836D01*
X68831836Y-69846806D01*
X68977213Y-69629234D01*
X69077351Y-69387480D01*
X69128400Y-69130836D01*
X69128400Y-68869164D01*
X69077351Y-68612520D01*
X68977213Y-68370766D01*
X68831836Y-68153194D01*
X68646806Y-67968164D01*
X68429234Y-67822787D01*
X68187480Y-67722649D01*
X67930836Y-67671600D01*
X67669164Y-67671600D01*
X67412520Y-67722649D01*
X67170766Y-67822787D01*
X66953194Y-67968164D01*
X66768164Y-68153194D01*
X66622787Y-68370766D01*
X66522649Y-68612520D01*
X66471600Y-68869164D01*
X62128400Y-68869164D01*
X62077351Y-68612520D01*
X61977213Y-68370766D01*
X61831836Y-68153194D01*
X61646806Y-67968164D01*
X61429234Y-67822787D01*
X61187480Y-67722649D01*
X60930836Y-67671600D01*
X60669164Y-67671600D01*
X60412520Y-67722649D01*
X60170766Y-67822787D01*
X59953194Y-67968164D01*
X59768164Y-68153194D01*
X59622787Y-68370766D01*
X59522649Y-68612520D01*
X59471600Y-68869164D01*
X56253000Y-68869164D01*
X56253000Y-65138108D01*
X69571600Y-65138108D01*
X69571600Y-65261892D01*
X69595749Y-65383298D01*
X69643119Y-65497659D01*
X69711890Y-65600582D01*
X69721601Y-65610293D01*
X69721600Y-69376516D01*
X69719287Y-69400000D01*
X69721600Y-69423484D01*
X69721600Y-69423493D01*
X69728523Y-69493782D01*
X69755878Y-69583960D01*
X69800301Y-69667070D01*
X69860084Y-69739916D01*
X69878336Y-69754895D01*
X70771600Y-70648160D01*
X70771600Y-70661892D01*
X70795749Y-70783298D01*
X70843119Y-70897659D01*
X70911890Y-71000582D01*
X70999418Y-71088110D01*
X71102341Y-71156881D01*
X71216702Y-71204251D01*
X71338108Y-71228400D01*
X71461892Y-71228400D01*
X71583298Y-71204251D01*
X71697659Y-71156881D01*
X71800582Y-71088110D01*
X71888110Y-71000582D01*
X71956881Y-70897659D01*
X72004251Y-70783298D01*
X72028400Y-70661892D01*
X72028400Y-70538108D01*
X72004251Y-70416702D01*
X71956881Y-70302341D01*
X71888110Y-70199418D01*
X71800582Y-70111890D01*
X71697659Y-70043119D01*
X71583298Y-69995749D01*
X71461892Y-69971600D01*
X71448160Y-69971600D01*
X70678400Y-69201841D01*
X70678400Y-68538108D01*
X81371600Y-68538108D01*
X81371600Y-68661892D01*
X81395749Y-68783298D01*
X81443119Y-68897659D01*
X81511890Y-69000582D01*
X81599418Y-69088110D01*
X81702341Y-69156881D01*
X81816702Y-69204251D01*
X81938108Y-69228400D01*
X82061892Y-69228400D01*
X82183298Y-69204251D01*
X82297659Y-69156881D01*
X82400582Y-69088110D01*
X82488110Y-69000582D01*
X82556881Y-68897659D01*
X82604251Y-68783298D01*
X82628400Y-68661892D01*
X82628400Y-68538108D01*
X82604251Y-68416702D01*
X82556881Y-68302341D01*
X82488110Y-68199418D01*
X82478400Y-68189708D01*
X82478400Y-66198159D01*
X85198159Y-63478400D01*
X85389708Y-63478400D01*
X85399418Y-63488110D01*
X85502341Y-63556881D01*
X85616702Y-63604251D01*
X85738108Y-63628400D01*
X85861892Y-63628400D01*
X85983298Y-63604251D01*
X86097659Y-63556881D01*
X86200582Y-63488110D01*
X86288110Y-63400582D01*
X86356881Y-63297659D01*
X86404251Y-63183298D01*
X86428400Y-63061892D01*
X86428400Y-62938108D01*
X86404251Y-62816702D01*
X86356881Y-62702341D01*
X86288110Y-62599418D01*
X86200582Y-62511890D01*
X86097659Y-62443119D01*
X85983298Y-62395749D01*
X85861892Y-62371600D01*
X85738108Y-62371600D01*
X85616702Y-62395749D01*
X85502341Y-62443119D01*
X85399418Y-62511890D01*
X85389708Y-62521600D01*
X85023494Y-62521600D01*
X85000000Y-62519286D01*
X84976506Y-62521600D01*
X84906217Y-62528523D01*
X84816039Y-62555878D01*
X84732930Y-62600301D01*
X84660084Y-62660084D01*
X84645105Y-62678336D01*
X81678336Y-65645105D01*
X81660084Y-65660084D01*
X81600301Y-65732930D01*
X81555878Y-65816040D01*
X81528523Y-65906218D01*
X81521600Y-65976507D01*
X81521600Y-65976516D01*
X81519287Y-66000000D01*
X81521600Y-66023484D01*
X81521601Y-68189707D01*
X81511890Y-68199418D01*
X81443119Y-68302341D01*
X81395749Y-68416702D01*
X81371600Y-68538108D01*
X70678400Y-68538108D01*
X70678400Y-65610292D01*
X70688110Y-65600582D01*
X70756881Y-65497659D01*
X70804251Y-65383298D01*
X70828400Y-65261892D01*
X70828400Y-65138108D01*
X70804251Y-65016702D01*
X70756881Y-64902341D01*
X70688110Y-64799418D01*
X70600582Y-64711890D01*
X70497659Y-64643119D01*
X70383298Y-64595749D01*
X70261892Y-64571600D01*
X70138108Y-64571600D01*
X70016702Y-64595749D01*
X69902341Y-64643119D01*
X69799418Y-64711890D01*
X69711890Y-64799418D01*
X69643119Y-64902341D01*
X69595749Y-65016702D01*
X69571600Y-65138108D01*
X56253000Y-65138108D01*
X56253000Y-60738108D01*
X84371600Y-60738108D01*
X84371600Y-60861892D01*
X84395749Y-60983298D01*
X84443119Y-61097659D01*
X84511890Y-61200582D01*
X84599418Y-61288110D01*
X84702341Y-61356881D01*
X84816702Y-61404251D01*
X84938108Y-61428400D01*
X85061892Y-61428400D01*
X85117547Y-61417330D01*
X86937839Y-63237622D01*
X86948900Y-63251100D01*
X86962378Y-63262161D01*
X87002711Y-63295262D01*
X87007196Y-63297659D01*
X87064106Y-63328078D01*
X87130722Y-63348286D01*
X87182648Y-63353400D01*
X87182650Y-63353400D01*
X87200000Y-63355109D01*
X87217350Y-63353400D01*
X95982650Y-63353400D01*
X96000000Y-63355109D01*
X96017350Y-63353400D01*
X96017352Y-63353400D01*
X96069278Y-63348286D01*
X96135894Y-63328078D01*
X96197288Y-63295262D01*
X96251100Y-63251100D01*
X96262165Y-63237617D01*
X97437632Y-62062152D01*
X97451099Y-62051100D01*
X97462152Y-62037632D01*
X97462161Y-62037623D01*
X97495262Y-61997289D01*
X97528077Y-61935895D01*
X97528078Y-61935894D01*
X97548286Y-61869278D01*
X97553400Y-61817352D01*
X97553400Y-61817343D01*
X97555108Y-61800001D01*
X97553400Y-61782659D01*
X97553400Y-57519636D01*
X97600582Y-57488110D01*
X97688110Y-57400582D01*
X97756881Y-57297659D01*
X97804251Y-57183298D01*
X97828400Y-57061892D01*
X97828400Y-56938108D01*
X97804251Y-56816702D01*
X97756881Y-56702341D01*
X97688110Y-56599418D01*
X97600582Y-56511890D01*
X97497659Y-56443119D01*
X97383298Y-56395749D01*
X97261892Y-56371600D01*
X97138108Y-56371600D01*
X97016702Y-56395749D01*
X96902341Y-56443119D01*
X96799418Y-56511890D01*
X96711890Y-56599418D01*
X96643119Y-56702341D01*
X96595749Y-56816702D01*
X96571600Y-56938108D01*
X96571600Y-57061892D01*
X96595749Y-57183298D01*
X96643119Y-57297659D01*
X96711890Y-57400582D01*
X96799418Y-57488110D01*
X96846601Y-57519637D01*
X96846600Y-61653616D01*
X95853618Y-62646600D01*
X87346383Y-62646600D01*
X86037891Y-61338108D01*
X86771600Y-61338108D01*
X86771600Y-61461892D01*
X86795749Y-61583298D01*
X86843119Y-61697659D01*
X86911890Y-61800582D01*
X86999418Y-61888110D01*
X87102341Y-61956881D01*
X87216702Y-62004251D01*
X87338108Y-62028400D01*
X87461892Y-62028400D01*
X87583298Y-62004251D01*
X87697659Y-61956881D01*
X87800582Y-61888110D01*
X87888110Y-61800582D01*
X87956881Y-61697659D01*
X88004251Y-61583298D01*
X88028400Y-61461892D01*
X88028400Y-61448159D01*
X88198160Y-61278400D01*
X88629967Y-61278400D01*
X88626526Y-61286708D01*
X88611600Y-61361746D01*
X88611600Y-61438254D01*
X88626526Y-61513292D01*
X88655805Y-61583976D01*
X88698310Y-61647590D01*
X88752410Y-61701690D01*
X88816024Y-61744195D01*
X88886708Y-61773474D01*
X88961746Y-61788400D01*
X89038254Y-61788400D01*
X89113292Y-61773474D01*
X89183976Y-61744195D01*
X89243160Y-61704650D01*
X89756840Y-61704650D01*
X89816024Y-61744195D01*
X89886708Y-61773474D01*
X89961746Y-61788400D01*
X90038254Y-61788400D01*
X90113292Y-61773474D01*
X90183976Y-61744195D01*
X90247590Y-61701690D01*
X90301690Y-61647590D01*
X90344195Y-61583976D01*
X90373474Y-61513292D01*
X90388400Y-61438254D01*
X90388400Y-61361746D01*
X90383699Y-61338108D01*
X91771600Y-61338108D01*
X91771600Y-61461892D01*
X91795749Y-61583298D01*
X91843119Y-61697659D01*
X91911890Y-61800582D01*
X91999418Y-61888110D01*
X92102341Y-61956881D01*
X92216702Y-62004251D01*
X92338108Y-62028400D01*
X92461892Y-62028400D01*
X92583298Y-62004251D01*
X92697659Y-61956881D01*
X92800582Y-61888110D01*
X92888110Y-61800582D01*
X92956881Y-61697659D01*
X93004251Y-61583298D01*
X93028400Y-61461892D01*
X93028400Y-61338108D01*
X93017330Y-61282453D01*
X93146383Y-61153400D01*
X93680364Y-61153400D01*
X93711890Y-61200582D01*
X93799418Y-61288110D01*
X93902341Y-61356881D01*
X94016702Y-61404251D01*
X94138108Y-61428400D01*
X94261892Y-61428400D01*
X94383298Y-61404251D01*
X94497659Y-61356881D01*
X94600582Y-61288110D01*
X94688110Y-61200582D01*
X94756881Y-61097659D01*
X94804251Y-60983298D01*
X94828400Y-60861892D01*
X94828400Y-60738108D01*
X94804251Y-60616702D01*
X94756881Y-60502341D01*
X94688110Y-60399418D01*
X94600582Y-60311890D01*
X94497659Y-60243119D01*
X94383298Y-60195749D01*
X94261892Y-60171600D01*
X94138108Y-60171600D01*
X94016702Y-60195749D01*
X93902341Y-60243119D01*
X93799418Y-60311890D01*
X93711890Y-60399418D01*
X93680364Y-60446600D01*
X93017341Y-60446600D01*
X92999999Y-60444892D01*
X92982657Y-60446600D01*
X92982648Y-60446600D01*
X92930722Y-60451714D01*
X92864106Y-60471922D01*
X92843714Y-60482822D01*
X92802711Y-60504738D01*
X92768360Y-60532930D01*
X92748900Y-60548900D01*
X92737839Y-60562378D01*
X92517547Y-60782670D01*
X92461892Y-60771600D01*
X92338108Y-60771600D01*
X92216702Y-60795749D01*
X92102341Y-60843119D01*
X91999418Y-60911890D01*
X91911890Y-60999418D01*
X91843119Y-61102341D01*
X91795749Y-61216702D01*
X91771600Y-61338108D01*
X90383699Y-61338108D01*
X90373474Y-61286708D01*
X90344195Y-61216024D01*
X90301690Y-61152410D01*
X90249280Y-61100000D01*
X90301690Y-61047590D01*
X90344195Y-60983976D01*
X90373474Y-60913292D01*
X90388400Y-60838254D01*
X90388400Y-60761746D01*
X90373474Y-60686708D01*
X90344195Y-60616024D01*
X90301690Y-60552410D01*
X90249280Y-60500000D01*
X90301690Y-60447590D01*
X90344195Y-60383976D01*
X90373474Y-60313292D01*
X90388400Y-60238254D01*
X90388400Y-60161746D01*
X90373474Y-60086708D01*
X90344195Y-60016024D01*
X90301690Y-59952410D01*
X90249280Y-59900000D01*
X90301690Y-59847590D01*
X90344195Y-59783976D01*
X90373474Y-59713292D01*
X90388400Y-59638254D01*
X90388400Y-59561746D01*
X90373474Y-59486708D01*
X90344195Y-59416024D01*
X90301690Y-59352410D01*
X90247590Y-59298310D01*
X90183976Y-59255805D01*
X90113292Y-59226526D01*
X90038254Y-59211600D01*
X89961746Y-59211600D01*
X89886708Y-59226526D01*
X89816024Y-59255805D01*
X89756840Y-59295350D01*
X89243160Y-59295350D01*
X89183976Y-59255805D01*
X89113292Y-59226526D01*
X89038254Y-59211600D01*
X88961746Y-59211600D01*
X88886708Y-59226526D01*
X88816024Y-59255805D01*
X88752410Y-59298310D01*
X88698310Y-59352410D01*
X88655805Y-59416024D01*
X88626526Y-59486708D01*
X88611600Y-59561746D01*
X88611600Y-59638254D01*
X88626526Y-59713292D01*
X88655805Y-59783976D01*
X88698310Y-59847590D01*
X88750720Y-59900000D01*
X88698310Y-59952410D01*
X88655805Y-60016024D01*
X88626526Y-60086708D01*
X88611600Y-60161746D01*
X88611600Y-60238254D01*
X88626526Y-60313292D01*
X88629967Y-60321600D01*
X88023483Y-60321600D01*
X87999999Y-60319287D01*
X87976515Y-60321600D01*
X87976506Y-60321600D01*
X87906217Y-60328523D01*
X87816039Y-60355878D01*
X87789482Y-60370073D01*
X87732929Y-60400301D01*
X87678332Y-60445108D01*
X87660084Y-60460084D01*
X87645109Y-60478331D01*
X87351841Y-60771600D01*
X87338108Y-60771600D01*
X87216702Y-60795749D01*
X87102341Y-60843119D01*
X86999418Y-60911890D01*
X86911890Y-60999418D01*
X86843119Y-61102341D01*
X86795749Y-61216702D01*
X86771600Y-61338108D01*
X86037891Y-61338108D01*
X85617330Y-60917547D01*
X85628400Y-60861892D01*
X85628400Y-60738108D01*
X85604251Y-60616702D01*
X85556881Y-60502341D01*
X85488110Y-60399418D01*
X85400582Y-60311890D01*
X85297659Y-60243119D01*
X85183298Y-60195749D01*
X85061892Y-60171600D01*
X84938108Y-60171600D01*
X84816702Y-60195749D01*
X84702341Y-60243119D01*
X84599418Y-60311890D01*
X84511890Y-60399418D01*
X84443119Y-60502341D01*
X84395749Y-60616702D01*
X84371600Y-60738108D01*
X56253000Y-60738108D01*
X56253000Y-57619164D01*
X59421600Y-57619164D01*
X59421600Y-57880836D01*
X59472649Y-58137480D01*
X59572787Y-58379234D01*
X59718164Y-58596806D01*
X59903194Y-58781836D01*
X60120766Y-58927213D01*
X60362520Y-59027351D01*
X60619164Y-59078400D01*
X60880836Y-59078400D01*
X61137480Y-59027351D01*
X61379234Y-58927213D01*
X61596806Y-58781836D01*
X61781836Y-58596806D01*
X61927213Y-58379234D01*
X62027351Y-58137480D01*
X62078400Y-57880836D01*
X62078400Y-57619164D01*
X66421600Y-57619164D01*
X66421600Y-57880836D01*
X66472649Y-58137480D01*
X66572787Y-58379234D01*
X66718164Y-58596806D01*
X66903194Y-58781836D01*
X67120766Y-58927213D01*
X67362520Y-59027351D01*
X67619164Y-59078400D01*
X67880836Y-59078400D01*
X68137480Y-59027351D01*
X68379234Y-58927213D01*
X68596806Y-58781836D01*
X68781836Y-58596806D01*
X68927213Y-58379234D01*
X69027351Y-58137480D01*
X69078400Y-57880836D01*
X69078400Y-57619164D01*
X69027351Y-57362520D01*
X68927213Y-57120766D01*
X68781836Y-56903194D01*
X68596806Y-56718164D01*
X68379234Y-56572787D01*
X68137480Y-56472649D01*
X67880836Y-56421600D01*
X67619164Y-56421600D01*
X67362520Y-56472649D01*
X67120766Y-56572787D01*
X66903194Y-56718164D01*
X66718164Y-56903194D01*
X66572787Y-57120766D01*
X66472649Y-57362520D01*
X66421600Y-57619164D01*
X62078400Y-57619164D01*
X62027351Y-57362520D01*
X61927213Y-57120766D01*
X61781836Y-56903194D01*
X61596806Y-56718164D01*
X61379234Y-56572787D01*
X61137480Y-56472649D01*
X60880836Y-56421600D01*
X60619164Y-56421600D01*
X60362520Y-56472649D01*
X60120766Y-56572787D01*
X59903194Y-56718164D01*
X59718164Y-56903194D01*
X59572787Y-57120766D01*
X59472649Y-57362520D01*
X59421600Y-57619164D01*
X56253000Y-57619164D01*
X56253000Y-50938108D01*
X73871600Y-50938108D01*
X73871600Y-51061892D01*
X73895749Y-51183298D01*
X73943119Y-51297659D01*
X74011890Y-51400582D01*
X74099418Y-51488110D01*
X74146601Y-51519637D01*
X74146600Y-55480364D01*
X74099418Y-55511890D01*
X74011890Y-55599418D01*
X73943119Y-55702341D01*
X73895749Y-55816702D01*
X73871600Y-55938108D01*
X73871600Y-56061892D01*
X73895749Y-56183298D01*
X73943119Y-56297659D01*
X74011890Y-56400582D01*
X74099418Y-56488110D01*
X74202341Y-56556881D01*
X74316702Y-56604251D01*
X74438108Y-56628400D01*
X74561892Y-56628400D01*
X74683298Y-56604251D01*
X74797659Y-56556881D01*
X74900582Y-56488110D01*
X74988110Y-56400582D01*
X75014059Y-56361746D01*
X82811600Y-56361746D01*
X82811600Y-56438254D01*
X82826526Y-56513292D01*
X82855805Y-56583976D01*
X82898310Y-56647590D01*
X82952410Y-56701690D01*
X83016024Y-56744195D01*
X83086708Y-56773474D01*
X83161746Y-56788400D01*
X83238254Y-56788400D01*
X83313292Y-56773474D01*
X83383976Y-56744195D01*
X83447590Y-56701690D01*
X83501690Y-56647590D01*
X83544195Y-56583976D01*
X83573474Y-56513292D01*
X83587361Y-56443479D01*
X83726190Y-56304650D01*
X84956840Y-56304650D01*
X85016024Y-56344195D01*
X85086708Y-56373474D01*
X85161746Y-56388400D01*
X85238254Y-56388400D01*
X85313292Y-56373474D01*
X85383976Y-56344195D01*
X85443160Y-56304650D01*
X86556840Y-56304650D01*
X86616024Y-56344195D01*
X86686708Y-56373474D01*
X86761746Y-56388400D01*
X86838254Y-56388400D01*
X86913292Y-56373474D01*
X86983976Y-56344195D01*
X87047590Y-56301690D01*
X87101690Y-56247590D01*
X87144195Y-56183976D01*
X87173474Y-56113292D01*
X87188400Y-56038254D01*
X87188400Y-55961746D01*
X87173474Y-55886708D01*
X87144195Y-55816024D01*
X87101690Y-55752410D01*
X87047590Y-55698310D01*
X86983976Y-55655805D01*
X86913292Y-55626526D01*
X86838254Y-55611600D01*
X86761746Y-55611600D01*
X86686708Y-55626526D01*
X86616024Y-55655805D01*
X86556840Y-55695350D01*
X85443160Y-55695350D01*
X85383976Y-55655805D01*
X85313292Y-55626526D01*
X85238254Y-55611600D01*
X85161746Y-55611600D01*
X85086708Y-55626526D01*
X85016024Y-55655805D01*
X84956840Y-55695350D01*
X83614955Y-55695350D01*
X83599999Y-55693877D01*
X83585043Y-55695350D01*
X83585034Y-55695350D01*
X83540278Y-55699758D01*
X83482851Y-55717178D01*
X83429927Y-55745467D01*
X83383538Y-55783538D01*
X83373999Y-55795161D01*
X83156521Y-56012639D01*
X83086708Y-56026526D01*
X83016024Y-56055805D01*
X82952410Y-56098310D01*
X82898310Y-56152410D01*
X82855805Y-56216024D01*
X82826526Y-56286708D01*
X82811600Y-56361746D01*
X75014059Y-56361746D01*
X75056881Y-56297659D01*
X75104251Y-56183298D01*
X75128400Y-56061892D01*
X75128400Y-55938108D01*
X75104251Y-55816702D01*
X75056881Y-55702341D01*
X74988110Y-55599418D01*
X74900582Y-55511890D01*
X74853400Y-55480364D01*
X74853400Y-51519636D01*
X74900582Y-51488110D01*
X74988110Y-51400582D01*
X75014059Y-51361746D01*
X91211600Y-51361746D01*
X91211600Y-51438254D01*
X91226526Y-51513292D01*
X91255805Y-51583976D01*
X91295350Y-51643160D01*
X91295350Y-51814965D01*
X91295351Y-51814975D01*
X91295350Y-52156839D01*
X91255805Y-52216024D01*
X91226526Y-52286708D01*
X91211600Y-52361746D01*
X91211600Y-52438254D01*
X91226526Y-52513292D01*
X91255805Y-52583976D01*
X91298310Y-52647590D01*
X91352410Y-52701690D01*
X91416024Y-52744195D01*
X91486708Y-52773474D01*
X91561746Y-52788400D01*
X91638254Y-52788400D01*
X91713292Y-52773474D01*
X91783976Y-52744195D01*
X91847590Y-52701690D01*
X91901690Y-52647590D01*
X91944195Y-52583976D01*
X91973474Y-52513292D01*
X91988400Y-52438254D01*
X91988400Y-52361746D01*
X91973474Y-52286708D01*
X91944195Y-52216024D01*
X91904650Y-52156840D01*
X91904650Y-51643160D01*
X91944195Y-51583976D01*
X91973474Y-51513292D01*
X91988400Y-51438254D01*
X91988400Y-51361746D01*
X91973474Y-51286708D01*
X91944195Y-51216024D01*
X91901690Y-51152410D01*
X91847590Y-51098310D01*
X91783976Y-51055805D01*
X91713292Y-51026526D01*
X91638254Y-51011600D01*
X91561746Y-51011600D01*
X91486708Y-51026526D01*
X91416024Y-51055805D01*
X91352410Y-51098310D01*
X91298310Y-51152410D01*
X91255805Y-51216024D01*
X91226526Y-51286708D01*
X91211600Y-51361746D01*
X75014059Y-51361746D01*
X75056881Y-51297659D01*
X75104251Y-51183298D01*
X75128400Y-51061892D01*
X75128400Y-50938108D01*
X75104251Y-50816702D01*
X75056881Y-50702341D01*
X74988110Y-50599418D01*
X74900582Y-50511890D01*
X74797659Y-50443119D01*
X74683298Y-50395749D01*
X74561892Y-50371600D01*
X74438108Y-50371600D01*
X74316702Y-50395749D01*
X74202341Y-50443119D01*
X74099418Y-50511890D01*
X74011890Y-50599418D01*
X73943119Y-50702341D01*
X73895749Y-50816702D01*
X73871600Y-50938108D01*
X56253000Y-50938108D01*
X56253000Y-49479013D01*
X56771600Y-49479013D01*
X56771600Y-49720987D01*
X56818806Y-49958311D01*
X56911406Y-50181866D01*
X57045839Y-50383060D01*
X57216940Y-50554161D01*
X57418134Y-50688594D01*
X57641689Y-50781194D01*
X57879013Y-50828400D01*
X58120987Y-50828400D01*
X58358311Y-50781194D01*
X58581866Y-50688594D01*
X58783060Y-50554161D01*
X58954161Y-50383060D01*
X59088594Y-50181866D01*
X59181194Y-49958311D01*
X59228400Y-49720987D01*
X59228400Y-49479013D01*
X59181194Y-49241689D01*
X59088594Y-49018134D01*
X58954161Y-48816940D01*
X58783060Y-48645839D01*
X58581866Y-48511406D01*
X58358311Y-48418806D01*
X58120987Y-48371600D01*
X57879013Y-48371600D01*
X57641689Y-48418806D01*
X57418134Y-48511406D01*
X57216940Y-48645839D01*
X57045839Y-48816940D01*
X56911406Y-49018134D01*
X56818806Y-49241689D01*
X56771600Y-49479013D01*
X56253000Y-49479013D01*
X56253000Y-42512378D01*
X56295491Y-42079013D01*
X56771600Y-42079013D01*
X56771600Y-42320987D01*
X56818806Y-42558311D01*
X56911406Y-42781866D01*
X57045839Y-42983060D01*
X57216940Y-43154161D01*
X57418134Y-43288594D01*
X57641689Y-43381194D01*
X57879013Y-43428400D01*
X58120987Y-43428400D01*
X58358311Y-43381194D01*
X58581866Y-43288594D01*
X58783060Y-43154161D01*
X58954161Y-42983060D01*
X59088594Y-42781866D01*
X59181194Y-42558311D01*
X59228400Y-42320987D01*
X59228400Y-42319918D01*
X81671600Y-42319918D01*
X81671600Y-42680082D01*
X81741864Y-43033325D01*
X81879693Y-43366072D01*
X82079789Y-43665537D01*
X82334463Y-43920211D01*
X82633928Y-44120307D01*
X82966675Y-44258136D01*
X83319918Y-44328400D01*
X83680082Y-44328400D01*
X84033325Y-44258136D01*
X84366072Y-44120307D01*
X84665537Y-43920211D01*
X84920211Y-43665537D01*
X85120307Y-43366072D01*
X85258136Y-43033325D01*
X85328400Y-42680082D01*
X85328400Y-42319918D01*
X95671600Y-42319918D01*
X95671600Y-42680082D01*
X95741864Y-43033325D01*
X95879693Y-43366072D01*
X96079789Y-43665537D01*
X96334463Y-43920211D01*
X96633928Y-44120307D01*
X96966675Y-44258136D01*
X97319918Y-44328400D01*
X97680082Y-44328400D01*
X98033325Y-44258136D01*
X98366072Y-44120307D01*
X98665537Y-43920211D01*
X98920211Y-43665537D01*
X99120307Y-43366072D01*
X99258136Y-43033325D01*
X99328400Y-42680082D01*
X99328400Y-42319918D01*
X99258136Y-41966675D01*
X99120307Y-41633928D01*
X98920211Y-41334463D01*
X98665537Y-41079789D01*
X98366072Y-40879693D01*
X98033325Y-40741864D01*
X97680082Y-40671600D01*
X97319918Y-40671600D01*
X96966675Y-40741864D01*
X96633928Y-40879693D01*
X96334463Y-41079789D01*
X96079789Y-41334463D01*
X95879693Y-41633928D01*
X95741864Y-41966675D01*
X95671600Y-42319918D01*
X85328400Y-42319918D01*
X85258136Y-41966675D01*
X85120307Y-41633928D01*
X84920211Y-41334463D01*
X84665537Y-41079789D01*
X84366072Y-40879693D01*
X84033325Y-40741864D01*
X83680082Y-40671600D01*
X83319918Y-40671600D01*
X82966675Y-40741864D01*
X82633928Y-40879693D01*
X82334463Y-41079789D01*
X82079789Y-41334463D01*
X81879693Y-41633928D01*
X81741864Y-41966675D01*
X81671600Y-42319918D01*
X59228400Y-42319918D01*
X59228400Y-42079013D01*
X59181194Y-41841689D01*
X59088594Y-41618134D01*
X58954161Y-41416940D01*
X58783060Y-41245839D01*
X58581866Y-41111406D01*
X58358311Y-41018806D01*
X58120987Y-40971600D01*
X57879013Y-40971600D01*
X57641689Y-41018806D01*
X57418134Y-41111406D01*
X57216940Y-41245839D01*
X57045839Y-41416940D01*
X56911406Y-41618134D01*
X56818806Y-41841689D01*
X56771600Y-42079013D01*
X56295491Y-42079013D01*
X56296984Y-42063790D01*
X56423668Y-41644196D01*
X56629438Y-41257199D01*
X56906455Y-40917542D01*
X57244172Y-40638158D01*
X57629724Y-40429691D01*
X58048424Y-40300083D01*
X58496251Y-40253014D01*
X58500312Y-40253000D01*
X97487622Y-40253000D01*
X97936210Y-40296984D01*
M02*
