G04 #@! TF.GenerationSoftware,KiCad,Pcbnew,5.1.5*
G04 #@! TF.CreationDate,2020-02-06T17:50:48+09:00*
G04 #@! TF.ProjectId,MIDI-Guy,4d494449-2d47-4757-992e-6b696361645f,rev?*
G04 #@! TF.SameCoordinates,Original*
G04 #@! TF.FileFunction,Soldermask,Bot*
G04 #@! TF.FilePolarity,Negative*
%FSLAX46Y46*%
G04 Gerber Fmt 4.6, Leading zero omitted, Abs format (unit mm)*
G04 Created by KiCad (PCBNEW 5.1.5) date 2020-02-06 17:50:48*
%MOMM*%
%LPD*%
G04 APERTURE LIST*
%ADD10C,0.100000*%
G04 APERTURE END LIST*
D10*
G36*
X83966733Y-70961391D02*
G01*
X84257931Y-71082010D01*
X84520004Y-71257121D01*
X84742879Y-71479996D01*
X84917990Y-71742069D01*
X85038609Y-72033268D01*
X85100100Y-72342404D01*
X85100100Y-72657596D01*
X85038609Y-72966732D01*
X84917990Y-73257931D01*
X84742879Y-73520004D01*
X84520004Y-73742879D01*
X84257931Y-73917990D01*
X83966733Y-74038609D01*
X83657596Y-74100100D01*
X83342404Y-74100100D01*
X83033267Y-74038609D01*
X82742069Y-73917990D01*
X82479996Y-73742879D01*
X82257121Y-73520004D01*
X82082010Y-73257931D01*
X81961391Y-72966732D01*
X81899900Y-72657596D01*
X81899900Y-72342404D01*
X81961391Y-72033268D01*
X82082010Y-71742069D01*
X82257121Y-71479996D01*
X82479996Y-71257121D01*
X82742069Y-71082010D01*
X83033267Y-70961391D01*
X83342404Y-70899900D01*
X83657596Y-70899900D01*
X83966733Y-70961391D01*
G37*
G36*
X97966733Y-70961391D02*
G01*
X98257931Y-71082010D01*
X98520004Y-71257121D01*
X98742879Y-71479996D01*
X98917990Y-71742069D01*
X99038609Y-72033268D01*
X99100100Y-72342404D01*
X99100100Y-72657596D01*
X99038609Y-72966732D01*
X98917990Y-73257931D01*
X98742879Y-73520004D01*
X98520004Y-73742879D01*
X98257931Y-73917990D01*
X97966733Y-74038609D01*
X97657596Y-74100100D01*
X97342404Y-74100100D01*
X97033267Y-74038609D01*
X96742069Y-73917990D01*
X96479996Y-73742879D01*
X96257121Y-73520004D01*
X96082010Y-73257931D01*
X95961391Y-72966732D01*
X95899900Y-72657596D01*
X95899900Y-72342404D01*
X95961391Y-72033268D01*
X96082010Y-71742069D01*
X96257121Y-71479996D01*
X96479996Y-71257121D01*
X96742069Y-71082010D01*
X97033267Y-70961391D01*
X97342404Y-70899900D01*
X97657596Y-70899900D01*
X97966733Y-70961391D01*
G37*
G36*
X68120889Y-67942176D02*
G01*
X68254358Y-67997461D01*
X68321093Y-68025104D01*
X68501273Y-68145496D01*
X68654504Y-68298727D01*
X68774896Y-68478907D01*
X68774896Y-68478908D01*
X68857824Y-68679111D01*
X68900100Y-68891650D01*
X68900100Y-69108350D01*
X68857824Y-69320889D01*
X68802539Y-69454358D01*
X68774896Y-69521093D01*
X68654504Y-69701273D01*
X68501273Y-69854504D01*
X68321093Y-69974896D01*
X68254358Y-70002539D01*
X68120889Y-70057824D01*
X67908350Y-70100100D01*
X67691650Y-70100100D01*
X67479111Y-70057824D01*
X67345642Y-70002539D01*
X67278907Y-69974896D01*
X67098727Y-69854504D01*
X66945496Y-69701273D01*
X66825104Y-69521093D01*
X66797461Y-69454358D01*
X66742176Y-69320889D01*
X66699900Y-69108350D01*
X66699900Y-68891650D01*
X66742176Y-68679111D01*
X66825104Y-68478908D01*
X66825104Y-68478907D01*
X66945496Y-68298727D01*
X67098727Y-68145496D01*
X67278907Y-68025104D01*
X67345642Y-67997461D01*
X67479111Y-67942176D01*
X67691650Y-67899900D01*
X67908350Y-67899900D01*
X68120889Y-67942176D01*
G37*
G36*
X61120889Y-67942176D02*
G01*
X61254358Y-67997461D01*
X61321093Y-68025104D01*
X61501273Y-68145496D01*
X61654504Y-68298727D01*
X61774896Y-68478907D01*
X61774896Y-68478908D01*
X61857824Y-68679111D01*
X61900100Y-68891650D01*
X61900100Y-69108350D01*
X61857824Y-69320889D01*
X61802539Y-69454358D01*
X61774896Y-69521093D01*
X61654504Y-69701273D01*
X61501273Y-69854504D01*
X61321093Y-69974896D01*
X61254358Y-70002539D01*
X61120889Y-70057824D01*
X60908350Y-70100100D01*
X60691650Y-70100100D01*
X60479111Y-70057824D01*
X60345642Y-70002539D01*
X60278907Y-69974896D01*
X60098727Y-69854504D01*
X59945496Y-69701273D01*
X59825104Y-69521093D01*
X59797461Y-69454358D01*
X59742176Y-69320889D01*
X59699900Y-69108350D01*
X59699900Y-68891650D01*
X59742176Y-68679111D01*
X59825104Y-68478908D01*
X59825104Y-68478907D01*
X59945496Y-68298727D01*
X60098727Y-68145496D01*
X60278907Y-68025104D01*
X60345642Y-67997461D01*
X60479111Y-67942176D01*
X60691650Y-67899900D01*
X60908350Y-67899900D01*
X61120889Y-67942176D01*
G37*
G36*
X61070889Y-56692176D02*
G01*
X61204358Y-56747461D01*
X61271093Y-56775104D01*
X61451273Y-56895496D01*
X61604504Y-57048727D01*
X61724896Y-57228907D01*
X61724896Y-57228908D01*
X61807824Y-57429111D01*
X61850100Y-57641650D01*
X61850100Y-57858350D01*
X61807824Y-58070889D01*
X61752539Y-58204358D01*
X61724896Y-58271093D01*
X61604504Y-58451273D01*
X61451273Y-58604504D01*
X61271093Y-58724896D01*
X61204358Y-58752539D01*
X61070889Y-58807824D01*
X60858350Y-58850100D01*
X60641650Y-58850100D01*
X60429111Y-58807824D01*
X60295642Y-58752539D01*
X60228907Y-58724896D01*
X60048727Y-58604504D01*
X59895496Y-58451273D01*
X59775104Y-58271093D01*
X59747461Y-58204358D01*
X59692176Y-58070889D01*
X59649900Y-57858350D01*
X59649900Y-57641650D01*
X59692176Y-57429111D01*
X59775104Y-57228908D01*
X59775104Y-57228907D01*
X59895496Y-57048727D01*
X60048727Y-56895496D01*
X60228907Y-56775104D01*
X60295642Y-56747461D01*
X60429111Y-56692176D01*
X60641650Y-56649900D01*
X60858350Y-56649900D01*
X61070889Y-56692176D01*
G37*
G36*
X68070889Y-56692176D02*
G01*
X68204358Y-56747461D01*
X68271093Y-56775104D01*
X68451273Y-56895496D01*
X68604504Y-57048727D01*
X68724896Y-57228907D01*
X68724896Y-57228908D01*
X68807824Y-57429111D01*
X68850100Y-57641650D01*
X68850100Y-57858350D01*
X68807824Y-58070889D01*
X68752539Y-58204358D01*
X68724896Y-58271093D01*
X68604504Y-58451273D01*
X68451273Y-58604504D01*
X68271093Y-58724896D01*
X68204358Y-58752539D01*
X68070889Y-58807824D01*
X67858350Y-58850100D01*
X67641650Y-58850100D01*
X67429111Y-58807824D01*
X67295642Y-58752539D01*
X67228907Y-58724896D01*
X67048727Y-58604504D01*
X66895496Y-58451273D01*
X66775104Y-58271093D01*
X66747461Y-58204358D01*
X66692176Y-58070889D01*
X66649900Y-57858350D01*
X66649900Y-57641650D01*
X66692176Y-57429111D01*
X66775104Y-57228908D01*
X66775104Y-57228907D01*
X66895496Y-57048727D01*
X67048727Y-56895496D01*
X67228907Y-56775104D01*
X67295642Y-56747461D01*
X67429111Y-56692176D01*
X67641650Y-56649900D01*
X67858350Y-56649900D01*
X68070889Y-56692176D01*
G37*
G36*
X58291720Y-48638333D02*
G01*
X58413056Y-48688593D01*
X58473725Y-48713723D01*
X58637527Y-48823172D01*
X58776828Y-48962473D01*
X58886277Y-49126275D01*
X58886277Y-49126276D01*
X58961667Y-49308280D01*
X59000100Y-49501499D01*
X59000100Y-49698501D01*
X58961667Y-49891720D01*
X58911407Y-50013056D01*
X58886277Y-50073725D01*
X58776828Y-50237527D01*
X58637527Y-50376828D01*
X58473725Y-50486277D01*
X58413056Y-50511407D01*
X58291720Y-50561667D01*
X58098501Y-50600100D01*
X57901499Y-50600100D01*
X57708280Y-50561667D01*
X57586944Y-50511407D01*
X57526275Y-50486277D01*
X57362473Y-50376828D01*
X57223172Y-50237527D01*
X57113723Y-50073725D01*
X57088593Y-50013056D01*
X57038333Y-49891720D01*
X56999900Y-49698501D01*
X56999900Y-49501499D01*
X57038333Y-49308280D01*
X57113723Y-49126276D01*
X57113723Y-49126275D01*
X57223172Y-48962473D01*
X57362473Y-48823172D01*
X57526275Y-48713723D01*
X57586944Y-48688593D01*
X57708280Y-48638333D01*
X57901499Y-48599900D01*
X58098501Y-48599900D01*
X58291720Y-48638333D01*
G37*
G36*
X97966733Y-40961391D02*
G01*
X98257931Y-41082010D01*
X98520004Y-41257121D01*
X98742879Y-41479996D01*
X98907437Y-41726275D01*
X98917990Y-41742069D01*
X99038609Y-42033267D01*
X99100100Y-42342404D01*
X99100100Y-42657596D01*
X99038609Y-42966733D01*
X98917990Y-43257931D01*
X98742879Y-43520004D01*
X98520004Y-43742879D01*
X98257931Y-43917990D01*
X97966733Y-44038609D01*
X97657596Y-44100100D01*
X97342404Y-44100100D01*
X97033267Y-44038609D01*
X96742069Y-43917990D01*
X96479996Y-43742879D01*
X96257121Y-43520004D01*
X96082010Y-43257931D01*
X95961391Y-42966733D01*
X95899900Y-42657596D01*
X95899900Y-42342404D01*
X95961391Y-42033267D01*
X96082010Y-41742069D01*
X96092563Y-41726275D01*
X96257121Y-41479996D01*
X96479996Y-41257121D01*
X96742069Y-41082010D01*
X97033267Y-40961391D01*
X97342404Y-40899900D01*
X97657596Y-40899900D01*
X97966733Y-40961391D01*
G37*
G36*
X83966733Y-40961391D02*
G01*
X84257931Y-41082010D01*
X84520004Y-41257121D01*
X84742879Y-41479996D01*
X84907437Y-41726275D01*
X84917990Y-41742069D01*
X85038609Y-42033267D01*
X85100100Y-42342404D01*
X85100100Y-42657596D01*
X85038609Y-42966733D01*
X84917990Y-43257931D01*
X84742879Y-43520004D01*
X84520004Y-43742879D01*
X84257931Y-43917990D01*
X83966733Y-44038609D01*
X83657596Y-44100100D01*
X83342404Y-44100100D01*
X83033267Y-44038609D01*
X82742069Y-43917990D01*
X82479996Y-43742879D01*
X82257121Y-43520004D01*
X82082010Y-43257931D01*
X81961391Y-42966733D01*
X81899900Y-42657596D01*
X81899900Y-42342404D01*
X81961391Y-42033267D01*
X82082010Y-41742069D01*
X82092563Y-41726275D01*
X82257121Y-41479996D01*
X82479996Y-41257121D01*
X82742069Y-41082010D01*
X83033267Y-40961391D01*
X83342404Y-40899900D01*
X83657596Y-40899900D01*
X83966733Y-40961391D01*
G37*
G36*
X58291720Y-41238333D02*
G01*
X58413056Y-41288593D01*
X58473725Y-41313723D01*
X58637527Y-41423172D01*
X58776828Y-41562473D01*
X58886277Y-41726275D01*
X58886277Y-41726276D01*
X58961667Y-41908280D01*
X59000100Y-42101499D01*
X59000100Y-42298501D01*
X58961667Y-42491720D01*
X58911407Y-42613056D01*
X58886277Y-42673725D01*
X58776828Y-42837527D01*
X58637527Y-42976828D01*
X58473725Y-43086277D01*
X58413056Y-43111407D01*
X58291720Y-43161667D01*
X58098501Y-43200100D01*
X57901499Y-43200100D01*
X57708280Y-43161667D01*
X57586944Y-43111407D01*
X57526275Y-43086277D01*
X57362473Y-42976828D01*
X57223172Y-42837527D01*
X57113723Y-42673725D01*
X57088593Y-42613056D01*
X57038333Y-42491720D01*
X56999900Y-42298501D01*
X56999900Y-42101499D01*
X57038333Y-41908280D01*
X57113723Y-41726276D01*
X57113723Y-41726275D01*
X57223172Y-41562473D01*
X57362473Y-41423172D01*
X57526275Y-41313723D01*
X57586944Y-41288593D01*
X57708280Y-41238333D01*
X57901499Y-41199900D01*
X58098501Y-41199900D01*
X58291720Y-41238333D01*
G37*
M02*
