M48
; DRILL file {KiCad 5.1.5} date 2020年02月06日 17時50分54秒
; FORMAT={-:-/ absolute / metric / decimal}
; #@! TF.CreationDate,2020-02-06T17:50:54+09:00
; #@! TF.GenerationSoftware,Kicad,Pcbnew,5.1.5
; #@! TF.FileFunction,Plated,1,2,PTH
FMAT,2
METRIC
T1C0.300
T2C0.400
T3C1.400
%
G90
G05
T1
X83.2Y-56.4
X85.2Y-56.0
X86.8Y-56.0
X89.0Y-59.6
X89.0Y-60.2
X89.0Y-60.8
X89.0Y-61.4
X90.0Y-59.6
X90.0Y-60.2
X90.0Y-60.8
X90.0Y-61.4
X91.6Y-51.4
X91.6Y-52.4
X93.8Y-60.0
X94.837Y-60.0
T2
X61.8Y-72.6
X70.2Y-65.2
X71.4Y-70.6
X74.5Y-51.0
X74.5Y-56.0
X78.0Y-44.0
X79.0Y-44.0
X80.0Y-44.0
X81.0Y-44.0
X81.6Y-51.2
X82.0Y-68.6
X85.0Y-60.8
X85.8Y-63.0
X87.4Y-61.4
X88.4Y-56.4
X92.4Y-61.4
X92.6Y-43.6
X93.8Y-51.8
X94.2Y-60.8
X96.2Y-60.2
X97.2Y-57.0
X98.0Y-55.0
X98.5Y-47.75
T3
X58.0Y-42.2
X58.0Y-49.6
T0
M30
