G04 #@! TF.GenerationSoftware,KiCad,Pcbnew,5.1.5*
G04 #@! TF.CreationDate,2020-02-06T17:50:48+09:00*
G04 #@! TF.ProjectId,MIDI-Guy,4d494449-2d47-4757-992e-6b696361645f,rev?*
G04 #@! TF.SameCoordinates,Original*
G04 #@! TF.FileFunction,Legend,Top*
G04 #@! TF.FilePolarity,Positive*
%FSLAX46Y46*%
G04 Gerber Fmt 4.6, Leading zero omitted, Abs format (unit mm)*
G04 Created by KiCad (PCBNEW 5.1.5) date 2020-02-06 17:50:48*
%MOMM*%
%LPD*%
G04 APERTURE LIST*
%ADD10C,0.127000*%
%ADD11C,0.200000*%
%ADD12C,0.250000*%
%ADD13C,0.120000*%
%ADD14C,0.150000*%
%ADD15C,0.050000*%
%ADD16C,0.100000*%
G04 APERTURE END LIST*
D10*
X54800000Y-71500000D02*
X57300000Y-71500000D01*
X54800000Y-66500000D02*
X54800000Y-71500000D01*
X57300000Y-66500000D02*
X54800000Y-66500000D01*
X70700000Y-72000000D02*
X71800000Y-72000000D01*
D11*
X56600000Y-72300000D02*
G75*
G03X56600000Y-72300000I-100000J0D01*
G01*
D10*
X61000000Y-72000000D02*
X67500000Y-72000000D01*
X57300000Y-72000000D02*
X58400000Y-72000000D01*
X71800000Y-66000000D02*
X71800000Y-72000000D01*
X63000000Y-66000000D02*
X71800000Y-66000000D01*
X57300000Y-66000000D02*
X60400000Y-66000000D01*
X57300000Y-66500000D02*
X57300000Y-66000000D01*
X57300000Y-71500000D02*
X57300000Y-66500000D01*
X57300000Y-72000000D02*
X57300000Y-71500000D01*
X54750000Y-60250000D02*
X57250000Y-60250000D01*
X54750000Y-55250000D02*
X54750000Y-60250000D01*
X57250000Y-55250000D02*
X54750000Y-55250000D01*
X70650000Y-60750000D02*
X71750000Y-60750000D01*
D11*
X56550000Y-61050000D02*
G75*
G03X56550000Y-61050000I-100000J0D01*
G01*
D10*
X60950000Y-60750000D02*
X67450000Y-60750000D01*
X57250000Y-60750000D02*
X58350000Y-60750000D01*
X71750000Y-54750000D02*
X71750000Y-60750000D01*
X62950000Y-54750000D02*
X71750000Y-54750000D01*
X57250000Y-54750000D02*
X60350000Y-54750000D01*
X57250000Y-55250000D02*
X57250000Y-54750000D01*
X57250000Y-60250000D02*
X57250000Y-55250000D01*
X57250000Y-60750000D02*
X57250000Y-60250000D01*
D12*
X87386020Y-57220000D02*
G75*
G03X87386020Y-57220000I-86020J0D01*
G01*
D13*
X89880000Y-53450000D02*
X89880000Y-52880000D01*
X96120000Y-59120000D02*
X95550000Y-59120000D01*
X96120000Y-58550000D02*
X96120000Y-59120000D01*
X96120000Y-52880000D02*
X95550000Y-52880000D01*
X96120000Y-53450000D02*
X96120000Y-52880000D01*
X90500000Y-52880000D02*
X89880000Y-52880000D01*
X89880000Y-59120000D02*
X89880000Y-58550000D01*
X68350000Y-45150000D02*
X68350000Y-45850000D01*
X67150000Y-45850000D02*
X67150000Y-45150000D01*
X70550000Y-49800000D02*
X69850000Y-49800000D01*
X69850000Y-48600000D02*
X70550000Y-48600000D01*
X73550000Y-45650000D02*
X73550000Y-44950000D01*
X74750000Y-44950000D02*
X74750000Y-45650000D01*
X87150000Y-46800000D02*
X86450000Y-46800000D01*
X86450000Y-45600000D02*
X87150000Y-45600000D01*
X85100000Y-52350000D02*
X85800000Y-52350000D01*
X85800000Y-53550000D02*
X85100000Y-53550000D01*
X85200000Y-58350000D02*
X85900000Y-58350000D01*
X85900000Y-59550000D02*
X85200000Y-59550000D01*
X89850000Y-67800000D02*
X90550000Y-67800000D01*
X90550000Y-69000000D02*
X89850000Y-69000000D01*
X86550000Y-69000000D02*
X85850000Y-69000000D01*
X85850000Y-67800000D02*
X86550000Y-67800000D01*
X94800000Y-63150000D02*
X94800000Y-62450000D01*
X96000000Y-62450000D02*
X96000000Y-63150000D01*
X74200000Y-64600000D02*
X74900000Y-64600000D01*
X74900000Y-65800000D02*
X74200000Y-65800000D01*
X73950000Y-72600000D02*
X74650000Y-72600000D01*
X74650000Y-73800000D02*
X73950000Y-73800000D01*
X90550000Y-67000000D02*
X89850000Y-67000000D01*
X89850000Y-65800000D02*
X90550000Y-65800000D01*
X99000000Y-49900000D02*
X99000000Y-50600000D01*
X97800000Y-50600000D02*
X97800000Y-49900000D01*
X92950000Y-51000000D02*
X92250000Y-51000000D01*
X92250000Y-49800000D02*
X92950000Y-49800000D01*
X93350000Y-47250000D02*
X93350000Y-45250000D01*
X93350000Y-45250000D02*
X89500000Y-45250000D01*
X93350000Y-47250000D02*
X89500000Y-47250000D01*
X79500000Y-52300000D02*
X79500000Y-56150000D01*
X77500000Y-52300000D02*
X77500000Y-56150000D01*
X79500000Y-52300000D02*
X77500000Y-52300000D01*
D14*
X65000000Y-45900000D02*
X65000000Y-42250000D01*
X65000000Y-45900000D02*
X65000000Y-49550000D01*
X65000000Y-49550000D02*
X56850000Y-49550000D01*
X56850000Y-49550000D02*
X56850000Y-42240000D01*
X56850000Y-42240000D02*
X65000000Y-42240000D01*
D13*
X89900000Y-62720000D02*
X90900000Y-62720000D01*
X90900000Y-64080000D02*
X89900000Y-64080000D01*
X73200000Y-48650000D02*
X75800000Y-48650000D01*
X73200000Y-49750000D02*
X75800000Y-49750000D01*
X73200000Y-48650000D02*
X73200000Y-49750000D01*
D14*
X76800000Y-60000000D02*
X76400000Y-60000000D01*
X76400000Y-60000000D02*
X76100000Y-60300000D01*
X76100000Y-60300000D02*
X75600000Y-60300000D01*
X80800000Y-60300000D02*
X80800000Y-60000000D01*
X80800000Y-60000000D02*
X80500000Y-60000000D01*
X80800000Y-62800000D02*
X80800000Y-62500000D01*
X80800000Y-62800000D02*
X80500000Y-62800000D01*
X76000000Y-62800000D02*
X76300000Y-62800000D01*
X76000000Y-62800000D02*
X76000000Y-62600000D01*
D13*
X74000000Y-52320000D02*
X75000000Y-52320000D01*
X75000000Y-53680000D02*
X74000000Y-53680000D01*
X90900000Y-48070000D02*
X91900000Y-48070000D01*
X91900000Y-49430000D02*
X90900000Y-49430000D01*
X80920000Y-54900000D02*
X80920000Y-53900000D01*
X82280000Y-53900000D02*
X82280000Y-54900000D01*
X76830000Y-44800000D02*
X76830000Y-45800000D01*
X75470000Y-45800000D02*
X75470000Y-44800000D01*
X75050000Y-68380000D02*
X74050000Y-68380000D01*
X74050000Y-67020000D02*
X75050000Y-67020000D01*
X75100000Y-71380000D02*
X74100000Y-71380000D01*
X74100000Y-70020000D02*
X75100000Y-70020000D01*
X69100000Y-42480000D02*
X68100000Y-42480000D01*
X68100000Y-41120000D02*
X69100000Y-41120000D01*
D14*
X72400000Y-44600000D02*
X72600000Y-44600000D01*
X72600000Y-44600000D02*
X72600000Y-44900000D01*
X72400000Y-46400000D02*
X72600000Y-46400000D01*
X72600000Y-46400000D02*
X72600000Y-46100000D01*
X69600000Y-46400000D02*
X69400000Y-46200000D01*
X69600000Y-44600000D02*
X69400000Y-44600000D01*
X69400000Y-44600000D02*
X69400000Y-44900000D01*
D15*
X69666056Y-66651378D02*
X69666056Y-67366971D01*
X69618350Y-67510090D01*
X69522938Y-67605502D01*
X69379819Y-67653208D01*
X69284407Y-67653208D01*
X70047706Y-66651378D02*
X70667886Y-66651378D01*
X70333943Y-67033028D01*
X70477061Y-67033028D01*
X70572474Y-67080734D01*
X70620180Y-67128440D01*
X70667886Y-67223853D01*
X70667886Y-67462384D01*
X70620180Y-67557796D01*
X70572474Y-67605502D01*
X70477061Y-67653208D01*
X70190824Y-67653208D01*
X70095412Y-67605502D01*
X70047706Y-67557796D01*
X69666056Y-55451378D02*
X69666056Y-56166971D01*
X69618350Y-56310090D01*
X69522938Y-56405502D01*
X69379819Y-56453208D01*
X69284407Y-56453208D01*
X70095412Y-55546791D02*
X70143118Y-55499085D01*
X70238530Y-55451378D01*
X70477061Y-55451378D01*
X70572474Y-55499085D01*
X70620180Y-55546791D01*
X70667886Y-55642203D01*
X70667886Y-55737615D01*
X70620180Y-55880734D01*
X70047706Y-56453208D01*
X70667886Y-56453208D01*
D14*
X94738095Y-51352380D02*
X94738095Y-52161904D01*
X94785714Y-52257142D01*
X94833333Y-52304761D01*
X94928571Y-52352380D01*
X95119047Y-52352380D01*
X95214285Y-52304761D01*
X95261904Y-52257142D01*
X95309523Y-52161904D01*
X95309523Y-51352380D01*
X95738095Y-51447619D02*
X95785714Y-51400000D01*
X95880952Y-51352380D01*
X96119047Y-51352380D01*
X96214285Y-51400000D01*
X96261904Y-51447619D01*
X96309523Y-51542857D01*
X96309523Y-51638095D01*
X96261904Y-51780952D01*
X95690476Y-52352380D01*
X96309523Y-52352380D01*
X66433333Y-48357142D02*
X66385714Y-48404761D01*
X66242857Y-48452380D01*
X66147619Y-48452380D01*
X66004761Y-48404761D01*
X65909523Y-48309523D01*
X65861904Y-48214285D01*
X65814285Y-48023809D01*
X65814285Y-47880952D01*
X65861904Y-47690476D01*
X65909523Y-47595238D01*
X66004761Y-47500000D01*
X66147619Y-47452380D01*
X66242857Y-47452380D01*
X66385714Y-47500000D01*
X66433333Y-47547619D01*
X66814285Y-47547619D02*
X66861904Y-47500000D01*
X66957142Y-47452380D01*
X67195238Y-47452380D01*
X67290476Y-47500000D01*
X67338095Y-47547619D01*
X67385714Y-47642857D01*
X67385714Y-47738095D01*
X67338095Y-47880952D01*
X66766666Y-48452380D01*
X67385714Y-48452380D01*
X70033333Y-51357142D02*
X69985714Y-51404761D01*
X69842857Y-51452380D01*
X69747619Y-51452380D01*
X69604761Y-51404761D01*
X69509523Y-51309523D01*
X69461904Y-51214285D01*
X69414285Y-51023809D01*
X69414285Y-50880952D01*
X69461904Y-50690476D01*
X69509523Y-50595238D01*
X69604761Y-50500000D01*
X69747619Y-50452380D01*
X69842857Y-50452380D01*
X69985714Y-50500000D01*
X70033333Y-50547619D01*
X70938095Y-50452380D02*
X70461904Y-50452380D01*
X70414285Y-50928571D01*
X70461904Y-50880952D01*
X70557142Y-50833333D01*
X70795238Y-50833333D01*
X70890476Y-50880952D01*
X70938095Y-50928571D01*
X70985714Y-51023809D01*
X70985714Y-51261904D01*
X70938095Y-51357142D01*
X70890476Y-51404761D01*
X70795238Y-51452380D01*
X70557142Y-51452380D01*
X70461904Y-51404761D01*
X70414285Y-51357142D01*
X73833333Y-42757142D02*
X73785714Y-42804761D01*
X73642857Y-42852380D01*
X73547619Y-42852380D01*
X73404761Y-42804761D01*
X73309523Y-42709523D01*
X73261904Y-42614285D01*
X73214285Y-42423809D01*
X73214285Y-42280952D01*
X73261904Y-42090476D01*
X73309523Y-41995238D01*
X73404761Y-41900000D01*
X73547619Y-41852380D01*
X73642857Y-41852380D01*
X73785714Y-41900000D01*
X73833333Y-41947619D01*
X74166666Y-41852380D02*
X74833333Y-41852380D01*
X74404761Y-42852380D01*
X86633333Y-47807142D02*
X86585714Y-47854761D01*
X86442857Y-47902380D01*
X86347619Y-47902380D01*
X86204761Y-47854761D01*
X86109523Y-47759523D01*
X86061904Y-47664285D01*
X86014285Y-47473809D01*
X86014285Y-47330952D01*
X86061904Y-47140476D01*
X86109523Y-47045238D01*
X86204761Y-46950000D01*
X86347619Y-46902380D01*
X86442857Y-46902380D01*
X86585714Y-46950000D01*
X86633333Y-46997619D01*
X87585714Y-47902380D02*
X87014285Y-47902380D01*
X87300000Y-47902380D02*
X87300000Y-46902380D01*
X87204761Y-47045238D01*
X87109523Y-47140476D01*
X87014285Y-47188095D01*
X85233333Y-51757142D02*
X85185714Y-51804761D01*
X85042857Y-51852380D01*
X84947619Y-51852380D01*
X84804761Y-51804761D01*
X84709523Y-51709523D01*
X84661904Y-51614285D01*
X84614285Y-51423809D01*
X84614285Y-51280952D01*
X84661904Y-51090476D01*
X84709523Y-50995238D01*
X84804761Y-50900000D01*
X84947619Y-50852380D01*
X85042857Y-50852380D01*
X85185714Y-50900000D01*
X85233333Y-50947619D01*
X85566666Y-50852380D02*
X86185714Y-50852380D01*
X85852380Y-51233333D01*
X85995238Y-51233333D01*
X86090476Y-51280952D01*
X86138095Y-51328571D01*
X86185714Y-51423809D01*
X86185714Y-51661904D01*
X86138095Y-51757142D01*
X86090476Y-51804761D01*
X85995238Y-51852380D01*
X85709523Y-51852380D01*
X85614285Y-51804761D01*
X85566666Y-51757142D01*
X85383333Y-60557142D02*
X85335714Y-60604761D01*
X85192857Y-60652380D01*
X85097619Y-60652380D01*
X84954761Y-60604761D01*
X84859523Y-60509523D01*
X84811904Y-60414285D01*
X84764285Y-60223809D01*
X84764285Y-60080952D01*
X84811904Y-59890476D01*
X84859523Y-59795238D01*
X84954761Y-59700000D01*
X85097619Y-59652380D01*
X85192857Y-59652380D01*
X85335714Y-59700000D01*
X85383333Y-59747619D01*
X86240476Y-59652380D02*
X86050000Y-59652380D01*
X85954761Y-59700000D01*
X85907142Y-59747619D01*
X85811904Y-59890476D01*
X85764285Y-60080952D01*
X85764285Y-60461904D01*
X85811904Y-60557142D01*
X85859523Y-60604761D01*
X85954761Y-60652380D01*
X86145238Y-60652380D01*
X86240476Y-60604761D01*
X86288095Y-60557142D01*
X86335714Y-60461904D01*
X86335714Y-60223809D01*
X86288095Y-60128571D01*
X86240476Y-60080952D01*
X86145238Y-60033333D01*
X85954761Y-60033333D01*
X85859523Y-60080952D01*
X85811904Y-60128571D01*
X85764285Y-60223809D01*
X89557142Y-70357142D02*
X89509523Y-70404761D01*
X89366666Y-70452380D01*
X89271428Y-70452380D01*
X89128571Y-70404761D01*
X89033333Y-70309523D01*
X88985714Y-70214285D01*
X88938095Y-70023809D01*
X88938095Y-69880952D01*
X88985714Y-69690476D01*
X89033333Y-69595238D01*
X89128571Y-69500000D01*
X89271428Y-69452380D01*
X89366666Y-69452380D01*
X89509523Y-69500000D01*
X89557142Y-69547619D01*
X90509523Y-70452380D02*
X89938095Y-70452380D01*
X90223809Y-70452380D02*
X90223809Y-69452380D01*
X90128571Y-69595238D01*
X90033333Y-69690476D01*
X89938095Y-69738095D01*
X91128571Y-69452380D02*
X91223809Y-69452380D01*
X91319047Y-69500000D01*
X91366666Y-69547619D01*
X91414285Y-69642857D01*
X91461904Y-69833333D01*
X91461904Y-70071428D01*
X91414285Y-70261904D01*
X91366666Y-70357142D01*
X91319047Y-70404761D01*
X91223809Y-70452380D01*
X91128571Y-70452380D01*
X91033333Y-70404761D01*
X90985714Y-70357142D01*
X90938095Y-70261904D01*
X90890476Y-70071428D01*
X90890476Y-69833333D01*
X90938095Y-69642857D01*
X90985714Y-69547619D01*
X91033333Y-69500000D01*
X91128571Y-69452380D01*
X85557142Y-70357142D02*
X85509523Y-70404761D01*
X85366666Y-70452380D01*
X85271428Y-70452380D01*
X85128571Y-70404761D01*
X85033333Y-70309523D01*
X84985714Y-70214285D01*
X84938095Y-70023809D01*
X84938095Y-69880952D01*
X84985714Y-69690476D01*
X85033333Y-69595238D01*
X85128571Y-69500000D01*
X85271428Y-69452380D01*
X85366666Y-69452380D01*
X85509523Y-69500000D01*
X85557142Y-69547619D01*
X86509523Y-70452380D02*
X85938095Y-70452380D01*
X86223809Y-70452380D02*
X86223809Y-69452380D01*
X86128571Y-69595238D01*
X86033333Y-69690476D01*
X85938095Y-69738095D01*
X86842857Y-69452380D02*
X87461904Y-69452380D01*
X87128571Y-69833333D01*
X87271428Y-69833333D01*
X87366666Y-69880952D01*
X87414285Y-69928571D01*
X87461904Y-70023809D01*
X87461904Y-70261904D01*
X87414285Y-70357142D01*
X87366666Y-70404761D01*
X87271428Y-70452380D01*
X86985714Y-70452380D01*
X86890476Y-70404761D01*
X86842857Y-70357142D01*
X97033333Y-63057142D02*
X96985714Y-63104761D01*
X96842857Y-63152380D01*
X96747619Y-63152380D01*
X96604761Y-63104761D01*
X96509523Y-63009523D01*
X96461904Y-62914285D01*
X96414285Y-62723809D01*
X96414285Y-62580952D01*
X96461904Y-62390476D01*
X96509523Y-62295238D01*
X96604761Y-62200000D01*
X96747619Y-62152380D01*
X96842857Y-62152380D01*
X96985714Y-62200000D01*
X97033333Y-62247619D01*
X97509523Y-63152380D02*
X97700000Y-63152380D01*
X97795238Y-63104761D01*
X97842857Y-63057142D01*
X97938095Y-62914285D01*
X97985714Y-62723809D01*
X97985714Y-62342857D01*
X97938095Y-62247619D01*
X97890476Y-62200000D01*
X97795238Y-62152380D01*
X97604761Y-62152380D01*
X97509523Y-62200000D01*
X97461904Y-62247619D01*
X97414285Y-62342857D01*
X97414285Y-62580952D01*
X97461904Y-62676190D01*
X97509523Y-62723809D01*
X97604761Y-62771428D01*
X97795238Y-62771428D01*
X97890476Y-62723809D01*
X97938095Y-62676190D01*
X97985714Y-62580952D01*
X77857142Y-65857142D02*
X77809523Y-65904761D01*
X77666666Y-65952380D01*
X77571428Y-65952380D01*
X77428571Y-65904761D01*
X77333333Y-65809523D01*
X77285714Y-65714285D01*
X77238095Y-65523809D01*
X77238095Y-65380952D01*
X77285714Y-65190476D01*
X77333333Y-65095238D01*
X77428571Y-65000000D01*
X77571428Y-64952380D01*
X77666666Y-64952380D01*
X77809523Y-65000000D01*
X77857142Y-65047619D01*
X78809523Y-65952380D02*
X78238095Y-65952380D01*
X78523809Y-65952380D02*
X78523809Y-64952380D01*
X78428571Y-65095238D01*
X78333333Y-65190476D01*
X78238095Y-65238095D01*
X79666666Y-65285714D02*
X79666666Y-65952380D01*
X79428571Y-64904761D02*
X79190476Y-65619047D01*
X79809523Y-65619047D01*
X77857142Y-73857142D02*
X77809523Y-73904761D01*
X77666666Y-73952380D01*
X77571428Y-73952380D01*
X77428571Y-73904761D01*
X77333333Y-73809523D01*
X77285714Y-73714285D01*
X77238095Y-73523809D01*
X77238095Y-73380952D01*
X77285714Y-73190476D01*
X77333333Y-73095238D01*
X77428571Y-73000000D01*
X77571428Y-72952380D01*
X77666666Y-72952380D01*
X77809523Y-73000000D01*
X77857142Y-73047619D01*
X78809523Y-73952380D02*
X78238095Y-73952380D01*
X78523809Y-73952380D02*
X78523809Y-72952380D01*
X78428571Y-73095238D01*
X78333333Y-73190476D01*
X78238095Y-73238095D01*
X79714285Y-72952380D02*
X79238095Y-72952380D01*
X79190476Y-73428571D01*
X79238095Y-73380952D01*
X79333333Y-73333333D01*
X79571428Y-73333333D01*
X79666666Y-73380952D01*
X79714285Y-73428571D01*
X79761904Y-73523809D01*
X79761904Y-73761904D01*
X79714285Y-73857142D01*
X79666666Y-73904761D01*
X79571428Y-73952380D01*
X79333333Y-73952380D01*
X79238095Y-73904761D01*
X79190476Y-73857142D01*
X92857142Y-66857142D02*
X92809523Y-66904761D01*
X92666666Y-66952380D01*
X92571428Y-66952380D01*
X92428571Y-66904761D01*
X92333333Y-66809523D01*
X92285714Y-66714285D01*
X92238095Y-66523809D01*
X92238095Y-66380952D01*
X92285714Y-66190476D01*
X92333333Y-66095238D01*
X92428571Y-66000000D01*
X92571428Y-65952380D01*
X92666666Y-65952380D01*
X92809523Y-66000000D01*
X92857142Y-66047619D01*
X93809523Y-66952380D02*
X93238095Y-66952380D01*
X93523809Y-66952380D02*
X93523809Y-65952380D01*
X93428571Y-66095238D01*
X93333333Y-66190476D01*
X93238095Y-66238095D01*
X94761904Y-66952380D02*
X94190476Y-66952380D01*
X94476190Y-66952380D02*
X94476190Y-65952380D01*
X94380952Y-66095238D01*
X94285714Y-66190476D01*
X94190476Y-66238095D01*
X97057142Y-53307142D02*
X97009523Y-53354761D01*
X96866666Y-53402380D01*
X96771428Y-53402380D01*
X96628571Y-53354761D01*
X96533333Y-53259523D01*
X96485714Y-53164285D01*
X96438095Y-52973809D01*
X96438095Y-52830952D01*
X96485714Y-52640476D01*
X96533333Y-52545238D01*
X96628571Y-52450000D01*
X96771428Y-52402380D01*
X96866666Y-52402380D01*
X97009523Y-52450000D01*
X97057142Y-52497619D01*
X98009523Y-53402380D02*
X97438095Y-53402380D01*
X97723809Y-53402380D02*
X97723809Y-52402380D01*
X97628571Y-52545238D01*
X97533333Y-52640476D01*
X97438095Y-52688095D01*
X98390476Y-52497619D02*
X98438095Y-52450000D01*
X98533333Y-52402380D01*
X98771428Y-52402380D01*
X98866666Y-52450000D01*
X98914285Y-52497619D01*
X98961904Y-52592857D01*
X98961904Y-52688095D01*
X98914285Y-52830952D01*
X98342857Y-53402380D01*
X98961904Y-53402380D01*
X95283333Y-50707142D02*
X95235714Y-50754761D01*
X95092857Y-50802380D01*
X94997619Y-50802380D01*
X94854761Y-50754761D01*
X94759523Y-50659523D01*
X94711904Y-50564285D01*
X94664285Y-50373809D01*
X94664285Y-50230952D01*
X94711904Y-50040476D01*
X94759523Y-49945238D01*
X94854761Y-49850000D01*
X94997619Y-49802380D01*
X95092857Y-49802380D01*
X95235714Y-49850000D01*
X95283333Y-49897619D01*
X95854761Y-50230952D02*
X95759523Y-50183333D01*
X95711904Y-50135714D01*
X95664285Y-50040476D01*
X95664285Y-49992857D01*
X95711904Y-49897619D01*
X95759523Y-49850000D01*
X95854761Y-49802380D01*
X96045238Y-49802380D01*
X96140476Y-49850000D01*
X96188095Y-49897619D01*
X96235714Y-49992857D01*
X96235714Y-50040476D01*
X96188095Y-50135714D01*
X96140476Y-50183333D01*
X96045238Y-50230952D01*
X95854761Y-50230952D01*
X95759523Y-50278571D01*
X95711904Y-50326190D01*
X95664285Y-50421428D01*
X95664285Y-50611904D01*
X95711904Y-50707142D01*
X95759523Y-50754761D01*
X95854761Y-50802380D01*
X96045238Y-50802380D01*
X96140476Y-50754761D01*
X96188095Y-50707142D01*
X96235714Y-50611904D01*
X96235714Y-50421428D01*
X96188095Y-50326190D01*
X96140476Y-50278571D01*
X96045238Y-50230952D01*
X93861904Y-46702380D02*
X93861904Y-45702380D01*
X94100000Y-45702380D01*
X94242857Y-45750000D01*
X94338095Y-45845238D01*
X94385714Y-45940476D01*
X94433333Y-46130952D01*
X94433333Y-46273809D01*
X94385714Y-46464285D01*
X94338095Y-46559523D01*
X94242857Y-46654761D01*
X94100000Y-46702380D01*
X93861904Y-46702380D01*
X95385714Y-46702380D02*
X94814285Y-46702380D01*
X95100000Y-46702380D02*
X95100000Y-45702380D01*
X95004761Y-45845238D01*
X94909523Y-45940476D01*
X94814285Y-45988095D01*
X77861904Y-51952380D02*
X77861904Y-50952380D01*
X78100000Y-50952380D01*
X78242857Y-51000000D01*
X78338095Y-51095238D01*
X78385714Y-51190476D01*
X78433333Y-51380952D01*
X78433333Y-51523809D01*
X78385714Y-51714285D01*
X78338095Y-51809523D01*
X78242857Y-51904761D01*
X78100000Y-51952380D01*
X77861904Y-51952380D01*
X78814285Y-51047619D02*
X78861904Y-51000000D01*
X78957142Y-50952380D01*
X79195238Y-50952380D01*
X79290476Y-51000000D01*
X79338095Y-51047619D01*
X79385714Y-51142857D01*
X79385714Y-51238095D01*
X79338095Y-51380952D01*
X78766666Y-51952380D01*
X79385714Y-51952380D01*
X65666666Y-42652380D02*
X65666666Y-43366666D01*
X65619047Y-43509523D01*
X65523809Y-43604761D01*
X65380952Y-43652380D01*
X65285714Y-43652380D01*
X66666666Y-43652380D02*
X66095238Y-43652380D01*
X66380952Y-43652380D02*
X66380952Y-42652380D01*
X66285714Y-42795238D01*
X66190476Y-42890476D01*
X66095238Y-42938095D01*
X90233333Y-61952380D02*
X89757142Y-61952380D01*
X89757142Y-60952380D01*
X91090476Y-61952380D02*
X90519047Y-61952380D01*
X90804761Y-61952380D02*
X90804761Y-60952380D01*
X90709523Y-61095238D01*
X90614285Y-61190476D01*
X90519047Y-61238095D01*
X77780952Y-49752380D02*
X77304761Y-49752380D01*
X77304761Y-48752380D01*
X78114285Y-49228571D02*
X78447619Y-49228571D01*
X78590476Y-49752380D02*
X78114285Y-49752380D01*
X78114285Y-48752380D01*
X78590476Y-48752380D01*
X79019047Y-49752380D02*
X79019047Y-48752380D01*
X79257142Y-48752380D01*
X79400000Y-48800000D01*
X79495238Y-48895238D01*
X79542857Y-48990476D01*
X79590476Y-49180952D01*
X79590476Y-49323809D01*
X79542857Y-49514285D01*
X79495238Y-49609523D01*
X79400000Y-49704761D01*
X79257142Y-49752380D01*
X79019047Y-49752380D01*
X80542857Y-49752380D02*
X79971428Y-49752380D01*
X80257142Y-49752380D02*
X80257142Y-48752380D01*
X80161904Y-48895238D01*
X80066666Y-48990476D01*
X79971428Y-49038095D01*
X77561904Y-59552380D02*
X77561904Y-58552380D01*
X77942857Y-58552380D01*
X78038095Y-58600000D01*
X78085714Y-58647619D01*
X78133333Y-58742857D01*
X78133333Y-58885714D01*
X78085714Y-58980952D01*
X78038095Y-59028571D01*
X77942857Y-59076190D01*
X77561904Y-59076190D01*
X79085714Y-59552380D02*
X78514285Y-59552380D01*
X78800000Y-59552380D02*
X78800000Y-58552380D01*
X78704761Y-58695238D01*
X78609523Y-58790476D01*
X78514285Y-58838095D01*
X74333333Y-51952380D02*
X74000000Y-51476190D01*
X73761904Y-51952380D02*
X73761904Y-50952380D01*
X74142857Y-50952380D01*
X74238095Y-51000000D01*
X74285714Y-51047619D01*
X74333333Y-51142857D01*
X74333333Y-51285714D01*
X74285714Y-51380952D01*
X74238095Y-51428571D01*
X74142857Y-51476190D01*
X73761904Y-51476190D01*
X74714285Y-51047619D02*
X74761904Y-51000000D01*
X74857142Y-50952380D01*
X75095238Y-50952380D01*
X75190476Y-51000000D01*
X75238095Y-51047619D01*
X75285714Y-51142857D01*
X75285714Y-51238095D01*
X75238095Y-51380952D01*
X74666666Y-51952380D01*
X75285714Y-51952380D01*
X94433333Y-49152380D02*
X94100000Y-48676190D01*
X93861904Y-49152380D02*
X93861904Y-48152380D01*
X94242857Y-48152380D01*
X94338095Y-48200000D01*
X94385714Y-48247619D01*
X94433333Y-48342857D01*
X94433333Y-48485714D01*
X94385714Y-48580952D01*
X94338095Y-48628571D01*
X94242857Y-48676190D01*
X93861904Y-48676190D01*
X95385714Y-49152380D02*
X94814285Y-49152380D01*
X95100000Y-49152380D02*
X95100000Y-48152380D01*
X95004761Y-48295238D01*
X94909523Y-48390476D01*
X94814285Y-48438095D01*
X81333333Y-51952380D02*
X81000000Y-51476190D01*
X80761904Y-51952380D02*
X80761904Y-50952380D01*
X81142857Y-50952380D01*
X81238095Y-51000000D01*
X81285714Y-51047619D01*
X81333333Y-51142857D01*
X81333333Y-51285714D01*
X81285714Y-51380952D01*
X81238095Y-51428571D01*
X81142857Y-51476190D01*
X80761904Y-51476190D01*
X81666666Y-50952380D02*
X82285714Y-50952380D01*
X81952380Y-51333333D01*
X82095238Y-51333333D01*
X82190476Y-51380952D01*
X82238095Y-51428571D01*
X82285714Y-51523809D01*
X82285714Y-51761904D01*
X82238095Y-51857142D01*
X82190476Y-51904761D01*
X82095238Y-51952380D01*
X81809523Y-51952380D01*
X81714285Y-51904761D01*
X81666666Y-51857142D01*
X76433333Y-42852380D02*
X76100000Y-42376190D01*
X75861904Y-42852380D02*
X75861904Y-41852380D01*
X76242857Y-41852380D01*
X76338095Y-41900000D01*
X76385714Y-41947619D01*
X76433333Y-42042857D01*
X76433333Y-42185714D01*
X76385714Y-42280952D01*
X76338095Y-42328571D01*
X76242857Y-42376190D01*
X75861904Y-42376190D01*
X77290476Y-42185714D02*
X77290476Y-42852380D01*
X77052380Y-41804761D02*
X76814285Y-42519047D01*
X77433333Y-42519047D01*
X77833333Y-68452380D02*
X77500000Y-67976190D01*
X77261904Y-68452380D02*
X77261904Y-67452380D01*
X77642857Y-67452380D01*
X77738095Y-67500000D01*
X77785714Y-67547619D01*
X77833333Y-67642857D01*
X77833333Y-67785714D01*
X77785714Y-67880952D01*
X77738095Y-67928571D01*
X77642857Y-67976190D01*
X77261904Y-67976190D01*
X78690476Y-67452380D02*
X78500000Y-67452380D01*
X78404761Y-67500000D01*
X78357142Y-67547619D01*
X78261904Y-67690476D01*
X78214285Y-67880952D01*
X78214285Y-68261904D01*
X78261904Y-68357142D01*
X78309523Y-68404761D01*
X78404761Y-68452380D01*
X78595238Y-68452380D01*
X78690476Y-68404761D01*
X78738095Y-68357142D01*
X78785714Y-68261904D01*
X78785714Y-68023809D01*
X78738095Y-67928571D01*
X78690476Y-67880952D01*
X78595238Y-67833333D01*
X78404761Y-67833333D01*
X78309523Y-67880952D01*
X78261904Y-67928571D01*
X78214285Y-68023809D01*
X77833333Y-71452380D02*
X77500000Y-70976190D01*
X77261904Y-71452380D02*
X77261904Y-70452380D01*
X77642857Y-70452380D01*
X77738095Y-70500000D01*
X77785714Y-70547619D01*
X77833333Y-70642857D01*
X77833333Y-70785714D01*
X77785714Y-70880952D01*
X77738095Y-70928571D01*
X77642857Y-70976190D01*
X77261904Y-70976190D01*
X78166666Y-70452380D02*
X78833333Y-70452380D01*
X78404761Y-71452380D01*
D16*
X65916666Y-42226190D02*
X65750000Y-41988095D01*
X65630952Y-42226190D02*
X65630952Y-41726190D01*
X65821428Y-41726190D01*
X65869047Y-41750000D01*
X65892857Y-41773809D01*
X65916666Y-41821428D01*
X65916666Y-41892857D01*
X65892857Y-41940476D01*
X65869047Y-41964285D01*
X65821428Y-41988095D01*
X65630952Y-41988095D01*
X66369047Y-41726190D02*
X66130952Y-41726190D01*
X66107142Y-41964285D01*
X66130952Y-41940476D01*
X66178571Y-41916666D01*
X66297619Y-41916666D01*
X66345238Y-41940476D01*
X66369047Y-41964285D01*
X66392857Y-42011904D01*
X66392857Y-42130952D01*
X66369047Y-42178571D01*
X66345238Y-42202380D01*
X66297619Y-42226190D01*
X66178571Y-42226190D01*
X66130952Y-42202380D01*
X66107142Y-42178571D01*
D14*
X70838095Y-41852380D02*
X70838095Y-42661904D01*
X70885714Y-42757142D01*
X70933333Y-42804761D01*
X71028571Y-42852380D01*
X71219047Y-42852380D01*
X71314285Y-42804761D01*
X71361904Y-42757142D01*
X71409523Y-42661904D01*
X71409523Y-41852380D01*
X72409523Y-42852380D02*
X71838095Y-42852380D01*
X72123809Y-42852380D02*
X72123809Y-41852380D01*
X72028571Y-41995238D01*
X71933333Y-42090476D01*
X71838095Y-42138095D01*
M02*
