G04 #@! TF.GenerationSoftware,KiCad,Pcbnew,5.1.5*
G04 #@! TF.CreationDate,2020-02-06T17:50:48+09:00*
G04 #@! TF.ProjectId,MIDI-Guy,4d494449-2d47-4757-992e-6b696361645f,rev?*
G04 #@! TF.SameCoordinates,Original*
G04 #@! TF.FileFunction,Soldermask,Top*
G04 #@! TF.FilePolarity,Negative*
%FSLAX46Y46*%
G04 Gerber Fmt 4.6, Leading zero omitted, Abs format (unit mm)*
G04 Created by KiCad (PCBNEW 5.1.5) date 2020-02-06 17:50:48*
%MOMM*%
%LPD*%
G04 APERTURE LIST*
%ADD10C,0.100000*%
G04 APERTURE END LIST*
D10*
G36*
X96400000Y-58320000D02*
G01*
X96190000Y-58320000D01*
X96190000Y-58080000D01*
X96400000Y-58080000D01*
X96400000Y-58320000D01*
G37*
G36*
X96400000Y-57920000D02*
G01*
X96190000Y-57920000D01*
X96190000Y-57680000D01*
X96400000Y-57680000D01*
X96400000Y-57920000D01*
G37*
G36*
X96400000Y-57520000D02*
G01*
X96190000Y-57520000D01*
X96190000Y-57280000D01*
X96400000Y-57280000D01*
X96400000Y-57520000D01*
G37*
G36*
X96400000Y-57120000D02*
G01*
X96190000Y-57120000D01*
X96190000Y-56880000D01*
X96400000Y-56880000D01*
X96400000Y-57120000D01*
G37*
G36*
X96400000Y-56720000D02*
G01*
X96190000Y-56720000D01*
X96190000Y-56480000D01*
X96400000Y-56480000D01*
X96400000Y-56720000D01*
G37*
G36*
X96400000Y-56320000D02*
G01*
X96190000Y-56320000D01*
X96190000Y-56080000D01*
X96400000Y-56080000D01*
X96400000Y-56320000D01*
G37*
G36*
X96400000Y-55920000D02*
G01*
X96190000Y-55920000D01*
X96190000Y-55680000D01*
X96400000Y-55680000D01*
X96400000Y-55920000D01*
G37*
G36*
X96400000Y-55520000D02*
G01*
X96190000Y-55520000D01*
X96190000Y-55280000D01*
X96400000Y-55280000D01*
X96400000Y-55520000D01*
G37*
G36*
X96400000Y-55120000D02*
G01*
X96190000Y-55120000D01*
X96190000Y-54880000D01*
X96400000Y-54880000D01*
X96400000Y-55120000D01*
G37*
G36*
X96400000Y-54720000D02*
G01*
X96190000Y-54720000D01*
X96190000Y-54480000D01*
X96400000Y-54480000D01*
X96400000Y-54720000D01*
G37*
G36*
X96400000Y-54320000D02*
G01*
X96190000Y-54320000D01*
X96190000Y-54080000D01*
X96400000Y-54080000D01*
X96400000Y-54320000D01*
G37*
G36*
X96400000Y-53920000D02*
G01*
X96190000Y-53920000D01*
X96190000Y-53680000D01*
X96400000Y-53680000D01*
X96400000Y-53920000D01*
G37*
G36*
X89830000Y-58320000D02*
G01*
X89620000Y-58320000D01*
X89620000Y-58080000D01*
X89830000Y-58080000D01*
X89830000Y-58320000D01*
G37*
G36*
X89810000Y-57920000D02*
G01*
X89600000Y-57920000D01*
X89600000Y-57680000D01*
X89810000Y-57680000D01*
X89810000Y-57920000D01*
G37*
G36*
X89810000Y-57520000D02*
G01*
X89600000Y-57520000D01*
X89600000Y-57280000D01*
X89810000Y-57280000D01*
X89810000Y-57520000D01*
G37*
G36*
X89820000Y-57120000D02*
G01*
X89610000Y-57120000D01*
X89610000Y-56880000D01*
X89820000Y-56880000D01*
X89820000Y-57120000D01*
G37*
G36*
X89820000Y-56720000D02*
G01*
X89610000Y-56720000D01*
X89610000Y-56480000D01*
X89820000Y-56480000D01*
X89820000Y-56720000D01*
G37*
G36*
X89800000Y-56320000D02*
G01*
X89590000Y-56320000D01*
X89590000Y-56080000D01*
X89800000Y-56080000D01*
X89800000Y-56320000D01*
G37*
G36*
X89800000Y-55920000D02*
G01*
X89590000Y-55920000D01*
X89590000Y-55680000D01*
X89800000Y-55680000D01*
X89800000Y-55920000D01*
G37*
G36*
X89800000Y-55520000D02*
G01*
X89590000Y-55520000D01*
X89590000Y-55280000D01*
X89800000Y-55280000D01*
X89800000Y-55520000D01*
G37*
G36*
X89810000Y-55120000D02*
G01*
X89600000Y-55120000D01*
X89600000Y-54880000D01*
X89810000Y-54880000D01*
X89810000Y-55120000D01*
G37*
G36*
X89810000Y-54720000D02*
G01*
X89600000Y-54720000D01*
X89600000Y-54480000D01*
X89810000Y-54480000D01*
X89810000Y-54720000D01*
G37*
G36*
X89800000Y-54320000D02*
G01*
X89590000Y-54320000D01*
X89590000Y-54080000D01*
X89800000Y-54080000D01*
X89800000Y-54320000D01*
G37*
G36*
X89810000Y-53920000D02*
G01*
X89600000Y-53920000D01*
X89600000Y-53680000D01*
X89810000Y-53680000D01*
X89810000Y-53920000D01*
G37*
G36*
X95320000Y-52810000D02*
G01*
X95080000Y-52810000D01*
X95080000Y-52600000D01*
X95320000Y-52600000D01*
X95320000Y-52810000D01*
G37*
G36*
X94920000Y-52810000D02*
G01*
X94680000Y-52810000D01*
X94680000Y-52600000D01*
X94920000Y-52600000D01*
X94920000Y-52810000D01*
G37*
G36*
X94520000Y-52810000D02*
G01*
X94280000Y-52810000D01*
X94280000Y-52600000D01*
X94520000Y-52600000D01*
X94520000Y-52810000D01*
G37*
G36*
X94120000Y-52810000D02*
G01*
X93880000Y-52810000D01*
X93880000Y-52600000D01*
X94120000Y-52600000D01*
X94120000Y-52810000D01*
G37*
G36*
X93720000Y-52810000D02*
G01*
X93480000Y-52810000D01*
X93480000Y-52600000D01*
X93720000Y-52600000D01*
X93720000Y-52810000D01*
G37*
G36*
X93320000Y-52810000D02*
G01*
X93080000Y-52810000D01*
X93080000Y-52600000D01*
X93320000Y-52600000D01*
X93320000Y-52810000D01*
G37*
G36*
X92920000Y-52810000D02*
G01*
X92680000Y-52810000D01*
X92680000Y-52600000D01*
X92920000Y-52600000D01*
X92920000Y-52810000D01*
G37*
G36*
X92520000Y-52800000D02*
G01*
X92280000Y-52800000D01*
X92280000Y-52590000D01*
X92520000Y-52590000D01*
X92520000Y-52800000D01*
G37*
G36*
X92120000Y-52810000D02*
G01*
X91880000Y-52810000D01*
X91880000Y-52600000D01*
X92120000Y-52600000D01*
X92120000Y-52810000D01*
G37*
G36*
X91720000Y-52810000D02*
G01*
X91480000Y-52810000D01*
X91480000Y-52600000D01*
X91720000Y-52600000D01*
X91720000Y-52810000D01*
G37*
G36*
X91320000Y-52810000D02*
G01*
X91080000Y-52810000D01*
X91080000Y-52600000D01*
X91320000Y-52600000D01*
X91320000Y-52810000D01*
G37*
G36*
X90920000Y-52810000D02*
G01*
X90680000Y-52810000D01*
X90680000Y-52600000D01*
X90920000Y-52600000D01*
X90920000Y-52810000D01*
G37*
G36*
X95320000Y-59410000D02*
G01*
X95080000Y-59410000D01*
X95080000Y-59200000D01*
X95320000Y-59200000D01*
X95320000Y-59410000D01*
G37*
G36*
X94920000Y-59400000D02*
G01*
X94680000Y-59400000D01*
X94680000Y-59190000D01*
X94920000Y-59190000D01*
X94920000Y-59400000D01*
G37*
G36*
X94520000Y-59400000D02*
G01*
X94280000Y-59400000D01*
X94280000Y-59190000D01*
X94520000Y-59190000D01*
X94520000Y-59400000D01*
G37*
G36*
X94120000Y-59400000D02*
G01*
X93880000Y-59400000D01*
X93880000Y-59190000D01*
X94120000Y-59190000D01*
X94120000Y-59400000D01*
G37*
G36*
X93720000Y-59400000D02*
G01*
X93480000Y-59400000D01*
X93480000Y-59190000D01*
X93720000Y-59190000D01*
X93720000Y-59400000D01*
G37*
G36*
X93320000Y-59400000D02*
G01*
X93080000Y-59400000D01*
X93080000Y-59190000D01*
X93320000Y-59190000D01*
X93320000Y-59400000D01*
G37*
G36*
X92920000Y-59400000D02*
G01*
X92680000Y-59400000D01*
X92680000Y-59190000D01*
X92920000Y-59190000D01*
X92920000Y-59400000D01*
G37*
G36*
X92520000Y-59400000D02*
G01*
X92280000Y-59400000D01*
X92280000Y-59190000D01*
X92520000Y-59190000D01*
X92520000Y-59400000D01*
G37*
G36*
X92120000Y-59390000D02*
G01*
X91880000Y-59390000D01*
X91880000Y-59180000D01*
X92120000Y-59180000D01*
X92120000Y-59390000D01*
G37*
G36*
X91720000Y-59400000D02*
G01*
X91480000Y-59400000D01*
X91480000Y-59190000D01*
X91720000Y-59190000D01*
X91720000Y-59400000D01*
G37*
G36*
X91320000Y-59400000D02*
G01*
X91080000Y-59400000D01*
X91080000Y-59190000D01*
X91320000Y-59190000D01*
X91320000Y-59400000D01*
G37*
G36*
X90920000Y-59400000D02*
G01*
X90680000Y-59400000D01*
X90680000Y-59190000D01*
X90920000Y-59190000D01*
X90920000Y-59400000D01*
G37*
G36*
X97966733Y-70961391D02*
G01*
X98257931Y-71082010D01*
X98520004Y-71257121D01*
X98742879Y-71479996D01*
X98917990Y-71742069D01*
X99038609Y-72033268D01*
X99100100Y-72342404D01*
X99100100Y-72657596D01*
X99038609Y-72966732D01*
X98917990Y-73257931D01*
X98742879Y-73520004D01*
X98520004Y-73742879D01*
X98257931Y-73917990D01*
X97966733Y-74038609D01*
X97657596Y-74100100D01*
X97342404Y-74100100D01*
X97033267Y-74038609D01*
X96742069Y-73917990D01*
X96479996Y-73742879D01*
X96257121Y-73520004D01*
X96082010Y-73257931D01*
X95961391Y-72966732D01*
X95899900Y-72657596D01*
X95899900Y-72342404D01*
X95961391Y-72033268D01*
X96082010Y-71742069D01*
X96257121Y-71479996D01*
X96479996Y-71257121D01*
X96742069Y-71082010D01*
X97033267Y-70961391D01*
X97342404Y-70899900D01*
X97657596Y-70899900D01*
X97966733Y-70961391D01*
G37*
G36*
X83966733Y-70961391D02*
G01*
X84257931Y-71082010D01*
X84520004Y-71257121D01*
X84742879Y-71479996D01*
X84917990Y-71742069D01*
X85038609Y-72033268D01*
X85100100Y-72342404D01*
X85100100Y-72657596D01*
X85038609Y-72966732D01*
X84917990Y-73257931D01*
X84742879Y-73520004D01*
X84520004Y-73742879D01*
X84257931Y-73917990D01*
X83966733Y-74038609D01*
X83657596Y-74100100D01*
X83342404Y-74100100D01*
X83033267Y-74038609D01*
X82742069Y-73917990D01*
X82479996Y-73742879D01*
X82257121Y-73520004D01*
X82082010Y-73257931D01*
X81961391Y-72966732D01*
X81899900Y-72657596D01*
X81899900Y-72342404D01*
X81961391Y-72033268D01*
X82082010Y-71742069D01*
X82257121Y-71479996D01*
X82479996Y-71257121D01*
X82742069Y-71082010D01*
X83033267Y-70961391D01*
X83342404Y-70899900D01*
X83657596Y-70899900D01*
X83966733Y-70961391D01*
G37*
G36*
X60800100Y-74100100D02*
G01*
X58599900Y-74100100D01*
X58599900Y-71299900D01*
X60800100Y-71299900D01*
X60800100Y-74100100D01*
G37*
G36*
X70500100Y-74100100D02*
G01*
X67699900Y-74100100D01*
X67699900Y-71299900D01*
X70500100Y-71299900D01*
X70500100Y-74100100D01*
G37*
G36*
X75850100Y-73575100D02*
G01*
X74649900Y-73575100D01*
X74649900Y-72824900D01*
X75850100Y-72824900D01*
X75850100Y-73575100D01*
G37*
G36*
X73950100Y-73575100D02*
G01*
X72749900Y-73575100D01*
X72749900Y-72824900D01*
X73950100Y-72824900D01*
X73950100Y-73575100D01*
G37*
G36*
X76300100Y-71150100D02*
G01*
X75099900Y-71150100D01*
X75099900Y-70249900D01*
X76300100Y-70249900D01*
X76300100Y-71150100D01*
G37*
G36*
X74100100Y-71150100D02*
G01*
X72899900Y-71150100D01*
X72899900Y-70249900D01*
X74100100Y-70249900D01*
X74100100Y-71150100D01*
G37*
G36*
X61120889Y-67942176D02*
G01*
X61254358Y-67997461D01*
X61321093Y-68025104D01*
X61501273Y-68145496D01*
X61654504Y-68298727D01*
X61774896Y-68478907D01*
X61774896Y-68478908D01*
X61857824Y-68679111D01*
X61900100Y-68891650D01*
X61900100Y-69108350D01*
X61857824Y-69320889D01*
X61802539Y-69454358D01*
X61774896Y-69521093D01*
X61654504Y-69701273D01*
X61501273Y-69854504D01*
X61321093Y-69974896D01*
X61254358Y-70002539D01*
X61120889Y-70057824D01*
X60908350Y-70100100D01*
X60691650Y-70100100D01*
X60479111Y-70057824D01*
X60345642Y-70002539D01*
X60278907Y-69974896D01*
X60098727Y-69854504D01*
X59945496Y-69701273D01*
X59825104Y-69521093D01*
X59797461Y-69454358D01*
X59742176Y-69320889D01*
X59699900Y-69108350D01*
X59699900Y-68891650D01*
X59742176Y-68679111D01*
X59825104Y-68478908D01*
X59825104Y-68478907D01*
X59945496Y-68298727D01*
X60098727Y-68145496D01*
X60278907Y-68025104D01*
X60345642Y-67997461D01*
X60479111Y-67942176D01*
X60691650Y-67899900D01*
X60908350Y-67899900D01*
X61120889Y-67942176D01*
G37*
G36*
X68120889Y-67942176D02*
G01*
X68254358Y-67997461D01*
X68321093Y-68025104D01*
X68501273Y-68145496D01*
X68654504Y-68298727D01*
X68774896Y-68478907D01*
X68774896Y-68478908D01*
X68857824Y-68679111D01*
X68900100Y-68891650D01*
X68900100Y-69108350D01*
X68857824Y-69320889D01*
X68802539Y-69454358D01*
X68774896Y-69521093D01*
X68654504Y-69701273D01*
X68501273Y-69854504D01*
X68321093Y-69974896D01*
X68254358Y-70002539D01*
X68120889Y-70057824D01*
X67908350Y-70100100D01*
X67691650Y-70100100D01*
X67479111Y-70057824D01*
X67345642Y-70002539D01*
X67278907Y-69974896D01*
X67098727Y-69854504D01*
X66945496Y-69701273D01*
X66825104Y-69521093D01*
X66797461Y-69454358D01*
X66742176Y-69320889D01*
X66699900Y-69108350D01*
X66699900Y-68891650D01*
X66742176Y-68679111D01*
X66825104Y-68478908D01*
X66825104Y-68478907D01*
X66945496Y-68298727D01*
X67098727Y-68145496D01*
X67278907Y-68025104D01*
X67345642Y-67997461D01*
X67479111Y-67942176D01*
X67691650Y-67899900D01*
X67908350Y-67899900D01*
X68120889Y-67942176D01*
G37*
G36*
X85850100Y-68775100D02*
G01*
X84649900Y-68775100D01*
X84649900Y-68024900D01*
X85850100Y-68024900D01*
X85850100Y-68775100D01*
G37*
G36*
X89850100Y-68775100D02*
G01*
X88649900Y-68775100D01*
X88649900Y-68024900D01*
X89850100Y-68024900D01*
X89850100Y-68775100D01*
G37*
G36*
X91750100Y-68775100D02*
G01*
X90549900Y-68775100D01*
X90549900Y-68024900D01*
X91750100Y-68024900D01*
X91750100Y-68775100D01*
G37*
G36*
X87750100Y-68775100D02*
G01*
X86549900Y-68775100D01*
X86549900Y-68024900D01*
X87750100Y-68024900D01*
X87750100Y-68775100D01*
G37*
G36*
X76250100Y-68150100D02*
G01*
X75049900Y-68150100D01*
X75049900Y-67249900D01*
X76250100Y-67249900D01*
X76250100Y-68150100D01*
G37*
G36*
X74050100Y-68150100D02*
G01*
X72849900Y-68150100D01*
X72849900Y-67249900D01*
X74050100Y-67249900D01*
X74050100Y-68150100D01*
G37*
G36*
X89850100Y-66775100D02*
G01*
X88649900Y-66775100D01*
X88649900Y-66024900D01*
X89850100Y-66024900D01*
X89850100Y-66775100D01*
G37*
G36*
X91750100Y-66775100D02*
G01*
X90549900Y-66775100D01*
X90549900Y-66024900D01*
X91750100Y-66024900D01*
X91750100Y-66775100D01*
G37*
G36*
X62800100Y-66700100D02*
G01*
X60599900Y-66700100D01*
X60599900Y-63899900D01*
X62800100Y-63899900D01*
X62800100Y-66700100D01*
G37*
G36*
X76100100Y-65575100D02*
G01*
X74899900Y-65575100D01*
X74899900Y-64824900D01*
X76100100Y-64824900D01*
X76100100Y-65575100D01*
G37*
G36*
X74200100Y-65575100D02*
G01*
X72999900Y-65575100D01*
X72999900Y-64824900D01*
X74200100Y-64824900D01*
X74200100Y-65575100D01*
G37*
G36*
X95775100Y-64350100D02*
G01*
X95024900Y-64350100D01*
X95024900Y-63149900D01*
X95775100Y-63149900D01*
X95775100Y-64350100D01*
G37*
G36*
X89900100Y-63850100D02*
G01*
X88699900Y-63850100D01*
X88699900Y-62949900D01*
X89900100Y-62949900D01*
X89900100Y-63850100D01*
G37*
G36*
X92100100Y-63850100D02*
G01*
X90899900Y-63850100D01*
X90899900Y-62949900D01*
X92100100Y-62949900D01*
X92100100Y-63850100D01*
G37*
G36*
X70450100Y-62850100D02*
G01*
X67649900Y-62850100D01*
X67649900Y-60049900D01*
X70450100Y-60049900D01*
X70450100Y-62850100D01*
G37*
G36*
X60750100Y-62850100D02*
G01*
X58549900Y-62850100D01*
X58549900Y-60049900D01*
X60750100Y-60049900D01*
X60750100Y-62850100D01*
G37*
G36*
X95775100Y-62450100D02*
G01*
X95024900Y-62450100D01*
X95024900Y-61249900D01*
X95775100Y-61249900D01*
X95775100Y-62450100D01*
G37*
G36*
X76125100Y-62335100D02*
G01*
X74674900Y-62335100D01*
X74674900Y-61734900D01*
X76125100Y-61734900D01*
X76125100Y-62335100D01*
G37*
G36*
X82125100Y-62335100D02*
G01*
X80674900Y-62335100D01*
X80674900Y-61734900D01*
X82125100Y-61734900D01*
X82125100Y-62335100D01*
G37*
G36*
X82125100Y-61065100D02*
G01*
X80674900Y-61065100D01*
X80674900Y-60464900D01*
X82125100Y-60464900D01*
X82125100Y-61065100D01*
G37*
G36*
X76125100Y-61065100D02*
G01*
X74674900Y-61065100D01*
X74674900Y-60464900D01*
X76125100Y-60464900D01*
X76125100Y-61065100D01*
G37*
G36*
X87100100Y-59325100D02*
G01*
X85899900Y-59325100D01*
X85899900Y-58574900D01*
X87100100Y-58574900D01*
X87100100Y-59325100D01*
G37*
G36*
X85200100Y-59325100D02*
G01*
X83999900Y-59325100D01*
X83999900Y-58574900D01*
X85200100Y-58574900D01*
X85200100Y-59325100D01*
G37*
G36*
X95325100Y-59200100D02*
G01*
X95074900Y-59200100D01*
X95074900Y-58519900D01*
X95325100Y-58519900D01*
X95325100Y-59200100D01*
G37*
G36*
X92925100Y-59200100D02*
G01*
X92674900Y-59200100D01*
X92674900Y-58519900D01*
X92925100Y-58519900D01*
X92925100Y-59200100D01*
G37*
G36*
X94125100Y-59200100D02*
G01*
X93874900Y-59200100D01*
X93874900Y-58519900D01*
X94125100Y-58519900D01*
X94125100Y-59200100D01*
G37*
G36*
X94925100Y-59200100D02*
G01*
X94674900Y-59200100D01*
X94674900Y-58519900D01*
X94925100Y-58519900D01*
X94925100Y-59200100D01*
G37*
G36*
X94525100Y-59200100D02*
G01*
X94274900Y-59200100D01*
X94274900Y-58519900D01*
X94525100Y-58519900D01*
X94525100Y-59200100D01*
G37*
G36*
X90925100Y-59200100D02*
G01*
X90674900Y-59200100D01*
X90674900Y-58519900D01*
X90925100Y-58519900D01*
X90925100Y-59200100D01*
G37*
G36*
X91725100Y-59200100D02*
G01*
X91474900Y-59200100D01*
X91474900Y-58519900D01*
X91725100Y-58519900D01*
X91725100Y-59200100D01*
G37*
G36*
X92125100Y-59200100D02*
G01*
X91874900Y-59200100D01*
X91874900Y-58519900D01*
X92125100Y-58519900D01*
X92125100Y-59200100D01*
G37*
G36*
X92525100Y-59200100D02*
G01*
X92274900Y-59200100D01*
X92274900Y-58519900D01*
X92525100Y-58519900D01*
X92525100Y-59200100D01*
G37*
G36*
X93725100Y-59200100D02*
G01*
X93474900Y-59200100D01*
X93474900Y-58519900D01*
X93725100Y-58519900D01*
X93725100Y-59200100D01*
G37*
G36*
X93325100Y-59200100D02*
G01*
X93074900Y-59200100D01*
X93074900Y-58519900D01*
X93325100Y-58519900D01*
X93325100Y-59200100D01*
G37*
G36*
X91325100Y-59200100D02*
G01*
X91074900Y-59200100D01*
X91074900Y-58519900D01*
X91325100Y-58519900D01*
X91325100Y-59200100D01*
G37*
G36*
X68070889Y-56692176D02*
G01*
X68150373Y-56725100D01*
X68271093Y-56775104D01*
X68451273Y-56895496D01*
X68604504Y-57048727D01*
X68724896Y-57228907D01*
X68724896Y-57228908D01*
X68807824Y-57429111D01*
X68850100Y-57641650D01*
X68850100Y-57858350D01*
X68807824Y-58070889D01*
X68752539Y-58204358D01*
X68724896Y-58271093D01*
X68604504Y-58451273D01*
X68451273Y-58604504D01*
X68271093Y-58724896D01*
X68204358Y-58752539D01*
X68070889Y-58807824D01*
X67858350Y-58850100D01*
X67641650Y-58850100D01*
X67429111Y-58807824D01*
X67295642Y-58752539D01*
X67228907Y-58724896D01*
X67048727Y-58604504D01*
X66895496Y-58451273D01*
X66775104Y-58271093D01*
X66747461Y-58204358D01*
X66692176Y-58070889D01*
X66649900Y-57858350D01*
X66649900Y-57641650D01*
X66692176Y-57429111D01*
X66775104Y-57228908D01*
X66775104Y-57228907D01*
X66895496Y-57048727D01*
X67048727Y-56895496D01*
X67228907Y-56775104D01*
X67349627Y-56725100D01*
X67429111Y-56692176D01*
X67641650Y-56649900D01*
X67858350Y-56649900D01*
X68070889Y-56692176D01*
G37*
G36*
X61070889Y-56692176D02*
G01*
X61150373Y-56725100D01*
X61271093Y-56775104D01*
X61451273Y-56895496D01*
X61604504Y-57048727D01*
X61724896Y-57228907D01*
X61724896Y-57228908D01*
X61807824Y-57429111D01*
X61850100Y-57641650D01*
X61850100Y-57858350D01*
X61807824Y-58070889D01*
X61752539Y-58204358D01*
X61724896Y-58271093D01*
X61604504Y-58451273D01*
X61451273Y-58604504D01*
X61271093Y-58724896D01*
X61204358Y-58752539D01*
X61070889Y-58807824D01*
X60858350Y-58850100D01*
X60641650Y-58850100D01*
X60429111Y-58807824D01*
X60295642Y-58752539D01*
X60228907Y-58724896D01*
X60048727Y-58604504D01*
X59895496Y-58451273D01*
X59775104Y-58271093D01*
X59747461Y-58204358D01*
X59692176Y-58070889D01*
X59649900Y-57858350D01*
X59649900Y-57641650D01*
X59692176Y-57429111D01*
X59775104Y-57228908D01*
X59775104Y-57228907D01*
X59895496Y-57048727D01*
X60048727Y-56895496D01*
X60228907Y-56775104D01*
X60349627Y-56725100D01*
X60429111Y-56692176D01*
X60641650Y-56649900D01*
X60858350Y-56649900D01*
X61070889Y-56692176D01*
G37*
G36*
X95330100Y-58330100D02*
G01*
X90669900Y-58330100D01*
X90669900Y-53669900D01*
X95330100Y-53669900D01*
X95330100Y-58330100D01*
G37*
G36*
X96200100Y-58325100D02*
G01*
X95519900Y-58325100D01*
X95519900Y-58074900D01*
X96200100Y-58074900D01*
X96200100Y-58325100D01*
G37*
G36*
X90480100Y-58325100D02*
G01*
X89799900Y-58325100D01*
X89799900Y-58074900D01*
X90480100Y-58074900D01*
X90480100Y-58325100D01*
G37*
G36*
X96200100Y-57925100D02*
G01*
X95519900Y-57925100D01*
X95519900Y-57674900D01*
X96200100Y-57674900D01*
X96200100Y-57925100D01*
G37*
G36*
X90480100Y-57925100D02*
G01*
X89799900Y-57925100D01*
X89799900Y-57674900D01*
X90480100Y-57674900D01*
X90480100Y-57925100D01*
G37*
G36*
X85300100Y-57650100D02*
G01*
X84099900Y-57650100D01*
X84099900Y-56449900D01*
X85300100Y-56449900D01*
X85300100Y-57650100D01*
G37*
G36*
X87000100Y-57650100D02*
G01*
X85799900Y-57650100D01*
X85799900Y-56449900D01*
X87000100Y-56449900D01*
X87000100Y-57650100D01*
G37*
G36*
X96200100Y-57525100D02*
G01*
X95519900Y-57525100D01*
X95519900Y-57274900D01*
X96200100Y-57274900D01*
X96200100Y-57525100D01*
G37*
G36*
X90480100Y-57525100D02*
G01*
X89799900Y-57525100D01*
X89799900Y-57274900D01*
X90480100Y-57274900D01*
X90480100Y-57525100D01*
G37*
G36*
X90480100Y-57125100D02*
G01*
X89799900Y-57125100D01*
X89799900Y-56874900D01*
X90480100Y-56874900D01*
X90480100Y-57125100D01*
G37*
G36*
X96200100Y-57125100D02*
G01*
X95519900Y-57125100D01*
X95519900Y-56874900D01*
X96200100Y-56874900D01*
X96200100Y-57125100D01*
G37*
G36*
X90480100Y-56725100D02*
G01*
X89799900Y-56725100D01*
X89799900Y-56474900D01*
X90480100Y-56474900D01*
X90480100Y-56725100D01*
G37*
G36*
X96200100Y-56725100D02*
G01*
X95519900Y-56725100D01*
X95519900Y-56474900D01*
X96200100Y-56474900D01*
X96200100Y-56725100D01*
G37*
G36*
X79050100Y-56450100D02*
G01*
X77949900Y-56450100D01*
X77949900Y-55349900D01*
X79050100Y-55349900D01*
X79050100Y-56450100D01*
G37*
G36*
X90480100Y-56325100D02*
G01*
X89799900Y-56325100D01*
X89799900Y-56074900D01*
X90480100Y-56074900D01*
X90480100Y-56325100D01*
G37*
G36*
X96200100Y-56325100D02*
G01*
X95519900Y-56325100D01*
X95519900Y-56074900D01*
X96200100Y-56074900D01*
X96200100Y-56325100D01*
G37*
G36*
X82050100Y-56100100D02*
G01*
X81149900Y-56100100D01*
X81149900Y-54899900D01*
X82050100Y-54899900D01*
X82050100Y-56100100D01*
G37*
G36*
X90480100Y-55925100D02*
G01*
X89799900Y-55925100D01*
X89799900Y-55674900D01*
X90480100Y-55674900D01*
X90480100Y-55925100D01*
G37*
G36*
X96200100Y-55925100D02*
G01*
X95519900Y-55925100D01*
X95519900Y-55674900D01*
X96200100Y-55674900D01*
X96200100Y-55925100D01*
G37*
G36*
X90480100Y-55525100D02*
G01*
X89799900Y-55525100D01*
X89799900Y-55274900D01*
X90480100Y-55274900D01*
X90480100Y-55525100D01*
G37*
G36*
X96200100Y-55525100D02*
G01*
X95519900Y-55525100D01*
X95519900Y-55274900D01*
X96200100Y-55274900D01*
X96200100Y-55525100D01*
G37*
G36*
X87000100Y-55450100D02*
G01*
X85799900Y-55450100D01*
X85799900Y-54249900D01*
X87000100Y-54249900D01*
X87000100Y-55450100D01*
G37*
G36*
X85300100Y-55450100D02*
G01*
X84099900Y-55450100D01*
X84099900Y-54249900D01*
X85300100Y-54249900D01*
X85300100Y-55450100D01*
G37*
G36*
X62750100Y-55450100D02*
G01*
X60549900Y-55450100D01*
X60549900Y-52649900D01*
X62750100Y-52649900D01*
X62750100Y-55450100D01*
G37*
G36*
X90480100Y-55125100D02*
G01*
X89799900Y-55125100D01*
X89799900Y-54874900D01*
X90480100Y-54874900D01*
X90480100Y-55125100D01*
G37*
G36*
X96200100Y-55125100D02*
G01*
X95519900Y-55125100D01*
X95519900Y-54874900D01*
X96200100Y-54874900D01*
X96200100Y-55125100D01*
G37*
G36*
X90480100Y-54725100D02*
G01*
X89799900Y-54725100D01*
X89799900Y-54474900D01*
X90480100Y-54474900D01*
X90480100Y-54725100D01*
G37*
G36*
X96200100Y-54725100D02*
G01*
X95519900Y-54725100D01*
X95519900Y-54474900D01*
X96200100Y-54474900D01*
X96200100Y-54725100D01*
G37*
G36*
X90480100Y-54325100D02*
G01*
X89799900Y-54325100D01*
X89799900Y-54074900D01*
X90480100Y-54074900D01*
X90480100Y-54325100D01*
G37*
G36*
X96200100Y-54325100D02*
G01*
X95519900Y-54325100D01*
X95519900Y-54074900D01*
X96200100Y-54074900D01*
X96200100Y-54325100D01*
G37*
G36*
X96200100Y-53925100D02*
G01*
X95519900Y-53925100D01*
X95519900Y-53674900D01*
X96200100Y-53674900D01*
X96200100Y-53925100D01*
G37*
G36*
X90480100Y-53925100D02*
G01*
X89799900Y-53925100D01*
X89799900Y-53674900D01*
X90480100Y-53674900D01*
X90480100Y-53925100D01*
G37*
G36*
X82050100Y-53900100D02*
G01*
X81149900Y-53900100D01*
X81149900Y-52699900D01*
X82050100Y-52699900D01*
X82050100Y-53900100D01*
G37*
G36*
X79050100Y-53650100D02*
G01*
X77949900Y-53650100D01*
X77949900Y-52549900D01*
X79050100Y-52549900D01*
X79050100Y-53650100D01*
G37*
G36*
X90925100Y-53480100D02*
G01*
X90674900Y-53480100D01*
X90674900Y-52799900D01*
X90925100Y-52799900D01*
X90925100Y-53480100D01*
G37*
G36*
X94525100Y-53480100D02*
G01*
X94274900Y-53480100D01*
X94274900Y-52799900D01*
X94525100Y-52799900D01*
X94525100Y-53480100D01*
G37*
G36*
X91325100Y-53480100D02*
G01*
X91074900Y-53480100D01*
X91074900Y-52799900D01*
X91325100Y-52799900D01*
X91325100Y-53480100D01*
G37*
G36*
X91725100Y-53480100D02*
G01*
X91474900Y-53480100D01*
X91474900Y-52799900D01*
X91725100Y-52799900D01*
X91725100Y-53480100D01*
G37*
G36*
X92125100Y-53480100D02*
G01*
X91874900Y-53480100D01*
X91874900Y-52799900D01*
X92125100Y-52799900D01*
X92125100Y-53480100D01*
G37*
G36*
X92525100Y-53480100D02*
G01*
X92274900Y-53480100D01*
X92274900Y-52799900D01*
X92525100Y-52799900D01*
X92525100Y-53480100D01*
G37*
G36*
X92925100Y-53480100D02*
G01*
X92674900Y-53480100D01*
X92674900Y-52799900D01*
X92925100Y-52799900D01*
X92925100Y-53480100D01*
G37*
G36*
X93325100Y-53480100D02*
G01*
X93074900Y-53480100D01*
X93074900Y-52799900D01*
X93325100Y-52799900D01*
X93325100Y-53480100D01*
G37*
G36*
X93725100Y-53480100D02*
G01*
X93474900Y-53480100D01*
X93474900Y-52799900D01*
X93725100Y-52799900D01*
X93725100Y-53480100D01*
G37*
G36*
X94125100Y-53480100D02*
G01*
X93874900Y-53480100D01*
X93874900Y-52799900D01*
X94125100Y-52799900D01*
X94125100Y-53480100D01*
G37*
G36*
X94925100Y-53480100D02*
G01*
X94674900Y-53480100D01*
X94674900Y-52799900D01*
X94925100Y-52799900D01*
X94925100Y-53480100D01*
G37*
G36*
X95325100Y-53480100D02*
G01*
X95074900Y-53480100D01*
X95074900Y-52799900D01*
X95325100Y-52799900D01*
X95325100Y-53480100D01*
G37*
G36*
X76200100Y-53450100D02*
G01*
X74999900Y-53450100D01*
X74999900Y-52549900D01*
X76200100Y-52549900D01*
X76200100Y-53450100D01*
G37*
G36*
X74000100Y-53450100D02*
G01*
X72799900Y-53450100D01*
X72799900Y-52549900D01*
X74000100Y-52549900D01*
X74000100Y-53450100D01*
G37*
G36*
X87000100Y-53325100D02*
G01*
X85799900Y-53325100D01*
X85799900Y-52574900D01*
X87000100Y-52574900D01*
X87000100Y-53325100D01*
G37*
G36*
X85100100Y-53325100D02*
G01*
X83899900Y-53325100D01*
X83899900Y-52574900D01*
X85100100Y-52574900D01*
X85100100Y-53325100D01*
G37*
G36*
X98775100Y-51800100D02*
G01*
X98024900Y-51800100D01*
X98024900Y-50599900D01*
X98775100Y-50599900D01*
X98775100Y-51800100D01*
G37*
G36*
X94150100Y-50775100D02*
G01*
X92949900Y-50775100D01*
X92949900Y-50024900D01*
X94150100Y-50024900D01*
X94150100Y-50775100D01*
G37*
G36*
X92250100Y-50775100D02*
G01*
X91049900Y-50775100D01*
X91049900Y-50024900D01*
X92250100Y-50024900D01*
X92250100Y-50775100D01*
G37*
G36*
X58291720Y-48638333D02*
G01*
X58413056Y-48688593D01*
X58473725Y-48713723D01*
X58637527Y-48823172D01*
X58776828Y-48962473D01*
X58886277Y-49126275D01*
X58886277Y-49126276D01*
X58961667Y-49308280D01*
X59000100Y-49501499D01*
X59000100Y-49698501D01*
X58961667Y-49891720D01*
X58911407Y-50013056D01*
X58886277Y-50073725D01*
X58776828Y-50237527D01*
X58637527Y-50376828D01*
X58473725Y-50486277D01*
X58413056Y-50511407D01*
X58291720Y-50561667D01*
X58098501Y-50600100D01*
X57901499Y-50600100D01*
X57708280Y-50561667D01*
X57586944Y-50511407D01*
X57526275Y-50486277D01*
X57362473Y-50376828D01*
X57223172Y-50237527D01*
X57113723Y-50073725D01*
X57088593Y-50013056D01*
X57038333Y-49891720D01*
X56999900Y-49698501D01*
X56999900Y-49501499D01*
X57038333Y-49308280D01*
X57113723Y-49126276D01*
X57113723Y-49126275D01*
X57223172Y-48962473D01*
X57362473Y-48823172D01*
X57526275Y-48713723D01*
X57586944Y-48688593D01*
X57708280Y-48638333D01*
X57901499Y-48599900D01*
X58098501Y-48599900D01*
X58291720Y-48638333D01*
G37*
G36*
X98775100Y-49900100D02*
G01*
X98024900Y-49900100D01*
X98024900Y-48699900D01*
X98775100Y-48699900D01*
X98775100Y-49900100D01*
G37*
G36*
X76700100Y-49650100D02*
G01*
X75499900Y-49650100D01*
X75499900Y-48749900D01*
X76700100Y-48749900D01*
X76700100Y-49650100D01*
G37*
G36*
X74500100Y-49650100D02*
G01*
X73299900Y-49650100D01*
X73299900Y-48749900D01*
X74500100Y-48749900D01*
X74500100Y-49650100D01*
G37*
G36*
X71750100Y-49575100D02*
G01*
X70549900Y-49575100D01*
X70549900Y-48824900D01*
X71750100Y-48824900D01*
X71750100Y-49575100D01*
G37*
G36*
X69850100Y-49575100D02*
G01*
X68649900Y-49575100D01*
X68649900Y-48824900D01*
X69850100Y-48824900D01*
X69850100Y-49575100D01*
G37*
G36*
X93100100Y-49200100D02*
G01*
X91899900Y-49200100D01*
X91899900Y-48299900D01*
X93100100Y-48299900D01*
X93100100Y-49200100D01*
G37*
G36*
X90900100Y-49200100D02*
G01*
X89699900Y-49200100D01*
X89699900Y-48299900D01*
X90900100Y-48299900D01*
X90900100Y-49200100D01*
G37*
G36*
X65000100Y-47700100D02*
G01*
X62139900Y-47700100D01*
X62139900Y-46499900D01*
X65000100Y-46499900D01*
X65000100Y-47700100D01*
G37*
G36*
X72350100Y-47200100D02*
G01*
X71549900Y-47200100D01*
X71549900Y-46199900D01*
X72350100Y-46199900D01*
X72350100Y-47200100D01*
G37*
G36*
X71300100Y-47200100D02*
G01*
X70699900Y-47200100D01*
X70699900Y-46199900D01*
X71300100Y-46199900D01*
X71300100Y-47200100D01*
G37*
G36*
X70450100Y-47200100D02*
G01*
X69649900Y-47200100D01*
X69649900Y-46199900D01*
X70450100Y-46199900D01*
X70450100Y-47200100D01*
G37*
G36*
X68125100Y-47050100D02*
G01*
X67374900Y-47050100D01*
X67374900Y-45849900D01*
X68125100Y-45849900D01*
X68125100Y-47050100D01*
G37*
G36*
X76600100Y-47000100D02*
G01*
X75699900Y-47000100D01*
X75699900Y-45799900D01*
X76600100Y-45799900D01*
X76600100Y-47000100D01*
G37*
G36*
X74525100Y-46850100D02*
G01*
X73774900Y-46850100D01*
X73774900Y-45649900D01*
X74525100Y-45649900D01*
X74525100Y-46850100D01*
G37*
G36*
X90300100Y-46800100D02*
G01*
X89199900Y-46800100D01*
X89199900Y-45699900D01*
X90300100Y-45699900D01*
X90300100Y-46800100D01*
G37*
G36*
X93100100Y-46800100D02*
G01*
X91999900Y-46800100D01*
X91999900Y-45699900D01*
X93100100Y-45699900D01*
X93100100Y-46800100D01*
G37*
G36*
X88350100Y-46575100D02*
G01*
X87149900Y-46575100D01*
X87149900Y-45824900D01*
X88350100Y-45824900D01*
X88350100Y-46575100D01*
G37*
G36*
X86450100Y-46575100D02*
G01*
X85249900Y-46575100D01*
X85249900Y-45824900D01*
X86450100Y-45824900D01*
X86450100Y-46575100D01*
G37*
G36*
X65000100Y-45300100D02*
G01*
X62139900Y-45300100D01*
X62139900Y-44099900D01*
X65000100Y-44099900D01*
X65000100Y-45300100D01*
G37*
G36*
X68125100Y-45150100D02*
G01*
X67374900Y-45150100D01*
X67374900Y-43949900D01*
X68125100Y-43949900D01*
X68125100Y-45150100D01*
G37*
G36*
X74525100Y-44950100D02*
G01*
X73774900Y-44950100D01*
X73774900Y-43749900D01*
X74525100Y-43749900D01*
X74525100Y-44950100D01*
G37*
G36*
X76600100Y-44800100D02*
G01*
X75699900Y-44800100D01*
X75699900Y-43599900D01*
X76600100Y-43599900D01*
X76600100Y-44800100D01*
G37*
G36*
X70450100Y-44800100D02*
G01*
X69649900Y-44800100D01*
X69649900Y-43799900D01*
X70450100Y-43799900D01*
X70450100Y-44800100D01*
G37*
G36*
X72350100Y-44800100D02*
G01*
X71549900Y-44800100D01*
X71549900Y-43799900D01*
X72350100Y-43799900D01*
X72350100Y-44800100D01*
G37*
G36*
X97966733Y-40961391D02*
G01*
X98257931Y-41082010D01*
X98520004Y-41257121D01*
X98742879Y-41479996D01*
X98907437Y-41726275D01*
X98917990Y-41742069D01*
X99038609Y-42033267D01*
X99100100Y-42342404D01*
X99100100Y-42657596D01*
X99038609Y-42966733D01*
X98917990Y-43257931D01*
X98742879Y-43520004D01*
X98520004Y-43742879D01*
X98257931Y-43917990D01*
X97966733Y-44038609D01*
X97657596Y-44100100D01*
X97342404Y-44100100D01*
X97033267Y-44038609D01*
X96742069Y-43917990D01*
X96479996Y-43742879D01*
X96257121Y-43520004D01*
X96082010Y-43257931D01*
X95961391Y-42966733D01*
X95899900Y-42657596D01*
X95899900Y-42342404D01*
X95961391Y-42033267D01*
X96082010Y-41742069D01*
X96092563Y-41726275D01*
X96257121Y-41479996D01*
X96479996Y-41257121D01*
X96742069Y-41082010D01*
X97033267Y-40961391D01*
X97342404Y-40899900D01*
X97657596Y-40899900D01*
X97966733Y-40961391D01*
G37*
G36*
X83966733Y-40961391D02*
G01*
X84257931Y-41082010D01*
X84520004Y-41257121D01*
X84742879Y-41479996D01*
X84907437Y-41726275D01*
X84917990Y-41742069D01*
X85038609Y-42033267D01*
X85100100Y-42342404D01*
X85100100Y-42657596D01*
X85038609Y-42966733D01*
X84917990Y-43257931D01*
X84742879Y-43520004D01*
X84520004Y-43742879D01*
X84257931Y-43917990D01*
X83966733Y-44038609D01*
X83657596Y-44100100D01*
X83342404Y-44100100D01*
X83033267Y-44038609D01*
X82742069Y-43917990D01*
X82479996Y-43742879D01*
X82257121Y-43520004D01*
X82082010Y-43257931D01*
X81961391Y-42966733D01*
X81899900Y-42657596D01*
X81899900Y-42342404D01*
X81961391Y-42033267D01*
X82082010Y-41742069D01*
X82092563Y-41726275D01*
X82257121Y-41479996D01*
X82479996Y-41257121D01*
X82742069Y-41082010D01*
X83033267Y-40961391D01*
X83342404Y-40899900D01*
X83657596Y-40899900D01*
X83966733Y-40961391D01*
G37*
G36*
X58291720Y-41238333D02*
G01*
X58413056Y-41288593D01*
X58473725Y-41313723D01*
X58637527Y-41423172D01*
X58776828Y-41562473D01*
X58886277Y-41726275D01*
X58886277Y-41726276D01*
X58961667Y-41908280D01*
X59000100Y-42101499D01*
X59000100Y-42298501D01*
X58961667Y-42491720D01*
X58911407Y-42613056D01*
X58886277Y-42673725D01*
X58776828Y-42837527D01*
X58637527Y-42976828D01*
X58473725Y-43086277D01*
X58413056Y-43111407D01*
X58291720Y-43161667D01*
X58098501Y-43200100D01*
X57901499Y-43200100D01*
X57708280Y-43161667D01*
X57586944Y-43111407D01*
X57526275Y-43086277D01*
X57362473Y-42976828D01*
X57223172Y-42837527D01*
X57113723Y-42673725D01*
X57088593Y-42613056D01*
X57038333Y-42491720D01*
X56999900Y-42298501D01*
X56999900Y-42101499D01*
X57038333Y-41908280D01*
X57113723Y-41726276D01*
X57113723Y-41726275D01*
X57223172Y-41562473D01*
X57362473Y-41423172D01*
X57526275Y-41313723D01*
X57586944Y-41288593D01*
X57708280Y-41238333D01*
X57901499Y-41199900D01*
X58098501Y-41199900D01*
X58291720Y-41238333D01*
G37*
G36*
X68100100Y-42250100D02*
G01*
X66899900Y-42250100D01*
X66899900Y-41349900D01*
X68100100Y-41349900D01*
X68100100Y-42250100D01*
G37*
G36*
X70300100Y-42250100D02*
G01*
X69099900Y-42250100D01*
X69099900Y-41349900D01*
X70300100Y-41349900D01*
X70300100Y-42250100D01*
G37*
M02*
